<?xml version="1.0" encoding="UTF-8"?>
<!-- Generated by jsxcad -->
<!DOCTYPE svg PUBLIC "-//W3C//DTD SVG 1.1 Tiny//EN" "http://www.w3.org/Graphics/SVG/1.1/DTD/svg11-tiny.dtd">
<svg viewBox="-250 -250 500 500" width="500" height="500" xmlns="http://www.w3.org/2000/svg"><path d="M46.116002463462934,85.24890970431736L47.39280312372857,94.27319101485323L50.076297286876624,92.97876515852795z" style="fill:rgb(162,50,222)"/><path d="M43.41093555341778,86.55446580408199L44.938570616446135,95.93507109068652L47.39280312372857,94.27319101485323z" style="fill:rgb(183,62,221)"/><path d="M48.94996969441421,84.35918638850377L50.076297286876624,92.97876515852795L52.88928915161372,92.1000303951221z" style="fill:rgb(139,40,220)"/><path d="M44.938570616446135,95.93507109068652L38.78152987376084,90.20528439175054L42.805211473367855,97.90291197291604z" style="fill:rgb(203,77,216)"/><path d="M51.80749059053245,83.91903309861037L52.88928915161372,92.1000303951221L55.7271792956001,91.67031573654153z" style="fill:rgb(115,34,214)"/><path d="M42.805211473367855,97.90291197291604L37.030626599668096,92.4155679426018L41.07302737808298,100.10397300969416z" style="fill:rgb(220,94,208)"/><path d="M54.58190614637853,83.94608306799046L55.7271792956001,91.67031573654153L58.48402134171404,91.70685963648025z" style="fill:rgb(92,32,204)"/><path d="M47.39280312372857,94.27319101485323L46.116002463462934,85.24890970431736L43.41093555341778,86.55446580408199z" style="fill:rgb(162,50,222)"/><path d="M44.938570616446135,95.93507109068652L43.41093555341778,86.55446580408199L40.93532261552251,88.2272170447215z" style="fill:rgb(183,62,221)"/><path d="M50.076297286876624,92.97876515852795L48.94996969441421,84.35918638850377L46.116002463462934,85.24890970431736z" style="fill:rgb(139,40,220)"/><path d="M41.07302737808298,100.10397300969416L35.749505423140164,94.77610624572465L39.80821722914971,102.45661728379471z" style="fill:rgb(233,112,197)"/><path d="M38.78152987376084,90.20528439175054L44.938570616446135,95.93507109068652L40.93532261552251,88.2272170447215z" style="fill:rgb(203,77,216)"/><path d="M52.88928915161372,92.1000303951221L51.80749059053245,83.91903309861037L48.94996969441421,84.35918638850377z" style="fill:rgb(115,34,214)"/><path d="M57.16890918985714,84.44108238656844L58.48402134171404,91.70685963648025L61.056160269311654,92.21003339153518z" style="fill:rgb(71,33,192)"/><path d="M37.030626599668096,92.4155679426018L42.805211473367855,97.90291197291604L38.78152987376084,90.20528439175054z" style="fill:rgb(220,94,208)"/><path d="M55.7271792956001,91.67031573654153L54.58190614637853,83.94608306799046L51.80749059053245,83.91903309861037z" style="fill:rgb(92,32,204)"/><path d="M39.80821722914971,102.45661728379471L34.9883944773316,97.19881765465247L39.060372368474134,104.87304433179457z" style="fill:rgb(242,130,183)"/><path d="M63.345828277741376,93.16304124735548L57.16890918985714,84.44108238656844L61.056160269311654,92.21003339153518z" style="fill:rgb(51,38,177)"/><path d="M35.749505423140164,94.77610624572465L41.07302737808298,100.10397300969416L37.030626599668096,92.4155679426018z" style="fill:rgb(233,112,197)"/><path d="M58.48402134171404,91.70685963648025L57.16890918985714,84.44108238656844L54.58190614637853,83.94608306799046z" style="fill:rgb(71,33,192)"/><path d="M39.060372368474134,104.87304433179457L34.778772130820826,99.5924646443923L38.860440576474296,107.26224739876676z" style="fill:rgb(246,149,167)"/><path d="M65.26477334922531,94.53223845200783L59.470182690885814,85.3875702273316L63.345828277741376,93.16304124735548z" style="fill:rgb(34,46,160)"/><path d="M34.9883944773316,97.19881765465247L39.80821722914971,102.45661728379471L35.749505423140164,94.77610624572465z" style="fill:rgb(242,130,183)"/><path d="M34.778772130820826,99.5924646443923L39.219211117578396,109.53320413513954L38.860440576474296,107.26224739876676z" style="fill:rgb(246,167,149)"/><path d="M57.16890918985714,84.44108238656844L63.345828277741376,93.16304124735548L59.470182690885814,85.3875702273316z" style="fill:rgb(51,38,177)"/><path d="M34.778772130820826,99.5924646443923L39.060372368474134,104.87304433179457L34.9883944773316,97.19881765465247z" style="fill:rgb(246,149,167)"/><path d="M66.73764027319912,96.26794277182663L61.39700057027205,86.75218234156196L65.26477334922531,94.53223845200783z" style="fill:rgb(21,57,142)"/><path d="M59.470182690885814,85.3875702273316L65.26477334922531,94.53223845200783L61.39700057027205,86.75218234156196z" style="fill:rgb(34,46,160)"/><path d="M35.131845060823174,101.86585160716464L40.12644215470804,111.59828597862594L39.219211117578396,109.53320413513954zM67.33902562571681,85.91536213164157L71.41537669472443,94.23653563292223L71.16563743750075,93.7170341783268zM67.58868745218346,86.43479083483577L72.46903225991441,96.42828533067188L71.41537669472443,94.23653563292223z" style="fill:rgb(242,183,130)"/><path d="M39.219211117578396,109.53320413513954L34.778772130820826,99.5924646443923L35.131845060823174,101.86585160716464z" style="fill:rgb(246,167,149)"/><path d="M61.39700057027205,86.75218234156196L66.73764027319912,96.26794277182663L62.87367666134661,88.48544694608051zM37.20870513778649,116.07993996547627L31.557630550418153,106.50976538371663L35.68402475235588,114.1575020173672z" style="fill:rgb(21,57,142)"/><path d="M68.64204130673595,88.6262852299662L72.57942887593917,97.0062670594118L72.46903225991441,96.42828533067188z" style="fill:rgb(246,167,149)"/><path d="M71.41537669472443,94.23653563292223L67.33902562571681,85.91536213164157L67.58868745218346,86.43479083483577zM40.12644215470804,111.59828597862594L35.131845060823174,101.86585160716464L36.037641378263835,103.93124152099175z" style="fill:rgb(242,183,130)"/><path d="M68.75125992625068,89.20479046134012L73.0451538055774,99.44460984005427L72.57942887593917,97.0062670594118z" style="fill:rgb(246,167,149)"/><path d="M37.5721666162554,116.53822487767455L33.08531687891424,108.4303074487027L37.20870513778649,116.07993996547627z" style="fill:rgb(21,57,142)"/><path d="M72.46903225991441,96.42828533067188L67.58868745218346,86.43479083483577L68.64204130673595,88.6262852299662z" style="fill:rgb(242,183,130)"/><path d="M40.084664567577896,118.44446230652156L33.44950352804119,108.88815126212309L37.5721666162554,116.53822487767455z" style="fill:rgb(34,46,160)"/><path d="M72.57942887593917,97.0062670594118L68.64204130673595,88.6262852299662L68.75125992625068,89.20479046134012z" style="fill:rgb(246,167,149)"/><path d="M73.0451538055774,99.44460984005427L69.1753689568102,92.26099088085222L73.01071403142964,100.05909571081071z" style="fill:rgb(246,149,167)"/><path d="M31.557630550418153,106.50976538371663L37.20870513778649,116.07993996547627L33.08531687891424,108.4303074487027zM33.08531687891424,108.4303074487027L37.5721666162554,116.53822487767455L33.44950352804119,108.88815126212309z" style="fill:rgb(21,57,142)"/><path d="M73.01071403142964,100.05909571081071L69.02065101956362,94.85762186335863L72.86545992408996,102.65100263095475z" style="fill:rgb(246,149,167)"/><path d="M73.0451538055774,99.44460984005427L68.75125992625068,89.20479046134012L69.21205159807474,91.64539844770445z" style="fill:rgb(246,167,149)"/><path d="M43.12813773563004,119.79771984778132L35.97154085622204,110.78922989832827L40.084664567577896,118.44446230652156z" style="fill:rgb(51,38,177)"/><path d="M69.1753689568102,92.26099088085222L73.0451538055774,99.44460984005427L69.21205159807474,91.64539844770445z" style="fill:rgb(246,149,167)"/><path d="M72.86545992408996,102.65100263095475L68.83829760642891,95.48648306005664L72.68634977136539,103.2782142235721z" style="fill:rgb(242,130,183)"/><path d="M33.44950352804119,108.88815126212309L40.084664567577896,118.44446230652156L35.97154085622204,110.78922989832827z" style="fill:rgb(34,46,160)"/><path d="M69.02065101956362,94.85762186335863L73.01071403142964,100.05909571081071L69.1753689568102,92.26099088085222z" style="fill:rgb(246,149,167)"/><path d="M72.68634977136539,103.2782142235721L68.06933341002768,98.13829347488274L71.9310769173035,105.92301691344196z" style="fill:rgb(242,130,183)"/><path d="M71.9310769173035,105.92301691344196L67.74740132073653,98.75566780928035L71.6132754895443,106.53826444955317z" style="fill:rgb(233,112,197)"/><path d="M68.83829760642891,95.48648306005664L72.86545992408996,102.65100263095475L69.02065101956362,94.85762186335863z" style="fill:rgb(242,130,183)"/><path d="M42.50831640532722,112.86717288937639L43.12813773563004,119.79771984778132L46.58640053270764,120.54053735227427z" style="fill:rgb(71,33,192)"/><path d="M35.97154085622204,110.78922989832827L43.12813773563004,119.79771984778132L39.03005666299878,112.13464239312248z" style="fill:rgb(51,38,177)"/><path d="M71.6132754895443,106.53826444955317L66.39035736524153,101.35810469527532L70.27367076101966,109.131693359773z" style="fill:rgb(233,112,197)"/><path d="M68.06933341002768,98.13829347488274L72.68634977136539,103.2782142235721L68.83829760642891,95.48648306005664z" style="fill:rgb(242,130,183)"/><path d="M58.6946417329378,68.29126195835299L68.64204130673595,88.6262852299662L67.33902562571681,85.91536213164157z" style="fill:rgb(242,183,130)"/><path d="M70.27367076101966,109.131693359773L65.94072079195676,101.93940301160346L69.82889318612995,109.71047629330077z" style="fill:rgb(220,94,208)"/><path d="M46.27087631909273,112.95381762283505L46.58640053270764,120.54053735227427L50.32477184766197,120.63955832530705z" style="fill:rgb(92,32,204)"/><path d="M43.12813773563004,119.79771984778132L42.50831640532722,112.86717288937639L39.03005666299878,112.13464239312248z" style="fill:rgb(71,33,192)"/><path d="M67.74740132073653,98.75566780928035L71.9310769173035,105.92301691344196L68.06933341002768,98.13829347488274z" style="fill:rgb(233,112,197)"/><path d="M69.82889318612995,109.71047629330077L64.04620453115544,104.3886076613668L67.9548944312286,112.14905101625357z" style="fill:rgb(220,94,208)"/><path d="M67.9548944312286,112.14905101625357L63.48612328248765,104.91040058529946L67.40022551534892,112.66804778284235z" style="fill:rgb(203,77,216)"/><path d="M66.39035736524153,101.35810469527532L71.6132754895443,106.53826444955317L67.74740132073653,98.75566780928035z" style="fill:rgb(233,112,197)"/><path d="M33.44950352804119,108.88815126212309L22.235576350522155,89.23254124913201L31.557630550418153,106.50976538371663z" style="fill:rgb(21,57,142)"/><path d="M50.169011241763606,112.38783743936318L50.32477184766197,120.63955832530705L54.19551950396889,120.087589136011z" style="fill:rgb(115,34,214)"/><path d="M67.40022551534892,112.66804778284235L61.127502603280085,107.10778771512602L65.06439014701064,114.85363876043917z" style="fill:rgb(203,77,216)"/><path d="M61.127502603280085,107.10778771512602L64.42160994093926,115.29182980918088L65.06439014701064,114.85363876043917z" style="fill:rgb(183,62,221)"/><path d="M46.58640053270764,120.54053735227427L46.27087631909273,112.95381762283505L42.50831640532722,112.86717288937639z" style="fill:rgb(92,32,204)"/><path d="M54.04710281572683,111.18952127667689L54.19551950396889,120.087589136011L58.044152682588766,118.90437414011619z" style="fill:rgb(139,40,220)"/><path d="M59.99613101980308,71.00007854527978L69.21205159807474,91.64539844770445L68.64204130673595,88.6262852299662z" style="fill:rgb(246,167,149)"/><path d="M60.47899073982938,107.54893675282742L62.35950629008124,116.6976034208362L64.42160994093926,115.29182980918088z" style="fill:rgb(183,62,221)"/><path d="M65.94072079195676,101.93940301160346L70.27367076101966,109.131693359773L66.39035736524153,101.35810469527532z" style="fill:rgb(220,94,208)"/><path d="M58.39849306084795,108.96420507443607L61.71623763762609,117.13613736761745L62.35950629008124,116.6976034208362z" style="fill:rgb(183,62,221)"/><path d="M57.74948399342546,109.40570162205745L58.044152682588766,118.90437414011619L61.71623763762609,117.13613736761745z" style="fill:rgb(162,50,222)"/><path d="M64.04620453115544,104.3886076613668L69.82889318612995,109.71047629330077L65.94072079195676,101.93940301160346z" style="fill:rgb(220,94,208)"/><path d="M50.32477184766197,120.63955832530705L50.169011241763606,112.38783743936318L46.27087631909273,112.95381762283505z" style="fill:rgb(115,34,214)"/><path d="M63.48612328248765,104.91040058529946L67.9548944312286,112.14905101625357L64.04620453115544,104.3886076613668z" style="fill:rgb(203,77,216)"/><path d="M35.97154085622204,110.78922989832827L24.135163197811806,91.60432020458678L33.44950352804119,108.88815126212309z" style="fill:rgb(34,46,160)"/><path d="M61.127502603280085,107.10778771512602L67.40022551534892,112.66804778284235L63.48612328248765,104.91040058529946z" style="fill:rgb(203,77,216)"/><path d="M54.19551950396889,120.087589136011L54.04710281572683,111.18952127667689L50.169011241763606,112.38783743936318z" style="fill:rgb(139,40,220)"/><path d="M64.42160994093926,115.29182980918088L61.127502603280085,107.10778771512602L60.47899073982938,107.54893675282742zM62.35950629008124,116.6976034208362L60.47899073982938,107.54893675282742L58.39849306084795,108.96420507443607z" style="fill:rgb(183,62,221)"/><path d="M58.044152682588766,118.90437414011619L57.74948399342546,109.40570162205745L54.04710281572683,111.18952127667689z" style="fill:rgb(162,50,222)"/><path d="M23.756482551295303,73.83193042968796L26.67806383526863,93.49247618854683L26.146133016399812,70.86963552666143zM26.146133016399812,70.86963552666143L29.76994875247884,94.81900512319567L29.0726861631497,68.21346822736486z" style="fill:rgb(83,212,212)"/><path d="M61.71623763762609,117.13613736761745L58.39849306084795,108.96420507443607L57.74948399342546,109.40570162205745z" style="fill:rgb(183,62,221)"/><path d="M21.99478593002871,76.99191998440936L24.135163197811806,91.60432020458678L23.756482551295303,73.83193042968796zM29.0726861631497,68.21346822736486L33.29287532558559,95.52728939877002L32.42684122332655,65.96022900224669z" style="fill:rgb(83,212,212)"/><path d="M69.21205159807474,91.64539844770445L60.33320792644942,77.24829616558756L69.02065101956362,94.85762186335863z" style="fill:rgb(246,149,167)"/><path d="M20.930485026992095,80.23290374520177L22.235576350522155,89.23254124913201L21.99478593002871,76.99191998440936zM32.42684122332655,65.96022900224669L37.10965699497094,95.58516155393832L36.084776117329405,64.19214706281215z" style="fill:rgb(83,212,212)"/><path d="M68.64204130673595,88.6262852299662L58.6946417329378,68.29126195835299L59.99613101980308,71.00007854527978z" style="fill:rgb(242,183,130)"/><path d="M21.046954081787334,86.47272704999439L20.930485026992095,80.23290374520177L20.608506489426297,83.43368967342322zM36.084776117329405,64.19214706281215L41.06938605907102,94.9869457549135L39.9121518751874,62.974342218259885z" style="fill:rgb(83,212,212)"/><path d="M39.03005666299878,112.13464239312248L26.67806383526863,93.49247618854683L35.97154085622204,110.78922989832827z" style="fill:rgb(51,38,177)"/><path d="M39.9121518751874,62.974342218259885L45.01388333222166,93.75419234353463L43.76836630327085,62.352746491868906z" style="fill:rgb(83,212,212)"/><path d="M22.235576350522155,89.23254124913201L33.44950352804119,108.88815126212309L24.135163197811806,91.60432020458678z" style="fill:rgb(21,57,142)"/><path d="M69.02065101956362,94.85762186335863L59.34306831070236,80.547399585467L68.06933341002768,98.13829347488274z" style="fill:rgb(242,130,183)"/><path d="M43.76836630327085,62.352746491868906L48.784708080943254,91.93509694006706L47.51099850647581,62.352488438140284zM20.930485026992095,80.23290374520177L21.046954081787334,86.47272704999439L22.235576350522155,89.23254124913201z" style="fill:rgb(83,212,212)"/><path d="M69.21205159807474,91.64539844770445L59.99613101980308,71.00007854527978L60.551677757803795,74.02415510441317z" style="fill:rgb(246,167,149)"/><path d="M21.99478593002871,76.99191998440936L22.235576350522155,89.23254124913201L24.135163197811806,91.60432020458678zM47.51099850647581,62.352488438140284L48.784708080943254,91.93509694006706L51.000432633766856,62.97672170499427z" style="fill:rgb(83,212,212)"/><path d="M33.29287532558559,95.52728939877002L39.03005666299878,112.13464239312248L42.50831640532722,112.86717288937639z" style="fill:rgb(71,33,192)"/><path d="M68.06933341002768,98.13829347488274L57.614894490424625,83.7914293079151L66.39035736524153,101.35810469527532z" style="fill:rgb(233,112,197)"/><path d="M23.756482551295303,73.83193042968796L24.135163197811806,91.60432020458678L26.67806383526863,93.49247618854683z" style="fill:rgb(83,212,212)"/><path d="M24.135163197811806,91.60432020458678L35.97154085622204,110.78922989832827L26.67806383526863,93.49247618854683z" style="fill:rgb(34,46,160)"/><path d="M51.000432633766856,62.97672170499427L52.230337378855985,89.60256909944796L54.104566452140126,64.2060831197016z" style="fill:rgb(83,212,212)"/><path d="M60.33320792644942,77.24829616558756L69.21205159807474,91.64539844770445L60.551677757803795,74.02415510441317z" style="fill:rgb(246,149,167)"/><path d="M37.10965699497094,95.58516155393832L42.50831640532722,112.86717288937639L46.27087631909273,112.95381762283505z" style="fill:rgb(92,32,204)"/><path d="M54.104566452140126,64.2060831197016L57.614894490424625,83.7914293079151L56.70359987020406,65.99876069242069z" style="fill:rgb(83,212,212)"/><path d="M66.39035736524153,101.35810469527532L55.213010031123396,86.85089889356479L64.04620453115544,104.3886076613668z" style="fill:rgb(220,94,208)"/><path d="M26.146133016399812,70.86963552666143L26.67806383526863,93.49247618854683L29.76994875247884,94.81900512319567z" style="fill:rgb(83,212,212)"/><path d="M41.06938605907102,94.9869457549135L46.27087631909273,112.95381762283505L50.169011241763606,112.38783743936318z" style="fill:rgb(115,34,214)"/><path d="M56.70359987020406,65.99876069242069L59.34306831070236,80.547399585467L58.6946417329378,68.29126195835299z" style="fill:rgb(83,212,212)"/><path d="M64.04620453115544,104.3886076613668L52.230337378855985,89.60256909944796L61.127502603280085,107.10778771512602z" style="fill:rgb(203,77,216)"/><path d="M29.0726861631497,68.21346822736486L29.76994875247884,94.81900512319567L33.29287532558559,95.52728939877002z" style="fill:rgb(83,212,212)"/><path d="M26.67806383526863,93.49247618854683L39.03005666299878,112.13464239312248L29.76994875247884,94.81900512319567z" style="fill:rgb(51,38,177)"/><path d="M59.34306831070236,80.547399585467L69.02065101956362,94.85762186335863L60.33320792644942,77.24829616558756z" style="fill:rgb(242,130,183)"/><path d="M45.01388333222166,93.75419234353463L50.169011241763606,112.38783743936318L54.04710281572683,111.18952127667689z" style="fill:rgb(139,40,220)"/><path d="M52.230337378855985,89.60256909944796L57.74948399342546,109.40570162205745L61.127502603280085,107.10778771512602z" style="fill:rgb(183,62,221)"/><path d="M48.784708080943254,91.93509694006706L54.04710281572683,111.18952127667689L57.74948399342546,109.40570162205745z" style="fill:rgb(162,50,222)"/><path d="M58.6946417329378,68.29126195835299L60.33320792644942,77.24829616558756L59.99613101980308,71.00007854527978zM32.42684122332655,65.96022900224669L33.29287532558559,95.52728939877002L37.10965699497094,95.58516155393832z" style="fill:rgb(83,212,212)"/><path d="M39.03005666299878,112.13464239312248L33.29287532558559,95.52728939877002L29.76994875247884,94.81900512319567z" style="fill:rgb(71,33,192)"/><path d="M36.084776117329405,64.19214706281215L37.10965699497094,95.58516155393832L41.06938605907102,94.9869457549135z" style="fill:rgb(83,212,212)"/><path d="M57.614894490424625,83.7914293079151L68.06933341002768,98.13829347488274L59.34306831070236,80.547399585467z" style="fill:rgb(233,112,197)"/><path d="M59.99613101980308,71.00007854527978L60.33320792644942,77.24829616558756L60.551677757803795,74.02415510441317zM39.9121518751874,62.974342218259885L41.06938605907102,94.9869457549135L45.01388333222166,93.75419234353463zM58.6946417329378,68.29126195835299L59.34306831070236,80.547399585467L60.33320792644942,77.24829616558756zM43.76836630327085,62.352746491868906L45.01388333222166,93.75419234353463L48.784708080943254,91.93509694006706z" style="fill:rgb(83,212,212)"/><path d="M42.50831640532722,112.86717288937639L37.10965699497094,95.58516155393832L33.29287532558559,95.52728939877002z" style="fill:rgb(92,32,204)"/><path d="M56.70359987020406,65.99876069242069L57.614894490424625,83.7914293079151L59.34306831070236,80.547399585467zM54.104566452140126,64.2060831197016L55.213010031123396,86.85089889356479L57.614894490424625,83.7914293079151z" style="fill:rgb(83,212,212)"/><path d="M55.213010031123396,86.85089889356479L66.39035736524153,101.35810469527532L57.614894490424625,83.7914293079151z" style="fill:rgb(220,94,208)"/><path d="M51.000432633766856,62.97672170499427L48.784708080943254,91.93509694006706L52.230337378855985,89.60256909944796zM54.104566452140126,64.2060831197016L52.230337378855985,89.60256909944796L55.213010031123396,86.85089889356479z" style="fill:rgb(83,212,212)"/><path d="M46.27087631909273,112.95381762283505L41.06938605907102,94.9869457549135L37.10965699497094,95.58516155393832z" style="fill:rgb(115,34,214)"/><path d="M52.230337378855985,89.60256909944796L64.04620453115544,104.3886076613668L55.213010031123396,86.85089889356479z" style="fill:rgb(203,77,216)"/><path d="M50.169011241763606,112.38783743936318L45.01388333222166,93.75419234353463L41.06938605907102,94.9869457549135z" style="fill:rgb(139,40,220)"/><path d="M57.74948399342546,109.40570162205745L52.230337378855985,89.60256909944796L48.784708080943254,91.93509694006706z" style="fill:rgb(183,62,221)"/><path d="M54.04710281572683,111.18952127667689L48.784708080943254,91.93509694006706L45.01388333222166,93.75419234353463z" style="fill:rgb(162,50,222)"/><path d="M20.028429705884495,94.83306046224033L-74.68738891662451,-77.33825850954734L17.66839813717578,91.85582843049431z" style="fill:rgb(21,57,142)"/><path d="M-19.18683760983668,-104.46745415060664L65.59980632863775,72.8349501932707L64.88679381082684,69.05724951305314z" style="fill:rgb(246,167,149)"/><path d="M23.198029818686685,97.20849788378423L-72.30471517863992,-74.56044667460534L20.028429705884495,94.83306046224033z" style="fill:rgb(34,46,160)"/><path d="M65.59980632863775,72.8349501932707L-19.34613209731107,-96.69113038462638L65.3433585368835,76.86879689606826z" style="fill:rgb(246,149,167)"/><path d="M27.060767723193354,98.88233834009964L-68.94637767030709,-72.4567158529061L23.198029818686685,97.20849788378423z" style="fill:rgb(51,38,177)"/><path d="M65.3433585368835,76.86879689606826L-21.09705820012422,-92.4348440160492L64.11779575983658,81.00194567041858z" style="fill:rgb(242,130,183)"/><path d="M-59.82433293057553,-70.6080489480734L27.060767723193354,98.88233834009964L31.46964461534901,99.78138884176623z" style="fill:rgb(71,33,192)"/><path d="M64.11779575983658,81.00194567041858L-23.89971801215139,-88.15429018203405L61.96322655851459,85.07049870202404z" style="fill:rgb(233,112,197)"/><path d="M-54.411024007459375,-70.95374349611336L31.46964461534901,99.78138884176623L36.25245051496092,99.86332867240534z" style="fill:rgb(92,32,204)"/><path d="M61.96322655851459,85.07049870202404L-27.650103450107807,-84.02254909827461L58.95913446082111,88.91055073178416z" style="fill:rgb(220,94,208)"/><path d="M-48.709589735362606,-72.14818778689249L36.25245051496092,99.86332867240534L41.218775926076674,99.11952718237724z" style="fill:rgb(115,34,214)"/><path d="M58.95913446082111,88.91055073178416L-32.20196028474242,-80.20902349328189L55.22187889271498,92.36564200053229z" style="fill:rgb(203,77,216)"/><path d="M-32.20196028474242,-80.20902349328189L50.90011577160829,95.29418152869405L55.22187889271498,92.36564200053229z" style="fill:rgb(183,62,221)"/><path d="M-42.951515715478045,-74.1471993229979L41.218775926076674,99.11952718237724L46.168329111029976,97.57627137436705z" style="fill:rgb(139,40,220)"/><path d="M-37.37268226831059,-76.87127553534083L46.168329111029976,97.57627137436705L50.90011577160829,95.29418152869405z" style="fill:rgb(162,50,222)"/><path d="M-74.68738891662451,-77.33825850954734L20.028429705884495,94.83306046224033L-72.30471517863992,-74.56044667460534z" style="fill:rgb(21,57,142)"/><path d="M65.59980632863775,72.8349501932707L-19.18683760983668,-104.46745415060664L-18.70536879595829,-100.75440571877704z" style="fill:rgb(246,167,149)"/><path d="M-72.30471517863992,-74.56044667460534L23.198029818686685,97.20849788378423L-68.94637767030709,-72.4567158529061z" style="fill:rgb(34,46,160)"/><path d="M-19.34613209731107,-96.69113038462638L65.59980632863775,72.8349501932707L-18.70536879595829,-100.75440571877704z" style="fill:rgb(246,149,167)"/><path d="M-68.94637767030709,-72.4567158529061L27.060767723193354,98.88233834009964L-64.73327105321302,-71.11856608381257z" style="fill:rgb(51,38,177)"/><path d="M-21.09705820012422,-92.4348440160492L65.3433585368835,76.86879689606826L-19.34613209731107,-96.69113038462638z" style="fill:rgb(242,130,183)"/><path d="M27.060767723193354,98.88233834009964L-59.82433293057553,-70.6080489480734L-64.73327105321302,-71.11856608381257z" style="fill:rgb(71,33,192)"/><path d="M-23.89971801215139,-88.15429018203405L64.11779575983658,81.00194567041858L-21.09705820012422,-92.4348440160492z" style="fill:rgb(233,112,197)"/><path d="M31.46964461534901,99.78138884176623L-54.411024007459375,-70.95374349611336L-59.82433293057553,-70.6080489480734z" style="fill:rgb(92,32,204)"/><path d="M-27.650103450107807,-84.02254909827461L61.96322655851459,85.07049870202404L-23.89971801215139,-88.15429018203405z" style="fill:rgb(220,94,208)"/><path d="M36.25245051496092,99.86332867240534L-48.709589735362606,-72.14818778689249L-54.411024007459375,-70.95374349611336z" style="fill:rgb(115,34,214)"/><path d="M-32.20196028474242,-80.20902349328189L58.95913446082111,88.91055073178416L-27.650103450107807,-84.02254909827461z" style="fill:rgb(203,77,216)"/><path d="M41.218775926076674,99.11952718237724L-42.951515715478045,-74.1471993229979L-48.709589735362606,-72.14818778689249z" style="fill:rgb(139,40,220)"/><path d="M50.90011577160829,95.29418152869405L-32.20196028474242,-80.20902349328189L-37.37268226831059,-76.87127553534083z" style="fill:rgb(183,62,221)"/><path d="M46.168329111029976,97.57627137436705L-37.37268226831059,-76.87127553534083L-42.951515715478045,-74.1471993229979z" style="fill:rgb(162,50,222)"/><path d="M-62.515962556607924,-104.3439085605702L-64.73327105321302,-71.11856608381257L-57.54898533458027,-107.52019512931487zM-70.64365665127161,-96.76517426497159L-68.94637767030709,-72.4567158529061L-66.93497915449902,-100.71579656126892zM-66.93497915449902,-100.71579656126892L-64.73327105321302,-71.11856608381257L-62.515962556607924,-104.3439085605702zM-73.50206531044796,-92.63387069318217L-72.30471517863992,-74.56044667460534L-70.64365665127161,-96.76517426497159zM-75.3976790031108,-88.47223785075599L-74.68738891662451,-77.33825850954734L-73.50206531044796,-92.63387069318217zM-57.54898533458027,-107.52019512931487L-54.411024007459375,-70.95374349611336L-52.213770904836316,-110.13134769501904zM-76.01484355013315,-80.67440647562354L-75.3976790031108,-88.47223785075599L-76.25003139997375,-84.43464046360207zM-52.213770904836316,-110.13134769501904L-48.709589735362606,-72.14818778689249L-46.70207560483741,-112.08319827609594zM-46.70207560483741,-112.08319827609594L-42.951515715478045,-74.1471993229979L-41.212248858172835,-113.30339611098363zM-41.212248858172835,-113.30339611098363L-37.37268226831059,-76.87127553534083L-35.94355789474881,-113.74383999187909zM-75.3976790031108,-88.47223785075599L-76.01484355013315,-80.67440647562354L-74.68738891662451,-77.33825850954734zM-35.94355789474881,-113.74383999187909L-32.20196028474242,-80.20902349328189L-31.09024587725298,-113.382622149045zM-73.50206531044796,-92.63387069318217L-74.68738891662451,-77.33825850954734L-72.30471517863992,-74.56044667460534zM-31.09024587725298,-113.382622149045L-27.650103450107807,-84.02254909827461L-26.835328670548186,-112.22556019689277zM-70.64365665127161,-96.76517426497159L-72.30471517863992,-74.56044667460534L-68.94637767030709,-72.4567158529061zM-26.835328670548186,-112.22556019689277L-23.89971801215139,-88.15429018203405L-23.344137154742732,-110.30717380784607zM-66.93497915449902,-100.71579656126892L-68.94637767030709,-72.4567158529061L-64.73327105321302,-71.11856608381257zM-57.54898533458027,-107.52019512931487L-64.73327105321302,-71.11856608381257L-59.82433293057553,-70.6080489480734zM-23.344137154742732,-110.30717380784607L-23.89971801215139,-88.15429018203405L-20.7577932163037,-107.69074040270414zM-20.7577932163037,-107.69074040270414L-19.34613209731107,-96.69113038462638L-19.18683760983668,-104.46745415060664zM-57.54898533458027,-107.52019512931487L-59.82433293057553,-70.6080489480734L-54.411024007459375,-70.95374349611336zM-52.213770904836316,-110.13134769501904L-54.411024007459375,-70.95374349611336L-48.709589735362606,-72.14818778689249zM-19.18683760983668,-104.46745415060664L-19.34613209731107,-96.69113038462638L-18.70536879595829,-100.75440571877704zM-46.70207560483741,-112.08319827609594L-48.709589735362606,-72.14818778689249L-42.951515715478045,-74.1471993229979zM-20.7577932163037,-107.69074040270414L-21.09705820012422,-92.4348440160492L-19.34613209731107,-96.69113038462638zM-41.212248858172835,-113.30339611098363L-42.951515715478045,-74.1471993229979L-37.37268226831059,-76.87127553534083zM-35.94355789474881,-113.74383999187909L-37.37268226831059,-76.87127553534083L-32.20196028474242,-80.20902349328189zM-26.835328670548186,-112.22556019689277L-27.650103450107807,-84.02254909827461L-23.89971801215139,-88.15429018203405zM-31.09024587725298,-113.382622149045L-32.20196028474242,-80.20902349328189L-27.650103450107807,-84.02254909827461zM-20.7577932163037,-107.69074040270414L-23.89971801215139,-88.15429018203405L-21.09705820012422,-92.4348440160492z" style="fill:rgb(83,212,212)"/><path d="M-44.477847130247866,-142.05607419610615L-24.89990314246303,-102.07548126988867L-26.137132632421682,-104.66315593667169z" style="fill:rgb(242,183,130)"/><path d="M-67.35813272645493,-78.17201085983028L-89.07487343454687,-117.0669864558552L-69.28077611203508,-80.38119138964333z" style="fill:rgb(21,57,142)"/><path d="M-43.26627904838728,-139.51858214386695L-24.534790555481194,-99.10117544598694L-24.89990314246303,-102.07548126988867z" style="fill:rgb(246,167,149)"/><path d="M-64.66047595560748,-76.50423735177307L-87.15982592172352,-114.91632948070759L-67.35813272645493,-78.17201085983028z" style="fill:rgb(34,46,160)"/><path d="M-24.534790555481194,-99.10117544598694L-43.56245068275641,-133.34685225406534L-25.064911460528574,-95.85258108672419z" style="fill:rgb(246,149,167)"/><path d="M-61.28634084486939,-75.44877427889165L-84.44068270065497,-113.31860508929675L-64.66047595560748,-76.50423735177307z" style="fill:rgb(51,38,177)"/><path d="M-25.064911460528574,-95.85258108672419L-45.076843683413344,-129.94815419307497L-26.47786387857563,-92.45527579304506z" style="fill:rgb(242,130,183)"/><path d="M-24.89990314246303,-102.07548126988867L-44.477847130247866,-142.05607419610615L-43.26627904838728,-139.51858214386695z" style="fill:rgb(242,183,130)"/><path d="M-77.0163585179108,-112.0318705122666L-61.28634084486939,-75.44877427889165L-57.363560698207024,-75.0529354857885z" style="fill:rgb(71,33,192)"/><path d="M-82.3986300287732,-135.75580614845583L-84.44068270065497,-113.31860508929675L-78.7153896460169,-138.72068515211674z" style="fill:rgb(83,212,212)"/><path d="M-26.47786387857563,-92.45527579304506L-47.44474772744892,-126.51638233724557L-28.724934549490627,-89.04316301132702z" style="fill:rgb(233,112,197)"/><path d="M-85.50063773218928,-132.54762574516386L-84.44068270065497,-113.31860508929675L-82.3986300287732,-135.75580614845583zM-87.90405892688275,-129.21284495425041L-87.15982592172352,-114.91632948070759L-85.50063773218928,-132.54762574516386zM-78.7153896460169,-138.72068515211674L-77.0163585179108,-112.0318705122666L-74.58727063499458,-141.33510869377326z" style="fill:rgb(83,212,212)"/><path d="M-89.07487343454687,-117.0669864558552L-67.35813272645493,-78.17201085983028L-87.15982592172352,-114.91632948070759z" style="fill:rgb(21,57,142)"/><path d="M-89.5148001201792,-125.8741100475489L-89.07487343454687,-117.0669864558552L-87.90405892688275,-129.21284495425041zM-74.58727063499458,-141.33510869377326L-72.59622273272007,-112.40505318505845L-70.16521401440401,-143.50455149546784z" style="fill:rgb(83,212,212)"/><path d="M-72.59622273272007,-112.40505318505845L-57.363560698207024,-75.0529354857885L-53.04474089312165,-75.33760498299878z" style="fill:rgb(92,32,204)"/><path d="M-70.16521401440401,-143.50455149546784L-72.59622273272007,-112.40505318505845L-65.61003284664255,-145.14991439689356z" style="fill:rgb(83,212,212)"/><path d="M-24.534790555481194,-99.10117544598694L-43.26627904838728,-139.51858214386695L-42.953934932216605,-136.57858520405028z" style="fill:rgb(246,167,149)"/><path d="M-90.12043082688957,-119.6818489373638L-89.5148001201792,-125.8741100475489L-90.26581581002557,-122.65622549532183z" style="fill:rgb(83,212,212)"/><path d="M-28.724934549490627,-89.04316301132702L-50.57747539556693,-123.18898788984475L-31.722064308564327,-85.7528405661215z" style="fill:rgb(220,94,208)"/><path d="M-65.61003284664255,-145.14991439689356L-67.93127632567364,-113.4511487590128L-61.08760033751097,-146.20989237541554z" style="fill:rgb(83,212,212)"/><path d="M-67.93127632567364,-113.4511487590128L-53.04474089312165,-75.33760498299878L-48.501104872200614,-76.29552254557072z" style="fill:rgb(115,34,214)"/><path d="M-31.722064308564327,-85.7528405661215L-54.35302369177263,-120.10078975100397L-35.352682064236795,-82.71751247748394z" style="fill:rgb(203,77,216)"/><path d="M-87.15982592172352,-114.91632948070759L-64.66047595560748,-76.50423735177307L-84.44068270065497,-113.31860508929675z" style="fill:rgb(34,46,160)"/><path d="M-63.2090972661348,-115.13088403643646L-48.501104872200614,-76.29552254557072L-43.915145135304094,-77.89093257309572z" style="fill:rgb(139,40,220)"/><path d="M-54.35302369177263,-120.10078975100397L-39.47236361983055,-80.06080771818625L-35.352682064236795,-82.71751247748394z" style="fill:rgb(183,62,221)"/><path d="M-43.56245068275641,-133.34685225406534L-24.534790555481194,-99.10117544598694L-42.953934932216605,-136.57858520405028z" style="fill:rgb(246,149,167)"/><path d="M-61.08760033751097,-146.20989237541554L-58.62097591291585,-117.3777357396152L-56.763779731660726,-146.64310444314793zM-89.5148001201792,-125.8741100475489L-90.12043082688957,-119.6818489373638L-89.07487343454687,-117.0669864558552z" style="fill:rgb(83,212,212)"/><path d="M-58.62097591291585,-117.3777357396152L-43.915145135304094,-77.89093257309572L-39.47236361983055,-80.06080771818625z" style="fill:rgb(162,50,222)"/><path d="M-56.763779731660726,-146.64310444314793L-54.35302369177263,-120.10078975100397L-52.799244391429276,-146.42969211707248zM-87.90405892688275,-129.21284495425041L-89.07487343454687,-117.0669864558552L-87.15982592172352,-114.91632948070759z" style="fill:rgb(83,212,212)"/><path d="M-84.44068270065497,-113.31860508929675L-61.28634084486939,-75.44877427889165L-81.01635939821142,-112.34228646506999z" style="fill:rgb(51,38,177)"/><path d="M-85.50063773218928,-132.54762574516386L-87.15982592172352,-114.91632948070759L-84.44068270065497,-113.31860508929675z" style="fill:rgb(83,212,212)"/><path d="M-45.076843683413344,-129.94815419307497L-25.064911460528574,-95.85258108672419L-43.56245068275641,-133.34685225406534z" style="fill:rgb(242,130,183)"/><path d="M-52.799244391429276,-146.42969211707248L-54.35302369177263,-120.10078975100397L-49.344147123955814,-145.5725922070246zM-78.7153896460169,-138.72068515211674L-84.44068270065497,-113.31860508929675L-81.01635939821142,-112.34228646506999zM-49.344147123955814,-145.5725922070246L-47.44474772744892,-126.51638233724557L-46.53269620301654,-144.09815170960002z" style="fill:rgb(83,212,212)"/><path d="M-61.28634084486939,-75.44877427889165L-77.0163585179108,-112.0318705122666L-81.01635939821142,-112.34228646506999z" style="fill:rgb(71,33,192)"/><path d="M-46.53269620301654,-144.09815170960002L-45.076843683413344,-129.94815419307497L-44.477847130247866,-142.05607419610615z" style="fill:rgb(83,212,212)"/><path d="M-47.44474772744892,-126.51638233724557L-26.47786387857563,-92.45527579304506L-45.076843683413344,-129.94815419307497z" style="fill:rgb(233,112,197)"/><path d="M-78.7153896460169,-138.72068515211674L-81.01635939821142,-112.34228646506999L-77.0163585179108,-112.0318705122666z" style="fill:rgb(83,212,212)"/><path d="M-57.363560698207024,-75.0529354857885L-72.59622273272007,-112.40505318505845L-77.0163585179108,-112.0318705122666z" style="fill:rgb(92,32,204)"/><path d="M-74.58727063499458,-141.33510869377326L-77.0163585179108,-112.0318705122666L-72.59622273272007,-112.40505318505845zM-44.477847130247866,-142.05607419610615L-45.076843683413344,-129.94815419307497L-43.26627904838728,-139.51858214386695z" style="fill:rgb(83,212,212)"/><path d="M-50.57747539556693,-123.18898788984475L-28.724934549490627,-89.04316301132702L-47.44474772744892,-126.51638233724557z" style="fill:rgb(220,94,208)"/><path d="M-65.61003284664255,-145.14991439689356L-72.59622273272007,-112.40505318505845L-67.93127632567364,-113.4511487590128z" style="fill:rgb(83,212,212)"/><path d="M-53.04474089312165,-75.33760498299878L-67.93127632567364,-113.4511487590128L-72.59622273272007,-112.40505318505845z" style="fill:rgb(115,34,214)"/><path d="M-43.26627904838728,-139.51858214386695L-43.56245068275641,-133.34685225406534L-42.953934932216605,-136.57858520405028z" style="fill:rgb(83,212,212)"/><path d="M-54.35302369177263,-120.10078975100397L-31.722064308564327,-85.7528405661215L-50.57747539556693,-123.18898788984475z" style="fill:rgb(203,77,216)"/><path d="M-61.08760033751097,-146.20989237541554L-67.93127632567364,-113.4511487590128L-63.2090972661348,-115.13088403643646z" style="fill:rgb(83,212,212)"/><path d="M-48.501104872200614,-76.29552254557072L-63.2090972661348,-115.13088403643646L-67.93127632567364,-113.4511487590128z" style="fill:rgb(139,40,220)"/><path d="M-61.08760033751097,-146.20989237541554L-63.2090972661348,-115.13088403643646L-58.62097591291585,-117.3777357396152zM-46.53269620301654,-144.09815170960002L-47.44474772744892,-126.51638233724557L-45.076843683413344,-129.94815419307497z" style="fill:rgb(83,212,212)"/><path d="M-39.47236361983055,-80.06080771818625L-54.35302369177263,-120.10078975100397L-58.62097591291585,-117.3777357396152z" style="fill:rgb(183,62,221)"/><path d="M-43.915145135304094,-77.89093257309572L-58.62097591291585,-117.3777357396152L-63.2090972661348,-115.13088403643646z" style="fill:rgb(162,50,222)"/><path d="M-56.763779731660726,-146.64310444314793L-58.62097591291585,-117.3777357396152L-54.35302369177263,-120.10078975100397zM-49.344147123955814,-145.5725922070246L-50.57747539556693,-123.18898788984475L-47.44474772744892,-126.51638233724557zM-43.26627904838728,-139.51858214386695L-45.076843683413344,-129.94815419307497L-43.56245068275641,-133.34685225406534zM-49.344147123955814,-145.5725922070246L-54.35302369177263,-120.10078975100397L-50.57747539556693,-123.18898788984475z" style="fill:rgb(83,212,212)"/></svg>
