<?xml version="1.0" encoding="UTF-8"?>
<!-- Generated by jsxcad -->
<!DOCTYPE svg PUBLIC "-//W3C//DTD SVG 1.1 Tiny//EN" "http://www.w3.org/Graphics/SVG/1.1/DTD/svg11-tiny.dtd">
<svg viewBox="-250 -250 500 500" width="500" height="500" xmlns="http://www.w3.org/2000/svg"><path d="M41.052671967324166,72.33789380438601L43.26936034220719,87.69139825869658L47.78198265751541,85.51358765976057z" style="fill:rgb(162,50,222)"/><path d="M36.47872320187044,74.54739428574793L39.13866553000078,90.4830777600272L43.26936034220719,87.69139825869658z" style="fill:rgb(183,62,221)"/><path d="M45.84291326039709,70.8218593457929L47.78198265751541,85.51358765976057L52.51260383386687,84.02905518442805z" style="fill:rgb(139,40,220)"/><path d="M39.13866553000078,90.4830777600272L28.630922564678723,80.70367452770665L35.54093197846041,93.78803991010193z" style="fill:rgb(203,77,216)"/><path d="M50.67551218614554,70.05622640311236L52.51260383386687,84.02905518442805L57.28933198877002,83.29360573647736z" style="fill:rgb(115,34,214)"/><path d="M35.54093197846041,93.78803991010193L25.64578849647903,84.42902422790715L32.60965284525685,97.48741836370561z" style="fill:rgb(220,94,208)"/><path d="M55.373842278931505,70.07239257267423L57.28933198877002,83.29360573647736L61.93747092166014,83.33749894774306z" style="fill:rgb(92,32,204)"/><path d="M43.26936034220719,87.69139825869658L41.052671967324166,72.33789380438601L36.47872320187044,74.54739428574793z" style="fill:rgb(162,50,222)"/><path d="M39.13866553000078,90.4830777600272L36.47872320187044,74.54739428574793L32.287088342785474,77.3698596340619z" style="fill:rgb(183,62,221)"/><path d="M47.78198265751541,85.51358765976057L45.84291326039709,70.8218593457929L41.052671967324166,72.33789380438601z" style="fill:rgb(139,40,220)"/><path d="M32.60965284525685,97.48741836370561L23.445181160472167,88.41129555784775L30.456332357096166,101.44745400801851z" style="fill:rgb(233,112,197)"/><path d="M28.630922564678723,80.70367452770665L39.13866553000078,90.4830777600272L32.287088342785474,77.3698596340619z" style="fill:rgb(203,77,216)"/><path d="M52.51260383386687,84.02905518442805L50.67551218614554,70.05622640311236L45.84291326039709,70.8218593457929z" style="fill:rgb(115,34,214)"/><path d="M59.7640113188928,70.87472175887922L61.93747092166014,83.33749894774306L66.28492644858999,84.1639931819346z" style="fill:rgb(71,33,192)"/><path d="M25.64578849647903,84.42902422790715L35.54093197846041,93.78803991010193L28.630922564678723,80.70367452770665z" style="fill:rgb(220,94,208)"/><path d="M57.28933198877002,83.29360573647736L55.373842278931505,70.07239257267423L50.67551218614554,70.05622640311236z" style="fill:rgb(92,32,204)"/><path d="M30.456332357096166,101.44745400801851L22.116397428349824,92.50498060949504L29.16643045923985,105.52338655975723z" style="fill:rgb(242,130,183)"/><path d="M70.16782729415593,85.74854540995062L59.7640113188928,70.87472175887922L66.28492644858999,84.1639931819346z" style="fill:rgb(51,38,177)"/><path d="M23.445181160472167,88.41129555784775L32.60965284525685,97.48741836370561L25.64578849647903,84.42902422790715z" style="fill:rgb(233,112,197)"/><path d="M61.93747092166014,83.33749894774306L59.7640113188928,70.87472175887922L55.373842278931505,70.07239257267423z" style="fill:rgb(71,33,192)"/><path d="M29.16643045923985,105.52338655975723L21.71680649559848,96.55816695367714L28.795703285803924,109.56392444445004z" style="fill:rgb(246,149,167)"/><path d="M73.43631338101144,88.03871780934234L63.68054624294581,72.43970459619327L70.16782729415593,85.74854540995062z" style="fill:rgb(34,46,160)"/><path d="M22.116397428349824,92.50498060949504L30.456332357096166,101.44745400801851L23.445181160472167,88.41129555784775z" style="fill:rgb(242,130,183)"/><path d="M21.71680649559848,96.55816695367714L29.36719612838307,113.41622638589786L28.795703285803924,109.56392444445004z" style="fill:rgb(246,167,149)"/><path d="M59.7640113188928,70.87472175887922L70.16782729415593,85.74854540995062L63.68054624294581,72.43970459619327z" style="fill:rgb(51,38,177)"/><path d="M21.71680649559848,96.55816695367714L29.16643045923985,105.52338655975723L22.116397428349824,92.50498060949504z" style="fill:rgb(246,149,167)"/><path d="M75.96031484667724,90.95489439777637L66.9722343655791,74.71577503981405L73.43631338101144,88.03871780934234z" style="fill:rgb(21,57,142)"/><path d="M63.68054624294581,72.43970459619327L73.43631338101144,88.03871780934234L66.9722343655791,74.71577503981405z" style="fill:rgb(34,46,160)"/><path d="M22.270766701606444,100.41749689055614L30.86907253859007,116.93133204319881L29.36719612838307,113.41622638589786z" style="fill:rgb(242,183,130)"/><path d="M77.63518659586985,94.39212879861104L69.50795542583054,77.62404819921052L75.96031484667724,90.95489439777637z" style="fill:rgb(12,71,124)"/><path d="M29.36719612838307,113.41622638589786L21.71680649559848,96.55816695367714L22.270766701606444,100.41749689055614z" style="fill:rgb(246,167,149)"/><path d="M66.9722343655791,74.71577503981405L75.96031484667724,90.95489439777637L69.50795542583054,77.62404819921052zM25.874057820153556,124.56536624960853L16.122612116140463,108.3308961972901L23.333130163991818,121.27267945304999z" style="fill:rgb(21,57,142)"/><path d="M79.38234098251574,77.81479109652437L85.92612338502632,92.17929334547784L85.72658671731132,91.20302616019147z" style="fill:rgb(246,167,149)"/><path d="M30.86907253859007,116.93133204319881L22.270766701606444,100.41749689055614L23.767373599870925,103.93369127909139z" style="fill:rgb(242,183,130)"/><path d="M79.57879914926681,78.79237266477516L86.76960090866507,96.3059983837173L85.92612338502632,92.17929334547784z" style="fill:rgb(246,167,149)"/><path d="M26.480981664919682,125.35185358157064L18.670771859165725,111.61866017928364L25.874057820153556,124.56536624960853z" style="fill:rgb(21,57,142)"/><path d="M69.50795542583054,77.62404819921052L77.63518659586985,94.39212879861104L71.18238761956118,81.06004030972916z" style="fill:rgb(12,71,124)"/><path d="M30.70631320648206,128.63733263294694L19.27946446564333,112.40402527333298L26.480981664919682,125.35185358157064z" style="fill:rgb(34,46,160)"/><path d="M85.92612338502632,92.17929334547784L79.38234098251574,77.81479109652437L79.57879914926681,78.79237266477516z" style="fill:rgb(246,167,149)"/><path d="M86.76960090866507,96.3059983837173L80.35631737196185,83.97033968983742L86.72285274555331,97.34834707636888z" style="fill:rgb(246,149,167)"/><path d="M16.122612116140463,108.3308961972901L25.874057820153556,124.56536624960853L18.670771859165725,111.61866017928364zM18.670771859165725,111.61866017928364L26.480981664919682,125.35185358157064L19.27946446564333,112.40402527333298z" style="fill:rgb(21,57,142)"/><path d="M86.72285274555331,97.34834707636888L80.13248419942568,88.38841309623969L86.52532255520698,101.75312944275429z" style="fill:rgb(246,149,167)"/><path d="M86.76960090866507,96.3059983837173L79.57879914926681,78.79237266477516L80.40927606999814,82.92491238404662z" style="fill:rgb(246,167,149)"/><path d="M35.85620874084154,130.98778247468695L23.530994435523088,115.67539518032451L30.70631320648206,128.63733263294694z" style="fill:rgb(51,38,177)"/><path d="M80.35631737196185,83.97033968983742L86.76960090866507,96.3059983837173L80.40927606999814,82.92491238404662z" style="fill:rgb(246,149,167)"/><path d="M86.52532255520698,101.75312944275429L79.82866361138511,89.4610754006722L86.23069851897687,102.82105277760463z" style="fill:rgb(242,130,183)"/><path d="M19.27946446564333,112.40402527333298L30.70631320648206,128.63733263294694L23.530994435523088,115.67539518032451z" style="fill:rgb(34,46,160)"/><path d="M80.13248419942568,88.38841309623969L86.72285274555331,97.34834707636888L80.35631737196185,83.97033968983742z" style="fill:rgb(246,149,167)"/><path d="M86.23069851897687,102.82105277760463L78.54530527587968,93.99210575652805L84.98625854264913,107.33180669275036z" style="fill:rgb(242,130,183)"/><path d="M84.98625854264913,107.33180669275036L77.99959295881997,95.04917286191326L84.45241848338141,108.38266653071602z" style="fill:rgb(233,112,197)"/><path d="M79.82866361138511,89.4610754006722L86.52532255520698,101.75312944275429L80.13248419942568,88.38841309623969z" style="fill:rgb(242,130,183)"/><path d="M34.66054588383199,119.283928300981L35.85620874084154,130.98778247468695L41.73532522598146,132.2970222105766z" style="fill:rgb(71,33,192)"/><path d="M23.530994435523088,115.67539518032451L35.85620874084154,130.98778247468695L28.723629925457498,118.00390460329103z" style="fill:rgb(51,38,177)"/><path d="M84.45241848338141,108.38266653071602L75.69589809607146,99.51147648689222L82.19898603875498,112.81855091491302z" style="fill:rgb(233,112,197)"/><path d="M78.54530527587968,93.99210575652805L86.23069851897687,102.82105277760463L79.82866361138511,89.4610754006722z" style="fill:rgb(242,130,183)"/><path d="M82.19898603875498,112.81855091491302L74.92772247608248,100.50976333112065L81.44495260751863,113.80943430833355z" style="fill:rgb(220,94,208)"/><path d="M41.108659128612615,119.45194782447422L41.73532522598146,132.2970222105766L48.11282901205446,132.5006284100482z" style="fill:rgb(92,32,204)"/><path d="M35.85620874084154,130.98778247468695L34.66054588383199,119.283928300981L28.723629925457498,118.00390460329103z" style="fill:rgb(71,33,192)"/><path d="M77.99959295881997,95.04917286191326L84.98625854264913,107.33180669275036L78.54530527587968,93.99210575652805z" style="fill:rgb(233,112,197)"/><path d="M81.44495260751863,113.80943430833355L71.68749432671366,104.72064697410985L78.26445806549256,117.98893285640877z" style="fill:rgb(220,94,208)"/><path d="M78.26445806549256,117.98893285640877L70.7263225244387,105.61865652898636L77.31911055565082,118.87867934920739z" style="fill:rgb(203,77,216)"/><path d="M75.69589809607146,99.51147648689222L84.45241848338141,108.38266653071602L77.99959295881997,95.04917286191326z" style="fill:rgb(233,112,197)"/><path d="M19.27946446564333,112.40402527333298L-0.4771928607386528,78.53676716159259L16.122612116140463,108.3308961972901z" style="fill:rgb(21,57,142)"/><path d="M47.808225667707866,118.49131331811144L48.11282901205446,132.5006284100482L54.73192551935212,131.58069398850245z" style="fill:rgb(115,34,214)"/><path d="M77.31911055565082,118.87867934920739L66.67558266736378,109.4031991649221L73.33517963035283,122.62829732978629z" style="fill:rgb(203,77,216)"/><path d="M66.67558266736378,109.4031991649221L72.23622312950047,123.3795560346159L73.33517963035283,122.62829732978629z" style="fill:rgb(183,62,221)"/><path d="M41.73532522598146,132.2970222105766L41.108659128612615,119.45194782447422L34.66054588383199,119.283928300981z" style="fill:rgb(92,32,204)"/><path d="M54.4846552834016,116.43458786125376L54.73192551935212,131.58069398850245L61.321521173348174,129.5681997915719z" style="fill:rgb(139,40,220)"/><path d="M65.55975912027765,110.16319899245406L68.70967999239826,125.79032499414097L72.23622312950047,123.3795560346159z" style="fill:rgb(183,62,221)"/><path d="M64.77567120614873,46.99037052636133L80.40927606999814,82.92491238404662L79.38234098251574,77.81479109652437z" style="fill:rgb(246,167,149)"/><path d="M74.92772247608248,100.50976333112065L82.19898603875498,112.81855091491302L75.69589809607146,99.51147648689222z" style="fill:rgb(220,94,208)"/><path d="M61.979069856720436,112.60203181375094L67.60928447965661,126.54256020974611L68.70967999239826,125.79032499414097z" style="fill:rgb(183,62,221)"/><path d="M60.86176892150197,113.36303433190004L61.321521173348174,129.5681997915719L67.60928447965661,126.54256020974611z" style="fill:rgb(162,50,222)"/><path d="M71.68749432671366,104.72064697410985L81.44495260751863,113.80943430833355L74.92772247608248,100.50976333112065z" style="fill:rgb(220,94,208)"/><path d="M48.11282901205446,132.5006284100482L47.808225667707866,118.49131331811144L41.108659128612615,119.45194782447422z" style="fill:rgb(115,34,214)"/><path d="M70.7263225244387,105.61865652898636L78.26445806549256,117.98893285640877L71.68749432671366,104.72064697410985z" style="fill:rgb(203,77,216)"/><path d="M23.530994435523088,115.67539518032451L2.696641972316907,82.58926026944954L19.27946446564333,112.40402527333298z" style="fill:rgb(34,46,160)"/><path d="M66.67558266736378,109.4031991649221L77.31911055565082,118.87867934920739L70.7263225244387,105.61865652898636z" style="fill:rgb(203,77,216)"/><path d="M54.73192551935212,131.58069398850245L54.4846552834016,116.43458786125376L47.808225667707866,118.49131331811144z" style="fill:rgb(139,40,220)"/><path d="M72.23622312950047,123.3795560346159L66.67558266736378,109.4031991649221L65.55975912027765,110.16319899245406zM68.70967999239826,125.79032499414097L65.55975912027765,110.16319899245406L61.979069856720436,112.60203181375094z" style="fill:rgb(183,62,221)"/><path d="M61.321521173348174,129.5681997915719L60.86176892150197,113.36303433190004L54.4846552834016,116.43458786125376z" style="fill:rgb(162,50,222)"/><path d="M67.60928447965661,126.54256020974611L61.979069856720436,112.60203181375094L60.86176892150197,113.36303433190004z" style="fill:rgb(183,62,221)"/><path d="M2.6242114860717156,52.407067076742344L7.0049342675634865,85.82169444243436L6.76609523364632,47.39779683827437zM6.76609523364632,47.39779683827437L12.2927456502523,88.09375365220933L11.800759794204357,42.89997947862853zM-0.46833398830525624,57.75090040468698L2.696641972316907,82.58926026944954L2.6242114860717156,52.407067076742344zM11.800759794204357,42.89997947862853L18.36001449691977,89.30133083905648L17.544187873817947,39.07124395059712zM-2.387990746850277,63.237697797752986L-0.4771928607386528,78.53676716159259L-0.46833398830525624,57.75090040468698z" style="fill:rgb(83,212,212)"/><path d="M80.40927606999814,82.92491238404662L65.40755415890689,57.60479249685494L80.13248419942568,88.38841309623969z" style="fill:rgb(246,149,167)"/><path d="M17.544187873817947,39.07124395059712L24.968587576351293,89.38320929258578L23.790566588922196,36.04608666090807zM-2.410901254846336,73.83293157619102L-2.387990746850277,63.237697797752986L-3.0495336592841467,68.66645299131476z" style="fill:rgb(83,212,212)"/><path d="M28.723629925457498,118.00390460329103L7.0049342675634865,85.82169444243436L23.530994435523088,115.67539518032451z" style="fill:rgb(51,38,177)"/><path d="M23.790566588922196,36.04608666090807L31.852014861531863,88.32582765414415L30.318039115916783,33.932488692656754zM30.318039115916783,33.932488692656754L31.852014861531863,88.32582765414415L36.89463828283349,32.80896919077968z" style="fill:rgb(83,212,212)"/><path d="M-0.4771928607386528,78.53676716159259L19.27946446564333,112.40402527333298L2.696641972316907,82.58926026944954z" style="fill:rgb(21,57,142)"/><path d="M80.13248419942568,88.38841309623969L63.70674450449253,63.26028493879531L78.54530527587968,93.99210575652805z" style="fill:rgb(242,130,183)"/><path d="M-2.387990746850277,63.237697797752986L-2.410901254846336,73.83293157619102L-0.4771928607386528,78.53676716159259zM36.89463828283349,32.80896919077968L45.31062198903763,82.98788187915709L43.28449413578912,32.72197291558568z" style="fill:rgb(83,212,212)"/><path d="M80.40927606999814,82.92491238404662L64.77567120614873,46.99037052636133L65.76231961393053,52.11007861623471z" style="fill:rgb(246,167,149)"/><path d="M-0.46833398830525624,57.75090040468698L-0.4771928607386528,78.53676716159259L2.696641972316907,82.58926026944954zM43.28449413578912,32.72197291558568L45.31062198903763,82.98788187915709L49.25442482195533,33.68367538387135z" style="fill:rgb(83,212,212)"/><path d="M18.36001449691977,89.30133083905648L28.723629925457498,118.00390460329103L34.66054588383199,119.283928300981z" style="fill:rgb(71,33,192)"/><path d="M78.54530527587968,93.99210575652805L60.71176479635714,68.84990673801293L75.69589809607146,99.51147648689222z" style="fill:rgb(233,112,197)"/><path d="M2.6242114860717156,52.407067076742344L2.696641972316907,82.58926026944954L7.0049342675634865,85.82169444243436z" style="fill:rgb(83,212,212)"/><path d="M2.696641972316907,82.58926026944954L23.530994435523088,115.67539518032451L7.0049342675634865,85.82169444243436z" style="fill:rgb(34,46,160)"/><path d="M65.40755415890689,57.60479249685494L80.40927606999814,82.92491238404662L65.76231961393053,52.11007861623471z" style="fill:rgb(246,149,167)"/><path d="M49.25442482195533,33.68367538387135L51.32764161384348,78.92416272739821L54.58104637191301,35.67031206186939z" style="fill:rgb(83,212,212)"/><path d="M24.968587576351293,89.38320929258578L34.66054588383199,119.283928300981L41.108659128612615,119.45194782447422z" style="fill:rgb(92,32,204)"/><path d="M75.69589809607146,99.51147648689222L56.531264485427315,74.14464833255263L71.68749432671366,104.72064697410985z" style="fill:rgb(220,94,208)"/><path d="M6.76609523364632,47.39779683827437L7.0049342675634865,85.82169444243436L12.2927456502523,88.09375365220933zM54.58104637191301,35.67031206186939L56.531264485427315,74.14464833255263L59.05834890508476,38.621228164690336z" style="fill:rgb(83,212,212)"/><path d="M31.852014861531863,88.32582765414415L41.108659128612615,119.45194782447422L47.808225667707866,118.49131331811144z" style="fill:rgb(115,34,214)"/><path d="M59.05834890508476,38.621228164690336L63.70674450449253,63.26028493879531L62.50564914369383,42.43890909345261z" style="fill:rgb(83,212,212)"/><path d="M71.68749432671366,104.72064697410985L51.32764161384348,78.92416272739821L66.67558266736378,109.4031991649221z" style="fill:rgb(203,77,216)"/><path d="M11.800759794204357,42.89997947862853L12.2927456502523,88.09375365220933L18.36001449691977,89.30133083905648z" style="fill:rgb(83,212,212)"/><path d="M7.0049342675634865,85.82169444243436L28.723629925457498,118.00390460329103L12.2927456502523,88.09375365220933z" style="fill:rgb(51,38,177)"/><path d="M63.70674450449253,63.26028493879531L80.13248419942568,88.38841309623969L65.40755415890689,57.60479249685494z" style="fill:rgb(242,130,183)"/><path d="M38.727698291082916,86.16550782726496L47.808225667707866,118.49131331811144L54.4846552834016,116.43458786125376z" style="fill:rgb(139,40,220)"/><path d="M51.32764161384348,78.92416272739821L60.86176892150197,113.36303433190004L66.67558266736378,109.4031991649221z" style="fill:rgb(183,62,221)"/><path d="M45.31062198903763,82.98788187915709L54.4846552834016,116.43458786125376L60.86176892150197,113.36303433190004z" style="fill:rgb(162,50,222)"/><path d="M17.544187873817947,39.07124395059712L18.36001449691977,89.30133083905648L24.968587576351293,89.38320929258578zM62.50564914369383,42.43890909345261L63.70674450449253,63.26028493879531L64.77567120614873,46.99037052636133z" style="fill:rgb(83,212,212)"/><path d="M28.723629925457498,118.00390460329103L18.36001449691977,89.30133083905648L12.2927456502523,88.09375365220933z" style="fill:rgb(71,33,192)"/><path d="M23.790566588922196,36.04608666090807L24.968587576351293,89.38320929258578L31.852014861531863,88.32582765414415z" style="fill:rgb(83,212,212)"/><path d="M60.71176479635714,68.84990673801293L78.54530527587968,93.99210575652805L63.70674450449253,63.26028493879531z" style="fill:rgb(233,112,197)"/><path d="M64.77567120614873,46.99037052636133L65.40755415890689,57.60479249685494L65.76231961393053,52.11007861623471zM36.89463828283349,32.80896919077968L31.852014861531863,88.32582765414415L38.727698291082916,86.16550782726496z" style="fill:rgb(83,212,212)"/><path d="M34.66054588383199,119.283928300981L24.968587576351293,89.38320929258578L18.36001449691977,89.30133083905648z" style="fill:rgb(92,32,204)"/><path d="M36.89463828283349,32.80896919077968L38.727698291082916,86.16550782726496L45.31062198903763,82.98788187915709zM59.05834890508476,38.621228164690336L60.71176479635714,68.84990673801293L63.70674450449253,63.26028493879531z" style="fill:rgb(83,212,212)"/><path d="M56.531264485427315,74.14464833255263L75.69589809607146,99.51147648689222L60.71176479635714,68.84990673801293z" style="fill:rgb(220,94,208)"/><path d="M64.77567120614873,46.99037052636133L63.70674450449253,63.26028493879531L65.40755415890689,57.60479249685494zM49.25442482195533,33.68367538387135L45.31062198903763,82.98788187915709L51.32764161384348,78.92416272739821zM54.58104637191301,35.67031206186939L51.32764161384348,78.92416272739821L56.531264485427315,74.14464833255263zM59.05834890508476,38.621228164690336L56.531264485427315,74.14464833255263L60.71176479635714,68.84990673801293z" style="fill:rgb(83,212,212)"/><path d="M41.108659128612615,119.45194782447422L31.852014861531863,88.32582765414415L24.968587576351293,89.38320929258578z" style="fill:rgb(115,34,214)"/><path d="M51.32764161384348,78.92416272739821L71.68749432671366,104.72064697410985L56.531264485427315,74.14464833255263z" style="fill:rgb(203,77,216)"/><path d="M47.808225667707866,118.49131331811144L38.727698291082916,86.16550782726496L31.852014861531863,88.32582765414415z" style="fill:rgb(139,40,220)"/><path d="M60.86176892150197,113.36303433190004L51.32764161384348,78.92416272739821L45.31062198903763,82.98788187915709z" style="fill:rgb(183,62,221)"/><path d="M54.4846552834016,116.43458786125376L45.31062198903763,82.98788187915709L38.727698291082916,86.16550782726496z" style="fill:rgb(162,50,222)"/><path d="M-4.455557760580662,88.16872496434183L-79.92228104882444,-42.884132902764826L-8.37928733309223,83.06576094427635z" style="fill:rgb(21,57,142)"/><path d="M12.265273478262708,-87.86407139035948L74.52883477610749,50.000821930616496L73.23969002292516,43.608800313210075z" style="fill:rgb(246,167,149)"/><path d="M0.90205881285135,92.25491509763904L-75.99447058302772,-38.01284310462319L-4.455557760580662,88.16872496434183z" style="fill:rgb(34,46,160)"/><path d="M74.52883477610749,50.000821930616496L12.43537341446238,-74.64396575498027L74.13572250362134,56.879600328133535z" style="fill:rgb(246,149,167)"/><path d="M7.504674562224147,95.14211680881124L-70.41518349798471,-34.25045464112797L0.90205881285135,92.25491509763904z" style="fill:rgb(51,38,177)"/><path d="M74.13572250362134,56.879600328133535L9.694579973037143,-67.38440926448233L72.04659903348153,63.9762594306999z" style="fill:rgb(242,130,183)"/><path d="M-55.13706648987644,-30.701479343018413L7.504674562224147,95.14211680881124L15.10385245673571,96.692923863781z" style="fill:rgb(71,33,192)"/><path d="M72.04659903348153,63.9762594306999L5.148375793277089,-60.07491930277296L68.3202726937862,71.00364347995723z" style="fill:rgb(233,112,197)"/><path d="M-46.02387509261657,-31.108062221971732L15.10385245673571,96.692923863781L23.39998550967811,96.82426561900205z" style="fill:rgb(92,32,204)"/><path d="M68.3202726937862,71.00364347995723L-1.0401081971028714,-53.020852689799426L63.08949110188432,77.66944607867968z" style="fill:rgb(220,94,208)"/><path d="M-36.409076398371035,-32.993134888037225L23.39998550967811,96.82426561900205L32.05474566061814,95.51446911527918z" style="fill:rgb(115,34,214)"/><path d="M63.08949110188432,77.66944607867968L-8.628054621813236,-46.52384011591888L56.557795785919595,83.69084438421514z" style="fill:rgb(203,77,216)"/><path d="M-8.628054621813236,-46.52384011591888L48.991493401758454,88.80971672126277L56.557795785919595,83.69084438421514z" style="fill:rgb(183,62,221)"/><path d="M-26.697164449834805,-36.290111531857974L32.05474566061814,95.51446911527918L40.70704835548646,92.80692497829z" style="fill:rgb(139,40,220)"/><path d="M-17.302804222814384,-40.86524297749297L40.70704835548646,92.80692497829L48.991493401758454,88.80971672126277z" style="fill:rgb(162,50,222)"/><path d="M-79.92228104882444,-42.884132902764826L-4.455557760580662,88.16872496434183L-75.99447058302772,-38.01284310462319z" style="fill:rgb(21,57,142)"/><path d="M74.52883477610749,50.000821930616496L12.265273478262708,-87.86407139035948L13.291328469546782,-81.56002071763831z" style="fill:rgb(246,167,149)"/><path d="M-75.99447058302772,-38.01284310462319L0.90205881285135,92.25491509763904L-70.41518349798471,-34.25045464112797z" style="fill:rgb(34,46,160)"/><path d="M12.43537341446238,-74.64396575498027L74.52883477610749,50.000821930616496L13.291328469546782,-81.56002071763831z" style="fill:rgb(246,149,167)"/><path d="M-70.41518349798471,-34.25045464112797L7.504674562224147,95.14211680881124L-63.37550443388921,-31.771404696412223z" style="fill:rgb(51,38,177)"/><path d="M9.694579973037143,-67.38440926448233L74.13572250362134,56.879600328133535L12.43537341446238,-74.64396575498027z" style="fill:rgb(242,130,183)"/><path d="M7.504674562224147,95.14211680881124L-55.13706648987644,-30.701479343018413L-63.37550443388921,-31.771404696412223z" style="fill:rgb(71,33,192)"/><path d="M-73.13254951170914,-75.78932918377207L-70.41518349798471,-34.25045464112797L-67.05249647321328,-82.33349419644969zM-67.05249647321328,-82.33349419644969L-63.37550443388921,-31.771404696412223L-59.82540645914233,-88.31177806082609zM-77.83909077076135,-68.90326484336897L-75.99447058302772,-38.01284310462319L-73.13254951170914,-75.78932918377207zM-59.82540645914233,-88.31177806082609L-55.13706648987644,-30.701479343018413L-51.70903531110234,-93.52192110389771z" style="fill:rgb(83,212,212)"/><path d="M5.148375793277089,-60.07491930277296L72.04659903348153,63.9762594306999L9.694579973037143,-67.38440926448233z" style="fill:rgb(233,112,197)"/><path d="M-80.98438727535898,-61.91625820975864L-79.92228104882444,-42.884132902764826L-77.83909077076135,-68.90326484336897zM-51.70903531110234,-93.52192110389771L-46.02387509261657,-31.108062221971732L-42.985448835001414,-97.78729673405434zM-82.0813593495299,-48.652522149043634L-80.98438727535898,-61.91625820975864L-82.42730773300215,-55.08054585721626zM-42.985448835001414,-97.78729673405434L-36.409076398371035,-32.993134888037225L-33.95438972984909,-100.96045832128343z" style="fill:rgb(83,212,212)"/><path d="M15.10385245673571,96.692923863781L-46.02387509261657,-31.108062221971732L-55.13706648987644,-30.701479343018413z" style="fill:rgb(92,32,204)"/><path d="M-33.95438972984909,-100.96045832128343L-36.409076398371035,-32.993134888037225L-24.926707993839724,-102.92646615841788z" style="fill:rgb(83,212,212)"/><path d="M-1.0401081971028714,-53.020852689799426L68.3202726937862,71.00364347995723L5.148375793277089,-60.07491930277296z" style="fill:rgb(220,94,208)"/><path d="M23.39998550967811,96.82426561900205L-36.409076398371035,-32.993134888037225L-46.02387509261657,-31.108062221971732z" style="fill:rgb(115,34,214)"/><path d="M-80.98438727535898,-61.91625820975864L-82.0813593495299,-48.652522149043634L-79.92228104882444,-42.884132902764826zM-24.926707993839724,-102.92646615841788L-17.302804222814384,-40.86524297749297L-16.217481103536315,-103.60628862749144z" style="fill:rgb(83,212,212)"/><path d="M-8.628054621813236,-46.52384011591888L63.08949110188432,77.66944607867968L-1.0401081971028714,-53.020852689799426z" style="fill:rgb(203,77,216)"/><path d="M32.05474566061814,95.51446911527918L-26.697164449834805,-36.290111531857974L-36.409076398371035,-32.993134888037225z" style="fill:rgb(139,40,220)"/><path d="M-77.83909077076135,-68.90326484336897L-79.92228104882444,-42.884132902764826L-75.99447058302772,-38.01284310462319zM-16.217481103536315,-103.60628862749144L-8.628054621813236,-46.52384011591888L-8.138471753969247,-102.96015690099375z" style="fill:rgb(83,212,212)"/><path d="M48.991493401758454,88.80971672126277L-8.628054621813236,-46.52384011591888L-17.302804222814384,-40.86524297749297z" style="fill:rgb(183,62,221)"/><path d="M40.70704835548646,92.80692497829L-17.302804222814384,-40.86524297749297L-26.697164449834805,-36.290111531857974z" style="fill:rgb(162,50,222)"/><path d="M-8.138471753969247,-102.96015690099375L-1.0401081971028714,-53.020852689799426L-0.9896131057056294,-100.99085251796073zM-73.13254951170914,-75.78932918377207L-75.99447058302772,-38.01284310462319L-70.41518349798471,-34.25045464112797zM-0.9896131057056294,-100.99085251796073L5.148375793277089,-60.07491930277296L4.950679846313919,-97.74660282170125zM-67.05249647321328,-82.33349419644969L-70.41518349798471,-34.25045464112797L-63.37550443388921,-31.771404696412223zM4.950679846313919,-97.74660282170125L9.694579973037143,-67.38440926448233L9.43633186843429,-93.32308002159647zM-59.82540645914233,-88.31177806082609L-63.37550443388921,-31.771404696412223L-55.13706648987644,-30.701479343018413zM9.43633186843429,-93.32308002159647L12.43537341446238,-74.64396575498027L12.265273478262708,-87.86407139035948zM-51.70903531110234,-93.52192110389771L-55.13706648987644,-30.701479343018413L-46.02387509261657,-31.108062221971732zM-42.985448835001414,-97.78729673405434L-46.02387509261657,-31.108062221971732L-36.409076398371035,-32.993134888037225zM12.265273478262708,-87.86407139035948L12.43537341446238,-74.64396575498027L13.291328469546782,-81.56002071763831zM9.43633186843429,-93.32308002159647L9.694579973037143,-67.38440926448233L12.43537341446238,-74.64396575498027zM-24.926707993839724,-102.92646615841788L-36.409076398371035,-32.993134888037225L-26.697164449834805,-36.290111531857974zM-24.926707993839724,-102.92646615841788L-26.697164449834805,-36.290111531857974L-17.302804222814384,-40.86524297749297zM4.950679846313919,-97.74660282170125L5.148375793277089,-60.07491930277296L9.694579973037143,-67.38440926448233zM-16.217481103536315,-103.60628862749144L-17.302804222814384,-40.86524297749297L-8.628054621813236,-46.52384011591888zM-0.9896131057056294,-100.99085251796073L-1.0401081971028714,-53.020852689799426L5.148375793277089,-60.07491930277296zM-8.138471753969247,-102.96015690099375L-8.628054621813236,-46.52384011591888L-1.0401081971028714,-53.020852689799426z" style="fill:rgb(83,212,212)"/><path d="M-67.7610319892944,-44.08874116792622L-104.60847037824779,-108.3630421806645L-70.94888992824738,-47.94921062308167z" style="fill:rgb(21,57,142)"/><path d="M-26.890136447616204,-146.45177624228026L3.5119511625768784,-78.85466845079128L2.747169658091136,-83.90823398415391z" style="fill:rgb(246,167,149)"/><path d="M-63.26710295289526,-41.122067696433575L-101.44711785214835,-104.65399211228512L-67.7610319892944,-44.08874116792622z" style="fill:rgb(34,46,160)"/><path d="M3.5119511625768784,-78.85466845079128L-27.20406453015946,-136.0070377387848L2.7775342578969004,-73.32816228533841z" style="fill:rgb(246,149,167)"/><path d="M-57.62523937007408,-39.1822707872134L-96.89624855736649,-101.87183470950936L-63.26710295289526,-41.122067696433575z" style="fill:rgb(51,38,177)"/><path d="M2.7775342578969004,-73.32816228533841L-29.7095031263909,-130.21198810084837L0.5495796942434565,-67.54308909003831z" style="fill:rgb(242,130,183)"/><path d="M-98.20724216720889,-134.56142384673444L-101.44711785214835,-104.65399211228512L-92.96995208001638,-139.93062289191232zM-92.96995208001638,-139.93062289191232L-96.89624855736649,-101.87183470950936L-86.78167282818062,-144.8856533070296z" style="fill:rgb(83,212,212)"/><path d="M-84.31593874907341,-99.55704829578875L-57.62523937007408,-39.1822707872134L-51.046911947834666,-38.36322310641346z" style="fill:rgb(71,33,192)"/><path d="M0.5495796942434565,-67.54308909003831L-33.69792082910013,-124.33772849852856L-3.1024849665072836,-61.73122990228091z" style="fill:rgb(233,112,197)"/><path d="M-102.29787731549935,-128.96571536214648L-101.44711785214835,-104.65399211228512L-98.20724216720889,-134.56142384673444zM-86.78167282818062,-144.8856533070296L-84.31593874907341,-99.55704829578875L-79.86551719238192,-149.255093834019z" style="fill:rgb(83,212,212)"/><path d="M-104.60847037824779,-108.3630421806645L-67.7610319892944,-44.08874116792622L-101.44711785214835,-104.65399211228512z" style="fill:rgb(21,57,142)"/><path d="M-105.08016388954587,-123.34288790537009L-104.60847037824779,-108.3630421806645L-102.29787731549935,-128.96571536214648zM-79.86551719238192,-149.255093834019L-76.7680800172632,-100.15084839119932L-72.46558245666603,-152.88765349534233z" style="fill:rgb(83,212,212)"/><path d="M-76.7680800172632,-100.15084839119932L-51.046911947834666,-38.36322310641346L-43.78988958431089,-38.71292208248844z" style="fill:rgb(92,32,204)"/><path d="M-106.28278291653822,-112.8391714467014L-105.08016388954587,-123.34288790537009L-106.43308297454104,-117.8987287301169z" style="fill:rgb(83,212,212)"/><path d="M3.5119511625768784,-78.85466845079128L-26.890136447616204,-146.45177624228026L-26.260423252691822,-141.4909418674806z" style="fill:rgb(246,167,149)"/><path d="M-72.46558245666603,-152.88765349534233L-68.77616010739229,-101.91350039885182L-64.840716934935,-155.6556809333416z" style="fill:rgb(83,212,212)"/><path d="M-3.1024849665072836,-61.73122990228091L-39.023302805321606,-118.62601084827344L-8.045387345413154,-56.131530098773275z" style="fill:rgb(220,94,208)"/><path d="M-64.840716934935,-155.6556809333416L-68.77616010739229,-101.91350039885182L-57.25813991300883,-157.45835640531786z" style="fill:rgb(83,212,212)"/><path d="M-68.77616010739229,-101.91350039885182L-43.78988958431089,-38.71292208248844L-36.14775120079742,-40.22891802780169z" style="fill:rgb(115,34,214)"/><path d="M-8.045387345413154,-56.131530098773275L-45.476630267674885,-113.31665784897746L-14.08581199743172,-50.97853213119299z" style="fill:rgb(203,77,216)"/><path d="M-101.44711785214835,-104.65399211228512L-63.26710295289526,-41.122067696433575L-96.89624855736649,-101.87183470950936z" style="fill:rgb(34,46,160)"/><path d="M-105.08016388954587,-123.34288790537009L-106.28278291653822,-112.8391714467014L-104.60847037824779,-108.3630421806645z" style="fill:rgb(83,212,212)"/><path d="M-45.476630267674885,-113.31665784897746L-20.978216310035627,-46.490243887706484L-14.08581199743172,-50.97853213119299z" style="fill:rgb(183,62,221)"/><path d="M-60.671511056947246,-104.78018889750044L-36.14775120079742,-40.22891802780169L-28.43635974930847,-42.856523148648265z" style="fill:rgb(139,40,220)"/><path d="M-27.20406453015946,-136.0070377387848L3.5119511625768784,-78.85466845079128L-26.260423252691822,-141.4909418674806z" style="fill:rgb(246,149,167)"/><path d="M-57.25813991300883,-157.45835640531786L-52.79447572966913,-108.63508967636048L-49.98685075036776,-158.22472232430601z" style="fill:rgb(83,212,212)"/><path d="M-52.79447572966913,-108.63508967636048L-28.43635974930847,-42.856523148648265L-20.978216310035627,-46.490243887706484z" style="fill:rgb(162,50,222)"/><path d="M-102.29787731549935,-128.96571536214648L-104.60847037824779,-108.3630421806645L-101.44711785214835,-104.65399211228512zM-49.98685075036776,-158.22472232430601L-52.79447572966913,-108.63508967636048L-43.29054015972621,-157.91658706039905zM-92.96995208001638,-139.93062289191232L-101.44711785214835,-104.65399211228512L-96.89624855736649,-101.87183470950936z" style="fill:rgb(83,212,212)"/><path d="M-96.89624855736649,-101.87183470950936L-57.62523937007408,-39.1822707872134L-91.11399510062814,-100.14392857186571z" style="fill:rgb(51,38,177)"/><path d="M-29.7095031263909,-130.21198810084837L2.7775342578969004,-73.32816228533841L-27.20406453015946,-136.0070377387848z" style="fill:rgb(242,130,183)"/><path d="M-43.29054015972621,-157.91658706039905L-45.476630267674885,-113.31665784897746L-37.41983641987692,-156.53112656048626zM-37.41983641987692,-156.53112656048626L-33.69792082910013,-124.33772849852856L-32.60384186825083,-154.10302433858337zM-86.78167282818062,-144.8856533070296L-96.89624855736649,-101.87183470950936L-91.11399510062814,-100.14392857186571z" style="fill:rgb(83,212,212)"/><path d="M-57.62523937007408,-39.1822707872134L-84.31593874907341,-99.55704829578875L-91.11399510062814,-100.14392857186571z" style="fill:rgb(71,33,192)"/><path d="M-32.60384186825083,-154.10302433858337L-29.7095031263909,-130.21198810084837L-29.04109103897882,-150.7057579302059z" style="fill:rgb(83,212,212)"/><path d="M-33.69792082910013,-124.33772849852856L0.5495796942434565,-67.54308909003831L-29.7095031263909,-130.21198810084837z" style="fill:rgb(233,112,197)"/><path d="M-86.78167282818062,-144.8856533070296L-91.11399510062814,-100.14392857186571L-84.31593874907341,-99.55704829578875z" style="fill:rgb(83,212,212)"/><path d="M-51.046911947834666,-38.36322310641346L-76.7680800172632,-100.15084839119932L-84.31593874907341,-99.55704829578875z" style="fill:rgb(92,32,204)"/><path d="M-79.86551719238192,-149.255093834019L-84.31593874907341,-99.55704829578875L-76.7680800172632,-100.15084839119932zM-29.04109103897882,-150.7057579302059L-29.7095031263909,-130.21198810084837L-26.890136447616204,-146.45177624228026z" style="fill:rgb(83,212,212)"/><path d="M-39.023302805321606,-118.62601084827344L-3.1024849665072836,-61.73122990228091L-33.69792082910013,-124.33772849852856z" style="fill:rgb(220,94,208)"/><path d="M-72.46558245666603,-152.88765349534233L-76.7680800172632,-100.15084839119932L-68.77616010739229,-101.91350039885182zM-26.890136447616204,-146.45177624228026L-27.20406453015946,-136.0070377387848L-26.260423252691822,-141.4909418674806z" style="fill:rgb(83,212,212)"/><path d="M-43.78988958431089,-38.71292208248844L-68.77616010739229,-101.91350039885182L-76.7680800172632,-100.15084839119932z" style="fill:rgb(115,34,214)"/><path d="M-45.476630267674885,-113.31665784897746L-8.045387345413154,-56.131530098773275L-39.023302805321606,-118.62601084827344z" style="fill:rgb(203,77,216)"/><path d="M-57.25813991300883,-157.45835640531786L-68.77616010739229,-101.91350039885182L-60.671511056947246,-104.78018889750044z" style="fill:rgb(83,212,212)"/><path d="M-36.14775120079742,-40.22891802780169L-60.671511056947246,-104.78018889750044L-68.77616010739229,-101.91350039885182z" style="fill:rgb(139,40,220)"/><path d="M-57.25813991300883,-157.45835640531786L-60.671511056947246,-104.78018889750044L-52.79447572966913,-108.63508967636048zM-32.60384186825083,-154.10302433858337L-33.69792082910013,-124.33772849852856L-29.7095031263909,-130.21198810084837z" style="fill:rgb(83,212,212)"/><path d="M-20.978216310035627,-46.490243887706484L-45.476630267674885,-113.31665784897746L-52.79447572966913,-108.63508967636048z" style="fill:rgb(183,62,221)"/><path d="M-28.43635974930847,-42.856523148648265L-52.79447572966913,-108.63508967636048L-60.671511056947246,-104.78018889750044z" style="fill:rgb(162,50,222)"/><path d="M-37.41983641987692,-156.53112656048626L-39.023302805321606,-118.62601084827344L-33.69792082910013,-124.33772849852856zM-26.890136447616204,-146.45177624228026L-29.7095031263909,-130.21198810084837L-27.20406453015946,-136.0070377387848zM-43.29054015972621,-157.91658706039905L-52.79447572966913,-108.63508967636048L-45.476630267674885,-113.31665784897746zM-37.41983641987692,-156.53112656048626L-45.476630267674885,-113.31665784897746L-39.023302805321606,-118.62601084827344z" style="fill:rgb(83,212,212)"/></svg>
