<?xml version="1.0" encoding="UTF-8"?>
<!-- Generated by jsxcad -->
<!DOCTYPE svg PUBLIC "-//W3C//DTD SVG 1.1 Tiny//EN" "http://www.w3.org/Graphics/SVG/1.1/DTD/svg11-tiny.dtd">
<svg viewBox="-250 -250 500 500" width="500" height="500" xmlns="http://www.w3.org/2000/svg"><path d="M53.95922398195607,84.01198510008362L48.051094508400084,93.90107097773459L57.80199998787556,91.64434731099199z" style="fill:rgb(127,37,217)"/><path d="M48.051094508400084,93.90107097773459L36.814086511637974,93.15105971410361L40.794603644529055,100.71262245155907z" style="fill:rgb(204,78,216)"/><path d="M48.051094508400084,93.90107097773459L53.95922398195607,84.01198510008362L44.13936035281097,86.30507634035023z" style="fill:rgb(127,37,217)"/><path d="M36.814086511637974,93.15105971410361L48.051094508400084,93.90107097773459L44.13936035281097,86.30507634035023z" style="fill:rgb(204,78,216)"/><path d="M65.5972859137494,95.00348874194745L53.95922398195607,84.01198510008362L57.80199998787556,91.64434731099199z" style="fill:rgb(50,38,176)"/><path d="M40.794603644529055,100.71262245155907L35.3565893374449,101.44436283842182L39.37463024476261,108.98843623360646zM35.3565893374449,101.44436283842182L40.794603644529055,100.71262245155907L36.814086511637974,93.15105971410361z" style="fill:rgb(245,142,173)"/><path d="M53.95922398195607,84.01198510008362L65.5972859137494,95.00348874194745L61.792977405326404,87.34950337091782z" style="fill:rgb(50,38,176)"/><path d="M44.38255786240265,119.63257000454777L33.07617959775843,107.85801827006492L37.13059468805483,115.38417398883057z" style="fill:rgb(42,41,169)"/><path d="M54.1909356660241,60.65768501361488L72.7138131075945,99.30299718805087L69.64131746300923,92.1081635646057z" style="fill:rgb(243,180,133)"/><path d="M72.7138131075945,99.30299718805087L66.7915207068425,100.14171545178759L70.605171028624,107.79227447605281z" style="fill:rgb(243,133,180)"/><path d="M36.87628686484636,57.02574171358694L32.1624408475495,70.95635819369454L41.73419001654556,66.60673317270849z" style="fill:rgb(158,48,222)"/><path d="M66.7915207068425,100.14171545178759L72.7138131075945,99.30299718805087L68.94134811638195,91.63150038652995z" style="fill:rgb(243,133,180)"/><path d="M33.07617959775843,107.85801827006492L44.38255786240265,119.63257000454777L40.3597283565634,112.08966360122622z" style="fill:rgb(42,41,169)"/><path d="M32.1624408475495,70.95635819369454L20.22084696538075,68.78326192977315L25.255011084811322,78.27656166382083z" style="fill:rgb(212,85,213)"/><path d="M46.724227224248764,56.728752965004546L41.73419001654556,66.60673317270849L51.506431724363665,66.3531703626892z" style="fill:rgb(96,32,206)"/><path d="M32.1624408475495,70.95635819369454L36.87628686484636,57.02574171358694L27.213026497151596,61.42303200782139z" style="fill:rgb(158,48,222)"/><path d="M20.22084696538075,68.78326192977315L32.1624408475495,70.95635819369454L27.213026497151596,61.42303200782139z" style="fill:rgb(212,85,213)"/><path d="M41.73419001654556,66.60673317270849L46.724227224248764,56.728752965004546L36.87628686484636,57.02574171358694z" style="fill:rgb(96,32,206)"/><path d="M58.93247540564112,70.30945853646104L46.724227224248764,56.728752965004546L51.506431724363665,66.3531703626892z" style="fill:rgb(42,41,169)"/><path d="M25.255011084811322,78.27656166382083L17.74067388255146,77.22209587913855L22.831062673787905,86.69261338285001zM17.74067388255146,77.22209587913855L25.255011084811322,78.27656166382083L20.22084696538075,68.78326192977315z" style="fill:rgb(243,133,180)"/><path d="M40.3597283565634,112.08966360122622L20.507681636271037,84.52729528730544L33.07617959775843,107.85801827006492z" style="fill:rgb(42,41,169)"/><path d="M37.934423589329285,88.53610051233453L44.38255786240265,119.63257000454777L54.17291917476191,119.60326049459934z" style="fill:rgb(96,32,206)"/><path d="M17.74067388255146,77.22209587913855L25.609710322376614,93.9981172412597L22.831062673787905,86.69261338285001zM72.7138131075945,99.30299718805087L54.1909356660241,60.65768501361488L57.24614191885647,67.84872704240553z" style="fill:rgb(243,180,133)"/><path d="M46.724227224248764,56.728752965004546L58.93247540564112,70.30945853646104L54.1909356660241,60.65768501361488z" style="fill:rgb(42,41,169)"/><path d="M70.605171028624,107.79227447605281L47.885937924803535,84.02463101638118L63.80819488346572,115.25490182209742z" style="fill:rgb(212,85,213)"/><path d="M47.885937924803535,84.02463101638118L54.17291917476191,119.60326049459934L63.80819488346572,115.25490182209742z" style="fill:rgb(158,48,222)"/><path d="M68.94134811638195,91.63150038652995L54.96615206429315,76.41887383025927L66.7915207068425,100.14171545178759z" style="fill:rgb(243,133,180)"/><path d="M20.22084696538075,68.78326192977315L27.886322781144305,88.70172396181417L27.213026497151596,61.42303200782139zM27.213026497151596,61.42303200782139L37.934423589329285,88.53610051233453L36.87628686484636,57.02574171358694z" style="fill:rgb(83,212,212)"/><path d="M24.495555404697807,99.67270139122921L14.126951403301002,84.2107867637769L19.275917794900792,93.65501437990319z" style="fill:rgb(23,55,145)"/><path d="M20.507681636271037,84.52729528730544L20.22084696538075,68.78326192977315L17.74067388255146,77.22209587913855zM36.87628686484636,57.02574171358694L37.934423589329285,88.53610051233453L46.724227224248764,56.728752965004546z" style="fill:rgb(83,212,212)"/><path d="M25.609710322376614,93.9981172412597L17.74067388255146,77.22209587913855L20.507681636271037,84.52729528730544z" style="fill:rgb(243,180,133)"/><path d="M54.96615206429315,76.41887383025927L68.94134811638195,91.63150038652995L57.24614191885647,67.84872704240553z" style="fill:rgb(243,133,180)"/><path d="M20.507681636271037,84.52729528730544L40.3597283565634,112.08966360122622L27.886322781144305,88.70172396181417z" style="fill:rgb(42,41,169)"/><path d="M44.38255786240265,119.63257000454777L37.934423589329285,88.53610051233453L27.886322781144305,88.70172396181417z" style="fill:rgb(96,32,206)"/><path d="M20.22084696538075,68.78326192977315L20.507681636271037,84.52729528730544L27.886322781144305,88.70172396181417zM46.724227224248764,56.728752965004546L47.885937924803535,84.02463101638118L54.1909356660241,60.65768501361488z" style="fill:rgb(83,212,212)"/><path d="M14.126951403301002,84.2107867637769L24.495555404697807,99.67270139122921L19.359447901211496,90.21635739957614z" style="fill:rgb(23,55,145)"/><path d="M47.885937924803535,84.02463101638118L70.605171028624,107.79227447605281L54.96615206429315,76.41887383025927z" style="fill:rgb(212,85,213)"/><path d="M32.91256186937774,102.69807564764132L19.359447901211496,90.21635739957614L24.495555404697807,99.67270139122921z" style="fill:rgb(57,36,182)"/><path d="M27.213026497151596,61.42303200782139L27.886322781144305,88.70172396181417L37.934423589329285,88.53610051233453z" style="fill:rgb(83,212,212)"/><path d="M54.17291917476191,119.60326049459934L47.885937924803535,84.02463101638118L37.934423589329285,88.53610051233453z" style="fill:rgb(158,48,222)"/><path d="M54.1909356660241,60.65768501361488L54.96615206429315,76.41887383025927L57.24614191885647,67.84872704240553zM46.724227224248764,56.728752965004546L37.934423589329285,88.53610051233453L47.885937924803535,84.02463101638118zM54.1909356660241,60.65768501361488L47.885937924803535,84.02463101638118L54.96615206429315,76.41887383025927z" style="fill:rgb(83,212,212)"/><path d="M19.359447901211496,90.21635739957614L32.91256186937774,102.69807564764132L27.82841225702348,93.21137142867367z" style="fill:rgb(57,36,182)"/><path d="M19.359447901211496,90.21635739957614L-70.47837869259573,-70.97218496343793L14.126951403301002,84.2107867637769z" style="fill:rgb(23,55,145)"/><path d="M66.68375725438891,74.32074777607163L-16.639246531477614,-86.03659622809253L66.08971299034485,82.74102773602245z" style="fill:rgb(246,148,167)"/><path d="M66.08971299034485,82.74102773602245L-22.76546052878795,-77.15397732189024L61.310641669186346,91.15518589779414z" style="fill:rgb(231,109,199)"/><path d="M27.82841225702348,93.21137142867367L-65.14617399208532,-65.37118451887085L19.359447901211496,90.21635739957614z" style="fill:rgb(57,36,182)"/><path d="M-44.37388224768446,-64.49936880405197L32.91256186937774,102.69807564764132L43.072681373332784,102.13344774132324z" style="fill:rgb(102,32,209)"/><path d="M61.310641669186346,91.15518589779414L-32.6032573579023,-69.50326463127865L53.15037532889186,98.04054197544461z" style="fill:rgb(197,72,218)"/><path d="M-32.6032573579023,-69.50326463127865L43.072681373332784,102.13344774132324L53.15037532889186,98.04054197544461z" style="fill:rgb(152,45,222)"/><path d="M-16.639246531477614,-86.03659622809253L66.68375725438891,74.32074777607163L-15.260493359340298,-94.53759342859351z" style="fill:rgb(246,148,167)"/><path d="M-70.47837869259573,-70.97218496343793L19.359447901211496,90.21635739957614L-65.14617399208532,-65.37118451887085z" style="fill:rgb(23,55,145)"/><path d="M-22.76546052878795,-77.15397732189024L66.08971299034485,82.74102773602245L-16.639246531477614,-86.03659622809253z" style="fill:rgb(231,109,199)"/><path d="M-65.14617399208532,-65.37118451887085L27.82841225702348,93.21137142867367L-55.915939826409954,-63.050363153888455z" style="fill:rgb(57,36,182)"/><path d="M32.91256186937774,102.69807564764132L-44.37388224768446,-64.49936880405197L-55.915939826409954,-63.050363153888455z" style="fill:rgb(102,32,209)"/><path d="M-32.6032573579023,-69.50326463127865L61.310641669186346,91.15518589779414L-22.76546052878795,-77.15397732189024z" style="fill:rgb(197,72,218)"/><path d="M43.072681373332784,102.13344774132324L-32.6032573579023,-69.50326463127865L-44.37388224768446,-64.49936880405197z" style="fill:rgb(152,45,222)"/><path d="M-66.98847405739036,-87.49330973993521L-65.14617399208532,-65.37118451887085L-58.9501976793966,-95.58749236522374zM-70.47837869259573,-70.97218496343793L-66.98847405739036,-87.49330973993521L-71.08819208006912,-78.8043871255767zM-58.9501976793966,-95.58749236522374L-55.915939826409954,-63.050363153888455L-48.3313357661473,-101.77497689712253zM-48.3313357661473,-101.77497689712253L-44.37388224768446,-64.49936880405197L-36.86389244109067,-105.05419654436432zM-36.86389244109067,-105.05419654436432L-32.6032573579023,-69.50326463127865L-26.420585171229817,-104.86390616177894zM-66.98847405739036,-87.49330973993521L-70.47837869259573,-70.97218496343793L-65.14617399208532,-65.37118451887085zM-26.420585171229817,-104.86390616177894L-22.76546052878795,-77.15397732189024L-18.761361072539135,-101.17583549192165zM-58.9501976793966,-95.58749236522374L-65.14617399208532,-65.37118451887085L-55.915939826409954,-63.050363153888455zM-18.761361072539135,-101.17583549192165L-16.639246531477614,-86.03659622809253L-15.260493359340298,-94.53759342859351zM-48.3313357661473,-101.77497689712253L-55.915939826409954,-63.050363153888455L-44.37388224768446,-64.49936880405197zM-36.86389244109067,-105.05419654436432L-44.37388224768446,-64.49936880405197L-32.6032573579023,-69.50326463127865zM-18.761361072539135,-101.17583549192165L-22.76546052878795,-77.15397732189024L-16.639246531477614,-86.03659622809253zM-26.420585171229817,-104.86390616177894L-32.6032573579023,-69.50326463127865L-22.76546052878795,-77.15397732189024z" style="fill:rgb(83,212,212)"/><path d="M-46.08548260865422,-143.46290839817732L-20.834239264005465,-90.93158058659657L-23.685014427526212,-97.86498916522588z" style="fill:rgb(243,180,133)"/><path d="M-55.468349290653805,-67.59031871363194L-87.52876007831445,-116.0192106012623L-63.372223337459886,-71.17777876556283z" style="fill:rgb(42,41,169)"/><path d="M-20.834239264005465,-90.93158058659657L-46.8843195111795,-127.90315004214023L-24.079505156245705,-82.15445650984053z" style="fill:rgb(243,133,180)"/><path d="M-67.89577130741375,-113.93609492733924L-55.468349290653805,-67.59031871363194L-44.188482919067454,-68.57978565547121z" style="fill:rgb(96,32,206)"/><path d="M-20.834239264005465,-90.93158058659657L-46.08548260865422,-143.46290839817732L-43.329827553996836,-136.67746928470086z" style="fill:rgb(243,180,133)"/><path d="M-24.079505156245705,-82.15445650984053L-55.896770827825264,-119.53707285252369L-32.64611133856603,-73.93271612848463z" style="fill:rgb(212,85,213)"/><path d="M-55.896770827825264,-119.53707285252369L-44.188482919067454,-68.57978565547121L-32.64611133856603,-73.93271612848463z" style="fill:rgb(158,48,222)"/><path d="M-86.05230391722797,-131.62398919938667L-79.50897205394965,-112.66707009800193L-77.19538574015814,-139.68349726965272zM-77.19538574015814,-139.68349726965272L-67.89577130741375,-113.93609492733924L-65.6130559153193,-145.10870837038283zM-87.52876007831445,-116.0192106012623L-86.05230391722797,-131.62398919938667L-89.86787262959618,-122.98040094275754z" style="fill:rgb(83,212,212)"/><path d="M-46.8843195111795,-127.90315004214023L-20.834239264005465,-90.93158058659657L-43.329827553996836,-136.67746928470086z" style="fill:rgb(243,133,180)"/><path d="M-87.52876007831445,-116.0192106012623L-55.468349290653805,-67.59031871363194L-79.50897205394965,-112.66707009800193z" style="fill:rgb(42,41,169)"/><path d="M-65.6130559153193,-145.10870837038283L-55.896770827825264,-119.53707285252369L-54.26086458947751,-146.50855079797205zM-54.26086458947751,-146.50855079797205L-46.8843195111795,-127.90315004214023L-46.08548260865422,-143.46290839817732z" style="fill:rgb(83,212,212)"/><path d="M-55.468349290653805,-67.59031871363194L-67.89577130741375,-113.93609492733924L-79.50897205394965,-112.66707009800193z" style="fill:rgb(96,32,206)"/><path d="M-86.05230391722797,-131.62398919938667L-87.52876007831445,-116.0192106012623L-79.50897205394965,-112.66707009800193z" style="fill:rgb(83,212,212)"/><path d="M-55.896770827825264,-119.53707285252369L-24.079505156245705,-82.15445650984053L-46.8843195111795,-127.90315004214023z" style="fill:rgb(212,85,213)"/><path d="M-77.19538574015814,-139.68349726965272L-79.50897205394965,-112.66707009800193L-67.89577130741375,-113.93609492733924z" style="fill:rgb(83,212,212)"/><path d="M-44.188482919067454,-68.57978565547121L-55.896770827825264,-119.53707285252369L-67.89577130741375,-113.93609492733924z" style="fill:rgb(158,48,222)"/><path d="M-46.08548260865422,-143.46290839817732L-46.8843195111795,-127.90315004214023L-43.329827553996836,-136.67746928470086zM-65.6130559153193,-145.10870837038283L-67.89577130741375,-113.93609492733924L-55.896770827825264,-119.53707285252369zM-54.26086458947751,-146.50855079797205L-55.896770827825264,-119.53707285252369L-46.8843195111795,-127.90315004214023z" style="fill:rgb(83,212,212)"/></svg>
