<?xml version="1.0" encoding="UTF-8"?>
<!-- Generated by jsxcad -->
<!DOCTYPE svg PUBLIC "-//W3C//DTD SVG 1.1 Tiny//EN" "http://www.w3.org/Graphics/SVG/1.1/DTD/svg11-tiny.dtd">
<svg viewBox="-250 -250 500 500" width="500" height="500" xmlns="http://www.w3.org/2000/svg"><path d="M42.0458659669612,73.7978324711598L42.604459758175636,86.63008777253043L47.41200618169816,84.30976350655304z" style="fill:rgb(162,50,222)"/><path d="M37.18625845497443,76.14505801363129L38.2031783692354,89.60370907346514L42.604459758175636,86.63008777253043z" style="fill:rgb(183,62,221)"/><path d="M47.13632016887631,72.18836439143534L47.41200618169816,84.30976350655304L52.45183623196283,82.72703778448029z" style="fill:rgb(139,40,220)"/><path d="M48.12164265322673,72.03274121874345L52.45183623196283,82.72703778448029L53.428070914587195,82.57632803421644z" style="fill:rgb(115,34,214)"/><path d="M38.2031783692354,89.60370907346514L29.5958019789641,82.00803899970818L35.10581243660743,92.44713645624626zM35.10581243660743,92.44713645624626L28.849002569234802,82.68956870265595L34.36855937811191,93.1239450747897z" style="fill:rgb(203,77,216)"/><path d="M52.27347045561534,71.37701085563343L53.428070914587195,82.57632803421644L57.54151643894893,81.94131190430411z" style="fill:rgb(115,34,214)"/><path d="M34.36855937811191,93.1239450747897L26.287376777671795,85.89012487407092L31.843881342944247,96.30667514815443z" style="fill:rgb(220,94,208)"/><path d="M42.604459758175636,86.63008777253043L42.0458659669612,73.7978324711598L37.18625845497443,76.14505801363129z" style="fill:rgb(162,50,222)"/><path d="M31.843881342944247,96.30667514815443L25.677216663079417,86.65247116137984L31.24253629165229,97.06475777738632z" style="fill:rgb(220,94,208)"/><path d="M38.2031783692354,89.60370907346514L37.18625845497443,76.14505801363129L32.73324492663483,79.1448193415487z" style="fill:rgb(183,62,221)"/><path d="M47.41200618169816,84.30976350655304L47.13632016887631,72.18836439143534L42.0458659669612,73.7978324711598z" style="fill:rgb(139,40,220)"/><path d="M57.270162956968505,71.39719548673115L57.54151643894893,81.94131190430411L62.49552935886427,81.98504594005244z" style="fill:rgb(92,32,204)"/><path d="M29.5958019789641,82.00803899970818L38.2031783692354,89.60370907346514L32.73324492663483,79.1448193415487z" style="fill:rgb(203,77,216)"/><path d="M52.45183623196283,82.72703778448029L48.12164265322673,72.03274121874345L47.13632016887631,72.18836439143534z" style="fill:rgb(115,34,214)"/><path d="M43.521159860111766,78.63230857074882L45.27383868788089,90.89092865021487L48.89731935955461,89.14264229737576z" style="fill:rgb(162,50,222)"/><path d="M39.85824427390556,80.40095940293588L41.958444113466534,93.13371125318058L45.27383868788089,90.89092865021487z" style="fill:rgb(183,62,221)"/><path d="M53.428070914587195,82.57632803421644L52.27347045561534,71.37701085563343L48.12164265322673,72.03274121874345z" style="fill:rgb(115,34,214)"/><path d="M28.849002569234802,82.68956870265595L35.10581243660743,92.44713645624626L29.5958019789641,82.00803899970818z" style="fill:rgb(203,77,216)"/><path d="M47.35794010436138,77.42276952314445L48.89731935955461,89.14264229737576L52.69575407675032,87.95327778271788z" style="fill:rgb(139,40,220)"/><path d="M31.24253629165229,97.06475777738632L23.338404684246328,90.8909092486868L28.94393320001866,101.28424818585484z" style="fill:rgb(233,112,197)"/><path d="M41.958444113466534,93.13371125318058L33.581376774100434,85.33761289008392L39.07358111918009,95.78912266295816z" style="fill:rgb(203,77,216)"/><path d="M26.287376777671795,85.89012487407092L34.36855937811191,93.1239450747897L28.849002569234802,82.68956870265595z" style="fill:rgb(220,94,208)"/><path d="M51.2276478273226,76.81798952037072L52.69575407675032,87.95327778271788L56.52955415139495,87.36775062975694z" style="fill:rgb(115,34,214)"/><path d="M61.94193492214777,72.25378294529922L62.49552935886427,81.98504594005244L67.13092841837896,82.86216155046048z" style="fill:rgb(71,33,192)"/><path d="M57.54151643894893,81.94131190430411L57.270162956968505,71.39719548673115L52.27347045561534,71.37701085563343z" style="fill:rgb(92,32,204)"/><path d="M25.677216663079417,86.65247116137984L31.843881342944247,96.30667514815443L26.287376777671795,85.89012487407092zM39.07358111918009,95.78912266295816L31.20041438654626,88.32563399347059L36.72705755353828,98.7603642831213z" style="fill:rgb(220,94,208)"/><path d="M54.987391663634966,76.84250220807677L56.52955415139495,87.36775062975694L60.25708981744223,87.40986301150157z" style="fill:rgb(92,32,204)"/><path d="M23.338404684246328,90.8909092486868L31.24253629165229,97.06475777738632L25.677216663079417,86.65247116137984z" style="fill:rgb(233,112,197)"/><path d="M45.27383868788089,90.89092865021487L43.521159860111766,78.63230857074882L39.85824427390556,80.40095940293588z" style="fill:rgb(162,50,222)"/><path d="M28.94393320001866,101.28424818585484L21.925510825080295,95.25054285337674L27.56413822312441,105.62870698748354z" style="fill:rgb(242,130,183)"/><path d="M71.2732213564631,84.54714379441951L61.94193492214777,72.25378294529922L67.13092841837896,82.86216155046048z" style="fill:rgb(51,38,177)"/><path d="M41.958444113466534,93.13371125318058L39.85824427390556,80.40095940293588L36.50370318495261,82.66357814089953z" style="fill:rgb(183,62,221)"/><path d="M48.89731935955461,89.14264229737576L47.35794010436138,77.42276952314445L43.521159860111766,78.63230857074882z" style="fill:rgb(139,40,220)"/><path d="M36.72705755353828,98.7603642831213L29.451574343152096,91.51829837005634L35.00833613281251,101.93866419122682z" style="fill:rgb(233,112,197)"/><path d="M33.581376774100434,85.33761289008392L41.958444113466534,93.13371125318058L36.50370318495261,82.66357814089953z" style="fill:rgb(203,77,216)"/><path d="M62.49552935886427,81.98504594005244L61.94193492214777,72.25378294529922L57.270162956968505,71.39719548673115z" style="fill:rgb(71,33,192)"/><path d="M52.69575407675032,87.95327778271788L51.2276478273226,76.81798952037072L47.35794010436138,77.42276952314445z" style="fill:rgb(115,34,214)"/><path d="M58.496939960447186,77.49858772198375L60.25708981744223,87.40986301150157L63.739308359794094,88.08119785516945z" style="fill:rgb(71,33,192)"/><path d="M31.20041438654626,88.32563399347059L39.07358111918009,95.78912266295816L33.581376774100434,85.33761289008392z" style="fill:rgb(220,94,208)"/><path d="M56.52955415139495,87.36775062975694L54.987391663634966,76.84250220807677L51.2276478273226,76.81798952037072z" style="fill:rgb(92,32,204)"/><path d="M71.94138974856251,85.0139363362568L66.11293230856516,73.92213395942474L71.2732213564631,84.54714379441951z" style="fill:rgb(34,46,160)"/><path d="M21.925510825080295,95.25054285337674L28.94393320001866,101.28424818585484L23.338404684246328,90.8909092486868zM35.00833613281251,101.93866419122682L28.403837673682894,94.79772911450503L33.985238696706865,105.20664203515555z" style="fill:rgb(242,130,183)"/><path d="M66.84440709595499,89.36061225249868L58.496939960447186,77.49858772198375L63.739308359794094,88.08119785516945z" style="fill:rgb(51,38,177)"/><path d="M27.56413822312441,105.62870698748354L21.499956956321487,99.56996726493875L27.16319231304362,109.9372632055888z" style="fill:rgb(246,149,167)"/><path d="M29.451574343152096,91.51829837005634L36.72705755353828,98.7603642831213L31.20041438654626,88.32563399347059z" style="fill:rgb(233,112,197)"/><path d="M74.76252598038465,86.98483960826474L66.78488527405082,74.38661996737777L71.94138974856251,85.0139363362568z" style="fill:rgb(34,46,160)"/><path d="M60.25708981744223,87.40986301150157L58.496939960447186,77.49858772198375L54.987391663634966,76.84250220807677z" style="fill:rgb(71,33,192)"/><path d="M61.94193492214777,72.25378294529922L71.2732213564631,84.54714379441951L66.11293230856516,73.92213395942474z" style="fill:rgb(51,38,177)"/><path d="M33.985238696706865,105.20664203515555L28.10154228933061,98.04133656345286L33.70109106487468,108.44212241632249z" style="fill:rgb(246,149,167)"/><path d="M69.45259835198063,91.20438087740443L61.62345613329083,78.76574016190393L66.84440709595499,89.36061225249868z" style="fill:rgb(34,46,160)"/><path d="M28.403837673682894,94.79772911450503L35.00833613281251,101.93866419122682L29.451574343152096,91.51829837005634z" style="fill:rgb(242,130,183)"/><path d="M21.499956956321487,99.56996726493875L27.766490180762197,114.0471155662518L27.16319231304362,109.9372632055888z" style="fill:rgb(246,167,149)"/><path d="M21.499956956321487,99.56996726493875L27.56413822312441,105.62870698748354L21.925510825080295,95.25054285337674z" style="fill:rgb(246,149,167)"/><path d="M66.11293230856516,73.92213395942474L71.94138974856251,85.0139363362568L66.78488527405082,74.38661996737777z" style="fill:rgb(34,46,160)"/><path d="M28.10154228933061,98.04133656345286L34.172479936009545,111.52229586393688L33.70109106487468,108.44212241632249z" style="fill:rgb(246,167,149)"/><path d="M77.45969186742582,90.09112077242658L69.62210823101682,76.34786338504597L74.76252598038465,86.98483960826474z" style="fill:rgb(21,57,142)"/><path d="M58.496939960447186,77.49858772198375L66.84440709595499,89.36061225249868L61.62345613329083,78.76574016190393z" style="fill:rgb(51,38,177)"/><path d="M28.10154228933061,98.04133656345286L33.985238696706865,105.20664203515555L28.403837673682894,94.79772911450503z" style="fill:rgb(246,149,167)"/><path d="M71.46076788916568,93.54702262729879L64.24631626601438,80.60077909858349L69.45259835198063,91.20438087740443z" style="fill:rgb(21,57,142)"/><path d="M66.78488527405082,74.38661996737777L74.76252598038465,86.98483960826474L69.62210823101682,76.34786338504597z" style="fill:rgb(34,46,160)"/><path d="M22.088266977784475,103.68595681997628L29.362360085997427,117.79932467177773L27.766490180762197,114.0471155662518z" style="fill:rgb(242,183,130)"/><path d="M25.21619610319705,40.82958151184691L37.18625845497443,76.14505801363129L42.0458659669612,73.7978324711598z" style="fill:rgb(162,50,222)"/><path d="M61.62345613329083,78.76574016190393L69.45259835198063,91.20438087740443L64.24631626601438,80.60077909858349z" style="fill:rgb(34,46,160)"/><path d="M28.56207761442701,101.125994814328L35.38778886656844,114.3281556685823L34.172479936009545,111.52229586393688z" style="fill:rgb(242,183,130)"/><path d="M20.19341454286372,43.26138046685946L32.73324492663483,79.1448193415487L37.18625845497443,76.14505801363129z" style="fill:rgb(183,62,221)"/><path d="M30.46475530105154,39.134921856697495L42.0458659669612,73.7978324711598L47.13632016887631,72.18836439143534z" style="fill:rgb(139,40,220)"/><path d="M27.766490180762197,114.0471155662518L21.499956956321487,99.56996726493875L22.088266977784475,103.68595681997628z" style="fill:rgb(246,167,149)"/><path d="M79.2523946132533,93.75472958127742L72.32942773072621,79.44745481042294L77.45969186742582,90.09112077242658z" style="fill:rgb(12,71,124)"/><path d="M32.73324492663483,79.1448193415487L11.536740169347393,49.961834029532504L28.849002569234802,82.68956870265595z" style="fill:rgb(203,77,216)"/><path d="M34.172479936009545,111.52229586393688L28.10154228933061,98.04133656345286L28.56207761442701,101.125994814328z" style="fill:rgb(246,167,149)"/><path d="M35.74959245627303,38.24079129324989L47.13632016887631,72.18836439143534L52.27347045561534,71.37701085563343z" style="fill:rgb(115,34,214)"/><path d="M69.62210823101682,76.34786338504597L77.45969186742582,90.09112077242658L72.32942773072621,79.44745481042294zM64.24631626601438,80.60077909858349L71.46076788916568,93.54702262729879L66.2617346580556,82.93864417924479z" style="fill:rgb(21,57,142)"/><path d="M28.849002569234802,82.68956870265595L8.219821401523628,53.99101262927762L25.677216663079417,86.65247116137984z" style="fill:rgb(220,94,208)"/><path d="M31.900782476423334,121.0450004210922L23.679579432068117,107.43927299860623L29.362360085997427,117.79932467177773zM25.75827766862787,124.4153236664229L17.58089457732022,110.94829439726807L23.333129223366903,121.27268219083555z" style="fill:rgb(21,57,142)"/><path d="M40.878479639105386,38.183705335309575L52.27347045561534,71.37701085563343L57.270162956968505,71.39719548673115z" style="fill:rgb(92,32,204)"/><path d="M29.362360085997427,117.79932467177773L22.088266977784475,103.68595681997628L23.679579432068117,107.43927299860623zM35.38778886656844,114.3281556685823L28.56207761442701,101.125994814328L29.7743770210723,103.93249415430085z" style="fill:rgb(242,183,130)"/><path d="M74.12194735337431,83.11005835531002L80.06066235953425,97.84025130953178L79.2523946132533,93.75472958127742zM80.66545191905605,80.52252962376777L86.54717875369928,95.21781930268322L85.72658159693796,91.20302435364833z" style="fill:rgb(246,167,149)"/><path d="M25.677216663079417,86.65247116137984L5.752765207292726,58.28497429078771L23.338404684246328,90.8909092486868z" style="fill:rgb(233,112,197)"/><path d="M72.32942773072621,79.44745481042294L79.2523946132533,93.75472958127742L74.12194735337431,83.11005835531002z" style="fill:rgb(12,71,124)"/><path d="M45.66224744490246,38.97160434350111L57.270162956968505,71.39719548673115L61.94193492214777,72.25378294529922z" style="fill:rgb(71,33,192)"/><path d="M26.480982081493636,125.3518469160361L20.011605020367035,114.0872910351819L25.75827766862787,124.4153236664229z" style="fill:rgb(21,57,142)"/><path d="M34.64003704629057,123.1495414442126L26.22429885402434,110.68087097732325L31.900782476423334,121.0450004210922z" style="fill:rgb(34,46,160)"/><path d="M80.06066235953425,97.84025130953178L74.87346609856307,88.03586371977092L80.01871585845379,98.67368783532756z" style="fill:rgb(246,149,167)"/><path d="M81.47600194090181,84.54187956190475L86.76959604024296,96.30599686874172L86.54717875369928,95.21781930268322z" style="fill:rgb(246,167,149)"/><path d="M23.679579432068117,107.43927299860623L31.900782476423334,121.0450004210922L26.22429885402434,110.68087097732325z" style="fill:rgb(21,57,142)"/><path d="M23.338404684246328,90.8909092486868L4.233493731606549,62.68753773713095L21.925510825080295,95.25054285337674z" style="fill:rgb(242,130,183)"/><path d="M66.11293230856516,73.92213395942474L45.66224744490246,38.97160434350111L61.94193492214777,72.25378294529922z" style="fill:rgb(51,38,177)"/><path d="M17.58089457732022,110.94829439726807L25.75827766862787,124.4153236664229L20.011605020367035,114.0872910351819z" style="fill:rgb(21,57,142)"/><path d="M30.706311113870235,128.63732593656962L20.736006368992484,115.02277906767766L26.480982081493636,125.3518469160361zM35.29357782608786,123.6516581533923L28.977374353941183,112.77793240243345L34.64003704629057,123.1495414442126z" style="fill:rgb(34,46,160)"/><path d="M80.06066235953425,97.84025130953178L74.12194735337431,83.11005835531002L74.9194624484829,87.20042576115074z" style="fill:rgb(246,167,149)"/><path d="M80.01871585845379,98.67368783532756L74.67927718372954,91.56322411757728L79.84163315026564,102.19245544633961z" style="fill:rgb(246,149,167)"/><path d="M86.54717875369928,95.21781930268322L80.66545191905605,80.52252962376777L81.47600194090181,84.54187956190475z" style="fill:rgb(246,167,149)"/><path d="M20.011605020367035,114.0872910351819L26.480982081493636,125.3518469160361L20.736006368992484,115.02277906767766z" style="fill:rgb(21,57,142)"/><path d="M39.41631187834632,125.50948639998988L29.63423909468954,113.27827714460517L35.29357782608786,123.6516581533923z" style="fill:rgb(51,38,177)"/><path d="M37.18625845497443,76.14505801363129L25.21619610319705,40.82958151184691L20.19341454286372,43.26138046685946z" style="fill:rgb(162,50,222)"/><path d="M32.73324492663483,79.1448193415487L20.19341454286372,43.26138046685946L15.577675986216954,46.34220214836267z" style="fill:rgb(183,62,221)"/><path d="M42.0458659669612,73.7978324711598L30.46475530105154,39.134921856697495L25.21619610319705,40.82958151184691z" style="fill:rgb(139,40,220)"/><path d="M74.87346609856307,88.03586371977092L80.06066235953425,97.84025130953178L74.9194624484829,87.20042576115074z" style="fill:rgb(246,149,167)"/><path d="M26.22429885402434,110.68087097732325L34.64003704629057,123.1495414442126L28.977374353941183,112.77793240243345z" style="fill:rgb(34,46,160)"/><path d="M11.536740169347393,49.961834029532504L32.73324492663483,79.1448193415487L15.577675986216954,46.34220214836267z" style="fill:rgb(203,77,216)"/><path d="M86.76959604024296,96.30599686874172L81.42555856522411,91.09168173919475L86.52531766450318,101.75313128311828zM21.925510825080295,95.25054285337674L3.7278470529084244,67.03578806656792L21.499956956321487,99.56996726493875z" style="fill:rgb(246,149,167)"/><path d="M69.62210823101682,76.34786338504597L49.92086159777656,40.582751944963775L66.11293230856516,73.92213395942474z" style="fill:rgb(34,46,160)"/><path d="M31.796748321776057,129.13501628079874L24.98231244230072,118.297139345544L30.706311113870235,128.63732593656962z" style="fill:rgb(51,38,177)"/><path d="M86.76959604024296,96.30599686874172L81.47600194090181,84.54187956190475L81.69570802008901,85.63135730400619z" style="fill:rgb(246,167,149)"/><path d="M47.13632016887631,72.18836439143534L35.74959245627303,38.24079129324989L30.46475530105154,39.134921856697495z" style="fill:rgb(115,34,214)"/><path d="M74.67927718372954,91.56322411757728L80.01871585845379,98.67368783532756L74.87346609856307,88.03586371977092z" style="fill:rgb(246,149,167)"/><path d="M79.84163315026564,102.19245544633961L73.39969888840689,96.02863803134443L78.59301053864519,106.64190882157918z" style="fill:rgb(242,130,183)"/><path d="M28.977374353941183,112.77793240243345L35.29357782608786,123.6516581533923L29.63423909468954,113.27827714460517z" style="fill:rgb(34,46,160)"/><path d="M8.219821401523628,53.99101262927762L28.849002569234802,82.68956870265595L11.536740169347393,49.961834029532504z" style="fill:rgb(220,94,208)"/><path d="M35.85620958140921,130.98778247468698L26.079941469749787,118.79113171042853L31.796748321776057,129.13501628079874z" style="fill:rgb(51,38,177)"/><path d="M86.52531766450318,101.75313128311828L81.0658883648987,92.36827609909307L86.17438003991664,103.02519225935109z" style="fill:rgb(242,130,183)"/><path d="M20.736006368992484,115.02277906767766L30.706311113870235,128.63732593656962L24.98231244230072,118.297139345544z" style="fill:rgb(34,46,160)"/><path d="M81.42555856522411,91.09168173919475L86.76959604024296,96.30599686874172L81.69570802008901,85.63135730400619z" style="fill:rgb(246,149,167)"/><path d="M52.27347045561534,71.37701085563343L40.878479639105386,38.183705335309575L35.74959245627303,38.24079129324989z" style="fill:rgb(92,32,204)"/><path d="M3.7278470529084244,67.03578806656792L22.088266977784475,103.68595681997628L21.499956956321487,99.56996726493875z" style="fill:rgb(246,167,149)"/><path d="M78.59301053864519,106.64190882157918L72.96319327590467,96.86999143174836L78.16410249852575,107.47932129680494z" style="fill:rgb(233,112,197)"/><path d="M38.51711266224066,116.13059489914207L39.41631187834632,125.50948639998988L44.112078862444285,126.53700383716756z" style="fill:rgb(71,33,192)"/><path d="M29.63423909468954,113.27827714460517L39.41631187834632,125.50948639998988L33.78446900544922,115.12187828009588z" style="fill:rgb(51,38,177)"/><path d="M73.39969888840689,96.02863803134443L79.84163315026564,102.19245544633961L74.67927718372954,91.56322411757728z" style="fill:rgb(242,130,183)"/><path d="M5.752765207292726,58.28497429078771L25.677216663079417,86.65247116137984L8.219821401523628,53.99101262927762z" style="fill:rgb(233,112,197)"/><path d="M72.32942773072621,79.44745481042294L53.48971312529071,42.965345692775266L69.62210823101682,76.34786338504597z" style="fill:rgb(21,57,142)"/><path d="M78.16410249852575,107.47932129680494L71.12183838549379,100.41917266291638L76.35485955835642,111.011769339577z" style="fill:rgb(233,112,197)"/><path d="M24.98231244230072,118.297139345544L31.796748321776057,129.13501628079874L26.079941469749787,118.79113171042853z" style="fill:rgb(51,38,177)"/><path d="M86.17438003991664,103.02519225935109L79.84817478492916,96.69043967716374L84.98625699663056,107.33181023300736z" style="fill:rgb(242,130,183)"/><path d="M57.270162956968505,71.39719548673115L45.66224744490246,38.97160434350111L40.878479639105386,38.183705335309575z" style="fill:rgb(71,33,192)"/><path d="M43.64707947987728,116.25661341085389L44.112078862444285,126.53700383716756L49.19722464928541,126.68578311503029z" style="fill:rgb(92,32,204)"/><path d="M81.0658883648987,92.36827609909307L86.52531766450318,101.75313128311828L81.42555856522411,91.09168173919475z" style="fill:rgb(242,130,183)"/><path d="M39.41631187834632,125.50948639998988L38.51711266224066,116.13059489914207L33.78446900544922,115.12187828009588z" style="fill:rgb(71,33,192)"/><path d="M72.96319327590467,96.86999143174836L78.59301053864519,106.64190882157918L73.39969888840689,96.02863803134443z" style="fill:rgb(233,112,197)"/><path d="M76.35485955835642,111.011769339577L67.92935638747724,104.55734122101384L73.20933615054699,115.12545043580974z" style="fill:rgb(220,94,208)"/><path d="M4.266009266769924,71.16535481390932L23.679579432068117,107.43927299860623L22.088266977784475,103.68595681997628z" style="fill:rgb(242,183,130)"/><path d="M36.091656143425915,121.916253788646L35.85620958140921,130.98778247468698L41.735328397596916,132.29701481888824z" style="fill:rgb(71,33,192)"/><path d="M4.233493731606549,62.68753773713095L23.338404684246328,90.8909092486868L5.752765207292726,58.28497429078771z" style="fill:rgb(242,130,183)"/><path d="M26.079941469749787,118.79113171042853L35.85620958140921,130.98778247468698L30.166373326574167,120.63021881120187z" style="fill:rgb(51,38,177)"/><path d="M71.12183838549379,100.41917266291638L78.16410249852575,107.47932129680494L72.96319327590467,96.86999143174836z" style="fill:rgb(233,112,197)"/><path d="M79.84817478492916,96.69043967716374L86.17438003991664,103.02519225935109L81.0658883648987,92.36827609909307z" style="fill:rgb(242,130,183)"/><path d="M48.96961699993932,115.48870341309586L49.19722464928541,126.68578311503029L54.46884006323772,125.94377306768412z" style="fill:rgb(115,34,214)"/><path d="M73.20933615054699,115.12545043580974L64.71180154482245,107.55926334909825L70.03407070712066,118.10538053260989z" style="fill:rgb(203,77,216)"/><path d="M74.12194735337431,83.11005835531002L56.22601296074217,46.03800659682456L72.32942773072621,79.44745481042294z" style="fill:rgb(12,71,124)"/><path d="M84.98625699663056,107.33181023300736L77.01138153875067,102.20331281589777L82.19898603876834,112.81855260409068z" style="fill:rgb(233,112,197)"/><path d="M70.03407070712066,118.10538053260989L63.94589662790907,108.2738364302623L69.27823601339999,118.81471575146637z" style="fill:rgb(203,77,216)"/><path d="M44.112078862444285,126.53700383716756L43.64707947987728,116.25661341085389L38.51711266224066,116.13059489914207z" style="fill:rgb(92,32,204)"/><path d="M54.26934745613778,113.85363595998201L54.46884006323772,125.94377306768412L59.71370838004175,124.33674584913082z" style="fill:rgb(139,40,220)"/><path d="M63.94589662790907,108.2738364302623L64.71816190903108,121.92778295877726L69.27823601339999,118.81471575146637z" style="fill:rgb(183,62,221)"/><path d="M45.66224744490246,38.97160434350111L66.11293230856516,73.92213395942474L49.92086159777656,40.582751944963775z" style="fill:rgb(51,38,177)"/><path d="M59.33023993649637,111.41566485685567L59.71370838004175,124.33674584913082L64.71816190903108,121.92778295877726z" style="fill:rgb(162,50,222)"/><path d="M35.85620958140921,130.98778247468698L36.091656143425915,121.916253788646L30.166373326574167,120.63021881120187z" style="fill:rgb(71,33,192)"/><path d="M82.19898603876834,112.81855260409068L76.09983296104511,103.39060570066515L81.30085855878279,113.99879132412833zM67.92935638747724,104.55734122101384L76.35485955835642,111.011769339577L71.12183838549379,100.41917266291638z" style="fill:rgb(220,94,208)"/><path d="M42.52553106997732,122.09156211671517L41.735328397596916,132.29701481888824L48.11282985812059,132.50062333344616z" style="fill:rgb(92,32,204)"/><path d="M3.7278470529084244,67.03578806656792L21.925510825080295,95.25054285337674L4.233493731606549,62.68753773713095z" style="fill:rgb(246,149,167)"/><path d="M26.22429885402434,110.68087097732325L5.839790644302398,74.91626508120207L23.679579432068117,107.43927299860623z" style="fill:rgb(21,57,142)"/><path d="M77.01138153875067,102.20331281589777L84.98625699663056,107.33181023300736L79.84817478492916,96.69043967716374z" style="fill:rgb(233,112,197)"/><path d="M81.30085855878279,113.99879132412833L73.93325296857478,106.21255780724307L79.16623412782951,116.80391206341893z" style="fill:rgb(220,94,208)"/><path d="M49.19722464928541,126.68578311503029L48.96961699993932,115.48870341309586L43.64707947987728,116.25661341085389z" style="fill:rgb(115,34,214)"/><path d="M79.16623412782951,116.80391206341893L73.86810905346091,106.29740534244073L79.1020519077702,116.88824533808597z" style="fill:rgb(220,94,208)"/><path d="M20.736006368992484,115.02277906767766L-0.47719286711981873,78.53677056691885L17.58089457732022,110.94829439726807z" style="fill:rgb(21,57,142)"/><path d="M64.71180154482245,107.55926334909825L73.20933615054699,115.12545043580974L67.92935638747724,104.55734122101384z" style="fill:rgb(203,77,216)"/><path d="M79.1020519077702,116.88824533808597L73.01796215894316,107.40471808806099L78.26445455101525,117.98893435830202z" style="fill:rgb(220,94,208)"/><path d="M58.015037082724966,49.69139490524954L74.9194624484829,87.20042576115074L74.12194735337431,83.11005835531002z" style="fill:rgb(246,167,149)"/><path d="M63.94589662790907,108.2738364302623L70.03407070712066,118.10538053260989L64.71180154482245,107.55926334909825z" style="fill:rgb(203,77,216)"/><path d="M54.46884006323772,125.94377306768412L54.26934745613778,113.85363595998201L48.96961699993932,115.48870341309586z" style="fill:rgb(139,40,220)"/><path d="M49.208855082598035,121.13923555101128L48.11282985812059,132.50062333344616L54.731925430262464,131.5807005572546z" style="fill:rgb(115,34,214)"/><path d="M64.7756719672327,46.99036784034501L81.47600194090181,84.54187956190475L80.66545191905605,80.52252962376777z" style="fill:rgb(246,167,149)"/><path d="M41.735328397596916,132.29701481888824L42.52553106997732,122.09156211671517L36.091656143425915,121.916253788646z" style="fill:rgb(92,32,204)"/><path d="M64.71816190903108,121.92778295877726L63.94589662790907,108.2738364302623L59.33023993649637,111.41566485685567z" style="fill:rgb(183,62,221)"/><path d="M49.92086159777656,40.582751944963775L69.62210823101682,76.34786338504597L53.48971312529071,42.965345692775266z" style="fill:rgb(34,46,160)"/><path d="M59.71370838004175,124.33674584913082L59.33023993649637,111.41566485685567L54.26934745613778,113.85363595998201z" style="fill:rgb(162,50,222)"/><path d="M78.26445455101525,117.98893435830202L68.02279692674671,112.07858046114771L73.33518302350357,122.62829902637567z" style="fill:rgb(203,77,216)"/><path d="M76.09983296104511,103.39060570066515L82.19898603876834,112.81855260409068L77.01138153875067,102.20331281589777z" style="fill:rgb(220,94,208)"/><path d="M68.02279692674671,112.07858046114771L72.11953040762353,123.4593346895929L73.33518302350357,122.62829902637567z" style="fill:rgb(183,62,221)"/><path d="M55.867735885482865,119.09148751987732L54.731925430262464,131.5807005572546L61.32151992465736,129.56820064498683z" style="fill:rgb(139,40,220)"/><path d="M66.79226002666857,112.91732799467331L67.6092810838082,126.5425636056578L72.11953040762353,123.4593346895929z" style="fill:rgb(183,62,221)"/><path d="M73.93325296857478,106.21255780724307L81.30085855878279,113.99879132412833L76.09983296104511,103.39060570066515z" style="fill:rgb(220,94,208)"/><path d="M62.226777958286256,116.02922975534105L61.32151992465736,129.56820064498683L67.6092810838082,126.5425636056578z" style="fill:rgb(162,50,222)"/><path d="M29.63423909468954,113.27827714460517L8.401076469443922,78.13920427956423L26.22429885402434,110.68087097732325z" style="fill:rgb(34,46,160)"/><path d="M73.86810905346091,106.29740534244073L79.16623412782951,116.80391206341893L73.93325296857478,106.21255780724307zM73.01796215894316,107.40471808806099L79.1020519077702,116.88824533808597L73.86810905346091,106.29740534244073z" style="fill:rgb(220,94,208)"/><path d="M22.088266977784475,103.68595681997628L3.7278470529084244,67.03578806656792L4.266009266769924,71.16535481390932z" style="fill:rgb(246,167,149)"/><path d="M48.11282985812059,132.50062333344616L49.208855082598035,121.13923555101128L42.52553106997732,122.09156211671517z" style="fill:rgb(115,34,214)"/><path d="M65.55188601955555,51.01813814931544L81.69570802008901,85.63135730400619L81.47600194090181,84.54187956190475z" style="fill:rgb(246,167,149)"/><path d="M24.98231244230072,118.297139345544L2.696641811062043,82.58926033852772L20.736006368992484,115.02277906767766z" style="fill:rgb(34,46,160)"/><path d="M68.02279692674671,112.07858046114771L78.26445455101525,117.98893435830202L73.01796215894316,107.40471808806099z" style="fill:rgb(203,77,216)"/><path d="M53.48971312529071,42.965345692775266L72.32942773072621,79.44745481042294L56.22601296074217,46.03800659682456z" style="fill:rgb(21,57,142)"/><path d="M74.9194624484829,87.20042576115074L58.46658624132252,58.18149508397205L74.67927718372954,91.56322411757728z" style="fill:rgb(246,149,167)"/><path d="M54.731925430262464,131.5807005572546L55.867735885482865,119.09148751987732L49.208855082598035,121.13923555101128z" style="fill:rgb(139,40,220)"/><path d="M72.11953040762353,123.4593346895929L68.02279692674671,112.07858046114771L66.79226002666857,112.91732799467331zM67.6092810838082,126.5425636056578L66.79226002666857,112.91732799467331L62.226777958286256,116.02922975534105z" style="fill:rgb(183,62,221)"/><path d="M61.32151992465736,129.56820064498683L62.226777958286256,116.02922975534105L55.867735885482865,119.09148751987732z" style="fill:rgb(162,50,222)"/><path d="M33.78446900544922,115.12187828009588L11.861777062467278,80.70195395175041L29.63423909468954,113.27827714460517z" style="fill:rgb(51,38,177)"/><path d="M23.679579432068117,107.43927299860623L4.266009266769924,71.16535481390932L5.839790644302398,74.91626508120207z" style="fill:rgb(242,183,130)"/><path d="M81.69570802008901,85.63135730400619L65.4075552020342,57.60479439770917L81.42555856522411,91.09168173919475z" style="fill:rgb(246,149,167)"/><path d="M26.079941469749787,118.79113171042853L7.004934377100314,85.82169444243436L24.98231244230072,118.297139345544z" style="fill:rgb(51,38,177)"/><path d="M74.67927718372954,91.56322411757728L57.087333268561714,62.69201380472289L73.39969888840689,96.02863803134443z" style="fill:rgb(242,130,183)"/><path d="M56.22601296074217,46.03800659682456L74.12194735337431,83.11005835531002L58.015037082724966,49.69139490524954z" style="fill:rgb(12,71,124)"/><path d="M30.166373326574167,120.63021881120187L8.124398573066912,86.30270428823331L26.079941469749787,118.79113171042853z" style="fill:rgb(51,38,177)"/><path d="M8.219821401523628,53.99101262927762L11.861777062467278,80.70195395175041L11.536740169347393,49.961834029532504zM11.536740169347393,49.961834029532504L16.09556967985492,82.49574052990832L15.577675986216954,46.34220214836267zM5.752765207292726,58.28497429078771L8.401076469443922,78.13920427956423L8.219821401523628,53.99101262927762z" style="fill:rgb(83,212,212)"/><path d="M20.941643180593843,83.44095143449618L33.78446900544922,115.12187828009588L38.51711266224066,116.13059489914207z" style="fill:rgb(71,33,192)"/><path d="M15.577675986216954,46.34220214836267L20.941643180593843,83.44095143449618L20.19341454286372,43.26138046685946zM4.233493731606549,62.68753773713095L5.839790644302398,74.91626508120207L5.752765207292726,58.28497429078771zM20.19341454286372,43.26138046685946L26.210497975990894,83.49189298558368L25.21619610319705,40.82958151184691z" style="fill:rgb(83,212,212)"/><path d="M5.839790644302398,74.91626508120207L26.22429885402434,110.68087097732325L8.401076469443922,78.13920427956423z" style="fill:rgb(21,57,142)"/><path d="M73.39969888840689,96.02863803134443L54.68267556802213,67.14324996314254L71.12183838549379,100.41917266291638z" style="fill:rgb(233,112,197)"/><path d="M81.42555856522411,91.09168173919475L63.70674439666522,63.26028835760912L79.84817478492916,96.69043967716374z" style="fill:rgb(242,130,183)"/><path d="M4.266009266769924,71.16535481390932L4.233493731606549,62.68753773713095L3.7278470529084244,67.03578806656792zM25.21619610319705,40.82958151184691L31.691666816976603,82.6400522882881L30.46475530105154,39.134921856697495z" style="fill:rgb(83,212,212)"/><path d="M-0.47719286711981873,78.53677056691885L20.736006368992484,115.02277906767766L2.696641811062043,82.58926033852772z" style="fill:rgb(21,57,142)"/><path d="M74.9194624484829,87.20042576115074L58.015037082724966,49.69139490524954L58.775920555789256,53.79103124156871z" style="fill:rgb(246,167,149)"/><path d="M26.210497975990894,83.49189298558368L38.51711266224066,116.13059489914207L43.64707947987728,116.25661341085389z" style="fill:rgb(92,32,204)"/><path d="M30.46475530105154,39.134921856697495L37.16302830308589,80.9154754666644L35.74959245627303,38.24079129324989z" style="fill:rgb(83,212,212)"/><path d="M81.47600194090181,84.54187956190475L64.7756719672327,46.99036784034501L65.55188601955555,51.01813814931544z" style="fill:rgb(246,167,149)"/><path d="M71.12183838549379,100.41917266291638L51.34101750210673,71.35509464682944L67.92935638747724,104.55734122101384z" style="fill:rgb(220,94,208)"/><path d="M18.360014039581234,89.3013307633763L30.166373326574167,120.63021881120187L36.091656143425915,121.916253788646z" style="fill:rgb(71,33,192)"/><path d="M35.74959245627303,38.24079129324989L42.401145268517546,78.38612095898428L40.878479639105386,38.183705335309575zM4.233493731606549,62.68753773713095L4.266009266769924,71.16535481390932L5.839790644302398,74.91626508120207z" style="fill:rgb(83,212,212)"/><path d="M31.691666816976603,82.6400522882881L43.64707947987728,116.25661341085389L48.96961699993932,115.48870341309586z" style="fill:rgb(115,34,214)"/><path d="M8.401076469443922,78.13920427956423L29.63423909468954,113.27827714460517L11.861777062467278,80.70195395175041z" style="fill:rgb(34,46,160)"/><path d="M79.84817478492916,96.69043967716374L60.71176214264648,68.84990408430019L77.01138153875067,102.20331281589777z" style="fill:rgb(233,112,197)"/><path d="M58.46658624132252,58.18149508397205L74.9194624484829,87.20042576115074L58.775920555789256,53.79103124156871z" style="fill:rgb(246,149,167)"/><path d="M81.69570802008901,85.63135730400619L65.55188601955555,51.01813814931544L65.76232065302978,52.11007612629644z" style="fill:rgb(246,167,149)"/><path d="M67.92935638747724,104.55734122101384L47.19194936842019,75.1549559449717L63.94589662790907,108.2738364302623z" style="fill:rgb(203,77,216)"/><path d="M37.16302830308589,80.9154754666644L48.96961699993932,115.48870341309586L54.26934745613778,113.85363595998201z" style="fill:rgb(139,40,220)"/><path d="M47.19194936842019,75.1549559449717L59.33023993649637,111.41566485685567L63.94589662790907,108.2738364302623z" style="fill:rgb(183,62,221)"/><path d="M5.752765207292726,58.28497429078771L5.839790644302398,74.91626508120207L8.401076469443922,78.13920427956423zM40.878479639105386,38.183705335309575L42.401145268517546,78.38612095898428L45.66224744490246,38.97160434350111z" style="fill:rgb(83,212,212)"/><path d="M42.401145268517546,78.38612095898428L54.26934745613778,113.85363595998201L59.33023993649637,111.41566485685567z" style="fill:rgb(162,50,222)"/><path d="M2.696641811062043,82.58926033852772L24.98231244230072,118.297139345544L7.004934377100314,85.82169444243436z" style="fill:rgb(34,46,160)"/><path d="M24.968586268272897,89.38321114102504L36.091656143425915,121.916253788646L42.52553106997732,122.09156211671517z" style="fill:rgb(92,32,204)"/><path d="M65.4075552020342,57.60479439770917L81.69570802008901,85.63135730400619L65.76232065302978,52.11007612629644z" style="fill:rgb(246,149,167)"/><path d="M45.66224744490246,38.97160434350111L51.34101750210673,71.35509464682944L49.92086159777656,40.582751944963775z" style="fill:rgb(83,212,212)"/><path d="M77.01138153875067,102.20331281589777L57.421306617986126,73.01737959881537L73.86810905346091,106.29740534244073z" style="fill:rgb(220,94,208)"/><path d="M8.219821401523628,53.99101262927762L8.401076469443922,78.13920427956423L11.861777062467278,80.70195395175041z" style="fill:rgb(83,212,212)"/><path d="M11.861777062467278,80.70195395175041L33.78446900544922,115.12187828009588L16.09556967985492,82.49574052990832z" style="fill:rgb(51,38,177)"/><path d="M57.087333268561714,62.69201380472289L74.67927718372954,91.56322411757728L58.46658624132252,58.18149508397205z" style="fill:rgb(242,130,183)"/><path d="M73.86810905346091,106.29740534244073L56.531266211262164,74.14464560846199L73.01796215894316,107.40471808806099z" style="fill:rgb(220,94,208)"/><path d="M7.004934377100314,85.82169444243436L26.079941469749787,118.79113171042853L8.124398573066912,86.30270428823331z" style="fill:rgb(51,38,177)"/><path d="M31.852014363119206,88.3258257273444L42.52553106997732,122.09156211671517L49.208855082598035,121.13923555101128z" style="fill:rgb(115,34,214)"/><path d="M11.536740169347393,49.961834029532504L11.861777062467278,80.70195395175041L16.09556967985492,82.49574052990832zM49.92086159777656,40.582751944963775L51.34101750210673,71.35509464682944L53.48971312529071,42.965345692775266z" style="fill:rgb(83,212,212)"/><path d="M73.01796215894316,107.40471808806099L51.32764250247356,78.92416272739818L68.02279692674671,112.07858046114771z" style="fill:rgb(203,77,216)"/><path d="M51.32764250247356,78.92416272739818L66.79226002666857,112.91732799467331L68.02279692674671,112.07858046114771z" style="fill:rgb(183,62,221)"/><path d="M33.78446900544922,115.12187828009588L20.941643180593843,83.44095143449618L16.09556967985492,82.49574052990832z" style="fill:rgb(71,33,192)"/><path d="M53.48971312529071,42.965345692775266L57.087333268561714,62.69201380472289L56.22601296074217,46.03800659682456z" style="fill:rgb(83,212,212)"/><path d="M38.727699213376575,86.16550967920263L49.208855082598035,121.13923555101128L55.867735885482865,119.09148751987732z" style="fill:rgb(139,40,220)"/><path d="M50.050217970210355,79.78689851481057L62.226777958286256,116.02922975534105L66.79226002666857,112.91732799467331z" style="fill:rgb(183,62,221)"/><path d="M15.577675986216954,46.34220214836267L16.09556967985492,82.49574052990832L20.941643180593843,83.44095143449618z" style="fill:rgb(83,212,212)"/><path d="M45.31062021029409,82.98788543670346L55.867735885482865,119.09148751987732L62.226777958286256,116.02922975534105z" style="fill:rgb(162,50,222)"/><path d="M63.70674439666522,63.26028835760912L81.42555856522411,91.09168173919475L65.4075552020342,57.60479439770917z" style="fill:rgb(242,130,183)"/><path d="M8.124398573066912,86.30270428823331L30.166373326574167,120.63021881120187L12.292746090334894,88.09375365220932z" style="fill:rgb(51,38,177)"/><path d="M54.68267556802213,67.14324996314254L73.39969888840689,96.02863803134443L57.087333268561714,62.69201380472289z" style="fill:rgb(233,112,197)"/><path d="M20.19341454286372,43.26138046685946L20.941643180593843,83.44095143449618L26.210497975990894,83.49189298558368zM56.22601296074217,46.03800659682456L57.087333268561714,62.69201380472289L58.015037082724966,49.69139490524954z" style="fill:rgb(83,212,212)"/><path d="M38.51711266224066,116.13059489914207L26.210497975990894,83.49189298558368L20.941643180593843,83.44095143449618z" style="fill:rgb(92,32,204)"/><path d="M30.166373326574167,120.63021881120187L18.360014039581234,89.3013307633763L12.292746090334894,88.09375365220932z" style="fill:rgb(71,33,192)"/><path d="M51.34101750210673,71.35509464682944L71.12183838549379,100.41917266291638L54.68267556802213,67.14324996314254z" style="fill:rgb(220,94,208)"/><path d="M25.21619610319705,40.82958151184691L26.210497975990894,83.49189298558368L31.691666816976603,82.6400522882881zM58.015037082724966,49.69139490524954L58.46658624132252,58.18149508397205L58.775920555789256,53.79103124156871z" style="fill:rgb(83,212,212)"/><path d="M60.71176214264648,68.84990408430019L79.84817478492916,96.69043967716374L63.70674439666522,63.26028835760912z" style="fill:rgb(233,112,197)"/><path d="M30.46475530105154,39.134921856697495L31.691666816976603,82.6400522882881L37.16302830308589,80.9154754666644z" style="fill:rgb(83,212,212)"/><path d="M43.64707947987728,116.25661341085389L31.691666816976603,82.6400522882881L26.210497975990894,83.49189298558368z" style="fill:rgb(115,34,214)"/><path d="M47.19194936842019,75.1549559449717L67.92935638747724,104.55734122101384L51.34101750210673,71.35509464682944z" style="fill:rgb(203,77,216)"/><path d="M35.74959245627303,38.24079129324989L37.16302830308589,80.9154754666644L42.401145268517546,78.38612095898428zM53.48971312529071,42.965345692775266L54.68267556802213,67.14324996314254L57.087333268561714,62.69201380472289z" style="fill:rgb(83,212,212)"/><path d="M48.96961699993932,115.48870341309586L37.16302830308589,80.9154754666644L31.691666816976603,82.6400522882881z" style="fill:rgb(139,40,220)"/><path d="M45.66224744490246,38.97160434350111L47.19194936842019,75.1549559449717L51.34101750210673,71.35509464682944zM58.015037082724966,49.69139490524954L57.087333268561714,62.69201380472289L58.46658624132252,58.18149508397205z" style="fill:rgb(83,212,212)"/><path d="M36.091656143425915,121.916253788646L24.968586268272897,89.38321114102504L18.360014039581234,89.3013307633763z" style="fill:rgb(92,32,204)"/><path d="M59.33023993649637,111.41566485685567L47.19194936842019,75.1549559449717L42.401145268517546,78.38612095898428z" style="fill:rgb(183,62,221)"/><path d="M54.26934745613778,113.85363595998201L42.401145268517546,78.38612095898428L37.16302830308589,80.9154754666644z" style="fill:rgb(162,50,222)"/><path d="M45.66224744490246,38.97160434350111L42.401145268517546,78.38612095898428L47.19194936842019,75.1549559449717zM53.48971312529071,42.965345692775266L51.34101750210673,71.35509464682944L54.68267556802213,67.14324996314254z" style="fill:rgb(83,212,212)"/><path d="M57.421306617986126,73.01737959881537L77.01138153875067,102.20331281589777L60.71176214264648,68.84990408430019zM56.531266211262164,74.14464560846199L73.86810905346091,106.29740534244073L57.421306617986126,73.01737959881537z" style="fill:rgb(220,94,208)"/><path d="M42.52553106997732,122.09156211671517L31.852014363119206,88.3258257273444L24.968586268272897,89.38321114102504z" style="fill:rgb(115,34,214)"/><path d="M51.32764250247356,78.92416272739818L73.01796215894316,107.40471808806099L56.531266211262164,74.14464560846199z" style="fill:rgb(203,77,216)"/><path d="M49.208855082598035,121.13923555101128L38.727699213376575,86.16550967920263L31.852014363119206,88.3258257273444z" style="fill:rgb(139,40,220)"/><path d="M66.79226002666857,112.91732799467331L51.32764250247356,78.92416272739818L50.050217970210355,79.78689851481057zM62.226777958286256,116.02922975534105L50.050217970210355,79.78689851481057L45.31062021029409,82.98788543670346z" style="fill:rgb(183,62,221)"/><path d="M55.867735885482865,119.09148751987732L45.31062021029409,82.98788543670346L38.727699213376575,86.16550967920263z" style="fill:rgb(162,50,222)"/><path d="M2.696641811062043,82.58926033852772L-104.60846872246604,-108.36304054024033L-0.47719286711981873,78.53677056691885z" style="fill:rgb(21,57,142)"/><path d="M-26.890137485940524,-146.4517720890843L65.76232065302978,52.11007612629644L64.7756719672327,46.99036784034501z" style="fill:rgb(246,167,149)"/><path d="M7.004934377100314,85.82169444243436L-101.44711805524246,-104.6539923220078L2.696641811062043,82.58926033852772z" style="fill:rgb(34,46,160)"/><path d="M65.76232065302978,52.11007612629644L-27.20406547082654,-136.00703718957686L65.4075552020342,57.60479439770917z" style="fill:rgb(246,149,167)"/><path d="M12.292746090334894,88.09375365220932L-96.89624455888918,-101.8718370116075L7.004934377100314,85.82169444243436z" style="fill:rgb(51,38,177)"/><path d="M65.4075552020342,57.60479439770917L-29.70950219111016,-130.21199496373168L63.70674439666522,63.26028835760912z" style="fill:rgb(242,130,183)"/><path d="M-84.31593485697147,-99.5570487011052L12.292746090334894,88.09375365220932L18.360014039581234,89.3013307633763z" style="fill:rgb(71,33,192)"/><path d="M63.70674439666522,63.26028835760912L-33.69792108474265,-124.33772748489964L60.71176214264648,68.84990408430019z" style="fill:rgb(233,112,197)"/><path d="M-76.7680791112464,-100.1508570967851L18.360014039581234,89.3013307633763L24.968586268272897,89.38321114102504z" style="fill:rgb(92,32,204)"/><path d="M60.71176214264648,68.84990408430019L-39.02329982702802,-118.62600987797438L56.531266211262164,74.14464560846199z" style="fill:rgb(220,94,208)"/><path d="M-68.77616067030962,-101.91350336464869L24.968586268272897,89.38321114102504L31.852014363119206,88.3258257273444z" style="fill:rgb(115,34,214)"/><path d="M56.531266211262164,74.14464560846199L-45.476631333771586,-113.3166578489775L51.32764250247356,78.92416272739818z" style="fill:rgb(203,77,216)"/><path d="M-45.476631333771586,-113.3166578489775L45.31062021029409,82.98788543670346L51.32764250247356,78.92416272739818z" style="fill:rgb(183,62,221)"/><path d="M-60.67151175090403,-104.78018825271415L31.852014363119206,88.3258257273444L38.727699213376575,86.16550967920263z" style="fill:rgb(139,40,220)"/><path d="M-52.79447956549812,-108.63509518783772L38.727699213376575,86.16550967920263L45.31062021029409,82.98788543670346z" style="fill:rgb(162,50,222)"/><path d="M-104.60846872246604,-108.36304054024033L2.696641811062043,82.58926033852772L-101.44711805524246,-104.6539923220078z" style="fill:rgb(21,57,142)"/><path d="M65.76232065302978,52.11007612629644L-26.890137485940524,-146.4517720890843L-26.260424191879462,-141.49093712123266z" style="fill:rgb(246,167,149)"/><path d="M-101.44711805524246,-104.6539923220078L7.004934377100314,85.82169444243436L-96.89624455888918,-101.8718370116075z" style="fill:rgb(34,46,160)"/><path d="M-27.20406547082654,-136.00703718957686L65.76232065302978,52.11007612629644L-26.260424191879462,-141.49093712123266z" style="fill:rgb(246,149,167)"/><path d="M-96.89624455888918,-101.8718370116075L12.292746090334894,88.09375365220932L-91.11399950080832,-100.14392877479003z" style="fill:rgb(51,38,177)"/><path d="M-29.70950219111016,-130.21199496373168L65.4075552020342,57.60479439770917L-27.20406547082654,-136.00703718957686z" style="fill:rgb(242,130,183)"/><path d="M12.292746090334894,88.09375365220932L-84.31593485697147,-99.5570487011052L-91.11399950080832,-100.14392877479003z" style="fill:rgb(71,33,192)"/><path d="M-33.69792108474265,-124.33772748489964L63.70674439666522,63.26028835760912L-29.70950219111016,-130.21199496373168z" style="fill:rgb(233,112,197)"/><path d="M18.360014039581234,89.3013307633763L-76.7680791112464,-100.1508570967851L-84.31593485697147,-99.5570487011052z" style="fill:rgb(92,32,204)"/><path d="M-39.02329982702802,-118.62600987797438L60.71176214264648,68.84990408430019L-33.69792108474265,-124.33772748489964z" style="fill:rgb(220,94,208)"/><path d="M24.968586268272897,89.38321114102504L-68.77616067030962,-101.91350336464869L-76.7680791112464,-100.1508570967851z" style="fill:rgb(115,34,214)"/><path d="M-45.476631333771586,-113.3166578489775L56.531266211262164,74.14464560846199L-39.02329982702802,-118.62600987797438z" style="fill:rgb(203,77,216)"/><path d="M31.852014363119206,88.3258257273444L-60.67151175090403,-104.78018825271415L-68.77616067030962,-101.91350336464869z" style="fill:rgb(139,40,220)"/><path d="M45.31062021029409,82.98788543670346L-45.476631333771586,-113.3166578489775L-52.79447956549812,-108.63509518783772z" style="fill:rgb(183,62,221)"/><path d="M38.727699213376575,86.16550967920263L-52.79447956549812,-108.63509518783772L-60.67151175090403,-104.78018825271415z" style="fill:rgb(162,50,222)"/><path d="M-92.96994823597511,-139.93062517424949L-96.89624455888918,-101.8718370116075L-86.78167684345726,-144.8856553146484zM-98.20724216718986,-134.5614258648316L-96.89624455888918,-101.8718370116075L-92.96994823597511,-139.93062517424949zM-102.29787509004242,-128.96571916363857L-101.44711805524246,-104.6539923220078L-98.20724216718986,-134.5614258648316zM-86.78167684345726,-144.8856553146484L-84.31593485697147,-99.5570487011052L-79.86551318087622,-149.2550978454364zM-105.0801575753522,-123.34288970018694L-104.60846872246604,-108.36304054024033L-102.29787509004242,-128.96571916363857zM-79.86551318087622,-149.2550978454364L-76.7680791112464,-100.1508570967851L-72.46558201200673,-152.8876566804435zM-106.28277694815624,-112.83916961056696L-105.0801575753522,-123.34288970018694L-106.43307662301885,-117.89872645070028zM-72.46558201200673,-152.8876566804435L-68.77616067030962,-101.91350336464869L-64.84071705997285,-155.65568926922114zM-64.84071705997285,-155.65568926922114L-68.77616067030962,-101.91350336464869L-57.25814091995677,-157.45835036392094zM-105.0801575753522,-123.34288970018694L-106.28277694815624,-112.83916961056696L-104.60846872246604,-108.36304054024033zM-57.25814091995677,-157.45835036392094L-52.79447956549812,-108.63509518783772L-49.986855083118684,-158.22471516282803zM-49.986855083118684,-158.22471516282803L-45.476631333771586,-113.3166578489775L-43.29054117457498,-157.9165870603991zM-102.29787509004242,-128.96571916363857L-104.60846872246604,-108.36304054024033L-101.44711805524246,-104.6539923220078zM-98.20724216718986,-134.5614258648316L-101.44711805524246,-104.6539923220078L-96.89624455888918,-101.8718370116075zM-43.29054117457498,-157.9165870603991L-45.476631333771586,-113.3166578489775L-37.41983386979701,-156.53111840025943zM-37.41983386979701,-156.53111840025943L-33.69792108474265,-124.33772748489964L-32.60384238119044,-154.10301613208236zM-86.78167684345726,-144.8856553146484L-96.89624455888918,-101.8718370116075L-91.11399950080832,-100.14392877479003zM-32.60384238119044,-154.10301613208236L-29.70950219111016,-130.21199496373168L-29.041090179658465,-150.70576295487348zM-86.78167684345726,-144.8856553146484L-91.11399950080832,-100.14392877479003L-84.31593485697147,-99.5570487011052zM-29.041090179658465,-150.70576295487348L-27.20406547082654,-136.00703718957686L-26.890137485940524,-146.4517720890843zM-79.86551318087622,-149.2550978454364L-84.31593485697147,-99.5570487011052L-76.7680791112464,-100.1508570967851zM-72.46558201200673,-152.8876566804435L-76.7680791112464,-100.1508570967851L-68.77616067030962,-101.91350336464869zM-26.890137485940524,-146.4517720890843L-27.20406547082654,-136.00703718957686L-26.260424191879462,-141.49093712123266zM-29.041090179658465,-150.70576295487348L-29.70950219111016,-130.21199496373168L-27.20406547082654,-136.00703718957686zM-57.25814091995677,-157.45835036392094L-68.77616067030962,-101.91350336464869L-60.67151175090403,-104.78018825271415zM-57.25814091995677,-157.45835036392094L-60.67151175090403,-104.78018825271415L-52.79447956549812,-108.63509518783772zM-32.60384238119044,-154.10301613208236L-33.69792108474265,-124.33772748489964L-29.70950219111016,-130.21199496373168zM-49.986855083118684,-158.22471516282803L-52.79447956549812,-108.63509518783772L-45.476631333771586,-113.3166578489775zM-37.41983386979701,-156.53111840025943L-39.02329982702802,-118.62600987797438L-33.69792108474265,-124.33772748489964zM-37.41983386979701,-156.53111840025943L-45.476631333771586,-113.3166578489775L-39.02329982702802,-118.62600987797438z" style="fill:rgb(83,212,212)"/></svg>
