<?xml version="1.0" encoding="UTF-8"?>
<!-- Generated by jsxcad -->
<!DOCTYPE svg PUBLIC "-//W3C//DTD SVG 1.1 Tiny//EN" "http://www.w3.org/Graphics/SVG/1.1/DTD/svg11-tiny.dtd">
<svg viewBox="-250 -250 500 500" width="500" height="500" xmlns="http://www.w3.org/2000/svg"><path d="M41.052671967324166,72.33789380438601L43.26936034220719,87.69139825869658L47.78198265751541,85.51358765976057z" style="fill:rgb(162,50,222)"/><path d="M36.47872320187044,74.54739428574793L39.13866553000078,90.4830777600272L43.26936034220719,87.69139825869658z" style="fill:rgb(183,62,221)"/><path d="M45.84291326039709,70.8218593457929L47.78198265751541,85.51358765976057L52.51260383386687,84.02905518442805z" style="fill:rgb(139,40,220)"/><path d="M39.13866553000078,90.4830777600272L28.630922564678723,80.70367452770665L35.54093197846041,93.78803991010193z" style="fill:rgb(203,77,216)"/><path d="M50.67551218614554,70.05622640311236L52.51260383386687,84.02905518442805L57.28933198877002,83.29360573647736z" style="fill:rgb(115,34,214)"/><path d="M35.54093197846041,93.78803991010193L25.64578849647903,84.42902422790715L32.60965284525685,97.48741836370561z" style="fill:rgb(220,94,208)"/><path d="M55.373842278931505,70.07239257267423L57.28933198877002,83.29360573647736L61.93747092166014,83.33749894774306z" style="fill:rgb(92,32,204)"/><path d="M43.26936034220719,87.69139825869658L41.052671967324166,72.33789380438601L36.47872320187044,74.54739428574793z" style="fill:rgb(162,50,222)"/><path d="M39.13866553000078,90.4830777600272L36.47872320187044,74.54739428574793L32.287088342785474,77.3698596340619z" style="fill:rgb(183,62,221)"/><path d="M47.78198265751541,85.51358765976057L45.84291326039709,70.8218593457929L41.052671967324166,72.33789380438601z" style="fill:rgb(139,40,220)"/><path d="M32.60965284525685,97.48741836370561L23.445181160472167,88.41129555784775L30.456332357096166,101.44745400801851z" style="fill:rgb(233,112,197)"/><path d="M28.630922564678723,80.70367452770665L39.13866553000078,90.4830777600272L32.287088342785474,77.3698596340619z" style="fill:rgb(203,77,216)"/><path d="M52.51260383386687,84.02905518442805L50.67551218614554,70.05622640311236L45.84291326039709,70.8218593457929z" style="fill:rgb(115,34,214)"/><path d="M59.7640113188928,70.87472175887922L61.93747092166014,83.33749894774306L66.28492644858999,84.1639931819346z" style="fill:rgb(71,33,192)"/><path d="M25.64578849647903,84.42902422790715L35.54093197846041,93.78803991010193L28.630922564678723,80.70367452770665z" style="fill:rgb(220,94,208)"/><path d="M57.28933198877002,83.29360573647736L55.373842278931505,70.07239257267423L50.67551218614554,70.05622640311236z" style="fill:rgb(92,32,204)"/><path d="M30.456332357096166,101.44745400801851L22.116397428349824,92.50498060949504L29.16643045923985,105.52338655975723z" style="fill:rgb(242,130,183)"/><path d="M70.16782729415593,85.74854540995062L59.7640113188928,70.87472175887922L66.28492644858999,84.1639931819346z" style="fill:rgb(51,38,177)"/><path d="M23.445181160472167,88.41129555784775L32.60965284525685,97.48741836370561L25.64578849647903,84.42902422790715z" style="fill:rgb(233,112,197)"/><path d="M61.93747092166014,83.33749894774306L59.7640113188928,70.87472175887922L55.373842278931505,70.07239257267423z" style="fill:rgb(71,33,192)"/><path d="M29.16643045923985,105.52338655975723L21.71680649559848,96.55816695367714L28.795703285803924,109.56392444445004z" style="fill:rgb(246,149,167)"/><path d="M73.43631338101144,88.03871780934234L63.68054624294581,72.43970459619327L70.16782729415593,85.74854540995062z" style="fill:rgb(34,46,160)"/><path d="M22.116397428349824,92.50498060949504L30.456332357096166,101.44745400801851L23.445181160472167,88.41129555784775z" style="fill:rgb(242,130,183)"/><path d="M21.71680649559848,96.55816695367714L29.36719612838307,113.41622638589786L28.795703285803924,109.56392444445004z" style="fill:rgb(246,167,149)"/><path d="M59.7640113188928,70.87472175887922L70.16782729415593,85.74854540995062L63.68054624294581,72.43970459619327z" style="fill:rgb(51,38,177)"/><path d="M21.71680649559848,96.55816695367714L29.16643045923985,105.52338655975723L22.116397428349824,92.50498060949504z" style="fill:rgb(246,149,167)"/><path d="M75.96031484667724,90.95489439777637L66.9722343655791,74.71577503981405L73.43631338101144,88.03871780934234z" style="fill:rgb(21,57,142)"/><path d="M63.68054624294581,72.43970459619327L73.43631338101144,88.03871780934234L66.9722343655791,74.71577503981405z" style="fill:rgb(34,46,160)"/><path d="M22.270766701606444,100.41749689055614L30.86907253859007,116.93133204319881L29.36719612838307,113.41622638589786z" style="fill:rgb(242,183,130)"/><path d="M77.63518659586985,94.39212879861104L69.50795542583054,77.62404819921052L75.96031484667724,90.95489439777637z" style="fill:rgb(12,71,124)"/><path d="M29.36719612838307,113.41622638589786L21.71680649559848,96.55816695367714L22.270766701606444,100.41749689055614z" style="fill:rgb(246,167,149)"/><path d="M66.9722343655791,74.71577503981405L75.96031484667724,90.95489439777637L69.50795542583054,77.62404819921052zM25.874057820153556,124.56536624960853L16.122612116140463,108.3308961972901L23.333130163991818,121.27267945304999z" style="fill:rgb(21,57,142)"/><path d="M79.38234098251574,77.81479109652437L85.92612338502632,92.17929334547784L85.72658671731132,91.20302616019147z" style="fill:rgb(246,167,149)"/><path d="M30.86907253859007,116.93133204319881L22.270766701606444,100.41749689055614L23.767373599870925,103.93369127909139z" style="fill:rgb(242,183,130)"/><path d="M79.57879914926681,78.79237266477516L86.76960090866507,96.3059983837173L85.92612338502632,92.17929334547784z" style="fill:rgb(246,167,149)"/><path d="M26.480981664919682,125.35185358157064L18.670771859165725,111.61866017928364L25.874057820153556,124.56536624960853z" style="fill:rgb(21,57,142)"/><path d="M69.50795542583054,77.62404819921052L77.63518659586985,94.39212879861104L71.18238761956118,81.06004030972916z" style="fill:rgb(12,71,124)"/><path d="M30.70631320648206,128.63733263294694L19.27946446564333,112.40402527333298L26.480981664919682,125.35185358157064z" style="fill:rgb(34,46,160)"/><path d="M85.92612338502632,92.17929334547784L79.38234098251574,77.81479109652437L79.57879914926681,78.79237266477516z" style="fill:rgb(246,167,149)"/><path d="M86.76960090866507,96.3059983837173L80.35631737196185,83.97033968983742L86.72285274555331,97.34834707636888z" style="fill:rgb(246,149,167)"/><path d="M16.122612116140463,108.3308961972901L25.874057820153556,124.56536624960853L18.670771859165725,111.61866017928364zM18.670771859165725,111.61866017928364L26.480981664919682,125.35185358157064L19.27946446564333,112.40402527333298z" style="fill:rgb(21,57,142)"/><path d="M86.72285274555331,97.34834707636888L80.13248419942568,88.38841309623969L86.52532255520698,101.75312944275429z" style="fill:rgb(246,149,167)"/><path d="M86.76960090866507,96.3059983837173L79.57879914926681,78.79237266477516L80.40927606999814,82.92491238404662z" style="fill:rgb(246,167,149)"/><path d="M35.85620874084154,130.98778247468695L23.530994435523088,115.67539518032451L30.70631320648206,128.63733263294694z" style="fill:rgb(51,38,177)"/><path d="M80.35631737196185,83.97033968983742L86.76960090866507,96.3059983837173L80.40927606999814,82.92491238404662z" style="fill:rgb(246,149,167)"/><path d="M86.52532255520698,101.75312944275429L79.82866361138511,89.4610754006722L86.23069851897687,102.82105277760463z" style="fill:rgb(242,130,183)"/><path d="M19.27946446564333,112.40402527333298L30.70631320648206,128.63733263294694L23.530994435523088,115.67539518032451z" style="fill:rgb(34,46,160)"/><path d="M80.13248419942568,88.38841309623969L86.72285274555331,97.34834707636888L80.35631737196185,83.97033968983742z" style="fill:rgb(246,149,167)"/><path d="M86.23069851897687,102.82105277760463L78.54530527587968,93.99210575652805L84.98625854264913,107.33180669275036z" style="fill:rgb(242,130,183)"/><path d="M84.98625854264913,107.33180669275036L77.99959295881997,95.04917286191326L84.45241848338141,108.38266653071602z" style="fill:rgb(233,112,197)"/><path d="M79.82866361138511,89.4610754006722L86.52532255520698,101.75312944275429L80.13248419942568,88.38841309623969z" style="fill:rgb(242,130,183)"/><path d="M34.66054588383199,119.283928300981L35.85620874084154,130.98778247468695L41.73532522598146,132.2970222105766z" style="fill:rgb(71,33,192)"/><path d="M23.530994435523088,115.67539518032451L35.85620874084154,130.98778247468695L28.723629925457498,118.00390460329103z" style="fill:rgb(51,38,177)"/><path d="M84.45241848338141,108.38266653071602L75.69589809607146,99.51147648689222L82.19898603875498,112.81855091491302z" style="fill:rgb(233,112,197)"/><path d="M78.54530527587968,93.99210575652805L86.23069851897687,102.82105277760463L79.82866361138511,89.4610754006722z" style="fill:rgb(242,130,183)"/><path d="M82.19898603875498,112.81855091491302L74.92772247608248,100.50976333112065L81.44495260751863,113.80943430833355z" style="fill:rgb(220,94,208)"/><path d="M41.108659128612615,119.45194782447422L41.73532522598146,132.2970222105766L48.11282901205446,132.5006284100482z" style="fill:rgb(92,32,204)"/><path d="M35.85620874084154,130.98778247468695L34.66054588383199,119.283928300981L28.723629925457498,118.00390460329103z" style="fill:rgb(71,33,192)"/><path d="M77.99959295881997,95.04917286191326L84.98625854264913,107.33180669275036L78.54530527587968,93.99210575652805z" style="fill:rgb(233,112,197)"/><path d="M81.44495260751863,113.80943430833355L71.68749432671366,104.72064697410985L78.26445806549256,117.98893285640877z" style="fill:rgb(220,94,208)"/><path d="M78.26445806549256,117.98893285640877L70.7263225244387,105.61865652898636L77.31911055565082,118.87867934920739z" style="fill:rgb(203,77,216)"/><path d="M75.69589809607146,99.51147648689222L84.45241848338141,108.38266653071602L77.99959295881997,95.04917286191326z" style="fill:rgb(233,112,197)"/><path d="M19.27946446564333,112.40402527333298L-0.4771928607386528,78.53676716159259L16.122612116140463,108.3308961972901z" style="fill:rgb(21,57,142)"/><path d="M47.808225667707866,118.49131331811144L48.11282901205446,132.5006284100482L54.73192551935212,131.58069398850245z" style="fill:rgb(115,34,214)"/><path d="M77.31911055565082,118.87867934920739L66.67558266736378,109.4031991649221L73.33517963035283,122.62829732978629z" style="fill:rgb(203,77,216)"/><path d="M66.67558266736378,109.4031991649221L72.23622312950047,123.3795560346159L73.33517963035283,122.62829732978629z" style="fill:rgb(183,62,221)"/><path d="M41.73532522598146,132.2970222105766L41.108659128612615,119.45194782447422L34.66054588383199,119.283928300981z" style="fill:rgb(92,32,204)"/><path d="M54.4846552834016,116.43458786125376L54.73192551935212,131.58069398850245L61.321521173348174,129.5681997915719z" style="fill:rgb(139,40,220)"/><path d="M65.55975912027765,110.16319899245406L68.70967999239826,125.79032499414097L72.23622312950047,123.3795560346159z" style="fill:rgb(183,62,221)"/><path d="M64.77567120614873,46.99037052636133L80.40927606999814,82.92491238404662L79.38234098251574,77.81479109652437z" style="fill:rgb(246,167,149)"/><path d="M74.92772247608248,100.50976333112065L82.19898603875498,112.81855091491302L75.69589809607146,99.51147648689222z" style="fill:rgb(220,94,208)"/><path d="M61.979069856720436,112.60203181375094L67.60928447965661,126.54256020974611L68.70967999239826,125.79032499414097z" style="fill:rgb(183,62,221)"/><path d="M60.86176892150197,113.36303433190004L61.321521173348174,129.5681997915719L67.60928447965661,126.54256020974611z" style="fill:rgb(162,50,222)"/><path d="M71.68749432671366,104.72064697410985L81.44495260751863,113.80943430833355L74.92772247608248,100.50976333112065z" style="fill:rgb(220,94,208)"/><path d="M48.11282901205446,132.5006284100482L47.808225667707866,118.49131331811144L41.108659128612615,119.45194782447422z" style="fill:rgb(115,34,214)"/><path d="M70.7263225244387,105.61865652898636L78.26445806549256,117.98893285640877L71.68749432671366,104.72064697410985z" style="fill:rgb(203,77,216)"/><path d="M23.530994435523088,115.67539518032451L2.696641972316907,82.58926026944954L19.27946446564333,112.40402527333298z" style="fill:rgb(34,46,160)"/><path d="M66.67558266736378,109.4031991649221L77.31911055565082,118.87867934920739L70.7263225244387,105.61865652898636z" style="fill:rgb(203,77,216)"/><path d="M54.73192551935212,131.58069398850245L54.4846552834016,116.43458786125376L47.808225667707866,118.49131331811144z" style="fill:rgb(139,40,220)"/><path d="M72.23622312950047,123.3795560346159L66.67558266736378,109.4031991649221L65.55975912027765,110.16319899245406zM68.70967999239826,125.79032499414097L65.55975912027765,110.16319899245406L61.979069856720436,112.60203181375094z" style="fill:rgb(183,62,221)"/><path d="M61.321521173348174,129.5681997915719L60.86176892150197,113.36303433190004L54.4846552834016,116.43458786125376z" style="fill:rgb(162,50,222)"/><path d="M67.60928447965661,126.54256020974611L61.979069856720436,112.60203181375094L60.86176892150197,113.36303433190004z" style="fill:rgb(183,62,221)"/><path d="M2.6242114860717156,52.407067076742344L7.0049342675634865,85.82169444243436L6.76609523364632,47.39779683827437zM6.76609523364632,47.39779683827437L12.2927456502523,88.09375365220933L11.800759794204357,42.89997947862853zM-0.46833398830525624,57.75090040468698L2.696641972316907,82.58926026944954L2.6242114860717156,52.407067076742344zM11.800759794204357,42.89997947862853L18.36001449691977,89.30133083905648L17.544187873817947,39.07124395059712zM-2.387990746850277,63.237697797752986L-0.4771928607386528,78.53676716159259L-0.46833398830525624,57.75090040468698z" style="fill:rgb(83,212,212)"/><path d="M80.40927606999814,82.92491238404662L65.40755415890689,57.60479249685494L80.13248419942568,88.38841309623969z" style="fill:rgb(246,149,167)"/><path d="M17.544187873817947,39.07124395059712L24.968587576351293,89.38320929258578L23.790566588922196,36.04608666090807zM-2.410901254846336,73.83293157619102L-2.387990746850277,63.237697797752986L-3.0495336592841467,68.66645299131476z" style="fill:rgb(83,212,212)"/><path d="M28.723629925457498,118.00390460329103L7.0049342675634865,85.82169444243436L23.530994435523088,115.67539518032451z" style="fill:rgb(51,38,177)"/><path d="M23.790566588922196,36.04608666090807L31.852014861531863,88.32582765414415L30.318039115916783,33.932488692656754zM30.318039115916783,33.932488692656754L31.852014861531863,88.32582765414415L36.89463828283349,32.80896919077968z" style="fill:rgb(83,212,212)"/><path d="M-0.4771928607386528,78.53676716159259L19.27946446564333,112.40402527333298L2.696641972316907,82.58926026944954z" style="fill:rgb(21,57,142)"/><path d="M80.13248419942568,88.38841309623969L63.70674450449253,63.26028493879531L78.54530527587968,93.99210575652805z" style="fill:rgb(242,130,183)"/><path d="M-2.387990746850277,63.237697797752986L-2.410901254846336,73.83293157619102L-0.4771928607386528,78.53676716159259zM36.89463828283349,32.80896919077968L45.31062198903763,82.98788187915709L43.28449413578912,32.72197291558568z" style="fill:rgb(83,212,212)"/><path d="M80.40927606999814,82.92491238404662L64.77567120614873,46.99037052636133L65.76231961393053,52.11007861623471z" style="fill:rgb(246,167,149)"/><path d="M-0.46833398830525624,57.75090040468698L-0.4771928607386528,78.53676716159259L2.696641972316907,82.58926026944954zM43.28449413578912,32.72197291558568L45.31062198903763,82.98788187915709L49.25442482195533,33.68367538387135z" style="fill:rgb(83,212,212)"/><path d="M18.36001449691977,89.30133083905648L28.723629925457498,118.00390460329103L34.66054588383199,119.283928300981z" style="fill:rgb(71,33,192)"/><path d="M78.54530527587968,93.99210575652805L60.71176479635714,68.84990673801293L75.69589809607146,99.51147648689222z" style="fill:rgb(233,112,197)"/><path d="M2.6242114860717156,52.407067076742344L2.696641972316907,82.58926026944954L7.0049342675634865,85.82169444243436z" style="fill:rgb(83,212,212)"/><path d="M2.696641972316907,82.58926026944954L23.530994435523088,115.67539518032451L7.0049342675634865,85.82169444243436z" style="fill:rgb(34,46,160)"/><path d="M65.40755415890689,57.60479249685494L80.40927606999814,82.92491238404662L65.76231961393053,52.11007861623471z" style="fill:rgb(246,149,167)"/><path d="M49.25442482195533,33.68367538387135L51.32764161384348,78.92416272739821L54.58104637191301,35.67031206186939z" style="fill:rgb(83,212,212)"/><path d="M24.968587576351293,89.38320929258578L34.66054588383199,119.283928300981L41.108659128612615,119.45194782447422z" style="fill:rgb(92,32,204)"/><path d="M75.69589809607146,99.51147648689222L56.531264485427315,74.14464833255263L71.68749432671366,104.72064697410985z" style="fill:rgb(220,94,208)"/><path d="M6.76609523364632,47.39779683827437L7.0049342675634865,85.82169444243436L12.2927456502523,88.09375365220933zM54.58104637191301,35.67031206186939L56.531264485427315,74.14464833255263L59.05834890508476,38.621228164690336z" style="fill:rgb(83,212,212)"/><path d="M31.852014861531863,88.32582765414415L41.108659128612615,119.45194782447422L47.808225667707866,118.49131331811144z" style="fill:rgb(115,34,214)"/><path d="M59.05834890508476,38.621228164690336L63.70674450449253,63.26028493879531L62.50564914369383,42.43890909345261z" style="fill:rgb(83,212,212)"/><path d="M71.68749432671366,104.72064697410985L51.32764161384348,78.92416272739821L66.67558266736378,109.4031991649221z" style="fill:rgb(203,77,216)"/><path d="M11.800759794204357,42.89997947862853L12.2927456502523,88.09375365220933L18.36001449691977,89.30133083905648z" style="fill:rgb(83,212,212)"/><path d="M7.0049342675634865,85.82169444243436L28.723629925457498,118.00390460329103L12.2927456502523,88.09375365220933z" style="fill:rgb(51,38,177)"/><path d="M63.70674450449253,63.26028493879531L80.13248419942568,88.38841309623969L65.40755415890689,57.60479249685494z" style="fill:rgb(242,130,183)"/><path d="M38.727698291082916,86.16550782726496L47.808225667707866,118.49131331811144L54.4846552834016,116.43458786125376z" style="fill:rgb(139,40,220)"/><path d="M51.32764161384348,78.92416272739821L60.86176892150197,113.36303433190004L66.67558266736378,109.4031991649221z" style="fill:rgb(183,62,221)"/><path d="M45.31062198903763,82.98788187915709L54.4846552834016,116.43458786125376L60.86176892150197,113.36303433190004z" style="fill:rgb(162,50,222)"/><path d="M17.544187873817947,39.07124395059712L18.36001449691977,89.30133083905648L24.968587576351293,89.38320929258578zM62.50564914369383,42.43890909345261L63.70674450449253,63.26028493879531L64.77567120614873,46.99037052636133z" style="fill:rgb(83,212,212)"/><path d="M28.723629925457498,118.00390460329103L18.36001449691977,89.30133083905648L12.2927456502523,88.09375365220933z" style="fill:rgb(71,33,192)"/><path d="M23.790566588922196,36.04608666090807L24.968587576351293,89.38320929258578L31.852014861531863,88.32582765414415z" style="fill:rgb(83,212,212)"/><path d="M60.71176479635714,68.84990673801293L78.54530527587968,93.99210575652805L63.70674450449253,63.26028493879531z" style="fill:rgb(233,112,197)"/><path d="M64.77567120614873,46.99037052636133L65.40755415890689,57.60479249685494L65.76231961393053,52.11007861623471zM36.89463828283349,32.80896919077968L31.852014861531863,88.32582765414415L38.727698291082916,86.16550782726496z" style="fill:rgb(83,212,212)"/><path d="M34.66054588383199,119.283928300981L24.968587576351293,89.38320929258578L18.36001449691977,89.30133083905648z" style="fill:rgb(92,32,204)"/><path d="M36.89463828283349,32.80896919077968L38.727698291082916,86.16550782726496L45.31062198903763,82.98788187915709zM59.05834890508476,38.621228164690336L60.71176479635714,68.84990673801293L63.70674450449253,63.26028493879531z" style="fill:rgb(83,212,212)"/><path d="M56.531264485427315,74.14464833255263L75.69589809607146,99.51147648689222L60.71176479635714,68.84990673801293z" style="fill:rgb(220,94,208)"/><path d="M64.77567120614873,46.99037052636133L63.70674450449253,63.26028493879531L65.40755415890689,57.60479249685494zM49.25442482195533,33.68367538387135L45.31062198903763,82.98788187915709L51.32764161384348,78.92416272739821zM54.58104637191301,35.67031206186939L51.32764161384348,78.92416272739821L56.531264485427315,74.14464833255263zM59.05834890508476,38.621228164690336L56.531264485427315,74.14464833255263L60.71176479635714,68.84990673801293z" style="fill:rgb(83,212,212)"/><path d="M41.108659128612615,119.45194782447422L31.852014861531863,88.32582765414415L24.968587576351293,89.38320929258578z" style="fill:rgb(115,34,214)"/><path d="M51.32764161384348,78.92416272739821L71.68749432671366,104.72064697410985L56.531264485427315,74.14464833255263z" style="fill:rgb(203,77,216)"/><path d="M47.808225667707866,118.49131331811144L38.727698291082916,86.16550782726496L31.852014861531863,88.32582765414415z" style="fill:rgb(139,40,220)"/><path d="M60.86176892150197,113.36303433190004L51.32764161384348,78.92416272739821L45.31062198903763,82.98788187915709z" style="fill:rgb(183,62,221)"/><path d="M54.4846552834016,116.43458786125376L45.31062198903763,82.98788187915709L38.727698291082916,86.16550782726496z" style="fill:rgb(162,50,222)"/><path d="M-10.847990781958707,76.89363987305694L-79.92228104882444,-42.884132902764826L-14.776954958894828,71.80280514556762z" style="fill:rgb(21,57,142)"/><path d="M12.265273478262708,-87.86407139035948L69.05834496538675,38.24819300591739L67.78859196369856,31.855163671039328z" style="fill:rgb(246,167,149)"/><path d="M-5.465902939142416,80.95917001538281L-75.99447058302772,-38.01284310462319L-10.847990781958707,76.89363987305694z" style="fill:rgb(34,46,160)"/><path d="M69.05834496538675,38.24819300591739L12.43537341446238,-74.64396575498027L68.62782321103235,45.13868952753304z" style="fill:rgb(246,149,167)"/><path d="M1.1799968880365015,83.81755291259654L-70.41518349798471,-34.25045464112797L-5.465902939142416,80.95917001538281z" style="fill:rgb(51,38,177)"/><path d="M68.62782321103235,45.13868952753304L9.694579973037143,-67.38440926448233L66.48411485830295,52.25745151889712z" style="fill:rgb(242,130,183)"/><path d="M-55.13706648987644,-30.701479343018413L1.1799968880365015,83.81755291259654L8.839883678146306,85.33210211843742z" style="fill:rgb(71,33,192)"/><path d="M66.48411485830295,52.25745151889712L5.148375793277089,-60.07491930277296L62.687732035061174,59.31640912317755z" style="fill:rgb(233,112,197)"/><path d="M-46.02387509261657,-31.108062221971732L8.839883678146306,85.33210211843742L17.21180193767591,85.42085565806397z" style="fill:rgb(92,32,204)"/><path d="M62.687732035061174,59.31640912317755L-1.0401081971028714,-53.020852689799426L57.37400051442992,66.02178672359544z" style="fill:rgb(220,94,208)"/><path d="M-36.409076398371035,-32.993134888037225L17.21180193767591,85.42085565806397L25.954194789627017,84.06364487652232z" style="fill:rgb(115,34,214)"/><path d="M57.37400051442992,66.02178672359544L-8.628054621813236,-46.52384011591888L50.749825420425125,72.08888511088225z" style="fill:rgb(203,77,216)"/><path d="M-8.628054621813236,-46.52384011591888L43.085533803261406,77.25736897937301L50.749825420425125,72.08888511088225z" style="fill:rgb(183,62,221)"/><path d="M-26.697164449834805,-36.290111531857974L25.954194789627017,84.06364487652232L34.70203805480199,81.3057332919188z" style="fill:rgb(139,40,220)"/><path d="M-17.302804222814384,-40.86524297749297L34.70203805480199,81.3057332919188L43.085533803261406,77.25736897937301z" style="fill:rgb(162,50,222)"/><path d="M-79.92228104882444,-42.884132902764826L-10.847990781958707,76.89363987305694L-75.99447058302772,-38.01284310462319z" style="fill:rgb(21,57,142)"/><path d="M69.05834496538675,38.24819300591739L12.265273478262708,-87.86407139035948L13.291328469546782,-81.56002071763831z" style="fill:rgb(246,167,149)"/><path d="M-48.9119116981862,-106.65597261582475L-48.48977425564819,-88.59503164673234L-41.460713301995725,-92.03059707936296z" style="fill:rgb(162,50,222)"/><path d="M-56.030157777583355,-103.17318141289371L-55.02495643549188,-84.39358829433087L-48.48977425564819,-88.59503164673234z" style="fill:rgb(183,62,221)"/><path d="M-41.551795365279844,-109.25633909800858L-41.460713301995725,-92.03059707936296L-34.18486283765665,-94.57893736669847z" style="fill:rgb(139,40,220)"/><path d="M-60.983067911782015,-106.94182642529387L-52.27993609687285,-111.46327416517681L-59.2364409107939,-108.05836903960913zM-52.27993609687285,-111.46327416517681L-43.21118227325138,-114.9308418554558L-50.40296354062905,-112.38197225538751z" style="fill:rgb(83,212,212)"/><path d="M-55.02495643549188,-84.39358829433087L-68.55652160290987,-94.07629982981013L-60.83444996265377,-79.57238097088097z" style="fill:rgb(203,77,216)"/><path d="M-69.02149447889437,-101.52169297933403L-60.983067911782015,-106.94182642529387L-67.46542944963619,-102.79793534027989z" style="fill:rgb(83,212,212)"/><path d="M-75.99447058302772,-38.01284310462319L-5.465902939142416,80.95917001538281L-70.41518349798471,-34.25045464112797z" style="fill:rgb(34,46,160)"/><path d="M12.43537341446238,-74.64396575498027L69.05834496538675,38.24819300591739L13.291328469546782,-81.56002071763831z" style="fill:rgb(246,149,167)"/><path d="M-34.20862467763721,-110.87906674078647L-34.18486283765665,-94.57893736669847L-26.91834291426801,-96.14659842826958z" style="fill:rgb(115,34,214)"/><path d="M-43.21118227325138,-114.9308418554558L-34.08818689975828,-117.22075366827856L-41.26806034318427,-115.61951588255975z" style="fill:rgb(83,212,212)"/><path d="M-48.48977425564819,-88.59503164673234L-48.9119116981862,-106.65597261582475L-56.030157777583355,-103.17318141289371z" style="fill:rgb(162,50,222)"/><path d="M-76.11499170878659,-95.38614112899327L-69.02149447889437,-101.52169297933403L-74.80436675184889,-96.77874455973873z" style="fill:rgb(83,212,212)"/><path d="M-55.02495643549188,-84.39358829433087L-56.030157777583355,-103.17318141289371L-62.65661760883717,-98.93083099023639z" style="fill:rgb(183,62,221)"/><path d="M-60.83444996265377,-79.57238097088097L-73.51641784813337,-88.77802643463227L-65.70786021593446,-74.29887225444604z" style="fill:rgb(220,94,208)"/><path d="M-41.460713301995725,-92.03059707936296L-41.551795365279844,-109.25633909800858L-48.9119116981862,-106.65597261582475z" style="fill:rgb(139,40,220)"/><path d="M-43.21118227325138,-114.9308418554558L-52.27993609687285,-111.46327416517681L-68.55652160290987,-94.07629982981013z" style="fill:rgb(83,212,212)"/><path d="M-68.55652160290987,-94.07629982981013L-55.02495643549188,-84.39358829433087L-62.65661760883717,-98.93083099023639z" style="fill:rgb(203,77,216)"/><path d="M-52.27993609687285,-111.46327416517681L-60.983067911782015,-106.94182642529387L-73.51641784813337,-88.77802643463227zM-34.08818689975828,-117.22075366827856L-43.21118227325138,-114.9308418554558L-62.65661760883717,-98.93083099023639z" style="fill:rgb(83,212,212)"/><path d="M-27.14358904871384,-111.45960291147364L-26.91834291426801,-96.14659842826958L-19.919826395347638,-96.67099294358326z" style="fill:rgb(92,32,204)"/><path d="M-34.18486283765665,-94.57893736669847L-34.20862467763721,-110.87906674078647L-41.551795365279844,-109.25633909800858z" style="fill:rgb(115,34,214)"/><path d="M-34.08818689975828,-117.22075366827856L-25.22786062292243,-118.24402911697511L-32.145725128947724,-117.6539551893745zM-60.983067911782015,-106.94182642529387L-69.02149447889437,-101.52169297933403L-77.3504414342651,-83.22161895319454zM-25.22786062292243,-118.24402911697511L-34.08818689975828,-117.22075366827856L-56.030157777583355,-103.17318141289371z" style="fill:rgb(83,212,212)"/><path d="M-73.51641784813337,-88.77802643463227L-60.83444996265377,-79.57238097088097L-68.55652160290987,-94.07629982981013z" style="fill:rgb(220,94,208)"/><path d="M-65.70786021593446,-74.29887225444604L-77.3504414342651,-83.22161895319454L-69.4623791379599,-68.75791092233258z" style="fill:rgb(233,112,197)"/><path d="M-70.41518349798471,-34.25045464112797L1.1799968880365015,83.81755291259654L-63.37550443388921,-31.771404696412223z" style="fill:rgb(51,38,177)"/><path d="M9.694579973037143,-67.38440926448233L68.62782321103235,45.13868952753304L12.43537341446238,-74.64396575498027z" style="fill:rgb(242,130,183)"/><path d="M-26.91834291426801,-96.14659842826958L-27.14358904871384,-111.45960291147364L-34.20862467763721,-110.87906674078647z" style="fill:rgb(92,32,204)"/><path d="M-20.613248345245655,-110.96670349897839L-19.919826395347638,-96.67099294358326L-13.443581925501777,-96.12300131995644z" style="fill:rgb(71,33,192)"/><path d="M-69.02149447889437,-101.52169297933403L-76.11499170878659,-95.38614112899327L-79.90661933469342,-77.60527953390056zM-16.94524325937292,-117.94993255521734L-25.22786062292243,-118.24402911697511L-48.9119116981862,-106.65597261582475zM-65.70786021593446,-74.29887225444604L-67.7610319892944,-44.08874116792622L-60.83444996265377,-79.57238097088097zM-25.22786062292243,-118.24402911697511L-16.94524325937292,-117.94993255521734L-23.354004721752148,-118.40386529687278z" style="fill:rgb(83,212,212)"/><path d="M-77.3504414342651,-83.22161895319454L-65.70786021593446,-74.29887225444604L-73.51641784813337,-88.77802643463227z" style="fill:rgb(233,112,197)"/><path d="M1.1799968880365015,83.81755291259654L-55.13706648987644,-30.701479343018413L-63.37550443388921,-31.771404696412223z" style="fill:rgb(71,33,192)"/><path d="M-69.4623791379599,-68.75791092233258L-79.90661933469342,-77.60527953390056L-71.94905563972418,-63.147249384315515z" style="fill:rgb(242,130,183)"/><path d="M-19.919826395347638,-96.67099294358326L-20.613248345245655,-110.96670349897839L-27.14358904871384,-111.45960291147364z" style="fill:rgb(71,33,192)"/><path d="M-60.83444996265377,-79.57238097088097L-57.62523937007408,-39.1822707872134L-55.02495643549188,-84.39358829433087z" style="fill:rgb(83,212,212)"/><path d="M-7.7319164352069905,-94.5093214937392L-20.613248345245655,-110.96670349897839L-13.443581925501777,-96.12300131995644z" style="fill:rgb(51,38,177)"/><path d="M-69.4623791379599,-68.75791092233258L-67.7610319892944,-44.08874116792622L-65.70786021593446,-74.29887225444604zM-55.02495643549188,-84.39358829433087L-51.046911947834666,-38.36322310641346L-48.48977425564819,-88.59503164673234zM-71.94905563972418,-63.147249384315515L-70.94888992824738,-47.94921062308167L-69.4623791379599,-68.75791092233258zM-80.99186566708093,-90.2042201683159L-81.07321692198624,-72.1345112176755L-76.11499170878659,-95.38614112899327zM-48.48977425564819,-88.59503164673234L-43.78988958431089,-38.71292208248844L-41.460713301995725,-92.03059707936296z" style="fill:rgb(83,212,212)"/><path d="M5.148375793277089,-60.07491930277296L66.48411485830295,52.25745151889712L9.694579973037143,-67.38440926448233z" style="fill:rgb(233,112,197)"/><path d="M-9.545194879006722,-116.32932338466274L-16.94524325937292,-117.94993255521734L-41.551795365279844,-109.25633909800858zM-72.72948285372738,-52.539271758243814L-71.94905563972418,-63.147249384315515L-73.05903155298863,-57.672175898982815zM-81.07321692198624,-72.1345112176755L-80.99186566708093,-90.2042201683159L-82.00893281370698,-88.74289767948534z" style="fill:rgb(83,212,212)"/><path d="M-79.90661933469342,-77.60527953390056L-69.4623791379599,-68.75791092233258L-77.3504414342651,-83.22161895319454z" style="fill:rgb(242,130,183)"/><path d="M-41.460713301995725,-92.03059707936296L-36.14775120079742,-40.22891802780169L-34.18486283765665,-94.57893736669847zM-16.94524325937292,-117.94993255521734L-9.545194879006722,-116.32932338466274L-15.207430271241863,-117.82684489737844zM-34.18486283765665,-94.57893736669847L-36.14775120079742,-40.22891802780169L-26.91834291426801,-96.14659842826958z" style="fill:rgb(83,212,212)"/><path d="M8.839883678146306,85.33210211843742L-46.02387509261657,-31.108062221971732L-55.13706648987644,-30.701479343018413z" style="fill:rgb(92,32,204)"/><path d="M-71.94905563972418,-63.147249384315515L-81.07321692198624,-72.1345112176755L-73.05903155298863,-57.672175898982815z" style="fill:rgb(246,149,167)"/><path d="M-3.006998424665555,-91.87420642674658L-14.861950801313851,-109.40486059898124L-7.7319164352069905,-94.5093214937392z" style="fill:rgb(34,46,160)"/><path d="M-20.613248345245655,-110.96670349897839L-7.7319164352069905,-94.5093214937392L-14.861950801313851,-109.40486059898124z" style="fill:rgb(51,38,177)"/><path d="M-1.0401081971028714,-53.020852689799426L62.687732035061174,59.31640912317755L5.148375793277089,-60.07491930277296z" style="fill:rgb(220,94,208)"/><path d="M-85.7977344549439,-83.29914213239198L-80.7848307361133,-67.01583499907657L-82.00893281370698,-88.74289767948534zM-71.94905563972418,-63.147249384315515L-72.72948285372738,-52.539271758243814L-70.94888992824738,-47.94921062308167zM-26.91834291426801,-96.14659842826958L-20.978216310035627,-46.490243887706484L-19.919826395347638,-96.67099294358326zM-3.3129133516240157,-113.41776143329834L-9.545194879006722,-116.32932338466274L-34.20862467763721,-110.87906674078647z" style="fill:rgb(83,212,212)"/><path d="M-81.07321692198624,-72.1345112176755L-71.94905563972418,-63.147249384315515L-79.90661933469342,-77.60527953390056z" style="fill:rgb(246,149,167)"/><path d="M-80.7848307361133,-67.01583499907657L-85.7977344549439,-83.29914213239198L-86.48136698601584,-81.8200861902235z" style="fill:rgb(83,212,212)"/><path d="M17.21180193767591,85.42085565806397L-36.409076398371035,-32.993134888037225L-46.02387509261657,-31.108062221971732z" style="fill:rgb(115,34,214)"/><path d="M-81.07321692198624,-72.1345112176755L-72.72948285372738,-52.539271758243814L-73.05903155298863,-57.672175898982815z" style="fill:rgb(246,167,149)"/><path d="M-69.4623791379599,-68.75791092233258L-70.94888992824738,-47.94921062308167L-67.7610319892944,-44.08874116792622zM-19.919826395347638,-96.67099294358326L-20.978216310035627,-46.490243887706484L-13.443581925501777,-96.12300131995644z" style="fill:rgb(83,212,212)"/><path d="M-8.628054621813236,-46.52384011591888L57.37400051442992,66.02178672359544L-1.0401081971028714,-53.020852689799426z" style="fill:rgb(203,77,216)"/><path d="M-9.545194879006722,-116.32932338466274L-3.3129133516240157,-113.41776143329834L-8.008452991607422,-115.9228924537661zM-60.83444996265377,-79.57238097088097L-67.7610319892944,-44.08874116792622L-63.26710295289526,-41.122067696433575z" style="fill:rgb(83,212,212)"/><path d="M0.5378623112535577,-88.30028766949748L-10.113573930291468,-106.81612989890615L-3.006998424665555,-91.87420642674658z" style="fill:rgb(21,57,142)"/><path d="M-13.443581925501777,-96.12300131995644L-8.045387345413154,-56.131530098773275L-7.7319164352069905,-94.5093214937392z" style="fill:rgb(83,212,212)"/><path d="M25.954194789627017,84.06364487652232L-26.697164449834805,-36.290111531857974L-36.409076398371035,-32.993134888037225z" style="fill:rgb(139,40,220)"/><path d="M-14.861950801313851,-109.40486059898124L-3.006998424665555,-91.87420642674658L-10.113573930291468,-106.81612989890615z" style="fill:rgb(34,46,160)"/><path d="M-90.48342198521621,-68.11993795652808L-89.35062860518033,-74.86136645752893L-90.54530964419284,-69.47431848695106zM-89.03047094859363,-76.30501213039283L-79.02778990612347,-62.44961277134729L-86.48136698601584,-81.8200861902235z" style="fill:rgb(83,212,212)"/><path d="M43.085533803261406,77.25736897937301L-8.628054621813236,-46.52384011591888L-17.302804222814384,-40.86524297749297z" style="fill:rgb(183,62,221)"/><path d="M34.70203805480199,81.3057332919188L-17.302804222814384,-40.86524297749297L-26.697164449834805,-36.290111531857974z" style="fill:rgb(162,50,222)"/><path d="M1.4967328248655674,-109.29787998035692L-3.3129133516240157,-113.41776143329834L-27.14358904871384,-111.45960291147364zM-7.7319164352069905,-94.5093214937392L-3.1024849665072836,-61.73122990228091L-3.006998424665555,-91.87420642674658zM-60.83444996265377,-79.57238097088097L-63.26710295289526,-41.122067696433575L-57.62523937007408,-39.1822707872134zM-79.02778990612347,-62.44961277134729L-89.03047094859363,-76.30501213039283L-89.35062860518033,-74.86136645752893z" style="fill:rgb(83,212,212)"/><path d="M-80.7848307361133,-67.01583499907657L-70.94888992824738,-47.94921062308167L-72.72948285372738,-52.539271758243814z" style="fill:rgb(242,183,130)"/><path d="M-72.72948285372738,-52.539271758243814L-81.07321692198624,-72.1345112176755L-80.7848307361133,-67.01583499907657z" style="fill:rgb(246,167,149)"/><path d="M-3.006998424665555,-91.87420642674658L0.5495796942434565,-67.54308909003831L0.5378623112535577,-88.30028766949748zM-55.02495643549188,-84.39358829433087L-57.62523937007408,-39.1822707872134L-51.046911947834666,-38.36322310641346z" style="fill:rgb(83,212,212)"/><path d="M2.747169658091136,-83.90823398415391L-6.562729195380159,-103.28106670731447L0.5378623112535577,-88.30028766949748z" style="fill:rgb(12,71,124)"/><path d="M-10.113573930291468,-106.81612989890615L0.5378623112535577,-88.30028766949748L-6.562729195380159,-103.28106670731447z" style="fill:rgb(21,57,142)"/><path d="M-3.3129133516240157,-113.41776143329834L1.4967328248655674,-109.29787998035692L-2.0376888371863426,-112.73741493896163zM0.5378623112535577,-88.30028766949748L2.7775342578969004,-73.32816228533841L2.747169658091136,-83.90823398415391zM-89.35062860518033,-74.86136645752893L-90.48342198521621,-68.11993795652808L-75.84433520936419,-58.621963434897786zM-48.48977425564819,-88.59503164673234L-51.046911947834666,-38.36322310641346L-43.78988958431089,-38.71292208248844zM4.670823146647233,-104.10048609023441L1.4967328248655674,-109.29787998035692L-20.613248345245655,-110.96670349897839z" style="fill:rgb(83,212,212)"/><path d="M-79.09255194433602,-41.85509864664969L-88.12449555076248,-57.32395011972504L-79.92228104882444,-42.884132902764826z" style="fill:rgb(21,57,142)"/><path d="M-70.94888992824738,-47.94921062308167L-80.7848307361133,-67.01583499907657L-79.02778990612347,-62.44961277134729z" style="fill:rgb(242,183,130)"/><path d="M-41.460713301995725,-92.03059707936296L-43.78988958431089,-38.71292208248844L-36.14775120079742,-40.22891802780169zM2.747169658091136,-83.90823398415391L2.7775342578969004,-73.32816228533841L3.5119511625768784,-78.85466845079128z" style="fill:rgb(83,212,212)"/><path d="M-75.99447058302772,-38.01284310462319L-87.29634576736788,-56.303453295759496L-79.09255194433602,-41.85509864664969z" style="fill:rgb(21,57,142)"/><path d="M-6.562729195380159,-103.28106670731447L2.747169658091136,-83.90823398415391L-4.365697437027606,-98.91850120810768z" style="fill:rgb(12,71,124)"/><path d="M0.5378623112535577,-88.30028766949748L0.5495796942434565,-67.54308909003831L2.7775342578969004,-73.32816228533841z" style="fill:rgb(83,212,212)"/><path d="M5.272388398155294,-102.94211396365502L13.072130503591966,-82.90676781046706L12.265273478262708,-87.86407139035948z" style="fill:rgb(246,167,149)"/><path d="M-26.91834291426801,-96.14659842826958L-36.14775120079742,-40.22891802780169L-28.43635974930847,-42.856523148648265zM-26.91834291426801,-96.14659842826958L-28.43635974930847,-42.856523148648265L-20.978216310035627,-46.490243887706484zM-3.006998424665555,-91.87420642674658L-3.1024849665072836,-61.73122990228091L0.5495796942434565,-67.54308909003831z" style="fill:rgb(83,212,212)"/><path d="M-88.12449555076248,-57.32395011972504L-79.09255194433602,-41.85509864664969L-87.29634576736788,-56.303453295759496z" style="fill:rgb(21,57,142)"/><path d="M1.4967328248655674,-109.29787998035692L4.670823146647233,-104.10048609023441L2.4570157434522826,-108.36337216788141zM-90.25237235205198,-63.06342482983973L-71.33486957808192,-55.69617621591455L-90.48342198521621,-68.11993795652808zM-7.7319164352069905,-94.5093214937392L-8.045387345413154,-56.131530098773275L-3.1024849665072836,-61.73122990228091zM-13.443581925501777,-96.12300131995644L-14.08581199743172,-50.97853213119299L-8.045387345413154,-56.131530098773275zM6.050399221019472,-98.00380674994013L4.670823146647233,-104.10048609023441L-14.861950801313851,-109.40486059898124zM-13.443581925501777,-96.12300131995644L-20.978216310035627,-46.490243887706484L-14.08581199743172,-50.97853213119299z" style="fill:rgb(83,212,212)"/><path d="M-74.81557833698817,-37.21785878735071L-84.20385986918228,-52.492712457064385L-75.99447058302772,-38.01284310462319z" style="fill:rgb(34,46,160)"/><path d="M-71.33486957808192,-55.69617621591455L-90.25237235205198,-63.06342482983973L-89.80291536414926,-61.851120840322196z" style="fill:rgb(83,212,212)"/><path d="M6.050399221019472,-98.00380674994013L13.291328469546782,-81.56002071763831L13.072130503591966,-82.90676781046706z" style="fill:rgb(246,167,149)"/><path d="M-87.29634576736788,-56.303453295759496L-75.99447058302772,-38.01284310462319L-84.20385986918228,-52.492712457064385z" style="fill:rgb(21,57,142)"/><path d="M-70.41518349798471,-34.25045464112797L-83.0212349507902,-51.70838506774255L-74.81557833698817,-37.21785878735071z" style="fill:rgb(34,46,160)"/><path d="M13.072130503591966,-82.90676781046706L5.272388398155294,-102.94211396365502L6.050399221019472,-98.00380674994013z" style="fill:rgb(246,167,149)"/><path d="M-88.12449555076248,-57.32395011972504L-65.65760623037495,-53.80408819352428L-89.80291536414926,-61.851120840322196z" style="fill:rgb(83,212,212)"/><path d="M-84.20385986918228,-52.492712457064385L-74.81557833698817,-37.21785878735071L-83.0212349507902,-51.70838506774255z" style="fill:rgb(34,46,160)"/><path d="M4.670823146647233,-104.10048609023441L6.050399221019472,-98.00380674994013L5.272388398155294,-102.94211396365502z" style="fill:rgb(83,212,212)"/><path d="M13.291328469546782,-81.56002071763831L5.541982002522226,-91.23018222134324L12.618173918810957,-76.12097492211441z" style="fill:rgb(246,149,167)"/><path d="M5.541982002522226,-91.23018222134324L6.050399221019472,-98.00380674994013L-10.113573930291468,-106.81612989890615z" style="fill:rgb(83,212,212)"/><path d="M13.291328469546782,-81.56002071763831L6.050399221019472,-98.00380674994013L6.261781434258864,-96.66209302327952z" style="fill:rgb(246,167,149)"/><path d="M-65.65760623037495,-53.80408819352428L-88.12449555076248,-57.32395011972504L-87.29634576736788,-56.303453295759496z" style="fill:rgb(83,212,212)"/><path d="M-67.7610319892944,-44.08874116792622L-104.60847037824779,-108.3630421806645L-70.94888992824738,-47.94921062308167z" style="fill:rgb(21,57,142)"/><path d="M12.618173918810957,-76.12097492211441L5.346497964595553,-89.75497628633701L12.43537341446238,-74.64396575498027zM5.541982002522226,-91.23018222134324L13.291328469546782,-81.56002071763831L6.261781434258864,-96.66209302327952z" style="fill:rgb(246,149,167)"/><path d="M-63.37550443388921,-31.771404696412223L-78.6064785827271,-48.78049709917948L-70.41518349798471,-34.25045464112797z" style="fill:rgb(51,38,177)"/><path d="M-83.0212349507902,-51.70838506774255L-70.41518349798471,-34.25045464112797L-78.6064785827271,-48.78049709917948z" style="fill:rgb(34,46,160)"/><path d="M-26.890136447616204,-146.45177624228026L3.5119511625768784,-78.85466845079128L2.747169658091136,-83.90823398415391z" style="fill:rgb(246,167,149)"/><path d="M-84.20385986918228,-52.492712457064385L-59.025094926083085,-53.03800433118983L-87.29634576736788,-56.303453295759496z" style="fill:rgb(83,212,212)"/><path d="M12.43537341446238,-74.64396575498027L3.127416855061672,-84.03970285944436L10.279595737090684,-68.93394282882603z" style="fill:rgb(242,130,183)"/><path d="M3.127416855061672,-84.03970285944436L5.541982002522226,-91.23018222134324L-6.562729195380159,-103.28106670731447zM6.050399221019472,-98.00380674994013L5.541982002522226,-91.23018222134324L6.261781434258864,-96.66209302327952z" style="fill:rgb(83,212,212)"/><path d="M5.346497964595553,-89.75497628633701L12.618173918810957,-76.12097492211441L5.541982002522226,-91.23018222134324z" style="fill:rgb(246,149,167)"/><path d="M-59.025094926083085,-53.03800433118983L-84.20385986918228,-52.492712457064385L-83.0212349507902,-51.70838506774255z" style="fill:rgb(83,212,212)"/><path d="M-63.26710295289526,-41.122067696433575L-101.44711785214835,-104.65399211228512L-67.7610319892944,-44.08874116792622z" style="fill:rgb(34,46,160)"/><path d="M10.279595737090684,-68.93394282882603L2.5251738218062934,-82.48861965118421L9.694579973037143,-67.38440926448233zM3.127416855061672,-84.03970285944436L12.43537341446238,-74.64396575498027L5.346497964595553,-89.75497628633701z" style="fill:rgb(242,130,183)"/><path d="M-78.6064785827271,-48.78049709917948L-63.37550443388921,-31.771404696412223L-71.52331109434904,-46.36034179937161z" style="fill:rgb(51,38,177)"/><path d="M-63.21717148981258,-45.35619169034381L-63.37550443388921,-31.771404696412223L-55.13706648987644,-30.701479343018413z" style="fill:rgb(71,33,192)"/><path d="M3.5119511625768784,-78.85466845079128L-27.20406453015946,-136.0070377387848L2.7775342578969004,-73.32816228533841z" style="fill:rgb(246,149,167)"/><path d="M9.694579973037143,-67.38440926448233L-1.129306795590866,-76.72069698036265L6.118042420398128,-61.633972362090894z" style="fill:rgb(233,112,197)"/><path d="M-1.129306795590866,-76.72069698036265L3.127416855061672,-84.03970285944436L-4.365697437027606,-98.91850120810768z" style="fill:rgb(83,212,212)"/><path d="M2.5251738218062934,-82.48861965118421L10.279595737090684,-68.93394282882603L3.127416855061672,-84.03970285944436z" style="fill:rgb(242,130,183)"/><path d="M-57.62523937007408,-39.1822707872134L-96.89624855736649,-101.87183470950936L-63.26710295289526,-41.122067696433575z" style="fill:rgb(51,38,177)"/><path d="M5.541982002522226,-91.23018222134324L3.127416855061672,-84.03970285944436L5.346497964595553,-89.75497628633701z" style="fill:rgb(83,212,212)"/><path d="M-63.37550443388921,-31.771404696412223L-63.21717148981258,-45.35619169034381L-71.52331109434904,-46.36034179937161z" style="fill:rgb(71,33,192)"/><path d="M6.118042420398128,-61.633972362090894L-2.1201740861189013,-75.15680159936846L5.148375793277089,-60.07491930277296zM-1.129306795590866,-76.72069698036265L9.694579973037143,-67.38440926448233L2.5251738218062934,-82.48861965118421z" style="fill:rgb(233,112,197)"/><path d="M-78.6064785827271,-48.78049709917948L-26.961781556934838,-54.814622060084815L-83.0212349507902,-51.70838506774255z" style="fill:rgb(83,212,212)"/><path d="M-54.01460571228853,-45.83315711726797L-55.13706648987644,-30.701479343018413L-46.02387509261657,-31.108062221971732z" style="fill:rgb(92,32,204)"/><path d="M-3.631616826439315,-93.88357915448887L-2.1201740861189013,-75.15680159936846L-1.129306795590866,-76.72069698036265z" style="fill:rgb(83,212,212)"/><path d="M5.148375793277089,-60.07491930277296L-7.0795741614002825,-69.5770450858013L0.27866017260313247,-54.52407761279002z" style="fill:rgb(220,94,208)"/><path d="M2.7775342578969004,-73.32816228533841L-29.7095031263909,-130.21198810084837L0.5495796942434565,-67.54308909003831z" style="fill:rgb(242,130,183)"/><path d="M-2.1201740861189013,-75.15680159936846L-3.631616826439315,-93.88357915448887L-7.0795741614002825,-69.5770450858013z" style="fill:rgb(83,212,212)"/><path d="M0.27866017260313247,-54.52407761279002L-8.422701774175025,-68.06590832252512L-1.0401081971028714,-53.020852689799426z" style="fill:rgb(220,94,208)"/><path d="M-2.1201740861189013,-75.15680159936846L6.118042420398128,-61.633972362090894L-1.129306795590866,-76.72069698036265z" style="fill:rgb(233,112,197)"/><path d="M-55.13706648987644,-30.701479343018413L-54.01460571228853,-45.83315711726797L-63.21717148981258,-45.35619169034381z" style="fill:rgb(92,32,204)"/><path d="M-26.961781556934838,-54.814622060084815L-78.6064785827271,-48.78049709917948L-71.52331109434904,-46.36034179937161z" style="fill:rgb(83,212,212)"/><path d="M-44.29256382233272,-47.79055990394579L-46.02387509261657,-31.108062221971732L-36.409076398371035,-32.993134888037225z" style="fill:rgb(115,34,214)"/><path d="M3.127416855061672,-84.03970285944436L-1.129306795590866,-76.72069698036265L2.5251738218062934,-82.48861965118421zM-98.20724216720889,-134.56142384673444L-101.44711785214835,-104.65399211228512L-92.96995208001638,-139.93062289191232zM-92.96995208001638,-139.93062289191232L-96.89624855736649,-101.87183470950936L-86.78167282818062,-144.8856533070296z" style="fill:rgb(83,212,212)"/><path d="M-1.0401081971028714,-53.020852689799426L-14.493041034445035,-62.91305589905992L-7.012719510142312,-47.906934574867556z" style="fill:rgb(203,77,216)"/><path d="M-84.31593874907341,-99.55704829578875L-57.62523937007408,-39.1822707872134L-51.046911947834666,-38.36322310641346z" style="fill:rgb(71,33,192)"/><path d="M-7.0795741614002825,-69.5770450858013L5.148375793277089,-60.07491930277296L-2.1201740861189013,-75.15680159936846z" style="fill:rgb(220,94,208)"/><path d="M-7.012719510142312,-47.906934574867556L-16.134865816855616,-61.51938112924319L-8.628054621813236,-46.52384011591888z" style="fill:rgb(203,77,216)"/><path d="M-4.414602511714709,-88.36388218873054L-8.422701774175025,-68.06590832252512L-7.0795741614002825,-69.5770450858013zM-43.97030899485599,-55.01760019585141L-51.69715156929524,-53.44404159615528L-47.94153794627107,-53.65213780382726z" style="fill:rgb(83,212,212)"/><path d="M0.5495796942434565,-67.54308909003831L-33.69792082910013,-124.33772849852856L-3.1024849665072836,-61.73122990228091z" style="fill:rgb(233,112,197)"/><path d="M-16.134865816855616,-61.51938112924319L-15.458165837918049,-42.0685144735353L-8.628054621813236,-46.52384011591888z" style="fill:rgb(183,62,221)"/><path d="M-34.460419991642674,-51.15881597787982L-36.409076398371035,-32.993134888037225L-26.697164449834805,-36.290111531857974z" style="fill:rgb(139,40,220)"/><path d="M-102.29787731549935,-128.96571536214648L-101.44711785214835,-104.65399211228512L-98.20724216720889,-134.56142384673444zM-8.422701774175025,-68.06590832252512L-4.414602511714709,-88.36388218873054L-14.493041034445035,-62.91305589905992z" style="fill:rgb(83,212,212)"/><path d="M-23.06642390054991,-57.01702524736974L-17.302804222814384,-40.86524297749297L-15.458165837918049,-42.0685144735353z" style="fill:rgb(183,62,221)"/><path d="M-26.961781556934838,-54.814622060084815L-26.697164449834805,-36.290111531857974L-19.29898179262553,-39.89308745556385z" style="fill:rgb(162,50,222)"/><path d="M-86.78167282818062,-144.8856533070296L-84.31593874907341,-99.55704829578875L-79.86551719238192,-149.255093834019z" style="fill:rgb(83,212,212)"/><path d="M-24.938492049886968,-55.80103512223341L-19.29898179262553,-39.89308745556385L-17.302804222814384,-40.86524297749297z" style="fill:rgb(162,50,222)"/><path d="M-104.60847037824779,-108.3630421806645L-67.7610319892944,-44.08874116792622L-101.44711785214835,-104.65399211228512z" style="fill:rgb(21,57,142)"/><path d="M-8.422701774175025,-68.06590832252512L0.27866017260313247,-54.52407761279002L-7.0795741614002825,-69.5770450858013z" style="fill:rgb(220,94,208)"/><path d="M-36.164175073411684,-57.701641871566686L-47.94153794627107,-53.65213780382726L-44.02150939608281,-53.86934537673189z" style="fill:rgb(83,212,212)"/><path d="M-46.02387509261657,-31.108062221971732L-44.29256382233272,-47.79055990394579L-54.01460571228853,-45.83315711726797z" style="fill:rgb(115,34,214)"/><path d="M-105.08016388954587,-123.34288790537009L-104.60847037824779,-108.3630421806645L-102.29787731549935,-128.96571536214648zM-26.961781556934838,-54.814622060084815L-71.52331109434904,-46.36034179937161L-63.21717148981258,-45.35619169034381zM-79.86551719238192,-149.255093834019L-76.7680800172632,-100.15084839119932L-72.46558245666603,-152.88765349534233z" style="fill:rgb(83,212,212)"/><path d="M-14.493041034445035,-62.91305589905992L-1.0401081971028714,-53.020852689799426L-8.422701774175025,-68.06590832252512z" style="fill:rgb(203,77,216)"/><path d="M-76.7680800172632,-100.15084839119932L-51.046911947834666,-38.36322310641346L-43.78988958431089,-38.71292208248844z" style="fill:rgb(92,32,204)"/><path d="M-28.6055431826143,-61.388257100882385L-44.02150939608281,-53.86934537673189L-39.843949728964766,-54.100821368249335zM-106.28278291653822,-112.8391714467014L-105.08016388954587,-123.34288790537009L-106.43308297454104,-117.8987287301169z" style="fill:rgb(83,212,212)"/><path d="M3.5119511625768784,-78.85466845079128L-26.890136447616204,-146.45177624228026L-26.260423252691822,-141.4909418674806z" style="fill:rgb(246,167,149)"/><path d="M-6.7076364243455995,-82.57334609874476L-16.134865816855616,-61.51938112924319L-14.493041034445035,-62.91305589905992zM-72.46558245666603,-152.88765349534233L-68.77616010739229,-101.91350039885182L-64.840716934935,-155.6556809333416z" style="fill:rgb(83,212,212)"/><path d="M-3.1024849665072836,-61.73122990228091L-39.023302805321606,-118.62601084827344L-8.045387345413154,-56.131530098773275z" style="fill:rgb(220,94,208)"/><path d="M-16.134865816855616,-61.51938112924319L-6.7076364243455995,-82.57334609874476L-23.06642390054991,-57.01702524736974zM-21.611460192469853,-65.92349977808192L-39.843949728964766,-54.100821368249335L-35.29219521337601,-54.35303513861076z" style="fill:rgb(83,212,212)"/><path d="M-16.134865816855616,-61.51938112924319L-7.012719510142312,-47.906934574867556L-14.493041034445035,-62.91305589905992z" style="fill:rgb(203,77,216)"/><path d="M-36.409076398371035,-32.993134888037225L-34.460419991642674,-51.15881597787982L-44.29256382233272,-47.79055990394579z" style="fill:rgb(139,40,220)"/><path d="M-64.840716934935,-155.6556809333416L-68.77616010739229,-101.91350039885182L-57.25813991300883,-157.45835640531786zM-15.472715887021325,-71.11533400509843L-35.29219521337601,-54.35303513861076L-30.21140695752902,-54.63455839394385zM-26.961781556934838,-54.814622060084815L-10.43909829905568,-76.74391162274021L-30.21140695752902,-54.63455839394385z" style="fill:rgb(83,212,212)"/><path d="M-15.458165837918049,-42.0685144735353L-16.134865816855616,-61.51938112924319L-23.06642390054991,-57.01702524736974z" style="fill:rgb(183,62,221)"/><path d="M-26.961781556934838,-54.814622060084815L-63.21717148981258,-45.35619169034381L-54.01460571228853,-45.83315711726797z" style="fill:rgb(83,212,212)"/><path d="M-68.77616010739229,-101.91350039885182L-43.78988958431089,-38.71292208248844L-36.14775120079742,-40.22891802780169z" style="fill:rgb(115,34,214)"/><path d="M-26.697164449834805,-36.290111531857974L-26.961781556934838,-54.814622060084815L-34.460419991642674,-51.15881597787982z" style="fill:rgb(162,50,222)"/><path d="M-10.43909829905568,-76.74391162274021L-24.938492049886968,-55.80103512223341L-23.06642390054991,-57.01702524736974zM-10.43909829905568,-76.74391162274021L-26.961781556934838,-54.814622060084815L-24.938492049886968,-55.80103512223341z" style="fill:rgb(83,212,212)"/><path d="M-17.302804222814384,-40.86524297749297L-23.06642390054991,-57.01702524736974L-24.938492049886968,-55.80103512223341z" style="fill:rgb(183,62,221)"/><path d="M-19.29898179262553,-39.89308745556385L-24.938492049886968,-55.80103512223341L-26.961781556934838,-54.814622060084815z" style="fill:rgb(162,50,222)"/><path d="M-8.045387345413154,-56.131530098773275L-45.476630267674885,-113.31665784897746L-14.08581199743172,-50.97853213119299z" style="fill:rgb(203,77,216)"/><path d="M-101.44711785214835,-104.65399211228512L-63.26710295289526,-41.122067696433575L-96.89624855736649,-101.87183470950936z" style="fill:rgb(34,46,160)"/><path d="M-105.08016388954587,-123.34288790537009L-106.28278291653822,-112.8391714467014L-104.60847037824779,-108.3630421806645z" style="fill:rgb(83,212,212)"/><path d="M-45.476630267674885,-113.31665784897746L-20.978216310035627,-46.490243887706484L-14.08581199743172,-50.97853213119299z" style="fill:rgb(183,62,221)"/><path d="M-60.671511056947246,-104.78018889750044L-36.14775120079742,-40.22891802780169L-28.43635974930847,-42.856523148648265z" style="fill:rgb(139,40,220)"/><path d="M-27.20406453015946,-136.0070377387848L3.5119511625768784,-78.85466845079128L-26.260423252691822,-141.4909418674806z" style="fill:rgb(246,149,167)"/><path d="M-57.25813991300883,-157.45835640531786L-52.79447572966913,-108.63508967636048L-49.98685075036776,-158.22472232430601z" style="fill:rgb(83,212,212)"/><path d="M-52.79447572966913,-108.63508967636048L-28.43635974930847,-42.856523148648265L-20.978216310035627,-46.490243887706484z" style="fill:rgb(162,50,222)"/><path d="M-26.961781556934838,-54.814622060084815L-54.01460571228853,-45.83315711726797L-44.29256382233272,-47.79055990394579zM-26.961781556934838,-54.814622060084815L-44.29256382233272,-47.79055990394579L-34.460419991642674,-51.15881597787982zM-102.29787731549935,-128.96571536214648L-104.60847037824779,-108.3630421806645L-101.44711785214835,-104.65399211228512zM-49.98685075036776,-158.22472232430601L-52.79447572966913,-108.63508967636048L-43.29054015972621,-157.91658706039905zM-92.96995208001638,-139.93062289191232L-101.44711785214835,-104.65399211228512L-96.89624855736649,-101.87183470950936z" style="fill:rgb(83,212,212)"/><path d="M-96.89624855736649,-101.87183470950936L-57.62523937007408,-39.1822707872134L-91.11399510062814,-100.14392857186571z" style="fill:rgb(51,38,177)"/><path d="M-29.7095031263909,-130.21198810084837L2.7775342578969004,-73.32816228533841L-27.20406453015946,-136.0070377387848z" style="fill:rgb(242,130,183)"/><path d="M-43.29054015972621,-157.91658706039905L-45.476630267674885,-113.31665784897746L-37.41983641987692,-156.53112656048626zM-37.41983641987692,-156.53112656048626L-33.69792082910013,-124.33772849852856L-32.60384186825083,-154.10302433858337zM-86.78167282818062,-144.8856533070296L-96.89624855736649,-101.87183470950936L-91.11399510062814,-100.14392857186571z" style="fill:rgb(83,212,212)"/><path d="M-57.62523937007408,-39.1822707872134L-84.31593874907341,-99.55704829578875L-91.11399510062814,-100.14392857186571z" style="fill:rgb(71,33,192)"/><path d="M-32.60384186825083,-154.10302433858337L-29.7095031263909,-130.21198810084837L-29.04109103897882,-150.7057579302059z" style="fill:rgb(83,212,212)"/><path d="M-33.69792082910013,-124.33772849852856L0.5495796942434565,-67.54308909003831L-29.7095031263909,-130.21198810084837z" style="fill:rgb(233,112,197)"/><path d="M-86.78167282818062,-144.8856533070296L-91.11399510062814,-100.14392857186571L-84.31593874907341,-99.55704829578875z" style="fill:rgb(83,212,212)"/><path d="M-51.046911947834666,-38.36322310641346L-76.7680800172632,-100.15084839119932L-84.31593874907341,-99.55704829578875z" style="fill:rgb(92,32,204)"/><path d="M-79.86551719238192,-149.255093834019L-84.31593874907341,-99.55704829578875L-76.7680800172632,-100.15084839119932zM-29.04109103897882,-150.7057579302059L-29.7095031263909,-130.21198810084837L-26.890136447616204,-146.45177624228026z" style="fill:rgb(83,212,212)"/><path d="M-39.023302805321606,-118.62601084827344L-3.1024849665072836,-61.73122990228091L-33.69792082910013,-124.33772849852856z" style="fill:rgb(220,94,208)"/><path d="M-72.46558245666603,-152.88765349534233L-76.7680800172632,-100.15084839119932L-68.77616010739229,-101.91350039885182zM-26.890136447616204,-146.45177624228026L-27.20406453015946,-136.0070377387848L-26.260423252691822,-141.4909418674806z" style="fill:rgb(83,212,212)"/><path d="M-43.78988958431089,-38.71292208248844L-68.77616010739229,-101.91350039885182L-76.7680800172632,-100.15084839119932z" style="fill:rgb(115,34,214)"/><path d="M-45.476630267674885,-113.31665784897746L-8.045387345413154,-56.131530098773275L-39.023302805321606,-118.62601084827344z" style="fill:rgb(203,77,216)"/><path d="M-57.25813991300883,-157.45835640531786L-68.77616010739229,-101.91350039885182L-60.671511056947246,-104.78018889750044z" style="fill:rgb(83,212,212)"/><path d="M-36.14775120079742,-40.22891802780169L-60.671511056947246,-104.78018889750044L-68.77616010739229,-101.91350039885182z" style="fill:rgb(139,40,220)"/><path d="M-57.25813991300883,-157.45835640531786L-60.671511056947246,-104.78018889750044L-52.79447572966913,-108.63508967636048zM-32.60384186825083,-154.10302433858337L-33.69792082910013,-124.33772849852856L-29.7095031263909,-130.21198810084837z" style="fill:rgb(83,212,212)"/><path d="M-20.978216310035627,-46.490243887706484L-45.476630267674885,-113.31665784897746L-52.79447572966913,-108.63508967636048z" style="fill:rgb(183,62,221)"/><path d="M-28.43635974930847,-42.856523148648265L-52.79447572966913,-108.63508967636048L-60.671511056947246,-104.78018889750044z" style="fill:rgb(162,50,222)"/><path d="M-37.41983641987692,-156.53112656048626L-39.023302805321606,-118.62601084827344L-33.69792082910013,-124.33772849852856zM-26.890136447616204,-146.45177624228026L-29.7095031263909,-130.21198810084837L-27.20406453015946,-136.0070377387848zM-43.29054015972621,-157.91658706039905L-52.79447572966913,-108.63508967636048L-45.476630267674885,-113.31665784897746zM-37.41983641987692,-156.53112656048626L-45.476630267674885,-113.31665784897746L-39.023302805321606,-118.62601084827344z" style="fill:rgb(83,212,212)"/></svg>
