<?xml version="1.0" encoding="UTF-8"?>
<!-- Generated by jsxcad -->
<!DOCTYPE svg PUBLIC "-//W3C//DTD SVG 1.1 Tiny//EN" "http://www.w3.org/Graphics/SVG/1.1/DTD/svg11-tiny.dtd">
<svg viewBox="-250 -250 500 500" width="500" height="500" xmlns="http://www.w3.org/2000/svg"><path d="M34.257525201389164,119.17220388717662L20.78588748835543,95.72518752935737L31.987767841894144,116.28687066232713z" style="fill:rgb(21,57,142)"/><path d="M66.20756396453238,73.80093281778086L77.14476532364117,98.50708229618031L76.43464281489817,94.86530435807381z" style="fill:rgb(246,167,149)"/><path d="M37.285646640898186,121.48657188436007L23.066720425775095,98.60229302071971L34.257525201389164,119.17220388717662z" style="fill:rgb(34,46,160)"/><path d="M22.632577275567574,77.15142423072848L26.124982790917752,100.89930367861342L25.50031673964522,73.59292678290974zM25.50031673964522,73.59292678290974L29.848092050429006,102.52004348624315L29.009911790842047,70.40496760356784zM20.51576738260975,80.95151714341952L23.066720425775095,98.60229302071971L22.632577275567574,77.15142423072848zM29.009911790842047,70.40496760356784L34.09428130859604,103.39402670118442L33.031051067268905,67.70245709769539z" style="fill:rgb(83,212,212)"/><path d="M77.14476532364117,98.50708229618031L66.65553627745713,81.34466649489046L76.9404817738562,102.38315140343506z" style="fill:rgb(246,149,167)"/><path d="M19.233714499932724,84.85403580638757L20.78588748835543,95.72518752935737L20.51576738260975,80.95151714341952zM33.031051067268905,67.70245709769539L38.69777710339348,103.4804385675535L37.4164986743497,65.58297439098652zM19.362356937810247,92.38495866698358L19.233714499932724,84.85403580638757L18.84146901877117,88.71390602205678zM37.4164986743497,65.58297439098652L43.47554006036153,102.77085364031177L42.00669224924378,64.12391044913988z" style="fill:rgb(83,212,212)"/><path d="M40.960439404066456,123.13337471987124L26.124982790917752,100.89930367861342L37.285646640898186,121.48657188436007z" style="fill:rgb(51,38,177)"/><path d="M42.00669224924378,64.12391044913988L43.47554006036153,102.77085364031177L46.63455901955309,63.38009229928473z" style="fill:rgb(83,212,212)"/><path d="M20.78588748835543,95.72518752935737L34.257525201389164,119.17220388717662L23.066720425775095,98.60229302071971z" style="fill:rgb(21,57,142)"/><path d="M76.9404817738562,102.38315140343506L65.48099854324808,85.33175476074146L75.82116669557855,106.3427917837483z" style="fill:rgb(242,130,183)"/><path d="M46.63455901955309,63.38009229928473L52.783942598204675,99.09722154817351L51.13057216740737,63.3818905751266zM19.233714499932724,84.85403580638757L19.362356937810247,92.38495866698358L20.78588748835543,95.72518752935737z" style="fill:rgb(83,212,212)"/><path d="M77.14476532364117,98.50708229618031L66.20756396453238,73.80093281778086L66.89789465811319,77.45060392049949z" style="fill:rgb(246,167,149)"/><path d="M51.13057216740737,63.3818905751266L56.93725421152998,96.279869423008L55.32804365362726,64.13377121819349zM20.51576738260975,80.95151714341952L20.78588748835543,95.72518752935737L23.066720425775095,98.60229302071971z" style="fill:rgb(83,212,212)"/><path d="M34.09428130859604,103.39402670118442L40.960439404066456,123.13337471987124L45.14186289222976,124.04133817015318z" style="fill:rgb(71,33,192)"/><path d="M75.82116669557855,106.3427917837483L63.412958624654514,89.25392861900691L73.82358806620809,110.22919669885671z" style="fill:rgb(233,112,197)"/><path d="M22.632577275567574,77.15142423072848L23.066720425775095,98.60229302071971L26.124982790917752,100.89930367861342z" style="fill:rgb(83,212,212)"/><path d="M23.066720425775095,98.60229302071971L37.285646640898186,121.48657188436007L26.124982790917752,100.89930367861342z" style="fill:rgb(34,46,160)"/><path d="M55.32804365362726,64.13377121819349L56.93725421152998,96.279869423008L59.06861660271694,65.61351324682926z" style="fill:rgb(83,212,212)"/><path d="M66.65553627745713,81.34466649489046L77.14476532364117,98.50708229618031L66.89789465811319,77.45060392049949z" style="fill:rgb(246,149,167)"/><path d="M38.69777710339348,103.4804385675535L45.14186289222976,124.04133817015318L49.6666664748546,124.16851520240762z" style="fill:rgb(92,32,204)"/><path d="M73.82358806620809,110.22919669885671L60.527808328778384,92.95343858515956L71.02148586829068,113.88612755545891z" style="fill:rgb(220,94,208)"/><path d="M25.50031673964522,73.59292678290974L26.124982790917752,100.89930367861342L29.848092050429006,102.52004348624315zM59.06861660271694,65.61351324682926L60.527808328778384,92.95343858515956L62.20784383801497,67.77209925008074z" style="fill:rgb(83,212,212)"/><path d="M43.47554006036153,102.77085364031177L49.6666664748546,124.16851520240762L54.355016007555015,123.5050016786312z" style="fill:rgb(115,34,214)"/><path d="M71.02148586829068,113.88612755545891L56.93725421152998,96.279869423008L67.5232905204449,117.16503433165718z" style="fill:rgb(203,77,216)"/><path d="M29.009911790842047,70.40496760356784L29.848092050429006,102.52004348624315L34.09428130859604,103.39402670118442z" style="fill:rgb(83,212,212)"/><path d="M26.124982790917752,100.89930367861342L40.960439404066456,123.13337471987124L29.848092050429006,102.52004348624315z" style="fill:rgb(51,38,177)"/><path d="M65.48099854324808,85.33175476074146L76.9404817738562,102.38315140343506L66.65553627745713,81.34466649489046z" style="fill:rgb(242,130,183)"/><path d="M62.20784383801497,67.77209925008074L63.412958624654514,89.25392861900691L64.62082115081002,70.53440110584773z" style="fill:rgb(83,212,212)"/><path d="M48.235225991098915,101.29042253834697L54.355016007555015,123.5050016786312L59.01833294540896,122.07414024857587z" style="fill:rgb(139,40,220)"/><path d="M56.93725421152998,96.279869423008L63.46782276890228,119.9319949173372L67.5232905204449,117.16503433165718z" style="fill:rgb(183,62,221)"/><path d="M52.783942598204675,99.09722154817351L59.01833294540896,122.07414024857587L63.46782276890228,119.9319949173372z" style="fill:rgb(162,50,222)"/><path d="M64.62082115081002,70.53440110584773L66.65553627745713,81.34466649489046L66.20756396453238,73.80093281778086zM33.031051067268905,67.70245709769539L34.09428130859604,103.39402670118442L38.69777710339348,103.4804385675535z" style="fill:rgb(83,212,212)"/><path d="M40.960439404066456,123.13337471987124L34.09428130859604,103.39402670118442L29.848092050429006,102.52004348624315z" style="fill:rgb(71,33,192)"/><path d="M37.4164986743497,65.58297439098652L38.69777710339348,103.4804385675535L43.47554006036153,102.77085364031177z" style="fill:rgb(83,212,212)"/><path d="M63.412958624654514,89.25392861900691L75.82116669557855,106.3427917837483L65.48099854324808,85.33175476074146z" style="fill:rgb(233,112,197)"/><path d="M66.20756396453238,73.80093281778086L66.65553627745713,81.34466649489046L66.89789465811319,77.45060392049949zM64.62082115081002,70.53440110584773L65.48099854324808,85.33175476074146L66.65553627745713,81.34466649489046zM46.63455901955309,63.38009229928473L43.47554006036153,102.77085364031177L48.235225991098915,101.29042253834697z" style="fill:rgb(83,212,212)"/><path d="M45.14186289222976,124.04133817015318L38.69777710339348,103.4804385675535L34.09428130859604,103.39402670118442z" style="fill:rgb(92,32,204)"/><path d="M46.63455901955309,63.38009229928473L48.235225991098915,101.29042253834697L52.783942598204675,99.09722154817351zM51.13057216740737,63.3818905751266L52.783942598204675,99.09722154817351L56.93725421152998,96.279869423008z" style="fill:rgb(83,212,212)"/><path d="M60.527808328778384,92.95343858515956L73.82358806620809,110.22919669885671L63.412958624654514,89.25392861900691z" style="fill:rgb(220,94,208)"/><path d="M64.62082115081002,70.53440110584773L63.412958624654514,89.25392861900691L65.48099854324808,85.33175476074146zM59.06861660271694,65.61351324682926L56.93725421152998,96.279869423008L60.527808328778384,92.95343858515956zM62.20784383801497,67.77209925008074L60.527808328778384,92.95343858515956L63.412958624654514,89.25392861900691z" style="fill:rgb(83,212,212)"/><path d="M49.6666664748546,124.16851520240762L43.47554006036153,102.77085364031177L38.69777710339348,103.4804385675535z" style="fill:rgb(115,34,214)"/><path d="M56.93725421152998,96.279869423008L71.02148586829068,113.88612755545891L60.527808328778384,92.95343858515956z" style="fill:rgb(203,77,216)"/><path d="M54.355016007555015,123.5050016786312L48.235225991098915,101.29042253834697L43.47554006036153,102.77085364031177z" style="fill:rgb(139,40,220)"/><path d="M63.46782276890228,119.9319949173372L56.93725421152998,96.279869423008L52.783942598204675,99.09722154817351z" style="fill:rgb(183,62,221)"/><path d="M59.01833294540896,122.07414024857587L52.783942598204675,99.09722154817351L48.235225991098915,101.29042253834697z" style="fill:rgb(162,50,222)"/><path d="M18.12247078361704,102.49671853147899L-100.47808534449646,-110.67742117376591L15.292356575616086,98.88217696228018z" style="fill:rgb(21,57,142)"/><path d="M-31.247408105241202,-144.60703568476808L72.98495096767462,76.0239436268108L72.0950707689854,71.46528941211935z" style="fill:rgb(246,167,149)"/><path d="M21.93219804740936,105.39017584188984L-97.64118358917685,-107.38773582480667L18.12247078361704,102.49671853147899z" style="fill:rgb(34,46,160)"/><path d="M72.98495096767462,76.0239436268108L-31.571913826005446,-135.2967430269507L72.70623681446189,80.89689585180221z" style="fill:rgb(246,149,167)"/><path d="M26.58300294738618,107.43899459554616L-93.57245392139993,-104.92643021993429L21.93219804740936,105.39017584188984z" style="fill:rgb(51,38,177)"/><path d="M72.70623681446189,80.89689585180221L-33.81901654082091,-130.14142996701827L71.25577845820834,85.89430070466764z" style="fill:rgb(242,130,183)"/><path d="M-82.36220340776589,-102.89593535195147L26.58300294738618,107.43899459554616L31.89832251833982,108.55155241428633z" style="fill:rgb(71,33,192)"/><path d="M71.25577845820834,85.89430070466764L-37.37884474330105,-124.92109659252955L68.67907070652309,90.81676877914293z" style="fill:rgb(233,112,197)"/><path d="M-75.6502374106299,-103.43434306408865L31.89832251833982,108.55155241428633L37.66991781624024,108.67367278870373z" style="fill:rgb(92,32,204)"/><path d="M68.67907070652309,90.81676877914293L-42.120220611133256,-119.8490467476766L65.07021588492165,95.46413394290137z" style="fill:rgb(220,94,208)"/><path d="M-68.549593234512,-105.00745575339351L37.66991781624024,108.67367278870373L43.66640038038051,107.79259101118976z" style="fill:rgb(115,34,214)"/><path d="M65.07021588492165,95.46413394290137L-47.857411317636064,-115.13626088633961L60.56912442228765,99.64482682255561z" style="fill:rgb(203,77,216)"/><path d="M-47.857411317636064,-115.13626088633961L55.3560739466207,103.18530676012794L60.56912442228765,99.64482682255561z" style="fill:rgb(183,62,221)"/><path d="M-61.35229213088435,-107.55706882081701L43.66640038038051,107.79259101118976L49.64359350397379,105.93878164296525z" style="fill:rgb(139,40,220)"/><path d="M-54.35771197356514,-110.9807243108453L49.64359350397379,105.93878164296525L55.3560739466207,103.18530676012794z" style="fill:rgb(162,50,222)"/><path d="M-100.47808534449646,-110.67742117376591L18.12247078361704,102.49671853147899L-97.64118358917685,-107.38773582480667z" style="fill:rgb(21,57,142)"/><path d="M72.98495096767462,76.0239436268108L-31.247408105241202,-144.60703568476808L-30.710167332559678,-140.18153149464686z" style="fill:rgb(246,167,149)"/><path d="M-97.64118358917685,-107.38773582480667L21.93219804740936,105.39017584188984L-93.57245392139993,-104.92643021993429z" style="fill:rgb(34,46,160)"/><path d="M-31.571913826005446,-135.2967430269507L72.98495096767462,76.0239436268108L-30.710167332559678,-140.18153149464686z" style="fill:rgb(246,149,167)"/><path d="M-93.57245392139993,-104.92643021993429L26.58300294738618,107.43899459554616L-88.41511023422393,-103.40429876627705z" style="fill:rgb(51,38,177)"/><path d="M-33.81901654082091,-130.14142996701827L72.70623681446189,80.89689585180221L-31.571913826005446,-135.2967430269507z" style="fill:rgb(242,130,183)"/><path d="M26.58300294738618,107.43899459554616L-82.36220340776589,-102.89593535195147L-88.41511023422393,-103.40429876627705z" style="fill:rgb(71,33,192)"/><path d="M-37.37884474330105,-124.92109659252955L71.25577845820834,85.89430070466764L-33.81901654082091,-130.14142996701827z" style="fill:rgb(233,112,197)"/><path d="M31.89832251833982,108.55155241428633L-75.6502374106299,-103.43434306408865L-82.36220340776589,-102.89593535195147z" style="fill:rgb(92,32,204)"/><path d="M-42.120220611133256,-119.8490467476766L68.67907070652309,90.81676877914293L-37.37884474330105,-124.92109659252955z" style="fill:rgb(220,94,208)"/><path d="M37.66991781624024,108.67367278870373L-68.549593234512,-105.00745575339351L-75.6502374106299,-103.43434306408865z" style="fill:rgb(115,34,214)"/><path d="M-47.857411317636064,-115.13626088633961L65.07021588492165,95.46413394290137L-42.120220611133256,-119.8490467476766z" style="fill:rgb(203,77,216)"/><path d="M43.66640038038051,107.79259101118976L-61.35229213088435,-107.55706882081701L-68.549593234512,-105.00745575339351z" style="fill:rgb(139,40,220)"/><path d="M55.3560739466207,103.18530676012794L-47.857411317636064,-115.13626088633961L-54.35771197356514,-110.9807243108453z" style="fill:rgb(183,62,221)"/><path d="M49.64359350397379,105.93878164296525L-54.35771197356514,-110.9807243108453L-61.35229213088435,-107.55706882081701z" style="fill:rgb(162,50,222)"/><path d="M-84.65702157789734,-143.26181093211397L-88.41511023422393,-103.40429876627705L-78.47562011658728,-147.16955832540305zM-94.85515121728122,-134.03017317112938L-93.57245392139993,-104.92643021993429L-90.18375279827283,-138.83030769830754zM-90.18375279827283,-138.83030769830754L-88.41511023422393,-103.40429876627705L-84.65702157789734,-143.26181093211397zM-78.47562011658728,-147.16955832540305L-82.36220340776589,-102.89593535195147L-71.85980056775071,-150.4166906161972zM-98.49608498924893,-129.03098525287533L-97.64118358917685,-107.38773582480667L-94.85515121728122,-134.03017317112938zM-100.9629614885868,-124.01241834192204L-100.47808534449646,-110.67742117376591L-98.49608498924893,-129.03098525287533zM-101.9930749791571,-114.65530879228135L-100.9629614885868,-124.01241834192204L-102.149653764663,-119.15920027521295zM-71.85980056775071,-150.4166906161972L-68.549593234512,-105.00745575339351L-65.04338990348394,-152.88796371497534zM-65.04338990348394,-152.88796371497534L-61.35229213088435,-107.55706882081701L-58.26773763933229,-154.49281398057482zM-100.9629614885868,-124.01241834192204L-101.9930749791571,-114.65530879228135L-100.47808534449646,-110.67742117376591zM-58.26773763933229,-154.49281398057482L-54.35771197356514,-110.9807243108453L-51.77536987860705,-155.16818534648zM-98.49608498924893,-129.03098525287533L-100.47808534449646,-110.67742117376591L-97.64118358917685,-107.38773582480667zM-51.77536987860705,-155.16818534648L-54.35771197356514,-110.9807243108453L-45.803280779493704,-154.88109124729755zM-94.85515121728122,-134.03017317112938L-97.64118358917685,-107.38773582480667L-93.57245392139993,-104.92643021993429zM-45.803280779493704,-154.88109124729755L-47.857411317636064,-115.13626088633961L-40.575721904885626,-153.6308426493969zM-40.575721904885626,-153.6308426493969L-37.37884474330105,-124.92109659252955L-36.29649499965196,-151.4506504488341zM-90.18375279827283,-138.83030769830754L-93.57245392139993,-104.92643021993429L-88.41511023422393,-103.40429876627705zM-78.47562011658728,-147.16955832540305L-88.41511023422393,-103.40429876627705L-82.36220340776589,-102.89593535195147zM-36.29649499965196,-151.4506504488341L-37.37884474330105,-124.92109659252955L-33.14086959346515,-148.40852228860075zM-33.14086959346515,-148.40852228860075L-31.571913826005446,-135.2967430269507L-31.247408105241202,-144.60703568476808zM-71.85980056775071,-150.4166906161972L-82.36220340776589,-102.89593535195147L-75.6502374106299,-103.43434306408865zM-71.85980056775071,-150.4166906161972L-75.6502374106299,-103.43434306408865L-68.549593234512,-105.00745575339351zM-31.247408105241202,-144.60703568476808L-31.571913826005446,-135.2967430269507L-30.710167332559678,-140.18153149464686zM-65.04338990348394,-152.88796371497534L-68.549593234512,-105.00745575339351L-61.35229213088435,-107.55706882081701zM-33.14086959346515,-148.40852228860075L-33.81901654082091,-130.14142996701827L-31.571913826005446,-135.2967430269507zM-58.26773763933229,-154.49281398057482L-61.35229213088435,-107.55706882081701L-54.35771197356514,-110.9807243108453zM-40.575721904885626,-153.6308426493969L-42.120220611133256,-119.8490467476766L-37.37884474330105,-124.92109659252955zM-45.803280779493704,-154.88109124729755L-54.35771197356514,-110.9807243108453L-47.857411317636064,-115.13626088633961zM-33.14086959346515,-148.40852228860075L-37.37884474330105,-124.92109659252955L-33.81901654082091,-130.14142996701827zM-40.575721904885626,-153.6308426493969L-47.857411317636064,-115.13626088633961L-42.120220611133256,-119.8490467476766z" style="fill:rgb(83,212,212)"/></svg>
