<?xml version="1.0" encoding="UTF-8"?>
<!-- Generated by jsxcad -->
<!DOCTYPE svg PUBLIC "-//W3C//DTD SVG 1.1 Tiny//EN" "http://www.w3.org/Graphics/SVG/1.1/DTD/svg11-tiny.dtd">
<svg viewBox="-250 -250 500 500" width="500" height="500" xmlns="http://www.w3.org/2000/svg"><path d="M46.56562458552961,86.39540732329613L47.76121200252033,94.8612441338445L50.281271082274834,93.64570754518903z" style="fill:rgb(162,50,222)"/><path d="M44.02655406212542,87.62075373394276L45.45663202985323,96.42205760190855L47.76121200252033,94.8612441338445z" style="fill:rgb(183,62,221)"/><path d="M49.22577259966681,85.56085228521084L50.281271082274834,93.64570754518903L52.92293387199127,92.82083150348512z" style="fill:rgb(139,40,220)"/><path d="M45.45663202985323,96.42205760190855L39.68220504545434,91.04837481820084L43.45371227939783,98.27025862308642z" style="fill:rgb(203,77,216)"/><path d="M51.90790350059199,85.14876068885393L52.92293387199127,92.82083150348512L55.58775787982437,92.41792743728242z" style="fill:rgb(115,34,214)"/><path d="M43.45371227939783,98.27025862308642L38.03995303020948,93.12361649592148L41.827941136789555,100.33736400928974z" style="fill:rgb(220,94,208)"/><path d="M54.51172172934096,85.1756041812709L55.58775787982437,92.41792743728242L58.17609625493057,92.45311944316055z" style="fill:rgb(92,32,204)"/><path d="M47.76121200252033,94.8612441338445L46.56562458552961,86.39540732329613L44.02655406212542,87.62075373394276z" style="fill:rgb(162,50,222)"/><path d="M45.45663202985323,96.42205760190855L44.02655406212542,87.62075373394276L41.70312712822456,89.19115326595549z" style="fill:rgb(183,62,221)"/><path d="M50.281271082274834,93.64570754518903L49.22577259966681,85.56085228521084L46.56562458552961,86.39540732329613z" style="fill:rgb(139,40,220)"/><path d="M41.827941136789555,100.33736400928974L36.839133215465814,95.33975152045953L40.6414763776675,102.54653493365069z" style="fill:rgb(233,112,197)"/><path d="M39.68220504545434,91.04837481820084L45.45663202985323,96.42205760190855L41.70312712822456,89.19115326595549z" style="fill:rgb(203,77,216)"/><path d="M52.92293387199127,92.82083150348512L51.90790350059199,85.14876068885393L49.22577259966681,85.56085228521084z" style="fill:rgb(115,34,214)"/><path d="M56.93920401568414,85.64192716904097L58.17609625493057,92.45311944316055L60.59047933975462,92.92662271220163z" style="fill:rgb(71,33,192)"/><path d="M38.03995303020948,93.12361649592148L43.45371227939783,98.27025862308642L39.68220504545434,91.04837481820084z" style="fill:rgb(220,94,208)"/><path d="M55.58775787982437,92.41792743728242L54.51172172934096,85.1756041812709L51.90790350059199,85.14876068885393z" style="fill:rgb(92,32,204)"/><path d="M40.6414763776675,102.54653493365069L36.12677259933083,97.61393397455858L39.940777747589784,104.81517476135403z" style="fill:rgb(242,130,183)"/><path d="M62.73908856913012,93.82248101858318L56.93920401568414,85.64192716904097L60.59047933975462,92.92662271220163z" style="fill:rgb(51,38,177)"/><path d="M36.839133215465814,95.33975152045953L41.827941136789555,100.33736400928974L38.03995303020948,93.12361649592148z" style="fill:rgb(233,112,197)"/><path d="M58.17609625493057,92.45311944316055L56.93920401568414,85.64192716904097L54.51172172934096,85.1756041812709z" style="fill:rgb(71,33,192)"/><path d="M39.940777747589784,104.81517476135403L35.93221724705729,99.86041047304865L39.75472866897275,107.05773425969599z" style="fill:rgb(246,149,167)"/><path d="M64.53910279614723,95.10889337453345L59.098016502631125,86.53206659838165L62.73908856913012,93.82248101858318z" style="fill:rgb(34,46,160)"/><path d="M36.12677259933083,97.61393397455858L40.6414763776675,102.54653493365069L36.839133215465814,95.33975152045953z" style="fill:rgb(242,130,183)"/><path d="M35.93221724705729,99.86041047304865L40.09321536521667,109.18872817098055L39.75472866897275,107.05773425969599z" style="fill:rgb(246,167,149)"/><path d="M56.93920401568414,85.64192716904097L62.73908856913012,93.82248101858318L59.098016502631125,86.53206659838165z" style="fill:rgb(51,38,177)"/><path d="M35.93221724705729,99.86041047304865L39.940777747589784,104.81517476135403L36.12677259933083,97.61393397455858z" style="fill:rgb(246,149,167)"/><path d="M65.91994303331748,96.73900918180397L60.90495271610247,87.81446605315203L64.53910279614723,95.10889337453345z" style="fill:rgb(21,57,142)"/><path d="M59.098016502631125,86.53206659838165L64.53910279614723,95.10889337453345L60.90495271610247,87.81446605315203z" style="fill:rgb(34,46,160)"/><path d="M36.26571778916432,101.99354312574127L40.94635627110742,111.12594581570329L40.09321536521667,109.18872817098055zM66.4779280306117,87.03140400910421L70.30966929427227,94.83270956162735L70.07585894728957,94.34484023512486zM66.71166232873169,87.5192161533892L71.2959453364949,96.8906396780718L70.30966929427227,94.83270956162735z" style="fill:rgb(242,183,130)"/><path d="M40.09321536521667,109.18872817098055L35.93221724705729,99.86041047304865L36.26571778916432,101.99354312574127z" style="fill:rgb(246,167,149)"/><path d="M60.90495271610247,87.81446605315203L65.91994303331748,96.73900918180397L62.289121965282995,89.44245745674945zM38.210669400478466,115.3298420861673L32.915920631183056,106.34950510515453L36.77773387068322,113.52743215523093z" style="fill:rgb(21,57,142)"/><path d="M67.6976381465523,89.5769477133274L71.39893764330203,97.43320435841194L71.2959453364949,96.8906396780718z" style="fill:rgb(246,167,149)"/><path d="M70.30966929427227,94.83270956162735L66.4779280306117,87.03140400910421L66.71166232873169,87.5192161533892zM40.94635627110742,111.12594581570329L36.26571778916432,101.99354312574127L37.11762618016752,103.93102656838346z" style="fill:rgb(242,183,130)"/><path d="M67.7995851659991,90.11997849417698L71.83335078969249,99.72173470152491L71.39893764330203,97.43320435841194z" style="fill:rgb(246,167,149)"/><path d="M38.55220023332795,115.75943849809934L34.35154133736503,108.1502323521933L38.210669400478466,115.3298420861673z" style="fill:rgb(21,57,142)"/><path d="M71.2959453364949,96.8906396780718L66.71166232873169,87.5192161533892L67.6976381465523,89.5769477133274z" style="fill:rgb(242,183,130)"/><path d="M40.911638941376765,117.545665905667L34.69371687842855,108.5794364253803L38.55220023332795,115.75943849809934z" style="fill:rgb(34,46,160)"/><path d="M71.39893764330203,97.43320435841194L67.6976381465523,89.5769477133274L67.7995851659991,90.11997849417698z" style="fill:rgb(246,167,149)"/><path d="M71.83335078969249,99.72173470152491L68.19475528269872,92.98811417762944L71.80046967563676,100.29835006088655z" style="fill:rgb(246,149,167)"/><path d="M32.915920631183056,106.34950510515453L38.210669400478466,115.3298420861673L34.35154133736503,108.1502323521933zM34.35154133736503,108.1502323521933L38.55220023332795,115.75943849809934L34.69371687842855,108.5794364253803z" style="fill:rgb(21,57,142)"/><path d="M71.80046967563676,100.29835006088655L68.04771992291688,95.42405332850566L71.66178777461492,102.73012153332773z" style="fill:rgb(246,149,167)"/><path d="M71.83335078969249,99.72173470152491L67.7995851659991,90.11997849417698L68.22962217425014,92.41052165502z" style="fill:rgb(246,167,149)"/><path d="M43.76815566791518,118.81285693624784L37.061586175604646,110.36110176186352L40.911638941376765,117.545665905667z" style="fill:rgb(51,38,177)"/><path d="M68.19475528269872,92.98811417762944L71.83335078969249,99.72173470152491L68.22962217425014,92.41052165502z" style="fill:rgb(246,149,167)"/><path d="M71.66178777461492,102.73012153332773L67.87634280370311,96.01386782834587L71.49327002756544,103.3184833208848z" style="fill:rgb(242,130,183)"/><path d="M34.69371687842855,108.5794364253803L40.911638941376765,117.545665905667L37.061586175604646,110.36110176186352z" style="fill:rgb(34,46,160)"/><path d="M68.04771992291688,95.42405332850566L71.80046967563676,100.29835006088655L68.19475528269872,92.98811417762944z" style="fill:rgb(246,149,167)"/><path d="M71.49327002756544,103.3184833208848L67.15377191967004,98.50065438325556L70.78276731126603,105.79910238279507z" style="fill:rgb(242,130,183)"/><path d="M70.78276731126603,105.79910238279507L66.85166655059315,99.07950428740907L70.48430383567269,106.37608190820099z" style="fill:rgb(233,112,197)"/><path d="M67.87634280370311,96.01386782834587L71.66178777461492,102.73012153332773L68.04771992291688,95.42405332850566z" style="fill:rgb(242,130,183)"/><path d="M43.19347007010831,112.30695805175456L43.76815566791518,118.81285693624784L47.0126553665773,119.50751586014364z" style="fill:rgb(71,33,192)"/><path d="M37.061586175604646,110.36110176186352L43.76815566791518,118.81285693624784L39.931365153290145,111.62136824288677z" style="fill:rgb(51,38,177)"/><path d="M70.48430383567269,106.37608190820099L65.57836291856587,101.51924164361535L69.2263441960571,108.80790070072398z" style="fill:rgb(233,112,197)"/><path d="M67.15377191967004,98.50065438325556L71.49327002756544,103.3184833208848L67.87634280370311,96.01386782834587z" style="fill:rgb(242,130,183)"/><path d="M58.36352200366849,70.53744091677625L67.6976381465523,89.5769477133274L66.4779280306117,87.03140400910421z" style="fill:rgb(242,183,130)"/><path d="M69.2263441960571,108.80790070072398L65.15669867193334,102.0641231298417L68.80895914092926,109.35057170274285z" style="fill:rgb(220,94,208)"/><path d="M46.720957492400544,112.38726077559123L47.0126553665773,119.50751586014364L50.51887515631073,119.59871564264623z" style="fill:rgb(92,32,204)"/><path d="M43.76815566791518,118.81285693624784L43.19347007010831,112.30695805175456L39.931365153290145,111.62136824288677z" style="fill:rgb(71,33,192)"/><path d="M66.85166655059315,99.07950428740907L70.78276731126603,105.79910238279507L67.15377191967004,98.50065438325556z" style="fill:rgb(233,112,197)"/><path d="M68.80895914092926,109.35057170274285L63.38023420993381,104.35966785603715L67.05054722347667,111.63677805161645z" style="fill:rgb(220,94,208)"/><path d="M67.05054722347667,111.63677805161645L62.85521291812607,104.84868208751304L66.53027516690717,112.12333542715268z" style="fill:rgb(203,77,216)"/><path d="M65.57836291856587,101.51924164361535L70.48430383567269,106.37608190820099L66.85166655059315,99.07950428740907z" style="fill:rgb(233,112,197)"/><path d="M34.69371687842855,108.5794364253803L24.206000333466875,90.16044276499507L32.915920631183056,106.34950510515453z" style="fill:rgb(21,57,142)"/><path d="M50.37464540796417,111.85619865322518L50.51887515631073,119.59871564264623L54.148496243124455,119.0799797807891z" style="fill:rgb(115,34,214)"/><path d="M66.53027516690717,112.12333542715268L60.64435492216459,106.90789527193083L64.33945207232301,114.17218741722176z" style="fill:rgb(203,77,216)"/><path d="M60.64435492216459,106.90789527193083L63.73670441972587,114.58298828391541L64.33945207232301,114.17218741722176z" style="fill:rgb(183,62,221)"/><path d="M47.0126553665773,119.50751586014364L46.720957492400544,112.38726077559123L43.19347007010831,112.30695805175456z" style="fill:rgb(92,32,204)"/><path d="M54.00900916604306,110.7328962232962L54.148496243124455,119.0799797807891L57.75697125669533,117.96995424508005z" style="fill:rgb(139,40,220)"/><path d="M59.581830607277325,73.08128431270579L68.22962217425014,92.41052165502L67.6976381465523,89.5769477133274z" style="fill:rgb(246,167,149)"/><path d="M60.03657016821665,107.32129467953405L61.80307504919382,115.90085943001583L63.73670441972587,114.58298828391541z" style="fill:rgb(183,62,221)"/><path d="M65.15669867193334,102.0641231298417L69.2263441960571,108.80790070072398L65.57836291856587,101.51924164361535z" style="fill:rgb(220,94,208)"/><path d="M58.08677624009402,108.64750585600017L61.19990260364812,116.31196228091973L61.80307504919382,115.90085943001583z" style="fill:rgb(183,62,221)"/><path d="M57.47855506129275,109.06121148061966L57.75697125669533,117.96995424508005L61.19990260364812,116.31196228091973z" style="fill:rgb(162,50,222)"/><path d="M63.38023420993381,104.35966785603715L68.80895914092926,109.35057170274285L65.15669867193334,102.0641231298417z" style="fill:rgb(220,94,208)"/><path d="M50.51887515631073,119.59871564264623L50.37464540796417,111.85619865322518L46.720957492400544,112.38726077559123z" style="fill:rgb(115,34,214)"/><path d="M62.85521291812607,104.84868208751304L67.05054722347667,111.63677805161645L63.38023420993381,104.35966785603715z" style="fill:rgb(203,77,216)"/><path d="M37.061586175604646,110.36110176186352L25.99072627604394,92.38459893627585L34.69371687842855,108.5794364253803z" style="fill:rgb(34,46,160)"/><path d="M60.64435492216459,106.90789527193083L66.53027516690717,112.12333542715268L62.85521291812607,104.84868208751304z" style="fill:rgb(203,77,216)"/><path d="M54.148496243124455,119.0799797807891L54.00900916604306,110.7328962232962L50.37464540796417,111.85619865322518z" style="fill:rgb(139,40,220)"/><path d="M63.73670441972587,114.58298828391541L60.64435492216459,106.90789527193083L60.03657016821665,107.32129467953405zM61.80307504919382,115.90085943001583L60.03657016821665,107.32129467953405L58.08677624009402,108.64750585600017z" style="fill:rgb(183,62,221)"/><path d="M57.75697125669533,117.96995424508005L57.47855506129275,109.06121148061966L54.00900916604306,110.7328962232962z" style="fill:rgb(162,50,222)"/><path d="M25.608372138921407,75.70946235673765L28.37705203294434,94.15493088783997L27.846492315697795,72.92899826059963zM27.846492315697795,72.92899826059963L31.27623296556739,95.39862478516473L30.58928077692928,70.43616560685442z" style="fill:rgb(83,212,212)"/><path d="M61.19990260364812,116.31196228091973L58.08677624009402,108.64750585600017L57.47855506129275,109.06121148061966z" style="fill:rgb(183,62,221)"/><path d="M23.96025571956537,78.67546960003054L25.99072627604394,92.38459893627585L25.608372138921407,75.70946235673765zM30.58928077692928,70.43616560685442L34.57761371504419,96.06293482844839L33.73411355366016,68.32211928169819z" style="fill:rgb(83,212,212)"/><path d="M68.22962217425014,92.41052165502L59.89531059366046,78.9434534484294L68.04771992291688,95.42405332850566z" style="fill:rgb(246,149,167)"/><path d="M22.967019995601635,81.71719102238491L24.206000333466875,90.16044276499507L23.96025571956537,78.67546960003054zM33.73411355366016,68.32211928169819L38.15273230838257,96.11798968680444L37.16459839943295,66.66426279227178z" style="fill:rgb(83,212,212)"/><path d="M67.6976381465523,89.5769477133274L58.36352200366849,70.53744091677625L59.581830607277325,73.08128431270579z" style="fill:rgb(242,183,130)"/><path d="M23.086774036554054,87.57184241370345L22.967019995601635,81.71719102238491L22.670378233395656,84.72069978794188zM37.16459839943295,66.66426279227178L41.86048185587646,95.55864672304729L40.754385672144096,65.5238213795143z" style="fill:rgb(83,212,212)"/><path d="M39.931365153290145,111.62136824288677L28.37705203294434,94.15493088783997L37.061586175604646,110.36110176186352z" style="fill:rgb(51,38,177)"/><path d="M40.754385672144096,65.5238213795143L45.553102475793,94.40513846364603L44.37122077417978,64.94386342896527z" style="fill:rgb(83,212,212)"/><path d="M24.206000333466875,90.16044276499507L34.69371687842855,108.5794364253803L25.99072627604394,92.38459893627585z" style="fill:rgb(21,57,142)"/><path d="M68.04771992291688,95.42405332850566L58.96723024241603,82.03631451930016L67.15377191967004,98.50065438325556z" style="fill:rgb(242,130,183)"/><path d="M44.37122077417978,64.94386342896527L49.08268905100134,92.70251142554493L47.88119502695785,64.94777688999969zM22.967019995601635,81.71719102238491L23.086774036554054,87.57184241370345L24.206000333466875,90.16044276499507z" style="fill:rgb(83,212,212)"/><path d="M68.22962217425014,92.41052165502L59.581830607277325,73.08128431270579L60.101044857840826,75.91934971250964z" style="fill:rgb(246,167,149)"/><path d="M47.88119502695785,64.94777688999969L52.30779192633662,90.51882835162569L51.1531071734787,65.5381851173502zM23.96025571956537,78.67546960003054L24.206000333466875,90.16044276499507L25.99072627604394,92.38459893627585z" style="fill:rgb(83,212,212)"/><path d="M34.57761371504419,96.06293482844839L39.931365153290145,111.62136824288677L43.19347007010831,112.30695805175456z" style="fill:rgb(71,33,192)"/><path d="M67.15377191967004,98.50065438325556L57.34860192506276,85.07621518388972L65.57836291856587,101.51924164361535z" style="fill:rgb(233,112,197)"/><path d="M51.1531071734787,65.5381851173502L55.09980513956932,87.94208407822364L54.06298674346876,66.69647507935179zM25.608372138921407,75.70946235673765L25.99072627604394,92.38459893627585L28.37705203294434,94.15493088783997z" style="fill:rgb(83,212,212)"/><path d="M25.99072627604394,92.38459893627585L37.061586175604646,110.36110176186352L28.37705203294434,94.15493088783997z" style="fill:rgb(34,46,160)"/><path d="M59.89531059366046,78.9434534484294L68.22962217425014,92.41052165502L60.101044857840826,75.91934971250964z" style="fill:rgb(246,149,167)"/><path d="M38.15273230838257,96.11798968680444L43.19347007010831,112.30695805175456L46.720957492400544,112.38726077559123z" style="fill:rgb(92,32,204)"/><path d="M54.06298674346876,66.69647507935179L57.34860192506276,85.07621518388972L56.49853669612671,68.38291482885187z" style="fill:rgb(83,212,212)"/><path d="M65.57836291856587,101.51924164361535L55.09980513956932,87.94208407822364L63.38023420993381,104.35966785603715z" style="fill:rgb(220,94,208)"/><path d="M27.846492315697795,72.92899826059963L28.37705203294434,94.15493088783997L31.27623296556739,95.39862478516473z" style="fill:rgb(83,212,212)"/><path d="M41.86048185587646,95.55864672304729L46.720957492400544,112.38726077559123L50.37464540796417,111.85619865322518z" style="fill:rgb(115,34,214)"/><path d="M56.49853669612671,68.38291482885187L58.96723024241603,82.03631451930016L58.36352200366849,70.53744091677625z" style="fill:rgb(83,212,212)"/><path d="M63.38023420993381,104.35966785603715L52.30779192633662,90.51882835162569L60.64435492216459,106.90789527193083z" style="fill:rgb(203,77,216)"/><path d="M30.58928077692928,70.43616560685442L31.27623296556739,95.39862478516473L34.57761371504419,96.06293482844839z" style="fill:rgb(83,212,212)"/><path d="M28.37705203294434,94.15493088783997L39.931365153290145,111.62136824288677L31.27623296556739,95.39862478516473z" style="fill:rgb(51,38,177)"/><path d="M58.96723024241603,82.03631451930016L68.04771992291688,95.42405332850566L59.89531059366046,78.9434534484294z" style="fill:rgb(242,130,183)"/><path d="M45.553102475793,94.40513846364603L50.37464540796417,111.85619865322518L54.00900916604306,110.7328962232962z" style="fill:rgb(139,40,220)"/><path d="M52.30779192633662,90.51882835162569L57.47855506129275,109.06121148061966L60.64435492216459,106.90789527193083z" style="fill:rgb(183,62,221)"/><path d="M49.08268905100134,92.70251142554493L54.00900916604306,110.7328962232962L57.47855506129275,109.06121148061966z" style="fill:rgb(162,50,222)"/><path d="M58.36352200366849,70.53744091677625L59.89531059366046,78.9434534484294L59.581830607277325,73.08128431270579zM33.73411355366016,68.32211928169819L34.57761371504419,96.06293482844839L38.15273230838257,96.11798968680444z" style="fill:rgb(83,212,212)"/><path d="M39.931365153290145,111.62136824288677L34.57761371504419,96.06293482844839L31.27623296556739,95.39862478516473z" style="fill:rgb(71,33,192)"/><path d="M37.16459839943295,66.66426279227178L38.15273230838257,96.11798968680444L41.86048185587646,95.55864672304729z" style="fill:rgb(83,212,212)"/><path d="M57.34860192506276,85.07621518388972L67.15377191967004,98.50065438325556L58.96723024241603,82.03631451930016z" style="fill:rgb(233,112,197)"/><path d="M59.581830607277325,73.08128431270579L59.89531059366046,78.9434534484294L60.101044857840826,75.91934971250964zM40.754385672144096,65.5238213795143L41.86048185587646,95.55864672304729L45.553102475793,94.40513846364603zM58.36352200366849,70.53744091677625L58.96723024241603,82.03631451930016L59.89531059366046,78.9434534484294zM44.37122077417978,64.94386342896527L45.553102475793,94.40513846364603L49.08268905100134,92.70251142554493z" style="fill:rgb(83,212,212)"/><path d="M43.19347007010831,112.30695805175456L38.15273230838257,96.11798968680444L34.57761371504419,96.06293482844839z" style="fill:rgb(92,32,204)"/><path d="M56.49853669612671,68.38291482885187L57.34860192506276,85.07621518388972L58.96723024241603,82.03631451930016zM47.88119502695785,64.94777688999969L49.08268905100134,92.70251142554493L52.30779192633662,90.51882835162569zM54.06298674346876,66.69647507935179L55.09980513956932,87.94208407822364L57.34860192506276,85.07621518388972zM51.1531071734787,65.5381851173502L52.30779192633662,90.51882835162569L55.09980513956932,87.94208407822364z" style="fill:rgb(83,212,212)"/><path d="M55.09980513956932,87.94208407822364L65.57836291856587,101.51924164361535L57.34860192506276,85.07621518388972z" style="fill:rgb(220,94,208)"/><path d="M46.720957492400544,112.38726077559123L41.86048185587646,95.55864672304729L38.15273230838257,96.11798968680444z" style="fill:rgb(115,34,214)"/><path d="M52.30779192633662,90.51882835162569L63.38023420993381,104.35966785603715L55.09980513956932,87.94208407822364z" style="fill:rgb(203,77,216)"/><path d="M50.37464540796417,111.85619865322518L45.553102475793,94.40513846364603L41.86048185587646,95.55864672304729z" style="fill:rgb(139,40,220)"/><path d="M57.47855506129275,109.06121148061966L52.30779192633662,90.51882835162569L49.08268905100134,92.70251142554493z" style="fill:rgb(183,62,221)"/><path d="M54.00900916604306,110.7328962232962L49.08268905100134,92.70251142554493L45.553102475793,94.40513846364603z" style="fill:rgb(162,50,222)"/><path d="M-15.312320611879995,-92.16005725267736L1.8619330441230078,-56.83643581945407L0.3652225676483717,-59.924781259695656z" style="fill:rgb(242,183,130)"/><path d="M-45.87155661660299,-29.812708134348L-65.2595163634662,-64.0004717323668L-48.11848879923737,-32.48629068734578z" style="fill:rgb(21,57,142)"/><path d="M-13.835083976143384,-89.11143176358355L2.3759239763739797,-53.31349698754885L1.8619330441230078,-56.83643581945407z" style="fill:rgb(246,167,149)"/><path d="M-42.753561130233194,-27.755004006151115L-63.015082961415516,-61.374422434488395L-45.87155661660299,-29.812708134348z" style="fill:rgb(34,46,160)"/><path d="M2.3759239763739797,-53.31349698754885L-13.941417836773285,-81.79449783592563L1.8758319515699158,-49.48900712752187z" style="fill:rgb(246,149,167)"/><path d="M-38.877886923055605,-26.40113385506793L-59.870328136392956,-59.376359436917575L-42.753561130233194,-27.755004006151115z" style="fill:rgb(51,38,177)"/><path d="M1.8619330441230078,-56.83643581945407L-15.312320611879995,-92.16005725267736L-13.835083976143384,-89.11143176358355z" style="fill:rgb(242,183,130)"/><path d="M-60.91440794979296,-75.19644643597358L-61.28426676466712,-69.33159226332036L-59.54163560492995,-78.32713895759684z" style="fill:rgb(83,212,212)"/><path d="M1.8758319515699158,-49.48900712752187L-15.543940173477628,-77.80580444154049L0.3705876630324496,-45.51113683675644z" style="fill:rgb(242,130,183)"/><path d="M-57.44375347187747,-81.434249510634L-55.91826602159336,-63.14817582689247L-54.70295297893024,-84.40308920864327zM-54.70295297893024,-84.40308920864327L-52.7703235355691,-62.1339894271642L-51.423217994417044,-87.12517658569215zM-59.54163560492995,-78.32713895759684L-58.44341299972046,-64.73346577504213L-57.44375347187747,-81.434249510634zM-51.423217994417044,-87.12517658569215L-49.119044225207915,-61.73574457778949L-47.72650033332423,-89.50157321976181z" style="fill:rgb(83,212,212)"/><path d="M-60.9625875824886,-125.08297093639426L-47.72650033332423,-89.50157321976181L-43.74869415219075,-91.44585500667577z" style="fill:rgb(162,50,222)"/><path d="M-65.05650827791784,-123.07713443208756L-51.423217994417044,-87.12517658569215L-47.72650033332423,-89.50157321976181z" style="fill:rgb(183,62,221)"/><path d="M-47.72650033332423,-89.50157321976181L-45.10639493311022,-61.973687422659246L-43.74869415219075,-91.44585500667577z" style="fill:rgb(83,212,212)"/><path d="M-56.73988740185941,-126.59190780931051L-43.74869415219075,-91.44585500667577L-39.63528398231655,-92.88670904164294z" style="fill:rgb(139,40,220)"/><path d="M-43.74869415219075,-91.44585500667577L-45.10639493311022,-61.973687422659246L-39.63528398231655,-92.88670904164294z" style="fill:rgb(83,212,212)"/><path d="M-65.2595163634662,-64.0004717323668L-45.87155661660299,-29.812708134348L-63.015082961415516,-61.374422434488395z" style="fill:rgb(21,57,142)"/><path d="M-61.28426676466712,-69.33159226332036L-60.91440794979296,-75.19644643597358L-61.50499569851037,-72.15936734582057z" style="fill:rgb(83,212,212)"/><path d="M-51.423217994417044,-87.12517658569215L-72.26943423332735,-117.88328508603989L-54.70295297893024,-84.40308920864327z" style="fill:rgb(203,77,216)"/><path d="M-51.37025450051808,-57.58079987539343L-38.877886923055605,-26.40113385506793L-34.39131303644302,-25.812085933090817z" style="fill:rgb(71,33,192)"/><path d="M-52.54279756541861,-127.54755375142341L-39.63528398231655,-92.88670904164294L-35.536855360464074,-93.77021140704731z" style="fill:rgb(115,34,214)"/><path d="M-39.63528398231655,-92.88670904164294L-36.64204175887147,-64.30799700068707L-35.536855360464074,-93.77021140704731z" style="fill:rgb(83,212,212)"/><path d="M2.3759239763739797,-53.31349698754885L-13.835083976143384,-89.11143176358355L-13.368053376981255,-85.61229665651952z" style="fill:rgb(246,167,149)"/><path d="M-59.54163560492995,-78.32713895759684L-61.28426676466712,-69.33159226332036L-60.253081976971096,-66.82303544892238z" style="fill:rgb(83,212,212)"/><path d="M0.3705876630324496,-45.51113683675644L-18.121667271140737,-73.80408191072264L-2.089292198743649,-41.53737339335256z" style="fill:rgb(233,112,197)"/><path d="M-54.70295297893024,-84.40308920864327L-75.12222477094618,-114.88385787077274L-57.44375347187747,-81.434249510634z" style="fill:rgb(220,94,208)"/><path d="M-35.536855360464074,-93.77021140704731L-32.530365238672616,-66.3141911366847L-31.60439835010967,-94.06164610538886z" style="fill:rgb(83,212,212)"/><path d="M-48.52577406269681,-127.91254301190399L-35.536855360464074,-93.77021140704731L-31.60439835010967,-94.06164610538886zM-46.3416500876942,-57.869329751389756L-34.39131303644302,-25.812085933090817L-29.46878115887698,-26.018135488585525z" style="fill:rgb(92,32,204)"/><path d="M-31.60439835010967,-94.06164610538886L-28.72198382600509,-68.77975886501757L-27.984475528332247,-93.74692566500019zM-59.54163560492995,-78.32713895759684L-60.253081976971096,-66.82303544892238L-58.44341299972046,-64.73346577504213z" style="fill:rgb(83,212,212)"/><path d="M-63.015082961415516,-61.374422434488395L-42.753561130233194,-27.755004006151115L-59.870328136392956,-59.376359436917575z" style="fill:rgb(34,46,160)"/><path d="M-13.941417836773285,-81.79449783592563L2.3759239763739797,-53.31349698754885L-13.368053376981255,-85.61229665651952z" style="fill:rgb(246,149,167)"/><path d="M-57.44375347187747,-81.434249510634L-77.32242555274657,-111.759080136L-59.54163560492995,-78.32713895759684z" style="fill:rgb(233,112,197)"/><path d="M-2.089292198743649,-41.53737339335256L-21.578750617081248,-69.95061608731807L-5.412444844114927,-37.72778338870847z" style="fill:rgb(220,94,208)"/><path d="M-44.838462689885525,-127.66998752373124L-31.60439835010967,-94.06164610538886L-27.984475528332247,-93.74692566500019z" style="fill:rgb(71,33,192)"/><path d="M-27.984475528332247,-93.74692566500019L-25.36978590100728,-71.60468949430498L-24.814277093894944,-92.83358206859621zM-57.44375347187747,-81.434249510634L-58.44341299972046,-64.73346577504213L-55.91826602159336,-63.14817582689247z" style="fill:rgb(83,212,212)"/><path d="M-41.053733067107096,-58.9519013633288L-29.46878115887698,-26.018135488585525L-24.30632759418136,-27.016459215086655z" style="fill:rgb(115,34,214)"/><path d="M-5.412444844114927,-37.72778338870847L-25.780555267816435,-66.40271786988912L-9.469615024363126,-34.23773939727103z" style="fill:rgb(203,77,216)"/><path d="M-24.814277093894944,-92.83358206859621L-22.606766226779943,-74.67438385825739L-22.21666841906921,-91.351117911394z" style="fill:rgb(83,212,212)"/><path d="M-35.72037551404444,-60.788478929983L-24.30632759418136,-27.016459215086655L-19.112514378609642,-28.770385213093533z" style="fill:rgb(139,40,220)"/><path d="M-25.780555267816435,-66.40271786988912L-14.098819264008801,-31.210527992561868L-9.469615024363126,-34.23773939727103z" style="fill:rgb(183,62,221)"/><path d="M-59.54163560492995,-78.32713895759684L-78.78391519946848,-108.62421537004305L-60.91440794979296,-75.19644643597358z" style="fill:rgb(242,130,183)"/><path d="M-24.814277093894944,-92.83358206859621L-44.838462689885525,-127.66998752373124L-27.984475528332247,-93.74692566500019z" style="fill:rgb(51,38,177)"/><path d="M-54.70295297893024,-84.40308920864327L-55.91826602159336,-63.14817582689247L-52.7703235355691,-62.1339894271642z" style="fill:rgb(83,212,212)"/><path d="M-30.559069604879603,-63.30624701470681L-19.112514378609642,-28.770385213093533L-14.098819264008801,-31.210527992561868z" style="fill:rgb(162,50,222)"/><path d="M-59.870328136392956,-59.376359436917575L-38.877886923055605,-26.40113385506793L-55.93917778299607,-58.092295674568085z" style="fill:rgb(51,38,177)"/><path d="M-15.543940173477628,-77.80580444154049L1.8758319515699158,-49.48900712752187L-13.941417836773285,-81.79449783592563z" style="fill:rgb(242,130,183)"/><path d="M-22.21666841906921,-91.351117911394L-20.540271144378565,-77.86500341002383L-20.295351721616935,-89.35068670225786zM-51.423217994417044,-87.12517658569215L-52.7703235355691,-62.1339894271642L-49.119044225207915,-61.73574457778949z" style="fill:rgb(83,212,212)"/><path d="M-47.72650033332423,-89.50157321976181L-60.9625875824886,-125.08297093639426L-65.05650827791784,-123.07713443208756z" style="fill:rgb(162,50,222)"/><path d="M-47.72650033332423,-89.50157321976181L-49.119044225207915,-61.73574457778949L-45.10639493311022,-61.973687422659246z" style="fill:rgb(83,212,212)"/><path d="M-51.423217994417044,-87.12517658569215L-65.05650827791784,-123.07713443208756L-68.87214286599848,-120.64782960041607z" style="fill:rgb(183,62,221)"/><path d="M-43.74869415219075,-91.44585500667577L-56.73988740185941,-126.59190780931051L-60.9625875824886,-125.08297093639426z" style="fill:rgb(139,40,220)"/><path d="M-60.91440794979296,-75.19644643597358L-79.44606238055157,-105.59664504412338L-61.50499569851037,-72.15936734582057z" style="fill:rgb(246,149,167)"/><path d="M-22.21666841906921,-91.351117911394L-41.62062262689064,-126.82458519865169L-24.814277093894944,-92.83358206859621z" style="fill:rgb(34,46,160)"/><path d="M-38.877886923055605,-26.40113385506793L-51.37025450051808,-57.58079987539343L-55.93917778299607,-58.092295674568085z" style="fill:rgb(71,33,192)"/><path d="M-20.295351721616935,-89.35068670225786L-20.540271144378565,-77.86500341002383L-19.130336458574735,-86.90403196976753z" style="fill:rgb(83,212,212)"/><path d="M-72.26943423332735,-117.88328508603989L-51.423217994417044,-87.12517658569215L-68.87214286599848,-120.64782960041607z" style="fill:rgb(203,77,216)"/><path d="M-39.63528398231655,-92.88670904164294L-52.54279756541861,-127.54755375142341L-56.73988740185941,-126.59190780931051z" style="fill:rgb(115,34,214)"/><path d="M-39.63528398231655,-92.88670904164294L-45.10639493311022,-61.973687422659246L-40.89113369108286,-62.841904607836604z" style="fill:rgb(83,212,212)"/><path d="M-18.121667271140737,-73.80408191072264L0.3705876630324496,-45.51113683675644L-15.543940173477628,-77.80580444154049z" style="fill:rgb(233,112,197)"/><path d="M-19.130336458574735,-86.90403196976753L-19.247716852250292,-81.04915018692708L-18.7739542439813,-84.10149632496366z" style="fill:rgb(83,212,212)"/><path d="M-75.12222477094618,-114.88385787077274L-54.70295297893024,-84.40308920864327L-72.26943423332735,-117.88328508603989z" style="fill:rgb(220,94,208)"/><path d="M-79.44606238055157,-105.59664504412338L-61.28426676466712,-69.33159226332036L-61.50499569851037,-72.15936734582057z" style="fill:rgb(246,167,149)"/><path d="M-39.63528398231655,-92.88670904164294L-40.89113369108286,-62.841904607836604L-36.64204175887147,-64.30799700068707z" style="fill:rgb(83,212,212)"/><path d="M-35.536855360464074,-93.77021140704731L-48.52577406269681,-127.91254301190399L-52.54279756541861,-127.54755375142341z" style="fill:rgb(92,32,204)"/><path d="M-35.536855360464074,-93.77021140704731L-36.64204175887147,-64.30799700068707L-32.530365238672616,-66.3141911366847zM-22.21666841906921,-91.351117911394L-22.606766226779943,-74.67438385825739L-20.540271144378565,-77.86500341002383z" style="fill:rgb(83,212,212)"/><path d="M-34.39131303644302,-25.812085933090817L-46.3416500876942,-57.869329751389756L-51.37025450051808,-57.58079987539343z" style="fill:rgb(92,32,204)"/><path d="M-20.295351721616935,-89.35068670225786L-38.997106876845,-125.40308114453258L-22.21666841906921,-91.351117911394z" style="fill:rgb(21,57,142)"/><path d="M-31.60439835010967,-94.06164610538886L-32.530365238672616,-66.3141911366847L-28.72198382600509,-68.77975886501757zM-24.814277093894944,-92.83358206859621L-25.36978590100728,-71.60468949430498L-22.606766226779943,-74.67438385825739zM-27.984475528332247,-93.74692566500019L-28.72198382600509,-68.77975886501757L-25.36978590100728,-71.60468949430498zM-19.130336458574735,-86.90403196976753L-20.540271144378565,-77.86500341002383L-19.247716852250292,-81.04915018692708z" style="fill:rgb(83,212,212)"/><path d="M-77.32242555274657,-111.759080136L-57.44375347187747,-81.434249510634L-75.12222477094618,-114.88385787077274z" style="fill:rgb(233,112,197)"/><path d="M-21.578750617081248,-69.95061608731807L-2.089292198743649,-41.53737339335256L-18.121667271140737,-73.80408191072264z" style="fill:rgb(220,94,208)"/><path d="M-31.60439835010967,-94.06164610538886L-44.838462689885525,-127.66998752373124L-48.52577406269681,-127.91254301190399z" style="fill:rgb(71,33,192)"/><path d="M-29.46878115887698,-26.018135488585525L-41.053733067107096,-58.9519013633288L-46.3416500876942,-57.869329751389756z" style="fill:rgb(115,34,214)"/><path d="M-79.27668227640515,-102.79178632733469L-60.253081976971096,-66.82303544892238L-61.28426676466712,-69.33159226332036z" style="fill:rgb(242,183,130)"/><path d="M-25.780555267816435,-66.40271786988912L-5.412444844114927,-37.72778338870847L-21.578750617081248,-69.95061608731807z" style="fill:rgb(203,77,216)"/><path d="M-31.93516800615523,-126.33901249168261L-14.149912406180727,-89.76115478295347L-15.312320611879995,-92.16005725267736z" style="fill:rgb(242,183,130)"/><path d="M-78.78391519946848,-108.62421537004305L-59.54163560492995,-78.32713895759684L-77.32242555274657,-111.759080136z" style="fill:rgb(242,130,183)"/><path d="M-37.072920810453965,-123.45407731291387L-19.130336458574735,-86.90403196976753L-20.295351721616935,-89.35068670225786z" style="fill:rgb(242,183,130)"/><path d="M-24.30632759418136,-27.016459215086655L-35.72037551404444,-60.788478929983L-41.053733067107096,-58.9519013633288z" style="fill:rgb(139,40,220)"/><path d="M-14.098819264008801,-31.210527992561868L-25.780555267816435,-66.40271786988912L-30.559069604879603,-63.30624701470681z" style="fill:rgb(183,62,221)"/><path d="M-19.112514378609642,-28.770385213093533L-30.559069604879603,-63.30624701470681L-35.72037551404444,-60.788478929983z" style="fill:rgb(162,50,222)"/><path d="M-44.838462689885525,-127.66998752373124L-24.814277093894944,-92.83358206859621L-41.62062262689064,-126.82458519865169z" style="fill:rgb(51,38,177)"/><path d="M-64.78420332829556,-63.44434335647961L-83.4368657087967,-97.41996314039937L-65.2595163634662,-64.0004717323668zM-58.44341299972046,-64.73346577504213L-78.27425149215439,-100.3188455379913L-60.253081976971096,-66.82303544892238z" style="fill:rgb(21,57,142)"/><path d="M-30.792141221119593,-123.979697310911L-13.835083976143384,-89.11143176358355L-14.149912406180727,-89.76115478295347z" style="fill:rgb(242,183,130)"/><path d="M-79.44606238055157,-105.59664504412338L-60.91440794979296,-75.19644643597358L-78.78391519946848,-108.62421537004305z" style="fill:rgb(246,149,167)"/><path d="M-63.015082961415516,-61.374422434488395L-82.96305932996835,-96.87621780776715L-64.78420332829556,-63.44434335647961z" style="fill:rgb(21,57,142)"/><path d="M-35.928594683346134,-121.04709698164264L-18.7739542439813,-84.10149632496366L-19.130336458574735,-86.90403196976753zM-30.482524617105746,-123.34061228708435L-13.467578843562357,-86.35797695288709L-13.835083976143384,-89.11143176358355z" style="fill:rgb(246,167,149)"/><path d="M-41.62062262689064,-126.82458519865169L-22.21666841906921,-91.351117911394L-38.997106876845,-125.40308114453258zM-55.91826602159336,-63.14817582689247L-76.46917053925105,-98.2764502924699L-58.44341299972046,-64.73346577504213zM-62.34900658140024,-60.95121709504396L-81.19936149146393,-94.8521854127897L-63.015082961415516,-61.374422434488395z" style="fill:rgb(34,46,160)"/><path d="M-30.157277844853017,-120.61336614121579L-13.368053376981255,-85.61229665651952L-13.467578843562357,-86.35797695288709zM-61.28426676466712,-69.33159226332036L-79.44606238055157,-105.59664504412338L-79.27668227640515,-102.79178632733469z" style="fill:rgb(246,167,149)"/><path d="M-59.870328136392956,-59.376359436917575L-80.5282014843305,-94.44402282113495L-62.34900658140024,-60.95121709504396z" style="fill:rgb(34,46,160)"/><path d="M-18.7739542439813,-84.10149632496366L-36.155758611434955,-115.2298189443035L-19.247716852250292,-81.04915018692708z" style="fill:rgb(246,149,167)"/><path d="M-38.997106876845,-125.40308114453258L-20.295351721616935,-89.35068670225786L-37.072920810453965,-123.45407731291387z" style="fill:rgb(21,57,142)"/><path d="M-52.7703235355691,-62.1339894271642L-73.92385013141434,-96.74831906940085L-55.91826602159336,-63.14817582689247z" style="fill:rgb(51,38,177)"/><path d="M-13.368053376981255,-85.61229665651952L-30.584435137192955,-116.88191831043773L-13.819254177230746,-82.60793158189067z" style="fill:rgb(246,149,167)"/><path d="M-60.253081976971096,-66.82303544892238L-79.27668227640515,-102.79178632733469L-78.27425149215439,-100.3188455379913z" style="fill:rgb(242,183,130)"/><path d="M-19.247716852250292,-81.04915018692708L-37.53396706729589,-112.04184144835999L-20.540271144378565,-77.86500341002383z" style="fill:rgb(242,130,183)"/><path d="M-13.819254177230746,-82.60793158189067L-30.723956118313872,-116.07152742562884L-13.941417836773285,-81.79449783592563z" style="fill:rgb(246,149,167)"/><path d="M-55.93917778299607,-58.092295674568085L-78.03031413917232,-92.92494548199952L-59.870328136392956,-59.376359436917575z" style="fill:rgb(51,38,177)"/><path d="M-14.149912406180727,-89.76115478295347L-31.93516800615523,-126.33901249168261L-30.792141221119593,-123.979697310911zM-19.130336458574735,-86.90403196976753L-37.072920810453965,-123.45407731291387L-35.928594683346134,-121.04709698164264z" style="fill:rgb(242,183,130)"/><path d="M-67.01274345931358,-95.47188262247472L-52.7703235355691,-62.1339894271642L-49.119044225207915,-61.73574457778949z" style="fill:rgb(71,33,192)"/><path d="M-83.4368657087967,-97.41996314039937L-64.78420332829556,-63.44434335647961L-82.96305932996835,-96.87621780776715z" style="fill:rgb(21,57,142)"/><path d="M-72.26943423332735,-117.88328508603989L-73.92385013141434,-96.74831906940085L-68.87214286599848,-120.64782960041607z" style="fill:rgb(83,212,212)"/><path d="M-13.941417836773285,-81.79449783592563L-32.06896347669498,-112.92875184039067L-15.202606218521517,-78.65539029013134z" style="fill:rgb(242,130,183)"/><path d="M-13.835083976143384,-89.11143176358355L-30.792141221119593,-123.979697310911L-30.482524617105746,-123.34061228708435z" style="fill:rgb(242,183,130)"/><path d="M-20.540271144378565,-77.86500341002383L-39.70280313374802,-108.832219257167L-22.606766226779943,-74.67438385825739z" style="fill:rgb(233,112,197)"/><path d="M-75.12222477094618,-114.88385787077274L-73.92385013141434,-96.74831906940085L-72.26943423332735,-117.88328508603989zM-77.32242555274657,-111.759080136L-76.46917053925105,-98.2764502924699L-75.12222477094618,-114.88385787077274zM-68.87214286599848,-120.64782960041607L-67.01274345931358,-95.47188262247472L-65.05650827791784,-123.07713443208756z" style="fill:rgb(83,212,212)"/><path d="M-78.27425149215439,-100.3188455379913L-58.44341299972046,-64.73346577504213L-76.46917053925105,-98.2764502924699z" style="fill:rgb(21,57,142)"/><path d="M-78.78391519946848,-108.62421537004305L-78.27425149215439,-100.3188455379913L-77.32242555274657,-111.759080136zM-65.05650827791784,-123.07713443208756L-62.91247105704986,-95.78370563168107L-60.9625875824886,-125.08297093639426z" style="fill:rgb(83,212,212)"/><path d="M-15.202606218521517,-78.65539029013134L-32.433021187069826,-112.07808921579075L-15.543940173477628,-77.80580444154049z" style="fill:rgb(242,130,183)"/><path d="M-62.91247105704986,-95.78370563168107L-49.119044225207915,-61.73574457778949L-45.10639493311022,-61.973687422659246z" style="fill:rgb(92,32,204)"/><path d="M-60.9625875824886,-125.08297093639426L-62.91247105704986,-95.78370563168107L-56.73988740185941,-126.59190780931051z" style="fill:rgb(83,212,212)"/><path d="M-82.96305932996835,-96.87621780776715L-63.015082961415516,-61.374422434488395L-81.19936149146393,-94.8521854127897z" style="fill:rgb(21,57,142)"/><path d="M-18.7739542439813,-84.10149632496366L-35.928594683346134,-121.04709698164264L-35.61611900266493,-118.27072172265649z" style="fill:rgb(246,167,149)"/><path d="M-79.27668227640515,-102.79178632733469L-78.78391519946848,-108.62421537004305L-79.44606238055157,-105.59664504412338z" style="fill:rgb(83,212,212)"/><path d="M-22.606766226779943,-74.67438385825739L-42.580933125701755,-105.72916999743023L-25.36978590100728,-71.60468949430498z" style="fill:rgb(220,94,208)"/><path d="M-69.39093277912366,-91.29867177515817L-55.93917778299607,-58.092295674568085L-51.37025450051808,-57.58079987539343z" style="fill:rgb(71,33,192)"/><path d="M-13.467578843562357,-86.35797695288709L-30.482524617105746,-123.34061228708435L-30.157277844853017,-120.61336614121579z" style="fill:rgb(246,167,149)"/><path d="M-56.73988740185941,-126.59190780931051L-58.592859153068574,-96.72599371846516L-52.54279756541861,-127.54755375142341z" style="fill:rgb(83,212,212)"/><path d="M-15.543940173477628,-77.80580444154049L-34.56254974137703,-108.90957586764891L-17.57284081539826,-74.65609598581095z" style="fill:rgb(233,112,197)"/><path d="M-58.592859153068574,-96.72599371846516L-45.10639493311022,-61.973687422659246L-40.89113369108286,-62.841904607836604z" style="fill:rgb(115,34,214)"/><path d="M-25.36978590100728,-71.60468949430498L-46.05641292341814,-102.85797194515551L-28.72198382600509,-68.77975886501757z" style="fill:rgb(203,77,216)"/><path d="M-81.19936149146393,-94.8521854127897L-62.34900658140024,-60.95121709504396L-80.5282014843305,-94.44402282113495zM-76.46917053925105,-98.2764502924699L-55.91826602159336,-63.14817582689247L-73.92385013141434,-96.74831906940085z" style="fill:rgb(34,46,160)"/><path d="M-54.22703890961722,-98.26340834185123L-40.89113369108286,-62.841904607836604L-36.64204175887147,-64.30799700068707z" style="fill:rgb(139,40,220)"/><path d="M-36.155758611434955,-115.2298189443035L-18.7739542439813,-84.10149632496366L-35.61611900266493,-118.27072172265649z" style="fill:rgb(246,149,167)"/><path d="M-46.05641292341814,-102.85797194515551L-32.530365238672616,-66.3141911366847L-28.72198382600509,-68.77975886501757z" style="fill:rgb(183,62,221)"/><path d="M-52.54279756541861,-127.54755375142341L-54.22703890961722,-98.26340834185123L-48.52577406269681,-127.91254301190399z" style="fill:rgb(83,212,212)"/><path d="M-13.368053376981255,-85.61229665651952L-30.157277844853017,-120.61336614121579L-30.069184400462188,-119.87469546281072z" style="fill:rgb(246,167,149)"/><path d="M-17.57284081539826,-74.65609598581095L-35.138645841010806,-108.05240129371622L-18.121667271140737,-73.80408191072264z" style="fill:rgb(233,112,197)"/><path d="M-78.78391519946848,-108.62421537004305L-79.27668227640515,-102.79178632733469L-78.27425149215439,-100.3188455379913z" style="fill:rgb(83,212,212)"/><path d="M-49.99117494553974,-100.33523587339752L-36.64204175887147,-64.30799700068707L-32.530365238672616,-66.3141911366847z" style="fill:rgb(162,50,222)"/><path d="M-64.25231160043185,-91.67957365230866L-51.37025450051808,-57.58079987539343L-46.3416500876942,-57.869329751389756z" style="fill:rgb(92,32,204)"/><path d="M-30.584435137192955,-116.88191831043773L-13.368053376981255,-85.61229665651952L-30.069184400462188,-119.87469546281072z" style="fill:rgb(246,149,167)"/><path d="M-18.121667271140737,-73.80408191072264L-37.973651395831624,-104.98582804490303L-20.843066568300774,-70.77065090914908z" style="fill:rgb(220,94,208)"/><path d="M-77.32242555274657,-111.759080136L-78.27425149215439,-100.3188455379913L-76.46917053925105,-98.2764502924699zM-48.52577406269681,-127.91254301190399L-49.99117494553974,-100.33523587339752L-44.838462689885525,-127.66998752373124z" style="fill:rgb(83,212,212)"/><path d="M-80.5282014843305,-94.44402282113495L-59.870328136392956,-59.376359436917575L-78.03031413917232,-92.92494548199952z" style="fill:rgb(34,46,160)"/><path d="M-20.843066568300774,-70.77065090914908L-38.740099733728066,-104.15677293550051L-21.578750617081248,-69.95061608731807z" style="fill:rgb(220,94,208)"/><path d="M-44.838462689885525,-127.66998752373124L-42.580933125701755,-105.72916999743023L-41.62062262689064,-126.82458519865169z" style="fill:rgb(83,212,212)"/><path d="M-73.92385013141434,-96.74831906940085L-52.7703235355691,-62.1339894271642L-70.73138251032957,-95.79928937861123z" style="fill:rgb(51,38,177)"/><path d="M-75.12222477094618,-114.88385787077274L-76.46917053925105,-98.2764502924699L-73.92385013141434,-96.74831906940085z" style="fill:rgb(83,212,212)"/><path d="M-37.53396706729589,-112.04184144835999L-19.247716852250292,-81.04915018692708L-36.155758611434955,-115.2298189443035z" style="fill:rgb(242,130,183)"/><path d="M-58.8330253953392,-92.85503686779609L-46.3416500876942,-57.869329751389756L-41.053733067107096,-58.9519013633288z" style="fill:rgb(115,34,214)"/><path d="M-21.578750617081248,-69.95061608731807L-42.170271455632076,-101.3174507106952L-24.886897226786385,-67.15729640707323z" style="fill:rgb(203,77,216)"/><path d="M-30.723956118313872,-116.07152742562884L-13.819254177230746,-82.60793158189067L-30.584435137192955,-116.88191831043773z" style="fill:rgb(246,149,167)"/><path d="M-24.886897226786385,-67.15729640707323L-43.09693443593729,-100.55040408081014L-25.780555267816435,-66.40271786988912z" style="fill:rgb(203,77,216)"/><path d="M-68.87214286599848,-120.64782960041607L-73.92385013141434,-96.74831906940085L-70.73138251032957,-95.79928937861123z" style="fill:rgb(83,212,212)"/><path d="M-43.09693443593729,-100.55040408081014L-29.543378309629656,-63.96441314181069L-25.780555267816435,-66.40271786988912z" style="fill:rgb(183,62,221)"/><path d="M-53.35252985756123,-94.78128958461264L-41.053733067107096,-58.9519013633288L-35.72037551404444,-60.788478929983z" style="fill:rgb(139,40,220)"/><path d="M-46.98510753652791,-98.0552744848007L-30.559069604879603,-63.30624701470681L-29.543378309629656,-63.96441314181069z" style="fill:rgb(183,62,221)"/><path d="M-49.16453074501053,-96.82924583316593L-35.72037551404444,-60.788478929983L-31.655678511202165,-62.77130490865361z" style="fill:rgb(162,50,222)"/><path d="M-41.62062262689064,-126.82458519865169L-42.580933125701755,-105.72916999743023L-38.997106876845,-125.40308114453258z" style="fill:rgb(83,212,212)"/><path d="M-48.034655764359464,-97.38176177632202L-31.655678511202165,-62.77130490865361L-30.559069604879603,-63.30624701470681z" style="fill:rgb(162,50,222)"/><path d="M-52.7703235355691,-62.1339894271642L-67.01274345931358,-95.47188262247472L-70.73138251032957,-95.79928937861123z" style="fill:rgb(71,33,192)"/><path d="M-32.06896347669498,-112.92875184039067L-13.941417836773285,-81.79449783592563L-30.723956118313872,-116.07152742562884z" style="fill:rgb(242,130,183)"/><path d="M-78.03031413917232,-92.92494548199952L-55.93917778299607,-58.092295674568085L-74.04403108524923,-91.72186310594041z" style="fill:rgb(51,38,177)"/><path d="M-38.997106876845,-125.40308114453258L-37.53396706729589,-112.04184144835999L-37.072920810453965,-123.45407731291387z" style="fill:rgb(83,212,212)"/><path d="M-39.70280313374802,-108.832219257167L-20.540271144378565,-77.86500341002383L-37.53396706729589,-112.04184144835999z" style="fill:rgb(233,112,197)"/><path d="M-68.87214286599848,-120.64782960041607L-70.73138251032957,-95.79928937861123L-67.01274345931358,-95.47188262247472z" style="fill:rgb(83,212,212)"/><path d="M-49.119044225207915,-61.73574457778949L-62.91247105704986,-95.78370563168107L-67.01274345931358,-95.47188262247472z" style="fill:rgb(92,32,204)"/><path d="M-32.433021187069826,-112.07808921579075L-15.202606218521517,-78.65539029013134L-32.06896347669498,-112.92875184039067z" style="fill:rgb(242,130,183)"/><path d="M-65.05650827791784,-123.07713443208756L-67.01274345931358,-95.47188262247472L-62.91247105704986,-95.78370563168107z" style="fill:rgb(83,212,212)"/><path d="M-55.93917778299607,-58.092295674568085L-69.39093277912366,-91.29867177515817L-74.04403108524923,-91.72186310594041z" style="fill:rgb(71,33,192)"/><path d="M-37.072920810453965,-123.45407731291387L-37.53396706729589,-112.04184144835999L-35.928594683346134,-121.04709698164264z" style="fill:rgb(83,212,212)"/><path d="M-42.580933125701755,-105.72916999743023L-22.606766226779943,-74.67438385825739L-39.70280313374802,-108.832219257167z" style="fill:rgb(220,94,208)"/><path d="M-34.56254974137703,-108.90957586764891L-15.543940173477628,-77.80580444154049L-32.433021187069826,-112.07808921579075z" style="fill:rgb(233,112,197)"/><path d="M-56.73988740185941,-126.59190780931051L-62.91247105704986,-95.78370563168107L-58.592859153068574,-96.72599371846516z" style="fill:rgb(83,212,212)"/><path d="M-40.62820751431977,-144.2131468799214L-30.482524617105746,-123.34061228708435L-31.93516800615523,-126.33901249168261z" style="fill:rgb(242,183,130)"/><path d="M-45.10639493311022,-61.973687422659246L-58.592859153068574,-96.72599371846516L-62.91247105704986,-95.78370563168107z" style="fill:rgb(115,34,214)"/><path d="M-91.51383501790289,-129.1508720937293L-92.94397820666714,-114.89901919560529L-88.69120963040184,-133.0532816709389zM-35.928594683346134,-121.04709698164264L-36.155758611434955,-115.2298189443035L-35.61611900266493,-118.27072172265649zM-80.74398509320471,-140.27111483809503L-83.51817561380352,-109.3199885660777L-75.91507959586492,-143.32748521545784z" style="fill:rgb(83,212,212)"/><path d="M-46.05641292341814,-102.85797194515551L-25.36978590100728,-71.60468949430498L-42.580933125701755,-105.72916999743023z" style="fill:rgb(203,77,216)"/><path d="M-52.54279756541861,-127.54755375142341L-58.592859153068574,-96.72599371846516L-54.22703890961722,-98.26340834185123zM-88.69120963040184,-133.0532816709389L-87.53178084966208,-110.47785969997874L-85.05555936227384,-136.80507327789397zM-85.05555936227384,-136.80507327789397L-83.51817561380352,-109.3199885660777L-80.74398509320471,-140.27111483809503z" style="fill:rgb(83,212,212)"/><path d="M-40.89113369108286,-62.841904607836604L-54.22703890961722,-98.26340834185123L-58.592859153068574,-96.72599371846516z" style="fill:rgb(139,40,220)"/><path d="M-35.138645841010806,-108.05240129371622L-17.57284081539826,-74.65609598581095L-34.56254974137703,-108.90957586764891z" style="fill:rgb(233,112,197)"/><path d="M-38.997106876845,-125.40308114453258L-39.70280313374802,-108.832219257167L-37.53396706729589,-112.04184144835999z" style="fill:rgb(83,212,212)"/><path d="M-51.37025450051808,-57.58079987539343L-64.25231160043185,-91.67957365230866L-69.39093277912366,-91.29867177515817z" style="fill:rgb(92,32,204)"/><path d="M-32.530365238672616,-66.3141911366847L-46.05641292341814,-102.85797194515551L-49.99117494553974,-100.33523587339752z" style="fill:rgb(183,62,221)"/><path d="M-36.64204175887147,-64.30799700068707L-49.99117494553974,-100.33523587339752L-54.22703890961722,-98.26340834185123z" style="fill:rgb(162,50,222)"/><path d="M-48.52577406269681,-127.91254301190399L-54.22703890961722,-98.26340834185123L-49.99117494553974,-100.33523587339752zM-44.838462689885525,-127.66998752373124L-46.05641292341814,-102.85797194515551L-42.580933125701755,-105.72916999743023zM-35.928594683346134,-121.04709698164264L-37.53396706729589,-112.04184144835999L-36.155758611434955,-115.2298189443035zM-93.41261499706053,-125.24025759059204L-92.94397820666714,-114.89901919560529L-91.51383501790289,-129.1508720937293zM-75.91507959586492,-143.32748521545784L-73.62719974353914,-109.37670925782498L-70.74386350196156,-145.8648507009181z" style="fill:rgb(83,212,212)"/><path d="M-37.973651395831624,-104.98582804490303L-18.121667271140737,-73.80408191072264L-35.138645841010806,-108.05240129371622z" style="fill:rgb(220,94,208)"/><path d="M-81.19936149146393,-94.8521854127897L-92.94397820666714,-114.89901919560529L-83.4368657087967,-97.41996314039937z" style="fill:rgb(21,57,142)"/><path d="M-44.838462689885525,-127.66998752373124L-49.99117494553974,-100.33523587339752L-46.05641292341814,-102.85797194515551zM-38.997106876845,-125.40308114453258L-42.580933125701755,-105.72916999743023L-39.70280313374802,-108.832219257167zM-94.15369040378317,-117.97428493934841L-93.41261499706053,-125.24025759059204L-94.30759375043587,-121.46686539253203zM-70.74386350196156,-145.8648507009181L-68.13990380988697,-110.60222058273563L-65.41659705073371,-147.79153587567947z" style="fill:rgb(83,212,212)"/><path d="M-38.740099733728066,-104.15677293550051L-20.843066568300774,-70.77065090914908L-37.973651395831624,-104.98582804490303z" style="fill:rgb(220,94,208)"/><path d="M-46.3416500876942,-57.869329751389756L-58.8330253953392,-92.85503686779609L-64.25231160043185,-91.67957365230866z" style="fill:rgb(115,34,214)"/><path d="M-39.19004419212602,-141.2443421345412L-30.069184400462188,-119.87469546281072L-30.482524617105746,-123.34061228708435z" style="fill:rgb(246,167,149)"/><path d="M-42.170271455632076,-101.3174507106952L-21.578750617081248,-69.95061608731807L-38.740099733728066,-104.15677293550051z" style="fill:rgb(203,77,216)"/><path d="M-65.41659705073371,-147.79153587567947L-62.582787090224066,-112.57619009992784L-60.12541865575643,-149.03615363318556z" style="fill:rgb(83,212,212)"/><path d="M-43.09693443593729,-100.55040408081014L-24.886897226786385,-67.15729640707323L-42.170271455632076,-101.3174507106952z" style="fill:rgb(203,77,216)"/><path d="M-41.053733067107096,-58.9519013633288L-53.35252985756123,-94.78128958461264L-58.8330253953392,-92.85503686779609z" style="fill:rgb(139,40,220)"/><path d="M-29.543378309629656,-63.96441314181069L-43.09693443593729,-100.55040408081014L-46.98510753652791,-98.0552744848007z" style="fill:rgb(183,62,221)"/><path d="M-60.12541865575643,-149.03615363318556L-57.183017413931154,-115.22008374101728L-55.062814499495936,-149.55000877046274zM-93.41261499706053,-125.24025759059204L-94.15369040378317,-117.97428493934841L-92.94397820666714,-114.89901919560529z" style="fill:rgb(83,212,212)"/><path d="M-35.72037551404444,-60.788478929983L-49.16453074501053,-96.82924583316593L-53.35252985756123,-94.78128958461264z" style="fill:rgb(162,50,222)"/><path d="M-30.559069604879603,-63.30624701470681L-46.98510753652791,-98.0552744848007L-48.034655764359464,-97.38176177632202z" style="fill:rgb(183,62,221)"/><path d="M-31.655678511202165,-62.77130490865361L-48.034655764359464,-97.38176177632202L-49.16453074501053,-96.82924583316593z" style="fill:rgb(162,50,222)"/><path d="M-30.482524617105746,-123.34061228708435L-40.62820751431977,-144.2131468799214L-39.19004419212602,-141.2443421345412z" style="fill:rgb(242,183,130)"/><path d="M-78.03031413917232,-92.92494548199952L-90.71185335983935,-112.36495577587327L-81.19936149146393,-94.8521854127897z" style="fill:rgb(34,46,160)"/><path d="M-88.69120963040184,-133.0532816709389L-92.94397820666714,-114.89901919560529L-90.71185335983935,-112.36495577587327zM-55.062814499495936,-149.55000877046274L-52.16166724505286,-118.4259541046068L-50.41578264854252,-149.30900755777964z" style="fill:rgb(83,212,212)"/><path d="M-92.94397820666714,-114.89901919560529L-81.19936149146393,-94.8521854127897L-90.71185335983935,-112.36495577587327z" style="fill:rgb(21,57,142)"/><path d="M-50.41578264854252,-149.30900755777964L-47.723072960433626,-122.061719637374L-46.359828409279594,-148.31519859903574z" style="fill:rgb(83,212,212)"/><path d="M-30.069184400462188,-119.87469546281072L-39.50525116313784,-134.00663558049695L-30.723956118313872,-116.07152742562884z" style="fill:rgb(246,149,167)"/><path d="M-88.69120963040184,-133.0532816709389L-90.71185335983935,-112.36495577587327L-87.53178084966208,-110.47785969997874z" style="fill:rgb(83,212,212)"/><path d="M-74.04403108524923,-91.72186310594041L-87.53178084966208,-110.47785969997874L-78.03031413917232,-92.92494548199952z" style="fill:rgb(51,38,177)"/><path d="M-30.069184400462188,-119.87469546281072L-39.19004419212602,-141.2443421345412L-38.80638143425012,-137.7990716595328z" style="fill:rgb(246,167,149)"/><path d="M-46.359828409279594,-148.31519859903574L-44.04514728553744,-125.97759904869999L-43.0527099600694,-146.59776395046407zM-85.05555936227384,-136.80507327789397L-87.53178084966208,-110.47785969997874L-83.51817561380352,-109.3199885660777zM-75.91507959586492,-143.32748521545784L-83.51817561380352,-109.3199885660777L-78.82234736052517,-108.94546714045212z" style="fill:rgb(83,212,212)"/><path d="M-30.723956118313872,-116.07152742562884L-41.27142796779638,-130.01348747079015L-32.433021187069826,-112.07808921579075z" style="fill:rgb(242,130,183)"/><path d="M-90.71185335983935,-112.36495577587327L-78.03031413917232,-92.92494548199952L-87.53178084966208,-110.47785969997874z" style="fill:rgb(34,46,160)"/><path d="M-39.50525116313784,-134.00663558049695L-30.069184400462188,-119.87469546281072L-38.80638143425012,-137.7990716595328z" style="fill:rgb(246,149,167)"/><path d="M-43.0527099600694,-146.59776395046407L-44.04514728553744,-125.97759904869999L-40.62820751431977,-144.2131468799214zM-75.91507959586492,-143.32748521545784L-78.82234736052517,-108.94546714045212L-73.62719974353914,-109.37670925782498z" style="fill:rgb(83,212,212)"/><path d="M-78.82234736052517,-108.94546714045212L-74.04403108524923,-91.72186310594041L-69.39093277912366,-91.29867177515817z" style="fill:rgb(71,33,192)"/><path d="M-40.62820751431977,-144.2131468799214L-41.27142796779638,-130.01348747079015L-39.19004419212602,-141.2443421345412z" style="fill:rgb(83,212,212)"/><path d="M-32.433021187069826,-112.07808921579075L-44.04514728553744,-125.97759904869999L-35.138645841010806,-108.05240129371622z" style="fill:rgb(233,112,197)"/><path d="M-70.74386350196156,-145.8648507009181L-73.62719974353914,-109.37670925782498L-68.13990380988697,-110.60222058273563z" style="fill:rgb(83,212,212)"/><path d="M-87.53178084966208,-110.47785969997874L-74.04403108524923,-91.72186310594041L-83.51817561380352,-109.3199885660777z" style="fill:rgb(51,38,177)"/><path d="M-39.19004419212602,-141.2443421345412L-39.50525116313784,-134.00663558049695L-38.80638143425012,-137.7990716595328z" style="fill:rgb(83,212,212)"/><path d="M-41.27142796779638,-130.01348747079015L-30.723956118313872,-116.07152742562884L-39.50525116313784,-134.00663558049695z" style="fill:rgb(242,130,183)"/><path d="M-65.41659705073371,-147.79153587567947L-68.13990380988697,-110.60222058273563L-62.582787090224066,-112.57619009992784z" style="fill:rgb(83,212,212)"/><path d="M-73.62719974353914,-109.37670925782498L-69.39093277912366,-91.29867177515817L-64.25231160043185,-91.67957365230866z" style="fill:rgb(92,32,204)"/><path d="M-60.12541865575643,-149.03615363318556L-62.582787090224066,-112.57619009992784L-57.183017413931154,-115.22008374101728z" style="fill:rgb(83,212,212)"/><path d="M-35.138645841010806,-108.05240129371622L-47.723072960433626,-122.061719637374L-38.740099733728066,-104.15677293550051z" style="fill:rgb(220,94,208)"/><path d="M-55.062814499495936,-149.55000877046274L-57.183017413931154,-115.22008374101728L-52.16166724505286,-118.4259541046068z" style="fill:rgb(83,212,212)"/><path d="M-74.04403108524923,-91.72186310594041L-78.82234736052517,-108.94546714045212L-83.51817561380352,-109.3199885660777z" style="fill:rgb(71,33,192)"/><path d="M-46.359828409279594,-148.31519859903574L-47.723072960433626,-122.061719637374L-44.04514728553744,-125.97759904869999zM-50.41578264854252,-149.30900755777964L-52.16166724505286,-118.4259541046068L-47.723072960433626,-122.061719637374zM-39.19004419212602,-141.2443421345412L-41.27142796779638,-130.01348747079015L-39.50525116313784,-134.00663558049695z" style="fill:rgb(83,212,212)"/><path d="M-68.13990380988697,-110.60222058273563L-64.25231160043185,-91.67957365230866L-58.8330253953392,-92.85503686779609z" style="fill:rgb(115,34,214)"/><path d="M-40.62820751431977,-144.2131468799214L-44.04514728553744,-125.97759904869999L-41.27142796779638,-130.01348747079015z" style="fill:rgb(83,212,212)"/><path d="M-44.04514728553744,-125.97759904869999L-32.433021187069826,-112.07808921579075L-41.27142796779638,-130.01348747079015z" style="fill:rgb(233,112,197)"/><path d="M-38.740099733728066,-104.15677293550051L-52.16166724505286,-118.4259541046068L-43.09693443593729,-100.55040408081014z" style="fill:rgb(203,77,216)"/><path d="M-62.582787090224066,-112.57619009992784L-58.8330253953392,-92.85503686779609L-53.35252985756123,-94.78128958461264z" style="fill:rgb(139,40,220)"/><path d="M-52.16166724505286,-118.4259541046068L-48.034655764359464,-97.38176177632202L-43.09693443593729,-100.55040408081014z" style="fill:rgb(183,62,221)"/><path d="M-57.183017413931154,-115.22008374101728L-53.35252985756123,-94.78128958461264L-48.034655764359464,-97.38176177632202z" style="fill:rgb(162,50,222)"/><path d="M-69.39093277912366,-91.29867177515817L-73.62719974353914,-109.37670925782498L-78.82234736052517,-108.94546714045212z" style="fill:rgb(92,32,204)"/><path d="M-47.723072960433626,-122.061719637374L-35.138645841010806,-108.05240129371622L-44.04514728553744,-125.97759904869999z" style="fill:rgb(220,94,208)"/><path d="M-64.25231160043185,-91.67957365230866L-68.13990380988697,-110.60222058273563L-73.62719974353914,-109.37670925782498z" style="fill:rgb(115,34,214)"/><path d="M-52.16166724505286,-118.4259541046068L-38.740099733728066,-104.15677293550051L-47.723072960433626,-122.061719637374z" style="fill:rgb(203,77,216)"/><path d="M-58.8330253953392,-92.85503686779609L-62.582787090224066,-112.57619009992784L-68.13990380988697,-110.60222058273563z" style="fill:rgb(139,40,220)"/><path d="M-48.034655764359464,-97.38176177632202L-52.16166724505286,-118.4259541046068L-57.183017413931154,-115.22008374101728z" style="fill:rgb(183,62,221)"/><path d="M-53.35252985756123,-94.78128958461264L-57.183017413931154,-115.22008374101728L-62.582787090224066,-112.57619009992784z" style="fill:rgb(162,50,222)"/></svg>
