<?xml version="1.0" encoding="UTF-8"?>
<!-- Generated by jsxcad -->
<!DOCTYPE svg PUBLIC "-//W3C//DTD SVG 1.1 Tiny//EN" "http://www.w3.org/Graphics/SVG/1.1/DTD/svg11-tiny.dtd">
<svg viewBox="-250 -250 500 500" width="500" height="500" xmlns="http://www.w3.org/2000/svg"><path d="M46.23383223403836,85.5493654532218L47.48931415028849,94.42724161855132L50.129993869785984,93.15348274665445z" style="fill:rgb(162,50,222)"/><path d="M43.57226525143381,86.83390052721616L45.074287789458964,96.06264753411195L47.48931415028849,94.42724161855132z" style="fill:rgb(183,62,221)"/><path d="M49.02224932544959,84.67410681170323L50.129993869785984,93.15348274665445L52.89810675590045,92.2888614116631z" style="fill:rgb(139,40,220)"/><path d="M45.074287789458964,96.06264753411195L39.017577791206094,90.42623831916427L42.97510573891824,97.99914946214163z" style="fill:rgb(203,77,216)"/><path d="M51.833806856618686,84.24132072536308L52.89810675590045,92.2888614116631L55.69065307601811,91.86617825157472z" style="fill:rgb(115,34,214)"/><path d="M42.97510573891824,97.99914946214163L37.295160061777906,92.60114017639425L41.2708097503682,100.16511989572936z" style="fill:rgb(220,94,208)"/><path d="M54.56351112511514,84.2683350432468L55.69065307601811,91.86617825157472L58.4033440664686,91.90237900420908z" style="fill:rgb(92,32,204)"/><path d="M47.48931415028849,94.42724161855132L46.23383223403836,85.5493654532218L43.57226525143381,86.83390052721616z" style="fill:rgb(162,50,222)"/><path d="M45.074287789458964,96.06264753411195L43.57226525143381,86.83390052721616L41.13653900689277,88.47983312699122z" style="fill:rgb(183,62,221)"/><path d="M50.129993869785984,93.15348274665445L49.02224932544959,84.67410681170323L46.23383223403836,85.5493654532218z" style="fill:rgb(139,40,220)"/><path d="M41.2708097503682,100.16511989572936L36.03510657913821,94.92384176263549L40.02653937081533,102.4801766621324z" style="fill:rgb(233,112,197)"/><path d="M39.017577791206094,90.42623831916427L45.074287789458964,96.06264753411195L41.13653900689277,88.47983312699122z" style="fill:rgb(203,77,216)"/><path d="M52.89810675590045,92.2888614116631L51.833806856618686,84.24132072536308L49.02224932544959,84.67410681170323z" style="fill:rgb(115,34,214)"/><path d="M57.10870377363204,84.7558410582028L58.4033440664686,91.90237900420908L60.93414366572036,92.39779241177395z" style="fill:rgb(71,33,192)"/><path d="M37.295160061777906,92.60114017639425L42.97510573891824,97.99914946214163L39.017577791206094,90.42623831916427z" style="fill:rgb(220,94,208)"/><path d="M55.69065307601811,91.86617825157472L54.56351112511514,84.2683350432468L51.833806856618686,84.24132072536308z" style="fill:rgb(92,32,204)"/><path d="M40.02653937081533,102.4801766621324L35.28679550277922,97.30763135472824L39.291066077474234,104.8578806967693z" style="fill:rgb(242,130,183)"/><path d="M63.18683746502034,93.33584034882466L57.10870377363204,84.7558410582028L60.93414366572036,92.39779241177395z" style="fill:rgb(51,38,177)"/><path d="M36.03510657913821,94.92384176263549L41.2708097503682,100.16511989572936L37.295160061777906,92.60114017639425z" style="fill:rgb(233,112,197)"/><path d="M58.4033440664686,91.90237900420908L57.10870377363204,84.7558410582028L54.56351112511514,84.2683350432468z" style="fill:rgb(71,33,192)"/><path d="M39.291066077474234,104.8578806967693L35.08114984559483,99.66270712599098L39.094792746285066,107.20865382159843z" style="fill:rgb(246,149,167)"/><path d="M65.07460182155506,94.6833584707134L59.37262440196542,85.68758433704654L63.18683746502034,93.33584034882466z" style="fill:rgb(34,46,160)"/><path d="M35.28679550277922,97.30763135472824L40.02653937081533,102.4801766621324L36.03510657913821,94.92384176263549z" style="fill:rgb(242,130,183)"/><path d="M35.08114984559483,99.66270712599098L39.448269602100495,109.4429240907144L39.094792746285066,107.20865382159843z" style="fill:rgb(246,167,149)"/><path d="M57.10870377363204,84.7558410582028L63.18683746502034,93.33584034882466L59.37262440196542,85.68758433704654z" style="fill:rgb(51,38,177)"/><path d="M35.08114984559483,99.66270712599098L39.291066077474234,104.8578806967693L35.28679550277922,97.30763135472824z" style="fill:rgb(246,149,167)"/><path d="M66.52333004008739,96.39140385437247L61.26800497481943,87.03067135183811L65.07460182155506,94.6833584707134z" style="fill:rgb(21,57,142)"/><path d="M59.37262440196542,85.68758433704654L65.07460182155506,94.6833584707134L61.26800497481943,87.03067135183811z" style="fill:rgb(34,46,160)"/><path d="M35.42912056192062,101.8993294034128L40.3413452028727,111.47448322568172L39.448269602100495,109.4429240907144zM67.11325996617005,86.20796999860043L72.16154265081373,96.54947767772623L70.88002204990428,93.88157318497672z" style="fill:rgb(242,183,130)"/><path d="M39.448269602100495,109.4429240907144L35.08114984559483,99.66270712599098L35.42912056192062,101.8993294034128z" style="fill:rgb(246,167,149)"/><path d="M61.26800497481943,87.03067135183811L66.52333004008739,96.39140385437247L62.720414372484086,88.7363620825396zM37.82907445942846,116.33407236128754L31.913781842544203,106.46774416655634L35.97069440401896,113.99235550355482z" style="fill:rgb(21,57,142)"/><path d="M40.3413452028727,111.47448322568172L35.42912056192062,101.8993294034128L36.320818723947916,103.93118515971881z" style="fill:rgb(242,183,130)"/><path d="M68.39440134719058,88.8755664997102L72.72747518830461,99.5172591416733L72.16154265081373,96.54947767772623z" style="fill:rgb(246,167,149)"/><path d="M72.16154265081373,96.54947767772623L67.11325996617005,86.20796999860043L68.39440134719058,88.8755664997102z" style="fill:rgb(242,183,130)"/><path d="M39.825617100509476,117.8479869295413L33.775786842330405,108.8071936835283L37.82907445942846,116.33407236128754z" style="fill:rgb(34,46,160)"/><path d="M72.72747518830461,99.5172591416733L68.91819438632454,92.45168536786132L72.69343548515188,100.12181856756754z" style="fill:rgb(246,149,167)"/><path d="M31.913781842544203,106.46774416655634L37.82907445942846,116.33407236128754L33.775786842330405,108.8071936835283z" style="fill:rgb(21,57,142)"/><path d="M40.30147542110738,118.20882095594675L35.77978331147952,110.3170649492173L39.825617100509476,117.8479869295413z" style="fill:rgb(34,46,160)"/><path d="M72.72747518830461,99.5172591416733L68.39440134719058,88.8755664997102L68.9544068783685,91.84605403629843z" style="fill:rgb(246,167,149)"/><path d="M72.69343548515188,100.12181856756754L68.76546601260276,95.00618820878078L72.54987480649137,102.67174644239918z" style="fill:rgb(246,149,167)"/><path d="M43.29595297517555,119.53948488735081L36.25743101795355,110.67694317042871L40.30147542110738,118.20882095594675z" style="fill:rgb(51,38,177)"/><path d="M68.91819438632454,92.45168536786132L72.72747518830461,99.5172591416733L68.9544068783685,91.84605403629843z" style="fill:rgb(246,149,167)"/><path d="M33.775786842330405,108.8071936835283L39.825617100509476,117.8479869295413L35.77978331147952,110.3170649492173z" style="fill:rgb(34,46,160)"/><path d="M68.76546601260276,95.00618820878078L72.69343548515188,100.12181856756754L68.91819438632454,92.45168536786132z" style="fill:rgb(246,149,167)"/><path d="M33.09573023286309,58.44454376068393L34.40135144543391,69.74047739282351L37.98813593317158,68.00725857550401z" style="fill:rgb(162,50,222)"/><path d="M29.474208622853325,60.195751238552894L31.113548065412434,71.95149092046147L34.40135144543391,69.74047739282351z" style="fill:rgb(183,62,221)"/><path d="M72.54987480649137,102.67174644239918L67.8291692203046,98.23334565309601L71.6299745205952,105.8905248381614z" style="fill:rgb(242,130,183)"/><path d="M35.77978331147952,110.3170649492173L40.30147542110738,118.20882095594675L36.25743101795355,110.67694317042871z" style="fill:rgb(34,46,160)"/><path d="M36.88331245347687,57.234962279830036L37.98813593317158,68.00725857550401L41.74206372928551,66.81572485238442z" style="fill:rgb(139,40,220)"/><path d="M31.113548065412434,71.95149092046147L23.251233587886997,65.0481034253808L28.24619966405413,74.5595295623051z" style="fill:rgb(203,77,216)"/><path d="M71.6299745205952,105.8905248381614L67.51243377569718,98.84061601582138L71.31723737885447,106.49573723807734z" style="fill:rgb(233,112,197)"/><path d="M40.697748314281064,56.612627431273395L41.74206372928551,66.81572485238442L45.525098862119215,66.21084026704071z" style="fill:rgb(115,34,214)"/><path d="M42.68805139054436,112.72021185432118L43.29595297517555,119.53948488735081L46.69817704176553,120.26964829934107z" style="fill:rgb(71,33,192)"/><path d="M36.25743101795355,110.67694317042871L43.29595297517555,119.53948488735081L39.26647327007657,112.00000865294741z" style="fill:rgb(51,38,177)"/><path d="M67.8291692203046,98.23334565309601L72.54987480649137,102.67174644239918L68.76546601260276,95.00618820878078z" style="fill:rgb(242,130,183)"/><path d="M71.31723737885447,106.49573723807734L66.17733926173997,101.40037701595327L69.99902245796217,109.04678278142492z" style="fill:rgb(233,112,197)"/><path d="M28.24619966405413,74.5595295623051L20.880830439906262,67.97219406829943L25.90645853596263,77.46944970052893z" style="fill:rgb(220,94,208)"/><path d="M44.398097350188934,56.60265081602694L45.525098862119215,66.21084026704071L49.19742728493202,66.21705731835553z" style="fill:rgb(92,32,204)"/><path d="M34.40135144543391,69.74047739282351L33.09573023286309,58.44454376068393L29.474208622853325,60.195751238552894z" style="fill:rgb(162,50,222)"/><path d="M46.38895540520181,112.80518106854478L46.69817704176553,120.26964829934107L50.375675457795204,120.3665972382599z" style="fill:rgb(92,32,204)"/><path d="M31.113548065412434,71.95149092046147L29.474208622853325,60.195751238552894L26.15181074163655,62.42405971909473z" style="fill:rgb(183,62,221)"/><path d="M37.98813593317158,68.00725857550401L36.88331245347687,57.234962279830036L33.09573023286309,58.44454376068393z" style="fill:rgb(139,40,220)"/><path d="M43.29595297517555,119.53948488735081L42.68805139054436,112.72021185432118L39.26647327007657,112.00000865294741z" style="fill:rgb(71,33,192)"/><path d="M67.51243377569718,98.84061601582138L71.6299745205952,105.8905248381614L67.8291692203046,98.23334565309601z" style="fill:rgb(233,112,197)"/><path d="M69.99902245796217,109.04678278142492L63.871482554669484,104.38101474186314L67.71772272462721,112.01470435325253z" style="fill:rgb(220,94,208)"/><path d="M23.251233587886997,65.0481034253808L31.113548065412434,71.95149092046147L26.15181074163655,62.42405971909473z" style="fill:rgb(203,77,216)"/><path d="M25.90645853596263,77.46944970052893L19.130921928202984,71.08923452698333L24.183502518737523,80.57463672009226z" style="fill:rgb(233,112,197)"/><path d="M41.74206372928551,66.81572485238442L40.697748314281064,56.612627431273395L36.88331245347687,57.234962279830036z" style="fill:rgb(115,34,214)"/><path d="M66.17733926173997,101.40037701595327L71.31723737885447,106.49573723807734L67.51243377569718,98.84061601582138z" style="fill:rgb(233,112,197)"/><path d="M50.222962729799946,112.24835416168092L50.375675457795204,120.3665972382599L54.183190617679735,119.823328768552z" style="fill:rgb(115,34,214)"/><path d="M67.71772272462721,112.01470435325253L61.55252514106389,106.54130714901657L65.4208047862602,114.16359741949236z" style="fill:rgb(203,77,216)"/><path d="M55.437839963037604,62.42295746513227L68.39440134719058,88.8755664997102L67.11325996617005,86.20796999860043z" style="fill:rgb(242,183,130)"/><path d="M47.84627104957909,57.20847127976136L49.19742728493202,66.21705731835553L52.62196160211803,66.83717626372592z" style="fill:rgb(71,33,192)"/><path d="M20.880830439906262,67.97219406829943L28.24619966405413,74.5595295623051L23.251233587886997,65.0481034253808z" style="fill:rgb(220,94,208)"/><path d="M65.4208047862602,114.16359741949236L61.00073952722884,107.05534209245363L64.8742618307656,114.67491563771634z" style="fill:rgb(203,77,216)"/><path d="M46.69817704176553,120.26964829934107L46.38895540520181,112.80518106854478L42.68805139054436,112.72021185432118z" style="fill:rgb(92,32,204)"/><path d="M54.03710804299894,111.06971486095435L54.183190617679735,119.823328768552L57.96883280756499,118.65930122324876z" style="fill:rgb(139,40,220)"/><path d="M61.00073952722884,107.05534209245363L61.580815148630265,116.91997764704357L64.8742618307656,114.67491563771634z" style="fill:rgb(183,62,221)"/><path d="M45.525098862119215,66.21084026704071L44.398097350188934,56.60265081602694L40.697748314281064,56.612627431273395z" style="fill:rgb(92,32,204)"/><path d="M57.6783990205139,109.31531602839037L57.96883280756499,118.65930122324876L61.580815148630265,116.91997764704357z" style="fill:rgb(162,50,222)"/><path d="M63.871482554669484,104.38101474186314L69.99902245796217,109.04678278142492L66.17733926173997,101.40037701595327z" style="fill:rgb(220,94,208)"/><path d="M24.183502518737523,80.57463672009226L18.070445309764747,74.28405197985177L23.145228342685265,83.76032843181693z" style="fill:rgb(242,130,183)"/><path d="M55.66904160049625,68.05183080707013L47.84627104957909,57.20847127976136L52.62196160211803,66.83717626372592z" style="fill:rgb(51,38,177)"/><path d="M33.775786842330405,108.8071936835283L19.338259442625677,83.14312374968146L31.913781842544203,106.46774416655634z" style="fill:rgb(21,57,142)"/><path d="M19.130921928202984,71.08923452698333L25.90645853596263,77.46944970052893L20.880830439906262,67.97219406829943z" style="fill:rgb(233,112,197)"/><path d="M50.375675457795204,120.3665972382599L50.222962729799946,112.24835416168092L46.38895540520181,112.80518106854478z" style="fill:rgb(115,34,214)"/><path d="M61.55252514106389,106.54130714901657L67.71772272462721,112.01470435325253L63.871482554669484,104.38101474186314z" style="fill:rgb(203,77,216)"/><path d="M49.19742728493202,66.21705731835553L47.84627104957909,57.20847127976136L44.398097350188934,56.60265081602694z" style="fill:rgb(71,33,192)"/><path d="M56.71670452630375,65.0873559977943L68.9544068783685,91.84605403629843L68.39440134719058,88.8755664997102z" style="fill:rgb(246,167,149)"/><path d="M61.00073952722884,107.05534209245363L65.4208047862602,114.16359741949236L61.55252514106389,106.54130714901657z" style="fill:rgb(203,77,216)"/><path d="M54.183190617679735,119.823328768552L54.03710804299894,111.06971486095435L50.222962729799946,112.24835416168092z" style="fill:rgb(139,40,220)"/><path d="M61.580815148630265,116.91997764704357L61.00073952722884,107.05534209245363L57.6783990205139,109.31531602839037z" style="fill:rgb(183,62,221)"/><path d="M57.96883280756499,118.65930122324876L57.6783990205139,109.31531602839037L54.03710804299894,111.06971486095435z" style="fill:rgb(162,50,222)"/><path d="M18.070445309764747,74.28405197985177L24.183502518737523,80.57463672009226L19.130921928202984,71.08923452698333z" style="fill:rgb(242,130,183)"/><path d="M23.145228342685265,83.76032843181693L17.744085109842572,77.43713324699007L22.835409572837154,86.90734159305175z" style="fill:rgb(246,149,167)"/><path d="M58.22106507446728,69.81957873350184L50.91169659541087,58.41131289609581L55.66904160049625,68.05183080707013zM36.25743101795355,110.67694317042871L21.210325178825748,85.47336367457432L33.775786842330405,108.8071936835283z" style="fill:rgb(34,46,160)"/><path d="M47.84627104957909,57.20847127976136L55.66904160049625,68.05183080707013L50.91169659541087,58.41131289609581z" style="fill:rgb(51,38,177)"/><path d="M17.744085109842572,77.43713324699007L23.271477605081735,89.89614583730318L22.835409572837154,86.90734159305175z" style="fill:rgb(246,167,149)"/><path d="M17.744085109842572,77.43713324699007L23.145228342685265,83.76032843181693L18.070445309764747,74.28405197985177zM68.9544068783685,91.84605403629843L57.03213974800565,71.23961262214692L68.76546601260276,95.00618820878078z" style="fill:rgb(246,149,167)"/><path d="M60.17708280698882,72.07768681096536L53.47605635207895,60.17024916913467L58.22106507446728,69.81957873350184z" style="fill:rgb(21,57,142)"/><path d="M39.26647327007657,112.00000865294741L23.719498091423993,87.32553269723152L36.25743101795355,110.67694317042871z" style="fill:rgb(51,38,177)"/><path d="M50.91169659541087,58.41131289609581L58.22106507446728,69.81957873350184L53.47605635207895,60.17024916913467z" style="fill:rgb(34,46,160)"/><path d="M18.16999398793049,80.4287079868214L24.443009701594484,92.61122894554707L23.271477605081735,89.89614583730318z" style="fill:rgb(242,183,130)"/><path d="M68.76546601260276,95.00618820878078L56.04408954705293,74.49089621840156L67.8291692203046,98.23334565309601z" style="fill:rgb(242,130,183)"/><path d="M68.39440134719058,88.8755664997102L55.437839963037604,62.42295746513227L56.71670452630375,65.0873559977943z" style="fill:rgb(242,183,130)"/><path d="M26.15181074163655,62.42405971909473L26.772678904910318,88.62313749364222L29.474208622853325,60.195751238552894z" style="fill:rgb(83,212,212)"/><path d="M23.271477605081735,89.89614583730318L17.744085109842572,77.43713324699007L18.16999398793049,80.4287079868214z" style="fill:rgb(246,167,149)"/><path d="M20.880830439906262,67.97219406829943L23.719498091423993,87.32553269723152L23.251233587886997,65.0481034253808zM23.251233587886997,65.0481034253808L26.772678904910318,88.62313749364222L26.15181074163655,62.42405971909473z" style="fill:rgb(83,212,212)"/><path d="M30.253409273221187,89.31081206901986L39.26647327007657,112.00000865294741L42.68805139054436,112.72021185432118z" style="fill:rgb(71,33,192)"/><path d="M19.130921928202984,71.08923452698333L21.210325178825748,85.47336367457432L20.880830439906262,67.97219406829943zM18.070445309764747,74.28405197985177L19.338259442625677,83.14312374968146L19.130921928202984,71.08923452698333zM29.474208622853325,60.195751238552894L34.0261746490469,89.35731138307756L33.09573023286309,58.44454376068393z" style="fill:rgb(83,212,212)"/><path d="M19.338259442625677,83.14312374968146L33.775786842330405,108.8071936835283L21.210325178825748,85.47336367457432z" style="fill:rgb(21,57,142)"/><path d="M67.8291692203046,98.23334565309601L54.32676602006172,77.68978066406633L66.17733926173997,101.40037701595327z" style="fill:rgb(233,112,197)"/><path d="M53.47605635207895,60.17024916913467L60.17708280698882,72.07768681096536L55.437839963037604,62.42295746513227z" style="fill:rgb(21,57,142)"/><path d="M18.16999398793049,80.4287079868214L18.070445309764747,74.28405197985177L17.744085109842572,77.43713324699007zM33.09573023286309,58.44454376068393L37.94185819090372,88.75749621793373L36.88331245347687,57.234962279830036z" style="fill:rgb(83,212,212)"/><path d="M68.9544068783685,91.84605403629843L56.71670452630375,65.0873559977943L57.25725666061339,68.06403550223972z" style="fill:rgb(246,167,149)"/><path d="M22.288212874519324,98.11333075643252L14.81621086073199,85.73865657101162L19.96684172505862,95.18333011176148z" style="fill:rgb(21,57,142)"/><path d="M34.0261746490469,89.35731138307756L42.68805139054436,112.72021185432118L46.38895540520181,112.80518106854478z" style="fill:rgb(92,32,204)"/><path d="M36.88331245347687,57.234962279830036L41.84410633286438,87.53303131051213L40.697748314281064,56.612627431273395z" style="fill:rgb(83,212,212)"/><path d="M66.17733926173997,101.40037701595327L51.94413464966573,80.70863623143198L63.871482554669484,104.38101474186314z" style="fill:rgb(220,94,208)"/><path d="M24.443009701594484,92.61122894554707L18.16999398793049,80.4287079868214L19.338259442625677,83.14312374968146z" style="fill:rgb(242,183,130)"/><path d="M61.556612674247745,63.16110037204001L66.80518503351422,75.76565229884686L66.25142768050264,72.84135112003126z" style="fill:rgb(246,167,149)"/><path d="M40.697748314281064,56.612627431273395L45.57624767936288,85.73179124675033L44.398097350188934,56.60265081602694zM18.070445309764747,74.28405197985177L18.16999398793049,80.4287079868214L19.338259442625677,83.14312374968146z" style="fill:rgb(83,212,212)"/><path d="M37.94185819090372,88.75749621793373L46.38895540520181,112.80518106854478L50.222962729799946,112.24835416168092z" style="fill:rgb(115,34,214)"/><path d="M21.210325178825748,85.47336367457432L36.25743101795355,110.67694317042871L23.719498091423993,87.32553269723152z" style="fill:rgb(34,46,160)"/><path d="M57.03213974800565,71.23961262214692L68.9544068783685,91.84605403629843L57.25725666061339,68.06403550223972z" style="fill:rgb(246,149,167)"/><path d="M63.871482554669484,104.38101474186314L48.988380833055466,83.42593596749802L61.00073952722884,107.05534209245363z" style="fill:rgb(203,77,216)"/><path d="M41.84410633286438,87.53303131051213L50.222962729799946,112.24835416168092L54.03710804299894,111.06971486095435z" style="fill:rgb(139,40,220)"/><path d="M48.988380833055466,83.42593596749802L57.6783990205139,109.31531602839037L61.00073952722884,107.05534209245363z" style="fill:rgb(183,62,221)"/><path d="M19.130921928202984,71.08923452698333L19.338259442625677,83.14312374968146L21.210325178825748,85.47336367457432zM44.398097350188934,56.60265081602694L45.57624767936288,85.73179124675033L47.84627104957909,57.20847127976136z" style="fill:rgb(83,212,212)"/><path d="M45.57624767936288,85.73179124675033L54.03710804299894,111.06971486095435L57.6783990205139,109.31531602839037z" style="fill:rgb(162,50,222)"/><path d="M62.10266386051252,66.08737528512603L66.95509177487219,76.5572808313633L66.80518503351422,75.76565229884686z" style="fill:rgb(246,167,149)"/><path d="M25.40231263379858,100.45260848882556L17.142120152869705,88.66368796478494L22.288212874519324,98.11333075643252z" style="fill:rgb(34,46,160)"/><path d="M47.84627104957909,57.20847127976136L51.94413464966573,80.70863623143198L50.91169659541087,58.41131289609581zM20.880830439906262,67.97219406829943L21.210325178825748,85.47336367457432L23.719498091423993,87.32553269723152z" style="fill:rgb(83,212,212)"/><path d="M23.719498091423993,87.32553269723152L39.26647327007657,112.00000865294741L26.772678904910318,88.62313749364222z" style="fill:rgb(51,38,177)"/><path d="M56.04408954705293,74.49089621840156L68.76546601260276,95.00618820878078L57.03213974800565,71.23961262214692z" style="fill:rgb(242,130,183)"/><path d="M14.81621086073199,85.73865657101162L22.288212874519324,98.11333075643252L17.142120152869705,88.66368796478494z" style="fill:rgb(21,57,142)"/><path d="M50.91169659541087,58.41131289609581L54.32676602006172,77.68978066406633L53.47605635207895,60.17024916913467zM23.251233587886997,65.0481034253808L23.719498091423993,87.32553269723152L26.772678904910318,88.62313749364222z" style="fill:rgb(83,212,212)"/><path d="M66.80518503351422,75.76565229884686L61.556612674247745,63.16110037204001L62.10266386051252,66.08737528512603z" style="fill:rgb(246,167,149)"/><path d="M39.26647327007657,112.00000865294741L30.253409273221187,89.31081206901986L26.772678904910318,88.62313749364222z" style="fill:rgb(71,33,192)"/><path d="M66.95509177487219,76.5572808313633L61.98536432680932,70.85257185696874L66.70828227058999,80.52294932683944z" style="fill:rgb(246,149,167)"/><path d="M53.47605635207895,60.17024916913467L56.04408954705293,74.49089621840156L55.437839963037604,62.42295746513227z" style="fill:rgb(83,212,212)"/><path d="M26.20598572105488,100.80238173303091L20.269712021681446,90.99378012725023L25.40231263379858,100.45260848882556z" style="fill:rgb(51,38,177)"/><path d="M29.474208622853325,60.195751238552894L26.772678904910318,88.62313749364222L30.253409273221187,89.31081206901986z" style="fill:rgb(83,212,212)"/><path d="M54.32676602006172,77.68978066406633L67.8291692203046,98.23334565309601L56.04408954705293,74.49089621840156z" style="fill:rgb(233,112,197)"/><path d="M66.95509177487219,76.5572808313633L62.10266386051252,66.08737528512603L62.250489443430524,66.87957091287127z" style="fill:rgb(246,167,149)"/><path d="M29.194613745308455,102.10306759911656L21.078040643348523,91.34075460130151L26.20598572105488,100.80238173303091z" style="fill:rgb(51,38,177)"/><path d="M29.474208622853325,60.195751238552894L30.253409273221187,89.31081206901986L34.0261746490469,89.35731138307756z" style="fill:rgb(83,212,212)"/><path d="M42.68805139054436,112.72021185432118L34.0261746490469,89.35731138307756L30.253409273221187,89.31081206901986z" style="fill:rgb(92,32,204)"/><path d="M55.437839963037604,62.42295746513227L56.04408954705293,74.49089621840156L56.71670452630375,65.0873559977943z" style="fill:rgb(83,212,212)"/><path d="M17.142120152869705,88.66368796478494L25.40231263379858,100.45260848882556L20.269712021681446,90.99378012725023z" style="fill:rgb(34,46,160)"/><path d="M61.98536432680932,70.85257185696874L66.95509177487219,76.5572808313633L62.250489443430524,66.87957091287127z" style="fill:rgb(246,149,167)"/><path d="M51.94413464966573,80.70863623143198L66.17733926173997,101.40037701595327L54.32676602006172,77.68978066406633z" style="fill:rgb(220,94,208)"/><path d="M33.09573023286309,58.44454376068393L34.0261746490469,89.35731138307756L37.94185819090372,88.75749621793373z" style="fill:rgb(83,212,212)"/><path d="M66.70828227058999,80.52294932683944L60.76212561061604,74.92567957428612L65.51134222863857,84.58417885025769z" style="fill:rgb(242,130,183)"/><path d="M56.71670452630375,65.0873559977943L57.03213974800565,71.23961262214692L57.25725666061339,68.06403550223972zM36.88331245347687,57.234962279830036L37.94185819090372,88.75749621793373L41.84410633286438,87.53303131051213z" style="fill:rgb(83,212,212)"/><path d="M46.38895540520181,112.80518106854478L37.94185819090372,88.75749621793373L34.0261746490469,89.35731138307756z" style="fill:rgb(115,34,214)"/><path d="M20.269712021681446,90.99378012725023L26.20598572105488,100.80238173303091L21.078040643348523,91.34075460130151z" style="fill:rgb(51,38,177)"/><path d="M48.988380833055466,83.42593596749802L63.871482554669484,104.38101474186314L51.94413464966573,80.70863623143198z" style="fill:rgb(203,77,216)"/><path d="M40.697748314281064,56.612627431273395L41.84410633286438,87.53303131051213L45.57624767936288,85.73179124675033zM53.47605635207895,60.17024916913467L54.32676602006172,77.68978066406633L56.04408954705293,74.49089621840156z" style="fill:rgb(83,212,212)"/><path d="M50.222962729799946,112.24835416168092L41.84410633286438,87.53303131051213L37.94185819090372,88.75749621793373z" style="fill:rgb(139,40,220)"/><path d="M50.91169659541087,58.41131289609581L51.94413464966573,80.70863623143198L54.32676602006172,77.68978066406633zM47.84627104957909,57.20847127976136L48.988380833055466,83.42593596749802L51.94413464966573,80.70863623143198zM56.71670452630375,65.0873559977943L56.04408954705293,74.49089621840156L57.03213974800565,71.23961262214692z" style="fill:rgb(83,212,212)"/><path d="M28.440057541686357,93.50399838499307L29.194613745308455,102.10306759911656L33.52074695267775,102.99274029701955z" style="fill:rgb(71,33,192)"/><path d="M57.6783990205139,109.31531602839037L48.988380833055466,83.42593596749802L45.57624767936288,85.73179124675033z" style="fill:rgb(183,62,221)"/><path d="M54.03710804299894,111.06971486095435L45.57624767936288,85.73179124675033L41.84410633286438,87.53303131051213z" style="fill:rgb(162,50,222)"/><path d="M47.84627104957909,57.20847127976136L45.57624767936288,85.73179124675033L48.988380833055466,83.42593596749802z" style="fill:rgb(83,212,212)"/><path d="M60.76212561061604,74.92567957428612L66.70828227058999,80.52294932683944L61.98536432680932,70.85257185696874z" style="fill:rgb(242,130,183)"/><path d="M21.078040643348523,91.34075460130151L29.194613745308455,102.10306759911656L24.084075559654135,92.63107299186312z" style="fill:rgb(51,38,177)"/><path d="M65.51134222863857,84.58417885025769L58.62095895483434,78.93744327763797L63.403548176645856,88.58000061218549z" style="fill:rgb(233,112,197)"/><path d="M33.16756329934993,93.57144512810453L33.52074695267775,102.99274029701955L38.211777488101745,103.07994943150082z" style="fill:rgb(92,32,204)"/><path d="M29.194613745308455,102.10306759911656L28.440057541686357,93.50399838499307L24.084075559654135,92.63107299186312z" style="fill:rgb(71,33,192)"/><path d="M63.403548176645856,88.58000061218549L56.27499386697499,81.92017428160005L61.08842700357582,91.54754106471955z" style="fill:rgb(220,94,208)"/><path d="M58.62095895483434,78.93744327763797L65.51134222863857,84.58417885025769L60.76212561061604,74.92567957428612z" style="fill:rgb(233,112,197)"/><path d="M61.08842700357582,91.54754106471955L55.64092691816778,82.72633910286562L60.46271346414344,92.34958895974657z" style="fill:rgb(220,94,208)"/><path d="M38.07846396954553,92.82549771528558L38.211777488101745,103.07994943150082L43.08106828428009,102.35605605963836z" style="fill:rgb(115,34,214)"/><path d="M60.46271346414344,92.34958895974657L51.93747019868013,86.13809621621903L56.80270638154673,95.73950497429112z" style="fill:rgb(203,77,216)"/><path d="M33.52074695267775,102.99274029701955L33.16756329934993,93.57144512810453L28.440057541686357,93.50399838499307z" style="fill:rgb(92,32,204)"/><path d="M51.93747019868013,86.13809621621903L55.90371328942172,96.34925221866399L56.80270638154673,95.73950497429112z" style="fill:rgb(183,62,221)"/><path d="M42.974802204789775,91.29261002499318L43.08106828428009,102.35605605963836L47.93241280872834,100.84665497330728z" style="fill:rgb(139,40,220)"/><path d="M51.02872483604198,86.75281116454916L52.56902599139935,98.61100050242476L55.90371328942172,96.34925221866399z" style="fill:rgb(183,62,221)"/><path d="M47.65786130425605,89.0329999385612L47.93241280872834,100.84665497330728L52.56902599139935,98.61100050242476z" style="fill:rgb(162,50,222)"/><path d="M56.27499386697499,81.92017428160005L63.403548176645856,88.58000061218549L58.62095895483434,78.93744327763797zM55.64092691816778,82.72633910286562L61.08842700357582,91.54754106471955L56.27499386697499,81.92017428160005z" style="fill:rgb(220,94,208)"/><path d="M38.211777488101745,103.07994943150082L38.07846396954553,92.82549771528558L33.16756329934993,93.57144512810453z" style="fill:rgb(115,34,214)"/><path d="M51.93747019868013,86.13809621621903L60.46271346414344,92.34958895974657L55.64092691816778,82.72633910286562z" style="fill:rgb(203,77,216)"/><path d="M43.08106828428009,102.35605605963836L42.974802204789775,91.29261002499318L38.07846396954553,92.82549771528558z" style="fill:rgb(139,40,220)"/><path d="M55.90371328942172,96.34925221866399L51.93747019868013,86.13809621621903L51.02872483604198,86.75281116454916zM52.56902599139935,98.61100050242476L51.02872483604198,86.75281116454916L47.65786130425605,89.0329999385612z" style="fill:rgb(183,62,221)"/><path d="M47.93241280872834,100.84665497330728L47.65786130425605,89.0329999385612L42.974802204789775,91.29261002499318z" style="fill:rgb(162,50,222)"/><path d="M17.142120152869705,88.66368796478494L-69.8406487968419,-69.49601330201621L14.81621086073199,85.73865657101162z" style="fill:rgb(21,57,142)"/><path d="M-15.625733027913961,-95.98130751787161L62.250489443430524,66.87957091287127L61.556612674247745,63.16110037204001z" style="fill:rgb(246,167,149)"/><path d="M20.269712021681446,90.99378012725023L-67.49315093386727,-66.74994832335074L17.142120152869705,88.66368796478494z" style="fill:rgb(34,46,160)"/><path d="M62.250489443430524,66.87957091287127L-15.752415547318773,-88.31881051523814L61.98536432680932,70.85257185696874z" style="fill:rgb(246,149,167)"/><path d="M24.084075559654135,92.63107299186312L-64.19420402074532,-64.66410648701884L20.269712021681446,90.99378012725023z" style="fill:rgb(51,38,177)"/><path d="M61.98536432680932,70.85257185696874L-17.449476970488966,-84.13348397733141L60.76212561061604,74.92567957428612z" style="fill:rgb(242,130,183)"/><path d="M-55.255035016426525,-62.80574183475479L24.084075559654135,92.63107299186312L28.440057541686357,93.50399838499307z" style="fill:rgb(71,33,192)"/><path d="M60.76212561061604,74.92567957428612L-20.17511260817642,-79.92958410867332L58.62095895483434,78.93744327763797z" style="fill:rgb(233,112,197)"/><path d="M-49.95829706963948,-63.12346958252856L28.440057541686357,93.50399838499307L33.16756329934993,93.57144512810453z" style="fill:rgb(92,32,204)"/><path d="M58.62095895483434,78.93744327763797L-23.82813498246897,-75.87693782056596L55.64092691816778,82.72633910286562z" style="fill:rgb(220,94,208)"/><path d="M-44.3840555048391,-64.27546729415538L33.16756329934993,93.57144512810453L38.07846396954553,92.82549771528558z" style="fill:rgb(115,34,214)"/><path d="M55.64092691816778,82.72633910286562L-28.266166322866578,-72.14149339720895L51.93747019868013,86.13809621621903z" style="fill:rgb(203,77,216)"/><path d="M-28.266166322866578,-72.14149339720895L47.65786130425605,89.0329999385612L51.93747019868013,86.13809621621903z" style="fill:rgb(183,62,221)"/><path d="M-38.758363832892975,-66.2191670288531L38.07846396954553,92.82549771528558L42.974802204789775,91.29261002499318z" style="fill:rgb(139,40,220)"/><path d="M-33.311357827727996,-68.87735588213837L42.974802204789775,91.29261002499318L47.65786130425605,89.0329999385612z" style="fill:rgb(162,50,222)"/><path d="M-69.8406487968419,-69.49601330201621L17.142120152869705,88.66368796478494L-67.49315093386727,-66.74994832335074z" style="fill:rgb(21,57,142)"/><path d="M62.250489443430524,66.87957091287127L-15.625733027913961,-95.98130751787161L-15.140664355954161,-92.31970293481393z" style="fill:rgb(246,167,149)"/><path d="M-67.49315093386727,-66.74994832335074L20.269712021681446,90.99378012725023L-64.19420402074532,-64.66410648701884z" style="fill:rgb(34,46,160)"/><path d="M-15.752415547318773,-88.31881051523814L62.250489443430524,66.87957091287127L-15.140664355954161,-92.31970293481393z" style="fill:rgb(246,149,167)"/><path d="M-64.19420402074532,-64.66410648701884L24.084075559654135,92.63107299186312L-60.062836896056695,-63.328863951375546z" style="fill:rgb(51,38,177)"/><path d="M-17.449476970488966,-84.13348397733141L61.98536432680932,70.85257185696874L-15.752415547318773,-88.31881051523814z" style="fill:rgb(242,130,183)"/><path d="M24.084075559654135,92.63107299186312L-55.255035016426525,-62.80574183475479L-60.062836896056695,-63.328863951375546z" style="fill:rgb(71,33,192)"/><path d="M-20.17511260817642,-79.92958410867332L60.76212561061604,74.92567957428612L-17.449476970488966,-84.13348397733141z" style="fill:rgb(233,112,197)"/><path d="M28.440057541686357,93.50399838499307L-49.95829706963948,-63.12346958252856L-55.255035016426525,-62.80574183475479z" style="fill:rgb(92,32,204)"/><path d="M-23.82813498246897,-75.87693782056596L58.62095895483434,78.93744327763797L-20.17511260817642,-79.92958410867332z" style="fill:rgb(220,94,208)"/><path d="M33.16756329934993,93.57144512810453L-44.3840555048391,-64.27546729415538L-49.95829706963948,-63.12346958252856z" style="fill:rgb(115,34,214)"/><path d="M-28.266166322866578,-72.14149339720895L55.64092691816778,82.72633910286562L-23.82813498246897,-75.87693782056596z" style="fill:rgb(203,77,216)"/><path d="M38.07846396954553,92.82549771528558L-38.758363832892975,-66.2191670288531L-44.3840555048391,-64.27546729415538z" style="fill:rgb(139,40,220)"/><path d="M47.65786130425605,89.0329999385612L-28.266166322866578,-72.14149339720895L-33.311357827727996,-68.87735588213837z" style="fill:rgb(183,62,221)"/><path d="M42.974802204789775,91.29261002499318L-33.311357827727996,-68.87735588213837L-38.758363832892975,-66.2191670288531z" style="fill:rgb(162,50,222)"/><path d="M-58.05231309421978,-96.05901483692605L-60.062836896056695,-63.328863951375546L-53.201257826524404,-99.16863123555831zM-65.97803543750376,-88.62295531284734L-64.19420402074532,-64.66410648701884L-62.36411374860011,-92.50145437309136zM-62.36411374860011,-92.50145437309136L-60.062836896056695,-63.328863951375546L-58.05231309421978,-96.05901483692605zM-68.75762851583367,-84.56295390882937L-67.49315093386727,-66.74994832335074L-65.97803543750376,-88.62295531284734zM-70.59346540365932,-80.4693635359178L-69.8406487968419,-69.49601330201621L-68.75762851583367,-84.56295390882937zM-53.201257826524404,-99.16863123555831L-49.95829706963948,-63.12346958252856L-47.98673287759843,-101.7191892730051zM-71.15792087517579,-72.78816186607831L-70.59346540365932,-80.4693635359178L-71.40767294519961,-76.49411934282261zM-47.98673287759843,-101.7191892730051L-44.3840555048391,-64.27546729415538L-42.596450490159036,-103.61856614654688zM-42.596450490159036,-103.61856614654688L-44.3840555048391,-64.27546729415538L-37.2246791844688,-104.79626961330295zM-37.2246791844688,-104.79626961330295L-33.311357827727996,-68.87735588213837L-32.066653515740434,-105.20582102975241zM-70.59346540365932,-80.4693635359178L-71.15792087517579,-72.78816186607831L-69.8406487968419,-69.49601330201621zM-32.066653515740434,-105.20582102975241L-28.266166322866578,-72.14149339720895L-27.31270142531309,-104.82664192344961zM-68.75762851583367,-84.56295390882937L-69.8406487968419,-69.49601330201621L-67.49315093386727,-66.74994832335074zM-27.31270142531309,-104.82664192344961L-23.82813498246897,-75.87693782056596L-23.1421396007815,-103.66551709617126zM-65.97803543750376,-88.62295531284734L-67.49315093386727,-66.74994832335074L-64.19420402074532,-64.66410648701884zM-23.1421396007815,-103.66551709617126L-20.17511260817642,-79.92958410867332L-19.716949392605255,-101.75749593166901zM-62.36411374860011,-92.50145437309136L-64.19420402074532,-64.66410648701884L-60.062836896056695,-63.328863951375546zM-19.716949392605255,-101.75749593166901L-17.449476970488966,-84.13348397733141L-17.175378758820475,-99.16587652997195zM-53.201257826524404,-99.16863123555831L-60.062836896056695,-63.328863951375546L-55.255035016426525,-62.80574183475479zM-17.175378758820475,-99.16587652997195L-15.752415547318773,-88.31881051523814L-15.625733027913961,-95.98130751787161zM-53.201257826524404,-99.16863123555831L-55.255035016426525,-62.80574183475479L-49.95829706963948,-63.12346958252856zM-47.98673287759843,-101.7191892730051L-49.95829706963948,-63.12346958252856L-44.3840555048391,-64.27546729415538zM-15.625733027913961,-95.98130751787161L-15.752415547318773,-88.31881051523814L-15.140664355954161,-92.31970293481393zM-17.175378758820475,-99.16587652997195L-17.449476970488966,-84.13348397733141L-15.752415547318773,-88.31881051523814zM-37.2246791844688,-104.79626961330295L-44.3840555048391,-64.27546729415538L-38.758363832892975,-66.2191670288531zM-37.2246791844688,-104.79626961330295L-38.758363832892975,-66.2191670288531L-33.311357827727996,-68.87735588213837zM-19.716949392605255,-101.75749593166901L-20.17511260817642,-79.92958410867332L-17.449476970488966,-84.13348397733141zM-32.066653515740434,-105.20582102975241L-33.311357827727996,-68.87735588213837L-28.266166322866578,-72.14149339720895zM-23.1421396007815,-103.66551709617126L-23.82813498246897,-75.87693782056596L-20.17511260817642,-79.92958410867332zM-27.31270142531309,-104.82664192344961L-28.266166322866578,-72.14149339720895L-23.82813498246897,-75.87693782056596z" style="fill:rgb(83,212,212)"/><path d="M-44.83667317651106,-141.855012813523L-21.207839324132262,-93.64992664066564L-22.428913430132344,-96.20620772634925z" style="fill:rgb(242,183,130)"/><path d="M-62.66737882261701,-70.285988708506L-88.71439071344474,-117.26897593517795L-64.56109881602653,-72.47033685242813z" style="fill:rgb(21,57,142)"/><path d="M-43.64596716018994,-139.35783281822984L-20.838944054502328,-90.71700966534975L-21.207839324132262,-93.64992664066564z" style="fill:rgb(246,167,149)"/><path d="M-60.01778821681134,-68.63189947669363L-86.8291084986302,-115.15387830533864L-62.66737882261701,-70.285988708506z" style="fill:rgb(34,46,160)"/><path d="M-20.838944054502328,-90.71700966534975L-43.93987488218065,-133.28547582398207L-21.34508738610271,-87.5183270839062z" style="fill:rgb(246,149,167)"/><path d="M-56.709276671426466,-67.57816909975656L-84.15306782364019,-113.58292508514025L-60.01778821681134,-68.63189947669363z" style="fill:rgb(51,38,177)"/><path d="M-21.34508738610271,-87.5183270839062L-45.430645205764655,-129.94207970873148L-22.71443224126268,-84.1775501299705z" style="fill:rgb(242,130,183)"/><path d="M-76.84850307509238,-112.3187313595715L-56.709276671426466,-67.57816909975656L-52.86727148179198,-67.17177986922088z" style="fill:rgb(71,33,192)"/><path d="M-22.71443224126268,-84.1775501299705L-47.76066801508325,-126.56645075532214L-24.89970730642305,-80.82631102960491z" style="fill:rgb(233,112,197)"/><path d="M-21.207839324132262,-93.64992664066564L-44.83667317651106,-141.855012813523L-43.64596716018994,-139.35783281822984z" style="fill:rgb(242,183,130)"/><path d="M-72.50043895192526,-112.68640267032802L-52.86727148179198,-67.17177986922088L-48.64122128982153,-67.43381053297637z" style="fill:rgb(92,32,204)"/><path d="M-24.89970730642305,-80.82631102960491L-50.84263300442458,-123.29370412673393L-27.819149965484257,-77.59867238524149z" style="fill:rgb(220,94,208)"/><path d="M-67.91190567131883,-113.71575280043888L-48.64122128982153,-67.43381053297637L-44.19857133400638,-68.35775142232646z" style="fill:rgb(115,34,214)"/><path d="M-88.71439071344474,-117.26897593517795L-62.66737882261701,-70.285988708506L-86.8291084986302,-115.15387830533864z" style="fill:rgb(21,57,142)"/><path d="M-27.819149965484257,-77.59867238524149L-54.55653749389968,-120.25633343850362L-31.359254759924507,-74.6251661295069z" style="fill:rgb(203,77,216)"/><path d="M-63.267257958307,-115.36812023489348L-44.19857133400638,-68.35775142232646L-39.717589574336664,-69.90914396088655z" style="fill:rgb(139,40,220)"/><path d="M-54.55653749389968,-120.25633343850362L-35.379324634047705,-72.02675707581095L-31.359254759924507,-74.6251661295069z" style="fill:rgb(183,62,221)"/><path d="M-58.75450526526487,-117.57809662202206L-39.717589574336664,-69.90914396088655L-35.379324634047705,-72.02675707581095z" style="fill:rgb(162,50,222)"/><path d="M-20.838944054502328,-90.71700966534975L-43.64596716018994,-139.35783281822984L-43.340007648517684,-136.4649764740875z" style="fill:rgb(246,167,149)"/><path d="M-85.2024979481069,-132.50037556339328L-84.15306782364019,-113.58292508514025L-82.1502706070484,-135.65772410850926zM-82.1502706070484,-135.65772410850926L-80.78371198352048,-112.62333344394979L-78.52572021921361,-138.575723099161zM-87.56690007943983,-129.21863371000043L-86.8291084986302,-115.15387830533864L-85.2024979481069,-132.50037556339328zM-78.52572021921361,-138.575723099161L-76.84850307509238,-112.3187313595715L-74.4631101099243,-141.1488067401782zM-89.15093439432196,-125.93328171855947L-88.71439071344474,-117.26897593517795L-87.56690007943983,-129.21863371000043zM-74.4631101099243,-141.1488067401782L-72.50043895192526,-112.68640267032802L-70.11110666369426,-143.28385166412835z" style="fill:rgb(83,212,212)"/><path d="M-86.8291084986302,-115.15387830533864L-60.01778821681134,-68.63189947669363L-84.15306782364019,-113.58292508514025z" style="fill:rgb(34,46,160)"/><path d="M-43.93987488218065,-133.28547582398207L-20.838944054502328,-90.71700966534975L-43.340007648517684,-136.4649764740875z" style="fill:rgb(246,149,167)"/><path d="M-89.74439804758183,-119.84105063279543L-89.15093439432196,-125.93328171855947L-89.8887410576586,-122.76718643721092zM-70.11110666369426,-143.28385166412835L-67.91190567131883,-113.71575280043888L-65.62812349352583,-144.90294641836743zM-65.62812349352583,-144.90294641836743L-63.267257958307,-115.36812023489348L-61.17753099558655,-145.94573378786177zM-61.17753099558655,-145.94573378786177L-58.75450526526487,-117.57809662202206L-56.922699965718145,-146.3715125032216zM-89.15093439432196,-125.93328171855947L-89.74439804758183,-119.84105063279543L-88.71439071344474,-117.26897593517795z" style="fill:rgb(83,212,212)"/><path d="M-84.15306782364019,-113.58292508514025L-56.709276671426466,-67.57816909975656L-80.78371198352048,-112.62333344394979z" style="fill:rgb(51,38,177)"/><path d="M-45.430645205764655,-129.94207970873148L-21.34508738610271,-87.5183270839062L-43.93987488218065,-133.28547582398207z" style="fill:rgb(242,130,183)"/><path d="M-56.922699965718145,-146.3715125032216L-54.55653749389968,-120.25633343850362L-53.0218222054101,-146.16080878694137zM-87.56690007943983,-129.21863371000043L-88.71439071344474,-117.26897593517795L-86.8291084986302,-115.15387830533864z" style="fill:rgb(83,212,212)"/><path d="M-56.709276671426466,-67.57816909975656L-76.84850307509238,-112.3187313595715L-80.78371198352048,-112.62333344394979z" style="fill:rgb(71,33,192)"/><path d="M-53.0218222054101,-146.16080878694137L-50.84263300442458,-123.29370412673393L-49.62267769135462,-145.3166201738514zM-85.2024979481069,-132.50037556339328L-86.8291084986302,-115.15387830533864L-84.15306782364019,-113.58292508514025z" style="fill:rgb(83,212,212)"/><path d="M-47.76066801508325,-126.56645075532214L-22.71443224126268,-84.1775501299705L-45.430645205764655,-129.94207970873148z" style="fill:rgb(233,112,197)"/><path d="M-49.62267769135462,-145.3166201738514L-47.76066801508325,-126.56645075532214L-46.85728349858763,-143.8650055615707zM-82.1502706070484,-135.65772410850926L-84.15306782364019,-113.58292508514025L-80.78371198352048,-112.62333344394979z" style="fill:rgb(83,212,212)"/><path d="M-52.86727148179198,-67.17177986922088L-72.50043895192526,-112.68640267032802L-76.84850307509238,-112.3187313595715z" style="fill:rgb(92,32,204)"/><path d="M-50.84263300442458,-123.29370412673393L-24.89970730642305,-80.82631102960491L-47.76066801508325,-126.56645075532214z" style="fill:rgb(220,94,208)"/><path d="M-46.85728349858763,-143.8650055615707L-45.430645205764655,-129.94207970873148L-44.83667317651106,-141.855012813523zM-78.52572021921361,-138.575723099161L-80.78371198352048,-112.62333344394979L-76.84850307509238,-112.3187313595715z" style="fill:rgb(83,212,212)"/><path d="M-48.64122128982153,-67.43381053297637L-67.91190567131883,-113.71575280043888L-72.50043895192526,-112.68640267032802z" style="fill:rgb(115,34,214)"/><path d="M-44.83667317651106,-141.855012813523L-43.93987488218065,-133.28547582398207L-43.64596716018994,-139.35783281822984z" style="fill:rgb(83,212,212)"/><path d="M-54.55653749389968,-120.25633343850362L-27.819149965484257,-77.59867238524149L-50.84263300442458,-123.29370412673393z" style="fill:rgb(203,77,216)"/><path d="M-74.4631101099243,-141.1488067401782L-76.84850307509238,-112.3187313595715L-72.50043895192526,-112.68640267032802z" style="fill:rgb(83,212,212)"/><path d="M-44.19857133400638,-68.35775142232646L-63.267257958307,-115.36812023489348L-67.91190567131883,-113.71575280043888z" style="fill:rgb(139,40,220)"/><path d="M-35.379324634047705,-72.02675707581095L-54.55653749389968,-120.25633343850362L-58.75450526526487,-117.57809662202206z" style="fill:rgb(183,62,221)"/><path d="M-39.717589574336664,-69.90914396088655L-58.75450526526487,-117.57809662202206L-63.267257958307,-115.36812023489348z" style="fill:rgb(162,50,222)"/><path d="M-70.11110666369426,-143.28385166412835L-72.50043895192526,-112.68640267032802L-67.91190567131883,-113.71575280043888zM-43.64596716018994,-139.35783281822984L-43.93987488218065,-133.28547582398207L-43.340007648517684,-136.4649764740875zM-65.62812349352583,-144.90294641836743L-67.91190567131883,-113.71575280043888L-63.267257958307,-115.36812023489348zM-44.83667317651106,-141.855012813523L-45.430645205764655,-129.94207970873148L-43.93987488218065,-133.28547582398207zM-61.17753099558655,-145.94573378786177L-63.267257958307,-115.36812023489348L-58.75450526526487,-117.57809662202206zM-46.85728349858763,-143.8650055615707L-47.76066801508325,-126.56645075532214L-45.430645205764655,-129.94207970873148zM-56.922699965718145,-146.3715125032216L-58.75450526526487,-117.57809662202206L-54.55653749389968,-120.25633343850362zM-49.62267769135462,-145.3166201738514L-50.84263300442458,-123.29370412673393L-47.76066801508325,-126.56645075532214zM-53.0218222054101,-146.16080878694137L-54.55653749389968,-120.25633343850362L-50.84263300442458,-123.29370412673393z" style="fill:rgb(83,212,212)"/></svg>
