<?xml version="1.0" encoding="UTF-8"?>
<!-- Generated by jsxcad -->
<!DOCTYPE svg PUBLIC "-//W3C//DTD SVG 1.1 Tiny//EN" "http://www.w3.org/Graphics/SVG/1.1/DTD/svg11-tiny.dtd">
<svg viewBox="-250 -250 500 500" width="500" height="500" xmlns="http://www.w3.org/2000/svg"><path d="M61.34340867713091,64.4051174149521L61.0027759043408,61.565274598835956L61.343350891403645,64.40510248251152z" style="fill:rgb(80,211,211)"/><path d="M61.34340867713091,64.4051174149521L61.343350891403645,64.40510248251152L59.64202202489329,64.02766996169882z" style="fill:rgb(112,242,180)"/><path d="M62.9879980352073,64.87947428369237L61.34340867713091,64.4051174149521L61.343350891403645,64.40510248251152z" style="fill:rgb(47,100,222)"/><path d="M65.30027751853142,105.48041951783216L63.69453637549732,106.77679219249552L63.6944797838421,106.77683812146181z" style="fill:rgb(207,32,154)"/><path d="M62.01524841448149,108.00266762538675L63.6944797838421,106.77683812146181L63.69453637549732,106.77679219249552z" style="fill:rgb(112,180,242)"/><path d="M33.71111267981462,68.90366978070927L35.48280931659449,67.96571821364469L-64.84183219311123,-127.15602445063071z" style="fill:rgb(168,53,222)"/><path d="M35.48280931659449,67.96571821364469L37.294365360366584,67.10914391358504L-62.67527738974331,-128.20004326956712z" style="fill:rgb(160,49,222)"/><path d="M31.985792796638393,69.91955772814381L33.71111267981462,68.90366978070927L-66.97140864314214,-126.03551316990091z" style="fill:rgb(175,57,222)"/><path d="M37.294365360366584,67.10914391358504L39.13912570940005,66.33711722368987L-60.479575582910066,-129.16372639983157z" style="fill:rgb(153,46,222)"/><path d="M30.313203892737334,71.00968244315719L31.985792796638393,69.91955772814381L-69.0562852060502,-124.84252347037301z" style="fill:rgb(181,61,221)"/><path d="M39.13912570940005,66.33711722368987L41.01032387494623,65.65251605791595L-58.26267608836671,-130.04357531520776z" style="fill:rgb(146,43,221)"/><path d="M28.699539513330844,72.17006775118207L30.313203892737334,71.00968244315719L-71.08889613114593,-123.58137958133705z" style="fill:rgb(188,65,220)"/><path d="M41.01032387494623,65.65251605791595L42.90109056881807,65.05792912032196L-56.03259904224473,-130.83630977317566z" style="fill:rgb(138,40,220)"/><path d="M27.150789005908123,73.39649802973344L28.699539513330844,72.17006775118207L-73.06182847943941,-122.25659560058665z" style="fill:rgb(194,70,219)"/><path d="M42.90109056881807,65.05792912032196L44.804478413324084,64.55563535328274L-53.797433154404985,-131.53894241919556z" style="fill:rgb(131,38,218)"/><path d="M25.672738839029773,74.68453656004813L27.150789005908123,73.39649802973344L-74.96785306279789,-120.87290316451775z" style="fill:rgb(200,75,217)"/><path d="M44.804478413324084,64.55563535328274L46.71347667345562,64.14759912738283L-51.56529592661346,-132.14877138720695z" style="fill:rgb(123,36,216)"/><path d="M24.27094504425991,76.02951121230191L25.672738839029773,74.68453656004813L-76.7999581946802,-119.43526138186255z" style="fill:rgb(206,80,215)"/><path d="M46.71347667345562,64.14759912738283L48.621043816980084,63.83548203180785L-49.3443348196273,-132.66341438095606z" style="fill:rgb(116,34,214)"/><path d="M22.95072269216123,77.42653977302088L24.27094504425991,76.02951121230191L-78.55134852929378,-117.94880954762341z" style="fill:rgb(212,85,213)"/><path d="M48.621043816980084,63.83548203180785L50.52011147311977,63.620601065980345L-47.14268778245856,-133.08079176776246z" style="fill:rgb(108,33,211)"/><path d="M21.71711760519728,78.87053844741887L22.95072269216123,77.42653977302088L-80.2154592163548,-116.41887782092601z" style="fill:rgb(217,91,210)"/><path d="M50.52011147311977,63.620601065980345L52.40361827164989,63.503957501695936L-44.96846627567775,-133.39912820578513z" style="fill:rgb(101,32,208)"/><path d="M20.574899286208804,80.35625108120682L21.71711760519728,78.87053844741887L-81.7860159379776,-114.85096967653347z" style="fill:rgb(222,96,207)"/><path d="M52.40361827164989,63.503957501695936L54.26451988577557,63.48620139170548L-42.829727367416936,-133.6169876544088z" style="fill:rgb(94,32,205)"/><path d="M19.528538330952514,81.87823945919291L20.574899286208804,80.35625108120682L-83.2570067652654,-113.25072727491145z" style="fill:rgb(226,102,203)"/><path d="M54.26451988577557,63.48620139170548L56.09582535142216,63.56765263414562L-40.73446177621717,-133.73327656161425z" style="fill:rgb(86,32,201)"/><path d="M18.58219239032435,83.4309193230163L19.528538330952514,81.87823945919291L-84.62274017986007,-111.62395377384021z" style="fill:rgb(230,108,199)"/><path d="M56.09582535142216,63.56765263414562L57.89060387031383,63.74827494257225L-38.69055995830584,-133.74722251899448z" style="fill:rgb(79,32,198)"/><path d="M17.739685977159898,85.00856414837594L18.58219239032435,83.4309193230163L-85.87785003320917,-109.97656444373908z" style="fill:rgb(234,114,195)"/><path d="M57.89060387031383,63.74827494257225L59.64202202489329,64.02766996169882L-36.70578004323211,-133.6584118613918z" style="fill:rgb(73,33,193)"/><path d="M17.004499383158656,86.60531384328246L17.739685977159898,85.00856414837594L-87.01730319681204,-108.31459779814595z" style="fill:rgb(237,120,191)"/><path d="M59.64202202489329,64.02766996169882L61.343350891403645,64.40510248251152L-34.787746169471525,-133.4667942539103z" style="fill:rgb(66,34,189)"/><path d="M16.379748822385835,88.2152158517284L17.004499383158656,86.60531384328246L-88.03644569910891,-106.64417476294197z" style="fill:rgb(240,125,187)"/><path d="M61.343350891403645,64.40510248251152L62.9879980352073,64.87947428369237L-32.943892445538204,-133.17268201031558z" style="fill:rgb(60,35,184)"/><path d="M15.868173971088545,89.83222558421683L16.379748822385835,88.2152158517284L-88.93100832837851,-104.97149620090059z" style="fill:rgb(242,131,182)"/><path d="M62.9879980352073,64.87947428369237L64.56954154523385,65.44932293235924L-31.181459496647605,-132.77674735641943z" style="fill:rgb(54,37,179)"/><path d="M15.472117665648742,91.4502324929716L15.868173971088545,89.83222558421683L-89.69713292248987,-103.30283590841522z" style="fill:rgb(244,137,177)"/><path d="M64.56954154523385,65.44932293235924L66.08173755419772,66.11282931366908L-29.50745496992042,-132.28004528745208z" style="fill:rgb(48,39,174)"/><path d="M15.193522876123422,93.0630788629154L15.472117665648742,91.4502324929716L-90.3313738550238,-101.6444847431516z" style="fill:rgb(245,143,172)"/><path d="M66.08173755419772,66.11282931366908L67.51853832950314,66.8678156209155L-27.92863404707497,-131.68398353104325z" style="fill:rgb(42,41,169)"/><path d="M15.033907308245155,94.66456127184168L15.193522876123422,93.0630788629154L-90.83074489421368,-100.00276672905285z" style="fill:rgb(246,149,166)"/><path d="M67.51853832950314,66.8678156209155L68.87415014947955,67.71175077739343L-26.451459106445615,-130.99036516391573z" style="fill:rgb(37,44,163)"/><path d="M14.994359267613763,96.24849230334428L15.033907308245155,94.66456127184168L-91.1927125480974,-98.38399130658904z" style="fill:rgb(247,155,161)"/><path d="M68.87415014947955,67.71175077739343L70.14301939043938,68.64173803167806L-25.082084084628598,-130.2013900633288z" style="fill:rgb(32,47,158)"/><path d="M15.075524848441185,97.8086821751705L14.994359267613763,96.24849230334428L-91.41524850214661,-96.7944701797957z" style="fill:rgb(247,161,155)"/><path d="M70.14301939043938,68.64173803167806L71.31988487967979,69.65454299210177L-23.826317179505622,-129.31959026173192z" style="fill:rgb(28,51,152)"/><path d="M15.27759536419569,99.33899765868735L15.075524848441185,97.8086821751705L-91.49679644623131,-95.24043050607595z" style="fill:rgb(246,166,149)"/><path d="M71.31988487967979,69.65454299210177L72.39979199580928,70.74658840379595L-22.68959840419369,-128.3479226615427z" style="fill:rgb(24,55,146)"/><path d="M15.600301500802502,100.83335482322565L15.27759536419569,99.33899765868735L-91.43634250108721,-93.72805935487084z" style="fill:rgb(245,172,143)"/><path d="M72.39979199580928,70.74658840379595L73.3781045548397,71.91395827722309L-21.67696488338175,-127.28969121253134z" style="fill:rgb(20,59,140)"/><path d="M16.042907476364082,102.28574860004454L15.600301500802502,100.83335482322565L-91.23337316494823,-92.26343304195314z" style="fill:rgb(244,177,137)"/><path d="M73.3781045548397,71.91395827722309L74.2505517985193,73.15240530716432L-20.79302998452598,-126.14858997070283z" style="fill:rgb(17,63,135)"/><path d="M16.60419838312523,103.69030370698559L16.042907476364082,102.28574860004454L-90.88794205161739,-90.85252370286285z" style="fill:rgb(242,182,131)"/><path d="M74.2505517985193,73.15240530716432L75.01323709172051,74.45737543612091L-20.041950446984707,-124.92863708216852z" style="fill:rgb(14,67,129)"/><path d="M17.282488406289456,105.04127796496364L16.60419838312523,103.69030370698559L-90.40064653028115,-89.50113577792412z" style="fill:rgb(240,187,125)"/><path d="M-93.23138447935008,-86.31287591439178L14.42741780270218,106.63945215851754L15.295452468892671,108.06337948752692z" style="fill:rgb(17,63,135)"/><path d="M-15.308234165671307,-123.78311156558642L79.2465604359865,76.05964142799726L78.65513196699557,74.49581893636268z" style="fill:rgb(244,177,137)"/><path d="M-92.39424225090524,-84.97157073827259L15.295452468892671,108.06337948752692L16.28721114944708,109.41664766335707z" style="fill:rgb(20,59,140)"/><path d="M-14.935210530645723,-122.21358806712905L79.70719044552742,77.68015089138538L79.2465604359865,76.05964142799726z" style="fill:rgb(245,172,143)"/><path d="M16.28721114944708,109.41664766335707L17.39932377648453,110.693514449947L-90.27093272174564,-82.54347364051442z" style="fill:rgb(24,55,146)"/><path d="M-14.721114714751963,-120.5783094803028L80.03455987637676,79.35112762635397L79.70719044552742,77.68015089138538z" style="fill:rgb(246,166,149)"/><path d="M-90.27093272174564,-82.54347364051442L17.39932377648453,110.693514449947L18.62789905385152,111.88847215421661z" style="fill:rgb(28,51,152)"/><path d="M-14.667724748276974,-118.88349448083618L80.22670535829445,81.06608736570641L80.03455987637676,79.35112762635397z" style="fill:rgb(247,161,155)"/><path d="M-88.99157375276346,-81.46743442168324L18.62789905385152,111.88847215421661L19.968528544126343,112.99632101648082z" style="fill:rgb(32,47,158)"/><path d="M-14.776168262086674,-117.1357098709984L80.28221784242211,82.81828960277146L80.22670535829445,81.06608736570641z" style="fill:rgb(247,155,161)"/><path d="M-87.57268908275465,-80.49005482076988L19.968528544126343,112.99632101648082L21.416292175037814,114.01214520736343z" style="fill:rgb(37,44,163)"/><path d="M-15.046899839963583,-115.34179650397105L80.20024229015685,84.60079189259157L80.28221784242211,82.81828960277146z" style="fill:rgb(246,149,166)"/><path d="M21.416292175037814,114.01214520736343L22.965781882156232,114.93141251009568L-84.33698730558629,-78.84901028309311z" style="fill:rgb(42,41,169)"/><path d="M-15.479687732962905,-113.50889481727286L79.98050754697651,86.40644187639087L80.20024229015685,84.60079189259157z" style="fill:rgb(245,143,172)"/><path d="M-84.33698730558629,-78.84901028309311L22.965781882156232,114.93141251009568L24.611106311719094,115.74992431527446z" style="fill:rgb(48,39,174)"/><path d="M-16.073595074263924,-111.64436529137046L79.62330144044631,88.22794240286014L79.98050754697651,86.40644187639087z" style="fill:rgb(244,137,177)"/><path d="M-82.53204852245956,-78.19324342367915L24.611106311719094,115.74992431527446L26.34591529376006,116.46388340682007z" style="fill:rgb(54,37,179)"/><path d="M-16.826975651202915,-109.75578285287686L79.1295281242778,90.05786876436989L79.62330144044631,88.22794240286014z" style="fill:rgb(242,131,182)"/><path d="M-80.61129960884922,-77.65183484859605L26.34591529376006,116.46388340682007L28.163419414833815,117.06992789492625z" style="fill:rgb(60,35,184)"/><path d="M-17.737464639451506,-107.85091811172883L78.5006708640021,91.88868203450525L79.1295281242778,90.05786876436989z" style="fill:rgb(240,125,187)"/><path d="M-78.58216661117338,-77.22762683988674L28.163419414833815,117.06992789492625L30.05642486776084,117.56510043826681z" style="fill:rgb(66,34,189)"/><path d="M-18.801985495918846,-105.93766830038597L77.73881678722285,93.71280087586737L78.5006708640021,91.88868203450525z" style="fill:rgb(237,120,191)"/><path d="M-76.4526149542572,-76.9229365581294L30.05642486776084,117.56510043826681L32.017348429402105,117.94694448138736z" style="fill:rgb(73,33,193)"/><path d="M-20.016737934331847,-104.02405267321407L76.8466463641912,95.52260231240949L77.73881678722285,93.71280087586737z" style="fill:rgb(234,114,195)"/><path d="M-74.23113579788702,-76.739603490976L32.017348429402105,117.94694448138736L34.03824922266879,118.21344541985582z" style="fill:rgb(79,32,198)"/><path d="M-21.37721506355652,-102.11815772244948L75.82744874493595,97.31047650976612L76.8466463641912,95.52260231240949z" style="fill:rgb(230,108,199)"/><path d="M-71.92669116284061,-76.67891451660795L34.03824922266879,118.21344541985582L36.110877116169334,118.3631310654597z" style="fill:rgb(86,32,201)"/><path d="M-22.878217181678526,-100.22809280201622L74.68507333047381,99.06886557299181L75.82744874493595,97.31047650976612z" style="fill:rgb(226,102,203)"/><path d="M-69.54870236023119,-76.7416143925882L36.110877116169334,118.3631310654597L38.22669383376023,118.39499214645475z" style="fill:rgb(94,32,205)"/><path d="M-24.513866365754804,-98.36196281037418L73.4239566145631,100.7902898026264L74.68507333047381,99.06886557299181z" style="fill:rgb(222,96,207)"/><path d="M-67.10700803280315,-76.9279122087737L38.22669383376023,118.39499214645475L40.37692295110619,118.30856004867859z" style="fill:rgb(101,32,208)"/><path d="M-26.277621107717472,-96.52780448369971L72.04909110547763,102.46740332951784L73.4239566145631,100.7902898026264z" style="fill:rgb(217,91,210)"/><path d="M-64.61178031958806,-77.23744349749315L40.37692295110619,118.30856004867859L42.55258560040236,118.10389717032893z" style="fill:rgb(108,33,211)"/><path d="M70.56599134313029,104.09301524334887L72.04909110547763,102.46740332951784L-26.277621107717472,-96.52780448369971z" style="fill:rgb(212,85,213)"/><path d="M-62.073531907050786,-77.66926410717467L42.55258560040236,118.10389717032893L44.744538709132875,117.78159897941286z" style="fill:rgb(116,34,214)"/><path d="M-30.160189226732818,-92.98706825627231L68.98070769816871,105.6601240922967L70.56599134313029,104.09301524334887z" style="fill:rgb(206,80,215)"/><path d="M-59.50301174847246,-78.22186032898107L44.744538709132875,117.78159897941286L46.9435394615455,117.34278308705967z" style="fill:rgb(123,36,216)"/><path d="M-32.2629009103322,-91.29591340676936L67.29975437747092,107.161989803828L68.98070769816871,105.6601240922967z" style="fill:rgb(200,75,217)"/><path d="M-56.91119339724237,-78.89317684736329L46.9435394615455,117.34278308705967L49.14026437468089,116.78909396425156z" style="fill:rgb(131,38,218)"/><path d="M-34.46159624312897,-89.6675158688733L65.5301207436199,108.59211606538176L67.29975437747092,107.161989803828z" style="fill:rgb(194,70,219)"/><path d="M-54.3091805029689,-79.68056503436144L49.14026437468089,116.78909396425156L51.325383550131825,116.12274451036652z" style="fill:rgb(138,40,220)"/><path d="M-36.74694528448594,-88.10898260141374L63.67921146017277,109.94433924707259L65.5301207436199,108.59211606538176z" style="fill:rgb(188,65,220)"/><path d="M-51.708184885088265,-80.58083149237005L51.325383550131825,116.12274451036652L53.48958556198594,115.34640483045924z" style="fill:rgb(146,43,221)"/><path d="M-39.109181759634474,-86.62714776907731L61.754821854449645,111.21283418051269L63.67921146017277,109.94433924707259z" style="fill:rgb(181,61,221)"/><path d="M-49.11943080559783,-81.590251551414L53.48958556198594,115.34640483045924L55.623647570831814,114.46331228669744z" style="fill:rgb(153,46,222)"/><path d="M-41.538150254882524,-85.2284809754673L59.76508673961382,112.39212410279244L61.754821854449645,111.21283418051269z" style="fill:rgb(175,57,222)"/><path d="M-46.55412713333121,-82.70458820474005L55.623647570831814,114.46331228669744L57.71845365211658,113.4771684831568z" style="fill:rgb(160,49,222)"/><path d="M-44.023381694755415,-83.91906767474647L57.71845365211658,113.4771684831568L59.76508673961382,112.39212410279244zM-64.84183219311123,-127.15602445063071L-66.97140864314214,-126.03551316990091L33.71111267981462,68.90366978070927z" style="fill:rgb(168,53,222)"/><path d="M-62.67527738974331,-128.20004326956712L-64.84183219311123,-127.15602445063071L35.48280931659449,67.96571821364469z" style="fill:rgb(160,49,222)"/><path d="M-66.97140864314214,-126.03551316990091L-69.0562852060502,-124.84252347037301L31.985792796638393,69.91955772814381z" style="fill:rgb(175,57,222)"/><path d="M-60.479575582910066,-129.16372639983157L-62.67527738974331,-128.20004326956712L37.294365360366584,67.10914391358504z" style="fill:rgb(153,46,222)"/><path d="M-69.0562852060502,-124.84252347037301L-71.08889613114593,-123.58137958133705L30.313203892737334,71.00968244315719z" style="fill:rgb(181,61,221)"/><path d="M-58.26267608836671,-130.04357531520776L-60.479575582910066,-129.16372639983157L39.13912570940005,66.33711722368987z" style="fill:rgb(146,43,221)"/><path d="M-71.08889613114593,-123.58137958133705L-73.06182847943941,-122.25659560058665L28.699539513330844,72.17006775118207z" style="fill:rgb(188,65,220)"/><path d="M-56.03259904224473,-130.83630977317566L-58.26267608836671,-130.04357531520776L41.01032387494623,65.65251605791595z" style="fill:rgb(138,40,220)"/><path d="M-73.06182847943941,-122.25659560058665L-74.96785306279789,-120.87290316451775L27.150789005908123,73.39649802973344z" style="fill:rgb(194,70,219)"/><path d="M-53.797433154404985,-131.53894241919556L-56.03259904224473,-130.83630977317566L42.90109056881807,65.05792912032196z" style="fill:rgb(131,38,218)"/><path d="M-74.96785306279789,-120.87290316451775L-76.7999581946802,-119.43526138186255L25.672738839029773,74.68453656004813z" style="fill:rgb(200,75,217)"/><path d="M-51.56529592661346,-132.14877138720695L-53.797433154404985,-131.53894241919556L44.804478413324084,64.55563535328274z" style="fill:rgb(123,36,216)"/><path d="M-76.7999581946802,-119.43526138186255L-78.55134852929378,-117.94880954762341L24.27094504425991,76.02951121230191z" style="fill:rgb(206,80,215)"/><path d="M-49.3443348196273,-132.66341438095606L-51.56529592661346,-132.14877138720695L46.71347667345562,64.14759912738283z" style="fill:rgb(116,34,214)"/><path d="M-78.55134852929378,-117.94880954762341L-80.2154592163548,-116.41887782092601L22.95072269216123,77.42653977302088z" style="fill:rgb(212,85,213)"/><path d="M-47.14268778245856,-133.08079176776246L-49.3443348196273,-132.66341438095606L48.621043816980084,63.83548203180785z" style="fill:rgb(108,33,211)"/><path d="M-80.2154592163548,-116.41887782092601L-81.7860159379776,-114.85096967653347L21.71711760519728,78.87053844741887z" style="fill:rgb(217,91,210)"/><path d="M-44.96846627567775,-133.39912820578513L-47.14268778245856,-133.08079176776246L50.52011147311977,63.620601065980345z" style="fill:rgb(101,32,208)"/><path d="M-81.7860159379776,-114.85096967653347L-83.2570067652654,-113.25072727491145L20.574899286208804,80.35625108120682z" style="fill:rgb(222,96,207)"/><path d="M-42.829727367416936,-133.6169876544088L-44.96846627567775,-133.39912820578513L52.40361827164989,63.503957501695936z" style="fill:rgb(94,32,205)"/><path d="M-83.2570067652654,-113.25072727491145L-84.62274017986007,-111.62395377384021L19.528538330952514,81.87823945919291z" style="fill:rgb(226,102,203)"/><path d="M-40.73446177621717,-133.73327656161425L-42.829727367416936,-133.6169876544088L54.26451988577557,63.48620139170548z" style="fill:rgb(86,32,201)"/><path d="M-84.62274017986007,-111.62395377384021L-85.87785003320917,-109.97656444373908L18.58219239032435,83.4309193230163z" style="fill:rgb(230,108,199)"/><path d="M-38.69055995830584,-133.74722251899448L-40.73446177621717,-133.73327656161425L56.09582535142216,63.56765263414562z" style="fill:rgb(79,32,198)"/><path d="M-85.87785003320917,-109.97656444373908L-87.01730319681204,-108.31459779814595L17.739685977159898,85.00856414837594z" style="fill:rgb(234,114,195)"/><path d="M-36.70578004323211,-133.6584118613918L-38.69055995830584,-133.74722251899448L57.89060387031383,63.74827494257225z" style="fill:rgb(73,33,193)"/><path d="M-87.01730319681204,-108.31459779814595L-88.03644569910891,-106.64417476294197L17.004499383158656,86.60531384328246z" style="fill:rgb(237,120,191)"/><path d="M-34.787746169471525,-133.4667942539103L-36.70578004323211,-133.6584118613918L59.64202202489329,64.02766996169882z" style="fill:rgb(66,34,189)"/><path d="M-88.03644569910891,-106.64417476294197L-88.93100832837851,-104.97149620090059L16.379748822385835,88.2152158517284z" style="fill:rgb(240,125,187)"/><path d="M-32.943892445538204,-133.17268201031558L-34.787746169471525,-133.4667942539103L61.343350891403645,64.40510248251152z" style="fill:rgb(60,35,184)"/><path d="M-88.93100832837851,-104.97149620090059L-89.69713292248987,-103.30283590841522L15.868173971088545,89.83222558421683z" style="fill:rgb(242,131,182)"/><path d="M-31.181459496647605,-132.77674735641943L-32.943892445538204,-133.17268201031558L62.9879980352073,64.87947428369237z" style="fill:rgb(54,37,179)"/><path d="M-89.69713292248987,-103.30283590841522L-90.3313738550238,-101.6444847431516L15.472117665648742,91.4502324929716z" style="fill:rgb(244,137,177)"/><path d="M-29.50745496992042,-132.28004528745208L-31.181459496647605,-132.77674735641943L64.56954154523385,65.44932293235924z" style="fill:rgb(48,39,174)"/><path d="M-90.3313738550238,-101.6444847431516L-90.83074489421368,-100.00276672905285L15.193522876123422,93.0630788629154z" style="fill:rgb(245,143,172)"/><path d="M-27.92863404707497,-131.68398353104325L-29.50745496992042,-132.28004528745208L66.08173755419772,66.11282931366908z" style="fill:rgb(42,41,169)"/><path d="M-90.83074489421368,-100.00276672905285L-91.1927125480974,-98.38399130658904L15.033907308245155,94.66456127184168z" style="fill:rgb(246,149,166)"/><path d="M-26.451459106445615,-130.99036516391573L-27.92863404707497,-131.68398353104325L67.51853832950314,66.8678156209155z" style="fill:rgb(37,44,163)"/><path d="M-91.1927125480974,-98.38399130658904L-91.41524850214661,-96.7944701797957L14.994359267613763,96.24849230334428z" style="fill:rgb(247,155,161)"/><path d="M-25.082084084628598,-130.2013900633288L-26.451459106445615,-130.99036516391573L68.87415014947955,67.71175077739343z" style="fill:rgb(32,47,158)"/><path d="M-91.41524850214661,-96.7944701797957L-91.49679644623131,-95.24043050607595L15.075524848441185,97.8086821751705z" style="fill:rgb(247,161,155)"/><path d="M-23.826317179505622,-129.31959026173192L-25.082084084628598,-130.2013900633288L70.14301939043938,68.64173803167806z" style="fill:rgb(28,51,152)"/><path d="M-91.49679644623131,-95.24043050607595L-91.43634250108721,-93.72805935487084L15.27759536419569,99.33899765868735z" style="fill:rgb(246,166,149)"/><path d="M-22.68959840419369,-128.3479226615427L-23.826317179505622,-129.31959026173192L71.31988487967979,69.65454299210177z" style="fill:rgb(24,55,146)"/><path d="M-91.43634250108721,-93.72805935487084L-91.23337316494823,-92.26343304195314L15.600301500802502,100.83335482322565z" style="fill:rgb(245,172,143)"/><path d="M-21.67696488338175,-127.28969121253134L-22.68959840419369,-128.3479226615427L72.39979199580928,70.74658840379595z" style="fill:rgb(20,59,140)"/><path d="M-91.23337316494823,-92.26343304195314L-90.88794205161739,-90.85252370286285L16.042907476364082,102.28574860004454z" style="fill:rgb(244,177,137)"/><path d="M-20.79302998452598,-126.14858997070283L-21.67696488338175,-127.28969121253134L73.3781045548397,71.91395827722309z" style="fill:rgb(17,63,135)"/><path d="M-90.88794205161739,-90.85252370286285L-90.40064653028115,-89.50113577792412L16.60419838312523,103.69030370698559z" style="fill:rgb(242,182,131)"/><path d="M-20.041950446984707,-124.92863708216852L-20.79302998452598,-126.14858997070283L74.2505517985193,73.15240530716432z" style="fill:rgb(14,67,129)"/><path d="M-90.40064653028115,-89.50113577792412L-89.77266221907811,-88.21491378994511L17.282488406289456,105.04127796496364z" style="fill:rgb(240,187,125)"/><path d="M15.295452468892671,108.06337948752692L-92.39424225090524,-84.97157073827259L-93.23138447935008,-86.31287591439178z" style="fill:rgb(17,63,135)"/><path d="M78.65513196699557,74.49581893636268L-15.837773976794718,-125.28096523297985L-15.308234165671307,-123.78311156558642z" style="fill:rgb(244,177,137)"/><path d="M16.28721114944708,109.41664766335707L-91.40639263999188,-83.71325690638413L-92.39424225090524,-84.97157073827259z" style="fill:rgb(20,59,140)"/><path d="M79.2465604359865,76.05964142799726L-15.308234165671307,-123.78311156558642L-14.935210530645723,-122.21358806712905z" style="fill:rgb(245,172,143)"/><path d="M-90.27093272174564,-82.54347364051442L-91.40639263999188,-83.71325690638413L16.28721114944708,109.41664766335707z" style="fill:rgb(24,55,146)"/><path d="M79.70719044552742,77.68015089138538L-14.935210530645723,-122.21358806712905L-14.721114714751963,-120.5783094803028z" style="fill:rgb(246,166,149)"/><path d="M18.62789905385152,111.88847215421661L-88.99157375276346,-81.46743442168324L-90.27093272174564,-82.54347364051442z" style="fill:rgb(28,51,152)"/><path d="M80.03455987637676,79.35112762635397L-14.721114714751963,-120.5783094803028L-14.667724748276974,-118.88349448083618z" style="fill:rgb(247,161,155)"/><path d="M19.968528544126343,112.99632101648082L-87.57268908275465,-80.49005482076988L-88.99157375276346,-81.46743442168324z" style="fill:rgb(32,47,158)"/><path d="M80.22670535829445,81.06608736570641L-14.667724748276974,-118.88349448083618L-14.776168262086674,-117.1357098709984z" style="fill:rgb(247,155,161)"/><path d="M21.416292175037814,114.01214520736343L-86.01928710100817,-79.61585999563657L-87.57268908275465,-80.49005482076988z" style="fill:rgb(37,44,163)"/><path d="M80.28221784242211,82.81828960277146L-14.776168262086674,-117.1357098709984L-15.046899839963583,-115.34179650397105z" style="fill:rgb(246,149,166)"/><path d="M-84.33698730558629,-78.84901028309311L-86.01928710100817,-79.61585999563657L21.416292175037814,114.01214520736343z" style="fill:rgb(42,41,169)"/><path d="M80.20024229015685,84.60079189259157L-15.046899839963583,-115.34179650397105L-15.479687732962905,-113.50889481727286z" style="fill:rgb(245,143,172)"/><path d="M24.611106311719094,115.74992431527446L-82.53204852245956,-78.19324342367915L-84.33698730558629,-78.84901028309311z" style="fill:rgb(48,39,174)"/><path d="M79.98050754697651,86.40644187639087L-15.479687732962905,-113.50889481727286L-16.073595074263924,-111.64436529137046z" style="fill:rgb(244,137,177)"/><path d="M26.34591529376006,116.46388340682007L-80.61129960884922,-77.65183484859605L-82.53204852245956,-78.19324342367915z" style="fill:rgb(54,37,179)"/><path d="M79.62330144044631,88.22794240286014L-16.073595074263924,-111.64436529137046L-16.826975651202915,-109.75578285287686z" style="fill:rgb(242,131,182)"/><path d="M28.163419414833815,117.06992789492625L-78.58216661117338,-77.22762683988674L-80.61129960884922,-77.65183484859605z" style="fill:rgb(60,35,184)"/><path d="M79.1295281242778,90.05786876436989L-16.826975651202915,-109.75578285287686L-17.737464639451506,-107.85091811172883z" style="fill:rgb(240,125,187)"/><path d="M30.05642486776084,117.56510043826681L-76.4526149542572,-76.9229365581294L-78.58216661117338,-77.22762683988674z" style="fill:rgb(66,34,189)"/><path d="M78.5006708640021,91.88868203450525L-17.737464639451506,-107.85091811172883L-18.801985495918846,-105.93766830038597z" style="fill:rgb(237,120,191)"/><path d="M32.017348429402105,117.94694448138736L-74.23113579788702,-76.739603490976L-76.4526149542572,-76.9229365581294z" style="fill:rgb(73,33,193)"/><path d="M77.73881678722285,93.71280087586737L-18.801985495918846,-105.93766830038597L-20.016737934331847,-104.02405267321407z" style="fill:rgb(234,114,195)"/><path d="M34.03824922266879,118.21344541985582L-71.92669116284061,-76.67891451660795L-74.23113579788702,-76.739603490976z" style="fill:rgb(79,32,198)"/><path d="M76.8466463641912,95.52260231240949L-20.016737934331847,-104.02405267321407L-21.37721506355652,-102.11815772244948z" style="fill:rgb(230,108,199)"/><path d="M36.110877116169334,118.3631310654597L-69.54870236023119,-76.7416143925882L-71.92669116284061,-76.67891451660795z" style="fill:rgb(86,32,201)"/><path d="M75.82744874493595,97.31047650976612L-21.37721506355652,-102.11815772244948L-22.878217181678526,-100.22809280201622z" style="fill:rgb(226,102,203)"/><path d="M38.22669383376023,118.39499214645475L-67.10700803280315,-76.9279122087737L-69.54870236023119,-76.7416143925882z" style="fill:rgb(94,32,205)"/><path d="M74.68507333047381,99.06886557299181L-22.878217181678526,-100.22809280201622L-24.513866365754804,-98.36196281037418z" style="fill:rgb(222,96,207)"/><path d="M40.37692295110619,118.30856004867859L-64.61178031958806,-77.23744349749315L-67.10700803280315,-76.9279122087737z" style="fill:rgb(101,32,208)"/><path d="M73.4239566145631,100.7902898026264L-24.513866365754804,-98.36196281037418L-26.277621107717472,-96.52780448369971z" style="fill:rgb(217,91,210)"/><path d="M42.55258560040236,118.10389717032893L-62.073531907050786,-77.66926410717467L-64.61178031958806,-77.23744349749315z" style="fill:rgb(108,33,211)"/><path d="M-26.277621107717472,-96.52780448369971L-28.16231842194131,-94.73356726274294L70.56599134313029,104.09301524334887z" style="fill:rgb(212,85,213)"/><path d="M44.744538709132875,117.78159897941286L-59.50301174847246,-78.22186032898107L-62.073531907050786,-77.66926410717467z" style="fill:rgb(116,34,214)"/><path d="M70.56599134313029,104.09301524334887L-28.16231842194131,-94.73356726274294L-30.160189226732818,-92.98706825627231z" style="fill:rgb(206,80,215)"/><path d="M-63.396781560944596,-130.23618601071806L-65.7733923921795,-129.09075598518737L-68.1095428835488,-127.86161133692376z" style="fill:rgb(83,212,212)"/><path d="M46.9435394615455,117.34278308705967L-56.91119339724237,-78.89317684736329L-59.50301174847246,-78.22186032898107z" style="fill:rgb(123,36,216)"/><path d="M-63.396781560944596,-130.23618601071806L-68.1095428835488,-127.86161133692376L-72.62701080161351,-125.17012419590587zM-68.1095428835488,-127.86161133692376L-70.39682780055264,-126.55318599313107L-72.62701080161351,-125.17012419590587z" style="fill:rgb(83,212,212)"/><path d="M68.98070769816871,105.6601240922967L-30.160189226732818,-92.98706825627231L-32.2629009103322,-91.29591340676936z" style="fill:rgb(200,75,217)"/><path d="M-58.556346669870784,-132.25973106532896L-60.98821733643808,-131.29379623788856L-63.396781560944596,-130.23618601071806z" style="fill:rgb(83,212,212)"/><path d="M49.14026437468089,116.78909396425156L-54.3091805029689,-79.68056503436144L-56.91119339724237,-78.89317684736329z" style="fill:rgb(131,38,218)"/><path d="M-53.65763541190743,-133.9025666564589L-63.396781560944596,-130.23618601071806L-72.62701080161351,-125.17012419590587zM-53.65763541190743,-133.9025666564589L-58.556346669870784,-132.25973106532896L-63.396781560944596,-130.23618601071806z" style="fill:rgb(83,212,212)"/><path d="M67.29975437747092,107.161989803828L-32.2629009103322,-91.29591340676936L-34.46159624312897,-89.6675158688733z" style="fill:rgb(194,70,219)"/><path d="M-72.62701080161351,-125.17012419590587L-74.79203758674277,-123.71735986507387L-76.88403558376301,-122.20003023336456zM-53.65763541190743,-133.9025666564589L-56.10988609714172,-133.13039484590612L-58.556346669870784,-132.25973106532896z" style="fill:rgb(83,212,212)"/><path d="M51.325383550131825,116.12274451036652L-51.708184885088265,-80.58083149237005L-54.3091805029689,-79.68056503436144z" style="fill:rgb(138,40,220)"/><path d="M65.5301207436199,108.59211606538176L-34.46159624312897,-89.6675158688733L-36.74694528448594,-88.10898260141374z" style="fill:rgb(188,65,220)"/><path d="M-72.62701080161351,-125.17012419590587L-76.88403558376301,-122.20003023336456L-80.81857512107607,-118.99337003141449z" style="fill:rgb(83,212,212)"/><path d="M53.48958556198594,115.34640483045924L-49.11943080559783,-81.590251551414L-51.708184885088265,-80.58083149237005z" style="fill:rgb(146,43,221)"/><path d="M63.67921146017277,109.94433924707259L-36.74694528448594,-88.10898260141374L-39.109181759634474,-86.62714776907731z" style="fill:rgb(181,61,221)"/><path d="M-69.0562852060502,-124.84252347037301L-53.65763541190743,-133.9025666564589L-72.62701080161351,-125.17012419590587z" style="fill:rgb(83,212,212)"/><path d="M55.623647570831814,114.46331228669744L-46.55412713333121,-82.70458820474005L-49.11943080559783,-81.590251551414z" style="fill:rgb(153,46,222)"/><path d="M61.754821854449645,111.21283418051269L-39.109181759634474,-86.62714776907731L-41.538150254882524,-85.2284809754673z" style="fill:rgb(175,57,222)"/><path d="M57.71845365211658,113.4771684831568L-44.023381694755415,-83.91906767474647L-46.55412713333121,-82.70458820474005z" style="fill:rgb(160,49,222)"/><path d="M59.76508673961382,112.39212410279244L-41.538150254882524,-85.2284809754673L-44.023381694755415,-83.91906767474647z" style="fill:rgb(168,53,222)"/><path d="M-76.88403558376301,-122.20003023336456L-78.8953564824114,-120.62350083797615L-80.81857512107607,-118.99337003141449zM-71.08889613114593,-123.58137958133705L-69.0562852060502,-124.84252347037301L-72.62701080161351,-125.17012419590587zM-73.06189531512074,-122.25654613464052L-71.08889613114593,-123.58137958133705L-72.62701080161351,-125.17012419590587zM-66.97140864314214,-126.03551316990091L-64.84183219311123,-127.15602445063071L-53.65763541190743,-133.9025666564589zM-64.84183219311123,-127.15602445063071L-62.67527738974331,-128.20004326956712L-53.65763541190743,-133.9025666564589zM-69.0562852060502,-124.84252347037301L-66.97140864314214,-126.03551316990091L-53.65763541190743,-133.9025666564589zM-62.67527738974331,-128.20004326956712L-60.479575582910066,-129.16372639983157L-53.65763541190743,-133.9025666564589zM-74.96785306279789,-120.87290316451775L-73.06182847943941,-122.25659560058665L-72.62701080161351,-125.17012419590587zM-60.479575582910066,-129.16372639983157L-58.26267608836671,-130.04357531520776L-53.65763541190743,-133.9025666564589zM-51.20842609136063,-134.57326097039245L-53.65763541190743,-133.9025666564589L-53.797433154404985,-131.53894241919556zM-58.26267608836671,-130.04357531520776L-56.03259904224473,-130.83630977317566L-53.65763541190743,-133.9025666564589zM-76.7999581946802,-119.43526138186255L-74.96785306279789,-120.87290316451775L-72.62701080161351,-125.17012419590587zM-46.354596129873286,-135.60007920814502L-48.771128068580005,-135.1398615869164L-51.20842609136063,-134.57326097039245zM-56.03259904224473,-130.83630977317566L-53.797433154404985,-131.53894241919556L-53.65763541190743,-133.9025666564589zM-72.62701080161351,-125.17012419590587L-80.81857512107607,-118.99337003141449L-87.49175234183444,-112.05516492940633zM-78.55134852929378,-117.94880954762341L-76.7999581946802,-119.43526138186255L-72.62701080161351,-125.17012419590587zM-80.81857512107607,-118.99337003141449L-82.64655119418812,-117.31540984398744L-84.37239560600409,-115.59560214502154z" style="fill:rgb(83,212,212)"/><path d="M-74.96785306279789,-120.87290316451775L-73.06189531512074,-122.25654613464052L-73.06182847943941,-122.25659560058665z" style="fill:rgb(207,32,154)"/><path d="M-51.20842609136063,-134.57326097039245L-53.797433154404985,-131.53894241919556L-51.56529592661346,-132.14877138720695zM-80.2154592163548,-116.41887782092601L-78.55134852929378,-117.94880954762341L-72.62701080161351,-125.17012419590587zM-41.61916183600748,-136.19386946968822L-46.354596129873286,-135.60007920814502L-51.20842609136063,-134.57326097039245zM-51.20842609136063,-134.57326097039245L-51.56529592661346,-132.14877138720695L-49.3443348196273,-132.66341438095606zM-81.7860159379776,-114.85096967653347L-80.2154592163548,-116.41887782092601L-72.62701080161351,-125.17012419590587zM-80.81857512107607,-118.99337003141449L-84.37239560600409,-115.59560214502154L-87.49175234183444,-112.05516492940633zM-83.2570067652654,-113.25072727491145L-72.62701080161351,-125.17012419590587L-87.49175234183444,-112.05516492940633zM-41.61916183600748,-136.19386946968822L-43.967677506473464,-135.95195417046133L-46.354596129873286,-135.60007920814502zM-83.2570067652654,-113.25072727491145L-81.7860159379776,-114.85096967653347L-72.62701080161351,-125.17012419590587zM-84.37239560600409,-115.59560214502154L-85.98954630596558,-113.84008846240687L-87.49175234183444,-112.05516492940633zM-32.78188349603176,-136.04265498802366L-51.20842609136063,-134.57326097039245L-49.3443348196273,-132.66341438095606zM-32.78188349603176,-136.04265498802366L-41.61916183600748,-136.19386946968822L-51.20842609136063,-134.57326097039245zM-37.07211883534742,-136.34322945739316L-39.317767762876585,-136.3245805650882L-41.61916183600748,-136.19386946968822zM-84.62274017986007,-111.62395377384021L-83.2570067652654,-113.25072727491145L-87.49175234183444,-112.05516492940633zM-32.78188349603176,-136.04265498802366L-49.3443348196273,-132.66341438095606L-47.14268778245856,-133.08079176776246zM-87.49175234183444,-112.05516492940633L-88.8731043557567,-110.24727549597671L-90.12808423770683,-108.42298816375649zM-32.78188349603176,-136.04265498802366L-47.14268778245856,-133.08079176776246L-44.96846627567775,-133.39912820578513zM-85.87785003320917,-109.97656444373908L-84.62274017986007,-111.62395377384021L-87.49175234183444,-112.05516492940633zM-32.78188349603176,-136.04265498802366L-37.07211883534742,-136.34322945739316L-41.61916183600748,-136.19386946968822zM-32.78188349603176,-136.04265498802366L-44.96846627567775,-133.39912820578513L-42.829727367416936,-133.6169876544088zM-87.01730319681204,-108.31459779814595L-85.87785003320917,-109.97656444373908L-87.49175234183444,-112.05516492940633zM-87.49175234183444,-112.05516492940633L-90.12808423770683,-108.42298816375649L-92.23872680642847,-104.75202299811467zM-32.78188349603176,-136.04265498802366L-42.829727367416936,-133.6169876544088L-40.73446177621717,-133.73327656161425zM-32.78188349603176,-136.04265498802366L-34.890707353988624,-136.2492853218091L-37.07211883534742,-136.34322945739316zM-32.78188349603176,-136.04265498802366L-40.73446177621717,-133.73327656161425L-38.69055995830584,-133.74722251899448zM-90.12808423770683,-108.42298816375649L-91.25153353697401,-106.58897991313704L-92.23872680642847,-104.75202299811467zM-32.78188349603176,-136.04265498802366L-38.69055995830584,-133.74722251899448L-36.70578004323211,-133.6584118613918zM-91.00154183305749,-101.7842427501243L-87.01730319681204,-108.31459779814595L-87.49175234183444,-112.05516492940633zM-32.78188349603176,-136.04265498802366L-36.70578004323211,-133.6584118613918L-34.787746169471525,-133.4667942539103zM-87.49175234183444,-112.05516492940633L-92.23872680642847,-104.75202299811467L-94.7460842804212,-97.51203595752007zM-28.81443570133598,-135.29279726384647L-30.75381016992763,-135.72359074422374L-32.78188349603176,-136.04265498802366zM-32.78188349603176,-136.04265498802366L-34.787746169471525,-133.4667942539103L-32.943892445538204,-133.17268201031558z" style="fill:rgb(83,212,212)"/><path d="M-91.00154183305749,-101.7842427501243L-88.03644569910891,-106.64417476294197L-87.01730319681204,-108.31459779814595z" style="fill:rgb(76,212,207)"/><path d="M-88.93104166562958,-104.97144157199162L-88.93100832837851,-104.97149620090059L-88.03644569910891,-106.64417476294197z" style="fill:rgb(90,211,215)"/><path d="M-92.23872680642847,-104.75202299811467L-93.08537177680454,-102.91894566668807L-93.78763828028265,-101.09664783751796zM-91.00154183305749,-101.7842427501243L-87.49175234183444,-112.05516492940633L-94.7460842804212,-97.51203595752007zM-88.93104166562958,-104.97144157199162L-88.03644569910891,-106.64417476294197L-91.00154183305749,-101.7842427501243z" style="fill:rgb(83,212,212)"/><path d="M-88.93100832837851,-104.97149620090059L-88.93104166562958,-104.97144157199162L-89.69713292248987,-103.30283590841522z" style="fill:rgb(87,212,213)"/><path d="M-25.232376671220905,-134.10069900302656L-28.81443570133598,-135.29279726384647L-32.78188349603176,-136.04265498802366zM-91.00154183305749,-101.7842427501243L-89.69713292248987,-103.30283590841522L-88.93104166562958,-104.97144157199162zM-92.23872680642847,-104.75202299811467L-93.78763828028265,-101.09664783751796L-94.7460842804212,-97.51203595752007zM-25.232376671220905,-134.10069900302656L-26.971476085559114,-134.7513343393612L-28.81443570133598,-135.29279726384647zM-91.00154183305749,-101.7842427501243L-91.16393073649319,-100.10803854132483L-89.69713292248987,-103.30283590841522zM-91.16393073649319,-100.10803854132483L-90.3313738550238,-101.6444847431516L-89.69713292248987,-103.30283590841522zM-19.452251783435216,-130.4507273058059L-32.78188349603176,-136.04265498802366L-32.943892445538204,-133.17268201031558zM-93.78763828028265,-101.09664783751796L-94.34215536488443,-99.2920381548509L-94.7460842804212,-97.51203595752007zM-91.16393073649319,-100.10803854132483L-91.24702674684957,-99.25030824481483L-90.3313738550238,-101.6444847431516zM-91.24702674684957,-99.25030824481483L-91.00154183305749,-101.7842427501243L-94.7460842804212,-97.51203595752007zM-90.8307581414387,-100.00269894133145L-90.3313738550238,-101.6444847431516L-91.24702674684957,-99.25030824481483zM-19.452251783435216,-130.4507273058059L-25.232376671220905,-134.10069900302656L-32.78188349603176,-136.04265498802366zM-19.452251783435216,-130.4507273058059L-32.943892445538204,-133.17268201031558L-31.181459496647605,-132.77674735641943zM-91.1927125480974,-98.38399130658904L-90.8307581414387,-100.00269894133145L-91.24702674684957,-99.25030824481483zM-19.452251783435216,-130.4507273058059L-31.181459496647605,-132.77674735641943L-29.50745496992042,-132.28004528745208zM-22.093995969121003,-132.47994167955832L-23.604281248885282,-133.34280440910226L-25.232376671220905,-134.10069900302656zM-91.41524850214661,-96.7944701797957L-91.24702674684957,-99.25030824481483L-94.7460842804212,-97.51203595752007zM-91.41524850214661,-96.7944701797957L-91.1927125480974,-98.38399130658904L-91.24702674684957,-99.25030824481483zM-19.452251783435216,-130.4507273058059L-29.50745496992042,-132.28004528745208L-27.92863404707497,-131.68398353104325zM-94.7460842804212,-97.51203595752007L-94.99708079516309,-95.7635631054737L-95.09335391861498,-94.05347350400368zM-91.49679644623131,-95.24043050607595L-91.41524850214661,-96.7944701797957L-94.7460842804212,-97.51203595752007zM-19.452251783435216,-130.4507273058059L-22.093995969121003,-132.47994167955832L-25.232376671220905,-134.10069900302656zM-19.452251783435216,-130.4507273058059L-27.92863404707497,-131.68398353104325L-26.451459106445615,-130.99036516391573zM-91.43634250108721,-93.72805935487084L-91.49679644623131,-95.24043050607595L-94.7460842804212,-97.51203595752007zM-94.7460842804212,-97.51203595752007L-95.09335391861498,-94.05347350400368L-94.81739301660127,-90.77556376921393zM-19.452251783435216,-130.4507273058059L-26.451459106445615,-130.99036516391573L-25.082084084628598,-130.2013900633288zM-19.452251783435216,-130.4507273058059L-20.70797031754877,-131.5148699677672L-22.093995969121003,-132.47994167955832zM-91.23337316494823,-92.26343304195314L-91.43634250108721,-93.72805935487084L-94.7460842804212,-97.51203595752007zM-19.452251783435216,-130.4507273058059L-25.082084084628598,-130.2013900633288L-23.826317179505622,-129.31959026173192zM-95.09335391861498,-94.05347350400368L-95.03367212634026,-92.38857557903512L-94.81739301660127,-90.77556376921393zM-90.88794205161739,-90.85252370286285L-91.23337316494823,-92.26343304195314L-94.7460842804212,-97.51203595752007zM-19.452251783435216,-130.4507273058059L-23.826317179505622,-129.31959026173192L-22.68959840419369,-128.3479226615427zM-90.40064653028115,-89.50113577792412L-90.88794205161739,-90.85252370286285L-94.7460842804212,-97.51203595752007zM-19.452251783435216,-130.4507273058059L-22.68959840419369,-128.3479226615427L-21.67696488338175,-127.28969121253134zM-89.77266221907811,-88.21491378994511L-90.40064653028115,-89.50113577792412L-94.7460842804212,-97.51203595752007zM-17.35375810171753,-128.0399326611992L-18.33245960359293,-129.29109385577954L-19.452251783435216,-130.4507273058059zM-94.7460842804212,-97.51203595752007L-94.81739301660127,-90.77556376921393L-88.99157375276346,-81.46743442168324zM-94.81739301660127,-90.77556376921393L-94.44444227165182,-89.2210159095524L-93.23138447935008,-86.31287591439178zM-15.837773976794718,-125.28096523297985L-17.35375810171753,-128.0399326611992L-19.452251783435216,-130.4507273058059zM-94.44444227165182,-89.2210159095524L-93.91538497648321,-87.73136868673836L-93.23138447935008,-86.31287591439178zM-89.77266221907811,-88.21491378994511L-94.7460842804212,-97.51203595752007L-88.99157375276346,-81.46743442168324zM-15.837773976794718,-125.28096523297985L-16.52081351431605,-126.7016353943425L-17.35375810171753,-128.0399326611992zM-14.667724748276974,-118.88349448083618L-19.452251783435216,-130.4507273058059L-21.67696488338175,-127.28969121253134zM-14.667724748276974,-118.88349448083618L-21.67696488338175,-127.28969121253134L-20.79302998452598,-126.14858997070283zM-94.81739301660127,-90.77556376921393L-93.23138447935008,-86.31287591439178L-88.99157375276346,-81.46743442168324zM-14.667724748276974,-118.88349448083618L-15.837773976794718,-125.28096523297985L-19.452251783435216,-130.4507273058059zM-14.667724748276974,-118.88349448083618L-20.79302998452598,-126.14858997070283L-20.041950446984707,-124.92863708216852zM-93.23138447935008,-86.31287591439178L-92.39424225090524,-84.97157073827259L-91.40639263999188,-83.71325690638413zM-14.667724748276974,-118.88349448083618L-20.041950446984707,-124.92863708216852L-19.427404586130304,-123.63426095322883zM-14.935210530645723,-122.21358806712905L-15.308234165671307,-123.78311156558642L-15.837773976794718,-125.28096523297985zM-89.00571980626255,-86.99930621884374L-89.77266221907811,-88.21491378994511L-88.99157375276346,-81.46743442168324zM-93.23138447935008,-86.31287591439178L-91.40639263999188,-83.71325690638413L-88.99157375276346,-81.46743442168324zM-14.667724748276974,-118.88349448083618L-19.427404586130304,-123.63426095322883L-18.952558523911975,-122.27019989668287zM-88.10213320661803,-85.8595269171658L-89.00571980626255,-86.99930621884374L-88.99157375276346,-81.46743442168324zM-14.667724748276974,-118.88349448083618L-14.935210530645723,-122.21358806712905L-15.837773976794718,-125.28096523297985zM-14.667724748276974,-118.88349448083618L-18.952558523911975,-122.27019989668287L-18.620056045368383,-120.84152072986252zM-87.06479265880272,-84.80054843092915L-88.10213320661803,-85.8595269171658L-88.99157375276346,-81.46743442168324zM-91.40639263999188,-83.71325690638413L-90.27093272174564,-82.54347364051442L-88.99157375276346,-81.46743442168324zM-14.667724748276974,-118.88349448083618L-18.620056045368383,-120.84152072986252L-18.431981093515397,-119.35362639467512zM-85.89717982931982,-83.82705665443846L-87.06479265880272,-84.80054843092915L-88.99157375276346,-81.46743442168324zM-14.667724748276974,-118.88349448083618L-14.721114714751963,-120.5783094803028L-14.935210530645723,-122.21358806712905zM-14.667724748276974,-118.88349448083618L-18.431981093515397,-119.35362639467512L-18.389847488153713,-117.81221739301799zM-84.60333979208343,-82.94343019404445L-85.89717982931982,-83.82705665443846L-88.99157375276346,-81.46743442168324zM-14.667724748276974,-118.88349448083618L-18.389847488153713,-117.81221739301799L-18.494577373777158,-116.22325536755358zM-83.18788516765869,-82.15371464998823L-84.60333979208343,-82.94343019404445L-88.99157375276346,-81.46743442168324zM-88.99157375276346,-81.46743442168324L-87.57268908275465,-80.49005482076988L-86.01928710100817,-79.61585999563657zM-81.65600398981515,-81.46161638497658L-83.18788516765869,-82.15371464998823L-88.99157375276346,-81.46743442168324zM-15.046899839963583,-115.34179650397105L-14.776168262086674,-117.1357098709984L-14.667724748276974,-118.88349448083618zM-80.01340720633259,-80.8704447812703L-81.65600398981515,-81.46161638497658L-88.99157375276346,-81.46743442168324zM-88.99157375276346,-81.46743442168324L-86.01928710100817,-79.61585999563657L-82.53204852245956,-78.19324342367915zM-78.2663623909501,-80.38311162575035L-80.01340720633259,-80.8704447812703L-88.99157375276346,-81.46743442168324zM-16.073595074263924,-111.64436529137046L-15.046899839963583,-115.34179650397105L-14.667724748276974,-118.88349448083618zM-76.42169781068151,-80.00211762306259L-78.2663623909501,-80.38311162575035L-88.99157375276346,-81.46743442168324zM-86.01928710100817,-79.61585999563657L-84.33698730558629,-78.84901028309311L-82.53204852245956,-78.19324342367915zM-20.016737934331847,-104.02405267321407L-14.667724748276974,-118.88349448083618L-18.494577373777158,-116.22325536755358zM-74.48645834586956,-79.72947725328895L-76.42169781068151,-80.00211762306259L-88.99157375276346,-81.46743442168324zM-16.073595074263924,-111.64436529137046L-15.479687732962905,-113.50889481727286L-15.046899839963583,-115.34179650397105zM-20.016737934331847,-104.02405267321407L-18.494577373777158,-116.22325536755358L-18.746483446165566,-114.59298965980135zM-88.99157375276346,-81.46743442168324L-82.53204852245956,-78.19324342367915L-74.23113579788702,-76.739603490976zM-20.016737934331847,-104.02405267321407L-18.746483446165566,-114.59298965980135L-19.145257572157487,-112.92788099478217zM-20.016737934331847,-104.02405267321407L-16.073595074263924,-111.64436529137046L-14.667724748276974,-118.88349448083618zM-74.48645834586956,-79.72947725328895L-88.99157375276346,-81.46743442168324L-74.23113579788702,-76.739603490976z" style="fill:rgb(83,212,212)"/><path d="M-78.2663623909501,-80.38311162575035L-76.42169781068151,-80.00211762306259L-76.4216329044079,-80.00210644498247z" style="fill:rgb(47,100,222)"/><path d="M-20.016737934331847,-104.02405267321407L-19.145257572157487,-112.92788099478217L-19.689962939837894,-111.23462840052318zM-82.53204852245956,-78.19324342367915L-80.61129960884922,-77.65183484859605L-78.58216661117338,-77.22762683988674zM-20.016737934331847,-104.02405267321407L-19.689962939837894,-111.23462840052318L-20.379017918854114,-109.52009716045553zM-17.737464639451506,-107.85091811172883L-16.826975651202915,-109.75578285287686L-16.073595074263924,-111.64436529137046zM-82.53204852245956,-78.19324342367915L-78.58216661117338,-77.22762683988674L-74.23113579788702,-76.739603490976zM-20.016737934331847,-104.02405267321407L-20.379017918854114,-109.52009716045553L-21.210206839822767,-107.79130782191805zM-20.016737934331847,-104.02405267321407L-17.737464639451506,-107.85091811172883L-16.073595074263924,-111.64436529137046zM-20.016737934331847,-104.02405267321407L-21.210206839822767,-107.79130782191805L-22.180665228443598,-106.05540028192435zM-72.4685527969985,-79.56680871009222L-74.48645834586956,-79.72947725328895L-74.23113579788702,-76.739603490976zM-78.58216661117338,-77.22762683988674L-76.4526149542572,-76.9229365581294L-74.23113579788702,-76.739603490976zM-20.016737934331847,-104.02405267321407L-22.180665228443598,-106.05540028192435L-23.286894020139613,-104.31960896537018zM-70.37605809211006,-79.51520374182114L-72.4685527969985,-79.56680871009222L-74.23113579788702,-76.739603490976zM-20.016737934331847,-104.02405267321407L-18.801985495918846,-105.93766830038597L-17.737464639451506,-107.85091811172883zM-20.016737934331847,-104.02405267321407L-23.286894020139613,-104.31960896537018L-24.52476021284997,-102.59123215351732zM-68.21749349734809,-79.57529490991202L-70.37605809211006,-79.51520374182114L-74.23113579788702,-76.739603490976zM-66.00175238872947,-79.74721536379957L-68.21749349734809,-79.57529490991202L-74.23113579788702,-76.739603490976zM-63.73802462149349,-80.0305726686443L-66.00175238872947,-79.74721536379957L-74.23113579788702,-76.739603490976zM-74.23113579788702,-76.739603490976L-71.92669116284061,-76.67891451660795L-69.54870236023119,-76.7416143925882zM-61.43579176814059,-80.42449486369156L-63.73802462149349,-80.0305726686443L-74.23113579788702,-76.739603490976zM-22.878217181678526,-100.22809280201622L-21.37721506355652,-102.11815772244948L-20.016737934331847,-104.02405267321407zM-59.10474694946656,-80.92757738206966L-61.43579176814059,-80.42449486369156L-74.23113579788702,-76.739603490976zM-74.23113579788702,-76.739603490976L-69.54870236023119,-76.7416143925882L-64.61178031958806,-77.23744349749315zM-56.75476805305434,-81.5379315353836L-59.10474694946656,-80.92757738206966L-74.23113579788702,-76.739603490976zM-34.46159624312897,-89.6675158688733L-20.016737934331847,-104.02405267321407L-24.52476021284997,-102.59123215351732zM-34.46159624312897,-89.6675158688733L-24.52476021284997,-102.59123215351732L-25.889516243861603,-100.8775782232299zM-26.277621107717472,-96.52780448369971L-22.878217181678526,-100.22809280201622L-20.016737934331847,-104.02405267321407zM-34.46159624312897,-89.6675158688733L-25.889516243861603,-100.8775782232299L-27.375807399533073,-99.18592975651741zM-69.54870236023119,-76.7416143925882L-67.10700803280315,-76.9279122087737L-64.61178031958806,-77.23744349749315zM-56.75476805305434,-81.5379315353836L-74.23113579788702,-76.739603490976L-54.3091805029689,-79.68056503436144zM-34.46159624312897,-89.6675158688733L-27.375807399533073,-99.18592975651741L-28.977699771958743,-97.52353412970791zM-74.23113579788702,-76.739603490976L-64.61178031958806,-77.23744349749315L-54.3091805029689,-79.68056503436144zM-26.277621107717472,-96.52780448369971L-24.513866365754804,-98.36196281037418L-22.878217181678526,-100.22809280201622zM-34.46159624312897,-89.6675158688733L-26.277621107717472,-96.52780448369971L-20.016737934331847,-104.02405267321407zM-34.46159624312897,-89.6675158688733L-28.977699771958743,-97.52353412970791L-30.688696540025504,-95.89752310324143z" style="fill:rgb(83,212,212)"/><path d="M-36.403612196440754,-91.30710281314667L-36.40354212673755,-91.30714780932564L-34.40940986016645,-92.782562061207z" style="fill:rgb(129,165,249)"/><path d="M-34.46159624312897,-89.6675158688733L-30.688696540025504,-95.89752310324143L-32.50177579200779,-94.31491592214378zM-64.61178031958806,-77.23744349749315L-62.073531907050786,-77.66926410717467L-59.50301174847246,-78.22186032898107zM-34.46159624312897,-89.6675158688733L-32.50177579200779,-94.31491592214378L-34.40940986016645,-92.782562061207zM-54.39584992200217,-82.2531438893928L-56.75476805305434,-81.5379315353836L-54.3091805029689,-79.68056503436144zM-34.46159624312897,-89.6675158688733L-34.40940986016645,-92.782562061207L-36.40354212673755,-91.30714780932564zM-30.160189226732818,-92.98706825627231L-28.16231842194131,-94.73356726274294L-26.277621107717472,-96.52780448369971zM-52.03807558867513,-83.0703322820485L-54.39584992200217,-82.2531438893928L-54.3091805029689,-79.68056503436144z" style="fill:rgb(83,212,212)"/><path d="M-34.46159624312897,-89.6675158688733L-36.40354212673755,-91.30714780932564L-36.403612196440754,-91.30710281314667z" style="fill:rgb(87,215,211)"/><path d="M-34.46159624312897,-89.6675158688733L-36.403612196440754,-91.30710281314667L-38.47596933367895,-89.89492451982137zM-54.3091805029689,-79.68056503436144L-49.69154545909639,-83.98613043116697L-52.03807558867513,-83.0703322820485zM-64.61178031958806,-77.23744349749315L-59.50301174847246,-78.22186032898107L-54.3091805029689,-79.68056503436144zM-54.3091805029689,-79.68056503436144L-38.47596933367895,-89.89492451982137L-40.61769394043642,-88.55215289160367zM-54.3091805029689,-79.68056503436144L-47.366329995676814,-84.99669846465302L-49.69154545909639,-83.98613043116697zM-54.3091805029689,-79.68056503436144L-40.61769394043642,-88.55215289160367L-42.81964572959384,-87.28461201105878zM-54.3091805029689,-79.68056503436144L-45.072411864489624,-86.09776076709518L-47.366329995676814,-84.99669846465302zM-54.3091805029689,-79.68056503436144L-42.81964572959384,-87.28461201105878L-45.072411864489624,-86.09776076709518zM-34.46159624312897,-89.6675158688733L-30.160189226732818,-92.98706825627231L-26.277621107717472,-96.52780448369971zM-54.3091805029689,-79.68056503436144L-34.46159624312897,-89.6675158688733L-38.47596933367895,-89.89492451982137zM-59.50301174847246,-78.22186032898107L-56.91119339724237,-78.89317684736329L-54.3091805029689,-79.68056503436144zM-34.46159624312897,-89.6675158688733L-32.2629009103322,-91.29591340676936L-30.160189226732818,-92.98706825627231zM-54.3091805029689,-79.68056503436144L-51.708184885088265,-80.58083149237005L-49.11943080559783,-81.590251551414zM-54.3091805029689,-79.68056503436144L-44.023381694755415,-83.91906767474647L-34.46159624312897,-89.6675158688733zM-39.109181759634474,-86.62714776907731L-36.74694528448594,-88.10898260141374L-34.46159624312897,-89.6675158688733zM-54.3091805029689,-79.68056503436144L-49.11943080559783,-81.590251551414L-44.023381694755415,-83.91906767474647zM-44.023381694755415,-83.91906767474647L-39.109181759634474,-86.62714776907731L-34.46159624312897,-89.6675158688733zM-49.11943080559783,-81.590251551414L-46.55412713333121,-82.70458820474005L-44.023381694755415,-83.91906767474647zM-44.023381694755415,-83.91906767474647L-41.538150254882524,-85.2284809754673L-39.109181759634474,-86.62714776907731z" style="fill:rgb(83,212,212)"/></svg>
